<svg width="111" height="111" viewBox="0 0 111 111" fill="none" xmlns="http://www.w3.org/2000/svg">
<path d="M55.5017 0.291794C62.7519 0.291794 69.9312 1.71984 76.6296 4.49439C83.3279 7.26894 89.4142 11.3357 94.5409 16.4624C99.6676 21.5891 103.734 27.6754 106.509 34.3737C109.283 41.0721 110.711 48.2513 110.711 55.5016C110.711 70.1442 104.895 84.187 94.5409 94.5408C84.1871 104.895 70.1442 110.711 55.5017 110.711C48.2514 110.711 41.0722 109.283 34.3738 106.509C27.6754 103.734 21.5892 99.6675 16.4624 94.5408C6.1086 84.187 0.29187 70.1442 0.29187 55.5016C0.29187 40.8591 6.1086 26.8162 16.4624 16.4624C26.8163 6.10852 40.8591 0.291794 55.5017 0.291794ZM55.5017 11.3338C32.9761 11.3338 14.3704 28.1727 11.6651 49.9806H34.1355C36.5647 40.4293 45.2327 33.4177 55.5017 33.4177C65.7707 33.4177 74.4386 40.4293 76.8679 49.9806H99.3383C96.633 28.1727 78.0273 11.3338 55.5017 11.3338ZM55.5017 99.6694C78.0273 99.6694 96.633 82.8305 99.3383 61.0226H76.8679C74.4386 70.5739 65.7707 77.5855 55.5017 77.5855C45.2327 77.5855 36.5647 70.5739 34.1355 61.0226H11.6651C14.3704 82.8305 32.9761 99.6694 55.5017 99.6694ZM55.5017 44.4596C52.5732 44.4596 49.7646 45.623 47.6938 47.6938C45.6231 49.7645 44.4597 52.5731 44.4597 55.5016C44.4597 58.4301 45.6231 61.2387 47.6938 63.3094C49.7646 65.3802 52.5732 66.5436 55.5017 66.5436C58.4302 66.5436 61.2388 65.3802 63.3095 63.3094C65.3803 61.2387 66.5436 58.4301 66.5436 55.5016C66.5436 52.5731 65.3803 49.7645 63.3095 47.6938C61.2388 45.623 58.4302 44.4596 55.5017 44.4596Z" fill="#D9E7FD" fill-opacity="0.6"/>
</svg>
