<svg width="79" height="118" viewBox="0 0 79 118" fill="none" xmlns="http://www.w3.org/2000/svg">
<path d="M75.7337 0.679611H2.50132C1.15205 0.679611 0.0602417 1.77142 0.0602417 3.12069V115.41C0.0602417 116.76 1.15205 117.851 2.50132 117.851H75.7337C77.083 117.851 78.1748 116.76 78.1748 115.41V3.12069C78.1748 1.77142 77.083 0.679611 75.7337 0.679611ZM73.2926 34.8547V39.7369H68.4105V98.3228H73.2926V103.205H68.4105V112.969H63.5283V25.0904H52.5077C49.2489 25.0904 46.1833 26.3586 43.8757 28.6662L37.8111 34.7308C34.581 37.9585 30.29 39.7369 25.7273 39.7369H4.9424V34.8547H25.7273C28.9861 34.8547 32.0517 33.5865 34.3593 31.2789L40.4239 25.2144C43.654 21.9866 47.945 20.2082 52.5077 20.2082H73.2926V25.0904H68.4105V34.8547H73.2926ZM9.82456 76.3531V66.5887C9.82456 65.6018 10.4181 64.7103 11.3312 64.3336C12.2466 63.9665 13.2931 64.162 13.9916 64.8628L18.8737 69.745C19.8273 70.6985 19.8273 72.2433 18.8737 73.1968L13.9916 78.079C13.5243 78.5462 12.8997 78.7941 12.2656 78.7941C11.951 78.7941 11.6339 78.7322 11.3312 78.6082C10.4181 78.2315 9.82456 77.34 9.82456 76.3531ZM24.471 105.646C24.471 104.297 25.5628 103.205 26.9121 103.205H51.3229C52.6722 103.205 53.764 104.297 53.764 105.646C53.764 106.995 52.6722 108.087 51.3229 108.087H26.9121C25.5628 108.087 24.471 106.995 24.471 105.646ZM58.6461 12.885C58.6461 14.2331 57.5531 15.3261 56.2051 15.3261C54.857 15.3261 53.764 14.2331 53.764 12.885C53.764 11.5366 54.857 10.4439 56.2051 10.4439C57.5531 10.4439 58.6461 11.5366 58.6461 12.885ZM48.8818 12.885C48.8818 14.2331 47.7888 15.3261 46.4407 15.3261C45.0927 15.3261 43.9997 14.2331 43.9997 12.885C43.9997 11.5366 45.0927 10.4439 46.4407 10.4439C47.7888 10.4439 48.8818 11.5366 48.8818 12.885ZM39.1175 12.885C39.1175 14.2331 38.0245 15.3261 36.6764 15.3261C35.3283 15.3261 34.2353 14.2331 34.2353 12.885C34.2353 11.5366 35.3283 10.4439 36.6764 10.4439C38.0245 10.4439 39.1175 11.5366 39.1175 12.885ZM29.3532 20.2082C29.3532 25.591 24.974 29.9726 19.5889 29.9726C14.2037 29.9726 9.82456 25.591 9.82456 20.2082C9.82456 14.8255 14.2037 10.4439 19.5889 10.4439C24.974 10.4439 29.3532 14.8255 29.3532 20.2082Z" fill="#FFDADA" fill-opacity="0.6"/>
</svg>
