<svg width="266" height="268" viewBox="0 0 266 268" fill="none" xmlns="http://www.w3.org/2000/svg">
<path d="M266 135C266 170.274 251.988 204.103 227.045 229.045C202.103 253.988 168.274 268 133 268C97.7262 268 63.8971 253.988 38.9548 229.045C14.0125 204.103 5.3262e-06 170.274 0 135L133 135H266Z" fill="#F3F3F3"/>
<ellipse rx="133" ry="58" transform="matrix(1 0 0 -1 133 134)" fill="#5B5B5B"/>
<ellipse rx="86" ry="38" transform="matrix(1 0 0 -1 133 134)" fill="#242424"/>
<mask id="mask0_16_54" style="mask-type:alpha" maskUnits="userSpaceOnUse" x="0" y="0" width="266" height="192">
<path d="M227.045 38.9548C252.191 64.1009 266 98.5328 266 134C266 166.033 206.454 192 133 192C59.5461 192 0 166.033 0 134C0 98.5328 13.8087 64.1009 38.9548 38.9548C63.8971 14.0125 97.7262 -3.8147e-06 133 0C168.274 3.8147e-06 202.103 14.0125 227.045 38.9548Z" fill="#F22424"/>
</mask>
<g mask="url(#mask0_16_54)">
<path d="M227.045 38.9548C252.191 64.1009 266 98.5328 266 134C266 166.033 206.454 192 133 192C59.5461 192 0 166.033 0 134C0 98.5328 13.8087 64.1009 38.9548 38.9548C63.8971 14.0125 97.7262 -3.8147e-06 133 0C168.274 3.8147e-06 202.103 14.0125 227.045 38.9548Z" fill="#F22424"/>
<path fill-rule="evenodd" clip-rule="evenodd" d="M-2 127.5C-2 131.192 1.37753 135.219 6.5 140.5C11.6822 145.843 33.0948 158.274 44.1513 163.096C66.2247 172.722 97.6275 179 133 179C168.372 179 199.775 172.722 221.849 163.096C235.934 156.953 257.999 142.335 266 129C272 119 263.5 102 263.5 102L279 121V134C279 146.324 273.218 157.03 264.88 165.627C256.602 174.162 245.253 181.254 232.242 186.928C206.179 198.294 171.081 205 133 205C94.9186 205 59.8215 198.294 33.7583 186.928C20.7465 181.254 9.39819 174.162 1.12005 165.627C-7.21782 157.03 -13 146.324 -13 134V121L-2 127.5Z" fill="#393939"/>
</g>
<ellipse cx="133" cy="188" rx="42" ry="39" fill="#393939"/>
<ellipse cx="133" cy="189" rx="30" ry="26" fill="#F3F3F3"/>
</svg>
