<svg width="133" height="52" viewBox="0 0 133 52" fill="none" xmlns="http://www.w3.org/2000/svg">
<g filter="url(#filter0_d_23_482)">
<rect x="3" y="3" width="127" height="46" rx="23" fill="url(#paint0_linear_23_482)"/>
<rect x="4.5" y="4.5" width="124" height="43" rx="21.5" stroke="white" stroke-width="3"/>
</g>
<path d="M29.96 16.352H36.204C38.0147 16.352 39.4427 16.7907 40.488 17.668C41.552 18.5267 42.084 19.7027 42.084 21.196C42.084 22.8947 41.3467 24.2013 39.872 25.116C41.832 25.9 42.812 27.2813 42.812 29.26C42.812 30.38 42.532 31.3787 41.972 32.256C41.412 33.1147 40.628 33.7867 39.62 34.272C38.6307 34.7573 37.5107 35 36.26 35H29.96V16.352ZM35.252 23.94C36.1853 23.94 36.904 23.7253 37.408 23.296C37.9307 22.8667 38.192 22.2693 38.192 21.504C38.192 20.1227 37.3333 19.432 35.616 19.432H33.852V23.94H35.252ZM35.644 31.892C36.652 31.892 37.436 31.6587 37.996 31.192C38.5747 30.7253 38.864 30.1 38.864 29.316C38.864 28.6067 38.6213 28.056 38.136 27.664C37.6507 27.272 36.9507 27.076 36.036 27.076H33.852V31.892H35.644ZM65.1654 35.364C63.6161 35.364 62.2534 35.0373 61.0774 34.384C59.9014 33.7307 58.9867 32.816 58.3334 31.64C57.6987 30.4453 57.3814 29.0733 57.3814 27.524V16.352H61.4694V27.216C61.4694 28.5973 61.7961 29.6987 62.4494 30.52C63.1214 31.3227 64.0267 31.724 65.1654 31.724C66.3041 31.724 67.2094 31.3227 67.8814 30.52C68.5534 29.6987 68.8894 28.5973 68.8894 27.216V16.352H72.9494V27.524C72.9494 29.0733 72.6227 30.4453 71.9694 31.64C71.3347 32.816 70.4294 33.7307 69.2534 34.384C68.0774 35.0373 66.7147 35.364 65.1654 35.364ZM97.9002 35.42C95.8282 35.42 94.0362 35.056 92.5242 34.328C91.0309 33.5813 89.8829 32.5173 89.0802 31.136C88.2776 29.7547 87.8762 28.112 87.8762 26.208C87.8762 24.2107 88.2962 22.4467 89.1362 20.916C89.9949 19.3853 91.1896 18.2 92.7202 17.36C94.2696 16.52 96.0522 16.1 98.0682 16.1C99.2256 16.1 100.318 16.2307 101.344 16.492C102.39 16.7533 103.314 17.1267 104.116 17.612L103.136 20.972C102.408 20.524 101.596 20.1787 100.7 19.936C99.8042 19.6747 98.9269 19.544 98.0682 19.544C96.8362 19.544 95.7442 19.8147 94.7922 20.356C93.8589 20.8787 93.1309 21.6253 92.6082 22.596C92.1042 23.548 91.8522 24.6587 91.8522 25.928C91.8522 27.7947 92.4122 29.2693 93.5322 30.352C94.6709 31.416 96.2202 31.948 98.1802 31.948C98.9642 31.948 99.6922 31.892 100.364 31.78V27.916H98.0122V24.64H104.088V34.328C102.166 35.056 100.103 35.42 97.9002 35.42Z" fill="white"/>
<path d="M29.96 16.352V15.352H28.96V16.352H29.96ZM40.488 17.668L39.8451 18.434L39.8525 18.4402L39.86 18.4462L40.488 17.668ZM39.872 25.116L39.3449 24.2662L37.663 25.3094L39.5006 26.0445L39.872 25.116ZM41.972 32.256L42.8097 32.8023L42.8149 32.794L41.972 32.256ZM39.62 34.272L39.1862 33.371L39.1796 33.3742L39.62 34.272ZM29.96 35H28.96V36H29.96V35ZM37.408 23.296L36.7733 22.5233L36.7663 22.529L36.7595 22.5348L37.408 23.296ZM33.852 19.432V18.432H32.852V19.432H33.852ZM33.852 23.94H32.852V24.94H33.852V23.94ZM37.996 31.192L37.3682 30.4136L37.362 30.4186L37.3558 30.4238L37.996 31.192ZM38.136 27.664L38.7643 26.8861L38.136 27.664ZM33.852 27.076V26.076H32.852V27.076H33.852ZM33.852 31.892H32.852V32.892H33.852V31.892ZM29.96 17.352H36.204V15.352H29.96V17.352ZM36.204 17.352C37.8571 17.352 39.0315 17.7511 39.8451 18.434L41.1309 16.902C39.8538 15.8302 38.1723 15.352 36.204 15.352V17.352ZM39.86 18.4462C40.6651 19.0959 41.084 19.9731 41.084 21.196H43.084C43.084 19.4322 42.4389 17.9574 41.116 16.8898L39.86 18.4462ZM41.084 21.196C41.084 22.5396 40.5333 23.5291 39.3449 24.2662L40.3991 25.9658C42.1601 24.8736 43.084 23.2497 43.084 21.196H41.084ZM39.5006 26.0445C40.346 26.3826 40.9073 26.8195 41.2614 27.3186C41.6122 27.8131 41.812 28.4421 41.812 29.26H43.812C43.812 28.0993 43.5218 27.0483 42.8926 26.1614C42.2667 25.2792 41.358 24.6334 40.2434 24.1875L39.5006 26.0445ZM41.812 29.26C41.812 30.2045 41.5787 31.0136 41.1291 31.718L42.8149 32.794C43.4853 31.7437 43.812 30.5555 43.812 29.26H41.812ZM41.1344 31.7097C40.6831 32.4017 40.0453 32.9574 39.1862 33.371L40.0538 35.173C41.2107 34.616 42.1409 33.8276 42.8096 32.8023L41.1344 31.7097ZM39.1796 33.3742C38.3448 33.7837 37.3787 34 36.26 34V36C37.6426 36 38.9166 35.7309 40.0604 35.1698L39.1796 33.3742ZM36.26 34H29.96V36H36.26V34ZM30.96 35V16.352H28.96V35H30.96ZM35.252 24.94C36.3267 24.94 37.3097 24.6934 38.0565 24.0572L36.7595 22.5348C36.4983 22.7573 36.044 22.94 35.252 22.94V24.94ZM38.0427 24.0687C38.8288 23.423 39.192 22.5243 39.192 21.504H37.192C37.192 22.0144 37.0325 22.3103 36.7733 22.5233L38.0427 24.0687ZM39.192 21.504C39.192 20.5945 38.8986 19.753 38.1748 19.1708C37.4925 18.622 36.5825 18.432 35.616 18.432V20.432C36.3669 20.432 36.7448 20.5873 36.9212 20.7292C37.0561 20.8377 37.192 21.0322 37.192 21.504H39.192ZM35.616 18.432H33.852V20.432H35.616V18.432ZM32.852 19.432V23.94H34.852V19.432H32.852ZM33.852 24.94H35.252V22.94H33.852V24.94ZM35.644 32.892C36.797 32.892 37.8383 32.6251 38.6362 31.9602L37.3558 30.4238C37.0337 30.6922 36.507 30.892 35.644 30.892V32.892ZM38.6238 31.9704C39.4522 31.3023 39.864 30.3834 39.864 29.316H37.864C37.864 29.8166 37.6971 30.1484 37.3682 30.4136L38.6238 31.9704ZM39.864 29.316C39.864 28.3512 39.5188 27.4954 38.7643 26.8861L37.5077 28.4419C37.7239 28.6166 37.864 28.8621 37.864 29.316H39.864ZM38.7643 26.8861C38.0347 26.2967 37.0762 26.076 36.036 26.076V28.076C36.8251 28.076 37.2666 28.2473 37.5077 28.4419L38.7643 26.8861ZM36.036 26.076H33.852V28.076H36.036V26.076ZM32.852 27.076V31.892H34.852V27.076H32.852ZM33.852 32.892H35.644V30.892H33.852V32.892ZM61.0774 34.384L60.5918 35.2582L61.0774 34.384ZM58.3334 31.64L57.4503 32.1092L57.4547 32.1174L57.4592 32.1256L58.3334 31.64ZM57.3814 16.352V15.352H56.3814V16.352H57.3814ZM61.4694 16.352H62.4694V15.352H61.4694V16.352ZM62.4494 30.52L61.6668 31.1425L61.6746 31.1523L61.6826 31.1619L62.4494 30.52ZM67.8814 30.52L68.6482 31.162L68.6554 31.1532L67.8814 30.52ZM68.8894 16.352V15.352H67.8894V16.352H68.8894ZM72.9494 16.352H73.9494V15.352H72.9494V16.352ZM71.9694 31.64L71.092 31.1602L71.0894 31.1651L71.9694 31.64ZM69.2534 34.384L68.7678 33.5098L69.2534 34.384ZM65.1654 34.364C63.76 34.364 62.5693 34.0689 61.563 33.5098L60.5918 35.2582C61.9375 36.0058 63.4722 36.364 65.1654 36.364V34.364ZM61.563 33.5098C60.5503 32.9472 59.7702 32.1671 59.2076 31.1544L57.4592 32.1256C58.2033 33.4649 59.2525 34.5141 60.5918 35.2582L61.563 33.5098ZM59.2165 31.1708C58.6691 30.1404 58.3814 28.9337 58.3814 27.524H56.3814C56.3814 29.213 56.7284 30.7502 57.4503 32.1092L59.2165 31.1708ZM58.3814 27.524V16.352H56.3814V27.524H58.3814ZM57.3814 17.352H61.4694V15.352H57.3814V17.352ZM60.4694 16.352V27.216H62.4694V16.352H60.4694ZM60.4694 27.216C60.4694 28.7516 60.8337 30.0952 61.6668 31.1425L63.232 29.8975C62.7584 29.3021 62.4694 28.4431 62.4694 27.216H60.4694ZM61.6826 31.1619C62.5628 32.2132 63.7602 32.724 65.1654 32.724V30.724C64.2932 30.724 63.68 30.4321 63.2162 29.8781L61.6826 31.1619ZM65.1654 32.724C66.5706 32.724 67.768 32.2132 68.6482 31.1619L67.1147 29.8781C66.6508 30.4321 66.0376 30.724 65.1654 30.724V32.724ZM68.6554 31.1532C69.5127 30.1054 69.8894 28.7577 69.8894 27.216H67.8894C67.8894 28.437 67.5941 29.2919 67.1074 29.8868L68.6554 31.1532ZM69.8894 27.216V16.352H67.8894V27.216H69.8894ZM68.8894 17.352H72.9494V15.352H68.8894V17.352ZM71.9494 16.352V27.524H73.9494V16.352H71.9494ZM71.9494 27.524C71.9494 28.929 71.6544 30.1319 71.092 31.1602L72.8468 32.1198C73.5911 30.7588 73.9494 29.2176 73.9494 27.524H71.9494ZM71.0894 31.1651C70.546 32.1719 69.7781 32.9486 68.7678 33.5098L69.739 35.2582C71.0807 34.5128 72.1235 33.4601 72.8494 32.1149L71.0894 31.1651ZM68.7678 33.5098C67.7615 34.0689 66.5708 34.364 65.1654 34.364V36.364C66.8586 36.364 68.3933 36.0058 69.739 35.2582L68.7678 33.5098ZM92.5242 34.328L92.077 35.2224L92.0837 35.2258L92.0904 35.229L92.5242 34.328ZM89.0802 31.136L89.9449 30.6336L89.0802 31.136ZM89.1362 20.916L88.2641 20.4267L88.2596 20.4349L89.1362 20.916ZM92.7203 17.36L92.2436 16.4809L92.2392 16.4833L92.7203 17.36ZM101.344 16.492L101.098 17.4611L101.102 17.4621L101.344 16.492ZM104.116 17.612L105.076 17.892L105.291 17.154L104.634 16.7563L104.116 17.612ZM103.136 20.972L102.612 21.8237L103.729 22.511L104.096 21.252L103.136 20.972ZM100.7 19.936L100.42 20.896L100.43 20.8987L100.439 20.9012L100.7 19.936ZM94.7923 20.356L95.2809 21.2285L95.2866 21.2253L94.7923 20.356ZM92.6082 22.596L91.7278 22.1219L91.7245 22.1281L92.6082 22.596ZM93.5322 30.352L92.8372 31.071L92.8433 31.0769L92.8495 31.0827L93.5322 30.352ZM100.364 31.78L100.529 32.7664L101.364 32.6271V31.78H100.364ZM100.364 27.916H101.364V26.916H100.364V27.916ZM98.0123 27.916H97.0123V28.916H98.0123V27.916ZM98.0123 24.64V23.64H97.0123V24.64H98.0123ZM104.088 24.64H105.088V23.64H104.088V24.64ZM104.088 34.328L104.442 35.2632L105.088 35.0186V34.328H104.088ZM97.9003 34.42C95.944 34.42 94.3068 34.0764 92.9581 33.427L92.0904 35.229C93.7657 36.0356 95.7125 36.42 97.9003 36.42V34.42ZM92.9715 33.4336C91.6442 32.77 90.645 31.8385 89.9449 30.6336L88.2156 31.6384C89.1208 33.1961 90.4176 34.3927 92.077 35.2224L92.9715 33.4336ZM89.9449 30.6336C89.2465 29.4318 88.8762 27.9695 88.8762 26.208H86.8762C86.8762 28.2545 87.3087 30.0776 88.2156 31.6384L89.9449 30.6336ZM88.8762 26.208C88.8762 24.3544 89.2648 22.7603 90.0129 21.3971L88.2596 20.4349C87.3277 22.1331 86.8762 24.067 86.8762 26.208H88.8762ZM90.0084 21.4053C90.776 20.0369 91.8356 18.9862 93.2013 18.2367L92.2392 16.4833C90.5436 17.4138 89.2138 18.7338 88.2641 20.4267L90.0084 21.4053ZM93.1969 18.2391C94.58 17.4892 96.1945 17.1 98.0683 17.1V15.1C95.91 15.1 93.9592 15.5508 92.2436 16.4809L93.1969 18.2391ZM98.0683 17.1C99.15 17.1 100.159 17.2221 101.098 17.4611L101.591 15.5229C100.477 15.2393 99.3012 15.1 98.0683 15.1V17.1ZM101.102 17.4621C102.064 17.7028 102.893 18.0411 103.599 18.4677L104.634 16.7563C103.734 16.2123 102.715 15.8039 101.587 15.5219L101.102 17.4621ZM103.156 17.332L102.176 20.692L104.096 21.252L105.076 17.892L103.156 17.332ZM103.66 20.1203C102.844 19.618 101.942 19.2364 100.962 18.9708L100.439 20.9012C101.25 21.121 101.973 21.43 102.612 21.8237L103.66 20.1203ZM100.98 18.976C100.001 18.6904 99.0295 18.544 98.0683 18.544V20.544C98.8243 20.544 99.6074 20.6589 100.42 20.896L100.98 18.976ZM98.0683 18.544C96.685 18.544 95.4187 18.8494 94.298 19.4867L95.2866 21.2253C96.0698 20.7799 96.9875 20.544 98.0683 20.544V18.544ZM94.3036 19.4835C93.1992 20.102 92.3376 20.9893 91.7278 22.1219L93.4887 23.0701C93.9242 22.2614 94.5186 21.6554 95.2809 21.2285L94.3036 19.4835ZM91.7245 22.1281C91.1316 23.2479 90.8522 24.5246 90.8522 25.928H92.8522C92.8522 24.7927 93.0769 23.8481 93.492 23.0639L91.7245 22.1281ZM90.8522 25.928C90.8522 28.0079 91.4843 29.7631 92.8372 31.071L94.2273 29.633C93.3402 28.7755 92.8522 27.5814 92.8522 25.928H90.8522ZM92.8495 31.0827C94.2178 32.3612 96.0349 32.948 98.1803 32.948V30.948C96.4056 30.948 95.124 30.4708 94.215 29.6213L92.8495 31.0827ZM98.1803 32.948C99.0113 32.948 99.7949 32.8887 100.529 32.7664L100.2 30.7936C99.5896 30.8953 98.9172 30.948 98.1803 30.948V32.948ZM101.364 31.78V27.916H99.3643V31.78H101.364ZM100.364 26.916H98.0123V28.916H100.364V26.916ZM99.0123 27.916V24.64H97.0123V27.916H99.0123ZM98.0123 25.64H104.088V23.64H98.0123V25.64ZM103.088 24.64V34.328H105.088V24.64H103.088ZM103.734 33.3928C101.932 34.075 99.9906 34.42 97.9003 34.42V36.42C100.215 36.42 102.399 36.037 104.442 35.2632L103.734 33.3928Z" fill="black"/>
<defs>
<filter id="filter0_d_23_482" x="0" y="0" width="133" height="52" filterUnits="userSpaceOnUse" color-interpolation-filters="sRGB">
<feFlood flood-opacity="0" result="BackgroundImageFix"/>
<feColorMatrix in="SourceAlpha" type="matrix" values="0 0 0 0 0 0 0 0 0 0 0 0 0 0 0 0 0 0 127 0" result="hardAlpha"/>
<feMorphology radius="3" operator="dilate" in="SourceAlpha" result="effect1_dropShadow_23_482"/>
<feOffset/>
<feComposite in2="hardAlpha" operator="out"/>
<feColorMatrix type="matrix" values="0 0 0 0 0 0 0 0 0 0 0 0 0 0 0 0 0 0 1 0"/>
<feBlend mode="normal" in2="BackgroundImageFix" result="effect1_dropShadow_23_482"/>
<feBlend mode="normal" in="SourceGraphic" in2="effect1_dropShadow_23_482" result="shape"/>
</filter>
<linearGradient id="paint0_linear_23_482" x1="66.5" y1="3" x2="66.5" y2="49" gradientUnits="userSpaceOnUse">
<stop stop-color="#98BB34"/>
<stop offset="0.505208" stop-color="#63691C"/>
<stop offset="1" stop-color="#B1CA4B"/>
</linearGradient>
</defs>
</svg>
