<svg width="133" height="52" viewBox="0 0 133 52" fill="none" xmlns="http://www.w3.org/2000/svg">
<g filter="url(#filter0_d_23_481)">
<rect x="3" y="3" width="127" height="46" rx="23" fill="url(#paint0_linear_23_481)"/>
<rect x="4.5" y="4.5" width="124" height="43" rx="21.5" stroke="white" stroke-width="3"/>
</g>
<path d="M22.9 35.028C21.5747 35.028 20.5853 35.0187 19.932 35V16.352C20.7347 16.3333 21.92 16.324 23.488 16.324C25.0747 16.324 26.26 16.3333 27.044 16.352C28.8733 16.3707 30.46 16.744 31.804 17.472C33.1667 18.1813 34.212 19.1987 34.94 20.524C35.6867 21.8493 36.06 23.3987 36.06 25.172C36.06 27.1133 35.6307 28.8213 34.772 30.296C33.932 31.7707 32.7373 32.9187 31.188 33.74C29.6573 34.5613 27.8747 34.9813 25.84 35C25.1867 35.0187 24.2067 35.028 22.9 35.028ZM25.812 31.472C27.6973 31.472 29.1813 30.9213 30.264 29.82C31.3467 28.7187 31.888 27.2067 31.888 25.284C31.888 23.548 31.4213 22.2133 30.488 21.28C29.5733 20.3467 28.248 19.88 26.512 19.88H23.992V31.472H25.812ZM52.3258 16.352H57.1978L64.1138 35H59.9138L58.4018 30.744H51.0658L49.6378 35H45.4938L52.3258 16.352ZM57.1978 27.272L54.6778 20.132L52.2418 27.272H57.1978ZM74.6897 16.352C75.2497 16.3333 76.2951 16.324 77.8257 16.324C79.3751 16.324 80.4297 16.3333 80.9897 16.352C83.1177 16.4267 84.7044 16.9493 85.7497 17.92C86.7951 18.872 87.3177 20.16 87.3177 21.784C87.3177 23.1653 86.9631 24.3413 86.2537 25.312C85.5631 26.264 84.5924 26.8893 83.3417 27.188C83.7337 27.5053 84.1351 27.944 84.5457 28.504C84.9564 29.0453 85.5257 29.8947 86.2537 31.052C87.0191 32.2653 87.7937 33.5813 88.5777 35H83.8737L80.7097 29.12C80.3737 28.504 80.0657 28.1213 79.7857 27.972C79.5244 27.804 79.1231 27.72 78.5817 27.72V35H74.6897V16.352ZM80.3177 24.612C81.2697 24.612 82.0164 24.3693 82.5577 23.884C83.1177 23.3987 83.3977 22.7453 83.3977 21.924C83.3977 21.1773 83.1551 20.608 82.6697 20.216C82.1844 19.824 81.4751 19.628 80.5417 19.628H78.5817V24.612H80.3177ZM99.0097 16.352H103.07V23.576L109.146 16.352H113.99L106.318 25.2L113.598 35H108.67L103.07 27.468V35H99.0097V16.352Z" fill="white"/>
<path d="M19.932 35H18.932V35.9718L19.9034 35.9996L19.932 35ZM19.932 16.352L19.9087 15.3523L18.932 15.375V16.352H19.932ZM27.044 16.352L27.0202 17.3518L27.0338 17.3519L27.044 16.352ZM31.804 17.472L31.3277 18.3513L31.335 18.3552L31.3423 18.359L31.804 17.472ZM34.94 20.524L34.0635 21.0055L34.0688 21.0148L34.94 20.524ZM34.772 30.296L33.9078 29.7928L33.9031 29.801L34.772 30.296ZM31.188 33.74L30.7196 32.8565L30.7152 32.8588L31.188 33.74ZM25.84 35L25.8308 34L25.8211 34.0001L25.8114 34.0004L25.84 35ZM30.264 29.82L30.9771 30.521L30.264 29.82ZM30.488 21.28L29.7738 21.98L29.7809 21.9871L30.488 21.28ZM23.992 19.88V18.88H22.992V19.88H23.992ZM23.992 31.472H22.992V32.472H23.992V31.472ZM22.9 34.028C21.5766 34.028 20.599 34.0187 19.9606 34.0004L19.9034 35.9996C20.5717 36.0187 21.5727 36.028 22.9 36.028V34.028ZM20.932 35V16.352H18.932V35H20.932ZM19.9553 17.3517C20.746 17.3333 21.9219 17.324 23.488 17.324V15.324C21.9181 15.324 20.7234 15.3333 19.9087 15.3523L19.9553 17.3517ZM23.488 17.324C25.073 17.324 26.2486 17.3333 27.0202 17.3517L27.0678 15.3523C26.2714 15.3333 25.0763 15.324 23.488 15.324V17.324ZM27.0338 17.3519C28.7322 17.3693 30.1526 17.7148 31.3277 18.3513L32.2803 16.5927C30.7674 15.7732 29.0145 15.3721 27.0542 15.3521L27.0338 17.3519ZM31.3423 18.359C32.5326 18.9787 33.4323 19.8562 34.0635 21.0054L35.8165 20.0426C34.9917 18.5411 33.8007 17.384 32.2657 16.585L31.3423 18.359ZM34.0688 21.0148C34.718 22.1672 35.06 23.5419 35.06 25.172H37.06C37.06 23.2554 36.6554 21.5315 35.8112 20.0332L34.0688 21.0148ZM35.06 25.172C35.06 26.9613 34.6658 28.491 33.9078 29.7928L35.6362 30.7992C36.5955 29.1517 37.06 27.2653 37.06 25.172H35.06ZM33.9031 29.801C33.1603 31.1051 32.1072 32.1209 30.7196 32.8565L31.6564 34.6235C33.3675 33.7164 34.7037 32.4362 35.6409 30.791L33.9031 29.801ZM30.7152 32.8588C29.3498 33.5915 27.7314 33.9826 25.8308 34L25.8492 36C28.018 35.9801 29.9649 35.5312 31.6608 34.6212L30.7152 32.8588ZM25.8114 34.0004C25.1729 34.0187 24.2045 34.028 22.9 34.028V36.028C24.2088 36.028 25.2004 36.0187 25.8686 35.9996L25.8114 34.0004ZM25.812 32.472C27.9023 32.472 29.6663 31.8544 30.9771 30.521L29.5509 29.119C28.6963 29.9883 27.4923 30.472 25.812 30.472V32.472ZM30.9771 30.521C32.2862 29.1894 32.888 27.4012 32.888 25.284H30.888C30.888 27.0122 30.4071 28.248 29.5509 29.119L30.9771 30.521ZM32.888 25.284C32.888 23.3696 32.3695 21.7473 31.1951 20.5729L29.7809 21.9871C30.4731 22.6794 30.888 23.7264 30.888 25.284H32.888ZM31.2022 20.5801C30.0438 19.398 28.4251 18.88 26.512 18.88V20.88C28.0709 20.88 29.1029 21.2953 29.7738 21.9799L31.2022 20.5801ZM26.512 18.88H23.992V20.88H26.512V18.88ZM22.992 19.88V31.472H24.992V19.88H22.992ZM23.992 32.472H25.812V30.472H23.992V32.472ZM52.3258 16.352V15.352H51.6272L51.3868 16.008L52.3258 16.352ZM57.1978 16.352L58.1354 16.0043L57.8935 15.352H57.1978V16.352ZM64.1138 35V36H65.5512L65.0514 34.6523L64.1138 35ZM59.9138 35L58.9715 35.3348L59.2078 36H59.9138V35ZM58.4018 30.744L59.3441 30.4092L59.1078 29.744H58.4018V30.744ZM51.0658 30.744V29.744H50.3466L50.1178 30.4259L51.0658 30.744ZM49.6378 35V36H50.3571L50.5859 35.3181L49.6378 35ZM45.4938 35L44.5548 34.656L44.0624 36H45.4938V35ZM57.1978 27.272V28.272H58.6112L58.1408 26.9392L57.1978 27.272ZM54.6778 20.132L55.6208 19.7992L54.6618 17.082L53.7314 19.8091L54.6778 20.132ZM52.2418 27.272L51.2954 26.9491L50.844 28.272H52.2418V27.272ZM52.3258 17.352H57.1978V15.352H52.3258V17.352ZM56.2602 16.6997L63.1762 35.3477L65.0514 34.6523L58.1354 16.0043L56.2602 16.6997ZM64.1138 34H59.9138V36H64.1138V34ZM60.8561 34.6652L59.3441 30.4092L57.4595 31.0788L58.9715 35.3348L60.8561 34.6652ZM58.4018 29.744H51.0658V31.744H58.4018V29.744ZM50.1178 30.4259L48.6898 34.6819L50.5859 35.3181L52.0139 31.0621L50.1178 30.4259ZM49.6378 34H45.4938V36H49.6378V34ZM46.4328 35.344L53.2648 16.696L51.3868 16.008L44.5548 34.656L46.4328 35.344ZM58.1408 26.9392L55.6208 19.7992L53.7348 20.4648L56.2548 27.6048L58.1408 26.9392ZM53.7314 19.8091L51.2954 26.9491L53.1882 27.5949L55.6242 20.4549L53.7314 19.8091ZM52.2418 28.272H57.1978V26.272H52.2418V28.272ZM74.6897 16.352L74.6564 15.3526L73.6897 15.3848V16.352H74.6897ZM80.9897 16.352L81.0248 15.3526L81.023 15.3526L80.9897 16.352ZM85.7497 17.92L85.0692 18.6528L85.0764 18.6593L85.7497 17.92ZM86.2537 25.312L85.4463 24.722L85.4443 24.7248L86.2537 25.312ZM83.3417 27.188L83.1094 26.2153L81.1337 26.6872L82.7125 27.9652L83.3417 27.188ZM84.5457 28.504L83.7393 29.0954L83.7441 29.1019L83.749 29.1084L84.5457 28.504ZM86.2537 31.052L85.4073 31.5845L85.4079 31.5855L86.2537 31.052ZM88.5777 35V36H90.2729L89.453 34.5163L88.5777 35ZM83.8737 35L82.9931 35.4739L83.2762 36H83.8737V35ZM80.7097 29.12L81.5903 28.6461L81.5876 28.6411L80.7097 29.12ZM79.7857 27.972L79.245 28.8132L79.2792 28.8352L79.3151 28.8544L79.7857 27.972ZM78.5817 27.72V26.72H77.5817V27.72H78.5817ZM78.5817 35V36H79.5817V35H78.5817ZM74.6897 35H73.6897V36H74.6897V35ZM82.5577 23.884L81.9028 23.1283L81.8964 23.1338L81.8902 23.1394L82.5577 23.884ZM82.6697 20.216L82.0414 20.9939V20.9939L82.6697 20.216ZM78.5817 19.628V18.628H77.5817V19.628H78.5817ZM78.5817 24.612H77.5817V25.612H78.5817V24.612ZM74.723 17.3514C75.264 17.3334 76.2935 17.324 77.8257 17.324V15.324C76.2966 15.324 75.2354 15.3333 74.6564 15.3526L74.723 17.3514ZM77.8257 17.324C79.3768 17.324 80.4155 17.3334 80.9564 17.3514L81.023 15.3526C80.444 15.3333 79.3733 15.324 77.8257 15.324V17.324ZM80.9547 17.3514C82.9572 17.4216 84.2691 17.9097 85.0693 18.6528L86.4302 17.1872C85.1397 15.9889 83.2782 15.4317 81.0248 15.3526L80.9547 17.3514ZM85.0764 18.6593C85.8819 19.3929 86.3177 20.3954 86.3177 21.784H88.3177C88.3177 19.9246 87.7082 18.3511 86.423 17.1807L85.0764 18.6593ZM86.3177 21.784C86.3177 22.986 86.0124 23.9473 85.4463 24.722L87.0611 25.902C87.9137 24.7353 88.3177 23.3446 88.3177 21.784H86.3177ZM85.4443 24.7248C84.9073 25.465 84.1512 25.9666 83.1094 26.2153L83.574 28.1607C85.0336 27.8121 86.2188 27.063 87.0631 25.8992L85.4443 24.7248ZM82.7125 27.9652C83.018 28.2125 83.3619 28.5807 83.7393 29.0954L85.3521 27.9126C84.9082 27.3073 84.4495 26.7982 83.9709 26.4108L82.7125 27.9652ZM83.749 29.1084C84.1322 29.6135 84.6826 30.4324 85.4073 31.5845L87.1002 30.5195C86.3689 29.3569 85.7806 28.4772 85.3424 27.8996L83.749 29.1084ZM85.4079 31.5855C86.1617 32.7806 86.9266 34.0798 87.7025 35.4837L89.453 34.5163C88.6608 33.0829 87.8764 31.7501 87.0995 30.5185L85.4079 31.5855ZM88.5777 34H83.8737V36H88.5777V34ZM84.7543 34.5261L81.5903 28.6462L79.8291 29.5938L82.9931 35.4739L84.7543 34.5261ZM81.5876 28.6411C81.4021 28.3011 81.2091 27.9967 81.0057 27.744C80.8087 27.4992 80.5623 27.2529 80.2563 27.0896L79.3151 28.8544C79.2891 28.8405 79.3368 28.8602 79.4477 28.998C79.5523 29.128 79.6813 29.3229 79.8318 29.5989L81.5876 28.6411ZM80.3265 27.1308C79.8237 26.8076 79.1898 26.72 78.5817 26.72V28.72C78.804 28.72 78.968 28.7375 79.0839 28.7618C79.1407 28.7737 79.181 28.7862 79.208 28.7964C79.2349 28.8067 79.2455 28.8135 79.245 28.8132L80.3265 27.1308ZM77.5817 27.72V35H79.5817V27.72H77.5817ZM78.5817 34H74.6897V36H78.5817V34ZM75.6897 35V16.352H73.6897V35H75.6897ZM80.3177 25.612C81.4381 25.612 82.4497 25.3239 83.2253 24.6286L81.8902 23.1394C81.5831 23.4148 81.1013 23.612 80.3177 23.612V25.612ZM83.2127 24.6397C84.0171 23.9425 84.3977 23.0001 84.3977 21.924H82.3977C82.3977 22.4906 82.2183 22.8549 81.9028 23.1283L83.2127 24.6397ZM84.3977 21.924C84.3977 20.9412 84.0654 20.0578 83.2981 19.4381L82.0414 20.9939C82.2447 21.1582 82.3977 21.4135 82.3977 21.924H84.3977ZM83.2981 19.4381C82.5654 18.8463 81.5948 18.628 80.5417 18.628V20.628C81.3553 20.628 81.8034 20.8017 82.0414 20.9939L83.2981 19.4381ZM80.5417 18.628H78.5817V20.628H80.5417V18.628ZM77.5817 19.628V24.612H79.5817V19.628H77.5817ZM78.5817 25.612H80.3177V23.612H78.5817V25.612ZM99.0097 16.352V15.352H98.0097V16.352H99.0097ZM103.07 16.352H104.07V15.352H103.07V16.352ZM103.07 23.576H102.07V26.3185L103.835 24.2197L103.07 23.576ZM109.146 16.352V15.352H108.68L108.38 15.7083L109.146 16.352ZM113.99 16.352L114.745 17.0071L116.18 15.352H113.99V16.352ZM106.318 25.2L105.562 24.5449L105.036 25.1516L105.515 25.7963L106.318 25.2ZM113.598 35V36H115.586L114.4 34.4037L113.598 35ZM108.67 35L107.867 35.5967L108.167 36H108.67V35ZM103.07 27.468L103.872 26.8713L102.07 24.447V27.468H103.07ZM103.07 35V36H104.07V35H103.07ZM99.0097 35H98.0097V36H99.0097V35ZM99.0097 17.352H103.07V15.352H99.0097V17.352ZM102.07 16.352V23.576H104.07V16.352H102.07ZM103.835 24.2197L109.911 16.9957L108.38 15.7083L102.304 22.9323L103.835 24.2197ZM109.146 17.352H113.99V15.352H109.146V17.352ZM113.234 15.6969L105.562 24.5449L107.073 25.8551L114.745 17.0071L113.234 15.6969ZM105.515 25.7963L112.795 35.5963L114.4 34.4037L107.12 24.6037L105.515 25.7963ZM113.598 34H108.67V36H113.598V34ZM109.472 34.4033L103.872 26.8713L102.267 28.0647L107.867 35.5967L109.472 34.4033ZM102.07 27.468V35H104.07V27.468H102.07ZM103.07 34H99.0097V36H103.07V34ZM100.01 35V16.352H98.0097V35H100.01Z" fill="black"/>
<defs>
<filter id="filter0_d_23_481" x="0" y="0" width="133" height="52" filterUnits="userSpaceOnUse" color-interpolation-filters="sRGB">
<feFlood flood-opacity="0" result="BackgroundImageFix"/>
<feColorMatrix in="SourceAlpha" type="matrix" values="0 0 0 0 0 0 0 0 0 0 0 0 0 0 0 0 0 0 127 0" result="hardAlpha"/>
<feMorphology radius="3" operator="dilate" in="SourceAlpha" result="effect1_dropShadow_23_481"/>
<feOffset/>
<feComposite in2="hardAlpha" operator="out"/>
<feColorMatrix type="matrix" values="0 0 0 0 0 0 0 0 0 0 0 0 0 0 0 0 0 0 1 0"/>
<feBlend mode="normal" in2="BackgroundImageFix" result="effect1_dropShadow_23_481"/>
<feBlend mode="normal" in="SourceGraphic" in2="effect1_dropShadow_23_481" result="shape"/>
</filter>
<linearGradient id="paint0_linear_23_481" x1="66.5" y1="3" x2="66.5" y2="49" gradientUnits="userSpaceOnUse">
<stop stop-color="#4A321C"/>
<stop offset="0.505208" stop-color="#0B0C05"/>
<stop offset="0.979167" stop-color="#4F3C20"/>
<stop offset="1" stop-color="#28140D"/>
</linearGradient>
</defs>
</svg>
