<svg width="133" height="52" viewBox="0 0 133 52" fill="none" xmlns="http://www.w3.org/2000/svg">
<g filter="url(#filter0_d_23_484)">
<rect x="3" y="3" width="127" height="46" rx="23" fill="url(#paint0_linear_23_484)"/>
<rect x="4.5" y="4.5" width="124" height="43" rx="21.5" stroke="white" stroke-width="3"/>
</g>
<path d="M15.9 35.028C14.5747 35.028 13.5853 35.0187 12.932 35V16.352C13.7347 16.3333 14.92 16.324 16.488 16.324C18.0747 16.324 19.26 16.3333 20.044 16.352C21.8733 16.3707 23.46 16.744 24.804 17.472C26.1667 18.1813 27.212 19.1987 27.94 20.524C28.6867 21.8493 29.06 23.3987 29.06 25.172C29.06 27.1133 28.6307 28.8213 27.772 30.296C26.932 31.7707 25.7373 32.9187 24.188 33.74C22.6573 34.5613 20.8747 34.9813 18.84 35C18.1867 35.0187 17.2067 35.028 15.9 35.028ZM18.812 31.472C20.6973 31.472 22.1813 30.9213 23.264 29.82C24.3467 28.7187 24.888 27.2067 24.888 25.284C24.888 23.548 24.4213 22.2133 23.488 21.28C22.5733 20.3467 21.248 19.88 19.512 19.88H16.992V31.472H18.812ZM31.736 16.352C32.296 16.3333 33.3413 16.324 34.872 16.324C36.4213 16.324 37.476 16.3333 38.036 16.352C40.164 16.4267 41.7506 16.9493 42.796 17.92C43.8413 18.872 44.364 20.16 44.364 21.784C44.364 23.1653 44.0093 24.3413 43.3 25.312C42.6093 26.264 41.6386 26.8893 40.388 27.188C40.78 27.5053 41.1813 27.944 41.592 28.504C42.0026 29.0453 42.572 29.8947 43.3 31.052C44.0653 32.2653 44.84 33.5813 45.624 35H40.92L37.756 29.12C37.42 28.504 37.112 28.1213 36.832 27.972C36.5706 27.804 36.1693 27.72 35.628 27.72V35H31.736V16.352ZM37.364 24.612C38.316 24.612 39.0626 24.3693 39.604 23.884C40.164 23.3987 40.444 22.7453 40.444 21.924C40.444 21.1773 40.2013 20.608 39.716 20.216C39.2306 19.824 38.5213 19.628 37.588 19.628H35.628V24.612H37.364ZM52.3039 16.352H57.1759L64.0919 35H59.8919L58.3799 30.744H51.0439L49.6159 35H45.4719L52.3039 16.352ZM57.1759 27.272L54.6559 20.132L52.2199 27.272H57.1759ZM74.8737 35.42C72.8017 35.42 71.0097 35.056 69.4977 34.328C68.0044 33.5813 66.8564 32.5173 66.0537 31.136C65.251 29.7547 64.8497 28.112 64.8497 26.208C64.8497 24.2107 65.2697 22.4467 66.1097 20.916C66.9684 19.3853 68.163 18.2 69.6937 17.36C71.243 16.52 73.0257 16.1 75.0417 16.1C76.199 16.1 77.291 16.2307 78.3177 16.492C79.363 16.7533 80.287 17.1267 81.0897 17.612L80.1097 20.972C79.3817 20.524 78.5697 20.1787 77.6737 19.936C76.7777 19.6747 75.9004 19.544 75.0417 19.544C73.8097 19.544 72.7177 19.8147 71.7657 20.356C70.8324 20.8787 70.1044 21.6253 69.5817 22.596C69.0777 23.548 68.8257 24.6587 68.8257 25.928C68.8257 27.7947 69.3857 29.2693 70.5057 30.352C71.6444 31.416 73.1937 31.948 75.1537 31.948C75.9377 31.948 76.6657 31.892 77.3377 31.78V27.916H74.9857V24.64H81.0617V34.328C79.139 35.056 77.0764 35.42 74.8737 35.42ZM92.975 35.364C91.1457 35.364 89.531 34.9627 88.131 34.16C86.731 33.3573 85.639 32.228 84.855 30.772C84.0897 29.316 83.707 27.6453 83.707 25.76C83.707 23.856 84.0897 22.176 84.855 20.72C85.6204 19.264 86.703 18.1347 88.103 17.332C89.503 16.5293 91.127 16.128 92.975 16.128C94.8044 16.128 96.419 16.5293 97.819 17.332C99.219 18.116 100.302 19.2267 101.067 20.664C101.832 22.1013 102.215 23.7627 102.215 25.648C102.215 27.5707 101.832 29.2693 101.067 30.744C100.302 32.2 99.219 33.3387 97.819 34.16C96.419 34.9627 94.8044 35.364 92.975 35.364ZM92.975 31.808C94.5057 31.808 95.7284 31.2573 96.643 30.156C97.5764 29.0547 98.043 27.5893 98.043 25.76C98.043 24.5653 97.8284 23.5107 97.399 22.596C96.9884 21.6627 96.391 20.9533 95.607 20.468C94.8417 19.964 93.9644 19.712 92.975 19.712C91.9857 19.712 91.099 19.964 90.315 20.468C89.5497 20.9533 88.9524 21.6627 88.523 22.596C88.1124 23.5107 87.907 24.5653 87.907 25.76C87.907 26.9547 88.1124 28.0093 88.523 28.924C88.9524 29.8387 89.5497 30.548 90.315 31.052C91.0804 31.556 91.967 31.808 92.975 31.808ZM105.021 16.352H109.781L117.509 29.428V16.352H121.233V35H116.529L108.745 21.84V35H105.021V16.352Z" fill="white"/>
<path d="M12.932 35H11.932V35.9718L12.9034 35.9996L12.932 35ZM12.932 16.352L12.9087 15.3523L11.932 15.375V16.352H12.932ZM20.044 16.352L20.0202 17.3518L20.0338 17.3519L20.044 16.352ZM24.804 17.472L24.3277 18.3513L24.335 18.3552L24.3423 18.359L24.804 17.472ZM27.94 20.524L27.0635 21.0055L27.0688 21.0148L27.94 20.524ZM27.772 30.296L26.9078 29.7928L26.9031 29.801L27.772 30.296ZM24.188 33.74L23.7196 32.8565L23.7152 32.8588L24.188 33.74ZM18.84 35L18.8308 34L18.8211 34.0001L18.8114 34.0004L18.84 35ZM23.264 29.82L23.9771 30.521L23.264 29.82ZM23.488 21.28L22.7738 21.98L22.7809 21.9871L23.488 21.28ZM16.992 19.88V18.88H15.992V19.88H16.992ZM16.992 31.472H15.992V32.472H16.992V31.472ZM15.9 34.028C14.5766 34.028 13.599 34.0187 12.9606 34.0004L12.9034 35.9996C13.5717 36.0187 14.5727 36.028 15.9 36.028V34.028ZM13.932 35V16.352H11.932V35H13.932ZM12.9553 17.3517C13.746 17.3333 14.9219 17.324 16.488 17.324V15.324C14.9181 15.324 13.7234 15.3333 12.9087 15.3523L12.9553 17.3517ZM16.488 17.324C18.073 17.324 19.2486 17.3333 20.0202 17.3517L20.0678 15.3523C19.2714 15.3333 18.0763 15.324 16.488 15.324V17.324ZM20.0338 17.3519C21.7322 17.3693 23.1526 17.7148 24.3277 18.3513L25.2803 16.5927C23.7674 15.7732 22.0145 15.3721 20.0542 15.3521L20.0338 17.3519ZM24.3423 18.359C25.5326 18.9787 26.4323 19.8562 27.0635 21.0054L28.8165 20.0426C27.9917 18.5411 26.8007 17.384 25.2657 16.585L24.3423 18.359ZM27.0688 21.0148C27.718 22.1672 28.06 23.5419 28.06 25.172H30.06C30.06 23.2554 29.6554 21.5315 28.8112 20.0332L27.0688 21.0148ZM28.06 25.172C28.06 26.9613 27.6658 28.491 26.9078 29.7928L28.6362 30.7992C29.5955 29.1517 30.06 27.2653 30.06 25.172H28.06ZM26.9031 29.801C26.1603 31.1051 25.1072 32.1209 23.7196 32.8565L24.6564 34.6235C26.3675 33.7164 27.7037 32.4362 28.6409 30.791L26.9031 29.801ZM23.7152 32.8588C22.3498 33.5915 20.7314 33.9826 18.8308 34L18.8492 36C21.018 35.9801 22.9649 35.5312 24.6608 34.6212L23.7152 32.8588ZM18.8114 34.0004C18.1729 34.0187 17.2045 34.028 15.9 34.028V36.028C17.2088 36.028 18.2004 36.0187 18.8686 35.9996L18.8114 34.0004ZM18.812 32.472C20.9023 32.472 22.6663 31.8544 23.9771 30.521L22.5509 29.119C21.6963 29.9883 20.4923 30.472 18.812 30.472V32.472ZM23.9771 30.521C25.2862 29.1894 25.888 27.4012 25.888 25.284H23.888C23.888 27.0122 23.4071 28.248 22.5509 29.119L23.9771 30.521ZM25.888 25.284C25.888 23.3696 25.3695 21.7473 24.1951 20.5729L22.7809 21.9871C23.4731 22.6794 23.888 23.7264 23.888 25.284H25.888ZM24.2022 20.5801C23.0438 19.398 21.4251 18.88 19.512 18.88V20.88C21.0709 20.88 22.1029 21.2953 22.7738 21.9799L24.2022 20.5801ZM19.512 18.88H16.992V20.88H19.512V18.88ZM15.992 19.88V31.472H17.992V19.88H15.992ZM16.992 32.472H18.812V30.472H16.992V32.472ZM31.736 16.352L31.7027 15.3526L30.736 15.3848V16.352H31.736ZM38.036 16.352L38.071 15.3526L38.0693 15.3526L38.036 16.352ZM42.796 17.92L42.1155 18.6528L42.1226 18.6593L42.796 17.92ZM43.3 25.312L42.4926 24.722L42.4905 24.7248L43.3 25.312ZM40.388 27.188L40.1557 26.2153L38.18 26.6872L39.7588 27.9652L40.388 27.188ZM41.592 28.504L40.7856 29.0954L40.7904 29.1019L40.7953 29.1084L41.592 28.504ZM43.3 31.052L42.4535 31.5845L42.4542 31.5855L43.3 31.052ZM45.624 35V36H47.3191L46.4992 34.5163L45.624 35ZM40.92 35L40.0394 35.4739L40.3225 36H40.92V35ZM37.756 29.12L38.6366 28.6461L38.6339 28.6411L37.756 29.12ZM36.832 27.972L36.2912 28.8132L36.3255 28.8352L36.3614 28.8544L36.832 27.972ZM35.628 27.72V26.72H34.628V27.72H35.628ZM35.628 35V36H36.628V35H35.628ZM31.736 35H30.736V36H31.736V35ZM39.604 23.884L38.949 23.1283L38.9427 23.1338L38.9364 23.1394L39.604 23.884ZM39.716 20.216L39.0876 20.9939V20.9939L39.716 20.216ZM35.628 19.628V18.628H34.628V19.628H35.628ZM35.628 24.612H34.628V25.612H35.628V24.612ZM31.7693 17.3514C32.3103 17.3334 33.3397 17.324 34.872 17.324V15.324C33.3429 15.324 32.2817 15.3333 31.7027 15.3526L31.7693 17.3514ZM34.872 17.324C36.4231 17.324 37.4617 17.3334 38.0027 17.3514L38.0693 15.3526C37.4902 15.3333 36.4196 15.324 34.872 15.324V17.324ZM38.0009 17.3514C40.0035 17.4216 41.3153 17.9097 42.1155 18.6528L43.4764 17.1872C42.186 15.9889 40.3245 15.4317 38.071 15.3526L38.0009 17.3514ZM42.1226 18.6593C42.9281 19.3929 43.364 20.3954 43.364 21.784H45.364C45.364 19.9246 44.7545 18.3511 43.4693 17.1807L42.1226 18.6593ZM43.364 21.784C43.364 22.986 43.0587 23.9473 42.4926 24.722L44.1074 25.902C44.9599 24.7353 45.364 23.3446 45.364 21.784H43.364ZM42.4905 24.7248C41.9535 25.465 41.1974 25.9666 40.1557 26.2153L40.6202 28.1607C42.0798 27.8121 43.2651 27.063 44.1094 25.8992L42.4905 24.7248ZM39.7588 27.9652C40.0642 28.2125 40.4081 28.5807 40.7856 29.0954L42.3984 27.9126C41.9545 27.3073 41.4957 26.7982 41.0172 26.4108L39.7588 27.9652ZM40.7953 29.1084C41.1784 29.6135 41.7288 30.4324 42.4535 31.5845L44.1464 30.5195C43.4151 29.3569 42.8268 28.4772 42.3887 27.8996L40.7953 29.1084ZM42.4542 31.5855C43.208 32.7806 43.9729 34.0798 44.7487 35.4837L46.4992 34.5163C45.7071 33.0829 44.9226 31.7501 44.1458 30.5185L42.4542 31.5855ZM45.624 34H40.92V36H45.624V34ZM41.8006 34.5261L38.6366 28.6462L36.8754 29.5938L40.0394 35.4739L41.8006 34.5261ZM38.6339 28.6411C38.4484 28.3011 38.2554 27.9967 38.052 27.744C37.8549 27.4992 37.6086 27.2529 37.3026 27.0896L36.3614 28.8544C36.3354 28.8405 36.383 28.8602 36.494 28.998C36.5986 29.128 36.7276 29.3229 36.8781 29.5989L38.6339 28.6411ZM37.3727 27.1308C36.87 26.8076 36.236 26.72 35.628 26.72V28.72C35.8503 28.72 36.0143 28.7375 36.1301 28.7618C36.1869 28.7737 36.2273 28.7862 36.2543 28.7964C36.2812 28.8067 36.2917 28.8135 36.2912 28.8132L37.3727 27.1308ZM34.628 27.72V35H36.628V27.72H34.628ZM35.628 34H31.736V36H35.628V34ZM32.736 35V16.352H30.736V35H32.736ZM37.364 25.612C38.4844 25.612 39.496 25.3239 40.2715 24.6286L38.9364 23.1394C38.6293 23.4148 38.1476 23.612 37.364 23.612V25.612ZM40.2589 24.6397C41.0634 23.9425 41.444 23.0001 41.444 21.924H39.444C39.444 22.4906 39.2646 22.8549 38.949 23.1283L40.2589 24.6397ZM41.444 21.924C41.444 20.9412 41.1117 20.0578 40.3443 19.4381L39.0876 20.9939C39.291 21.1582 39.444 21.4135 39.444 21.924H41.444ZM40.3443 19.4381C39.6117 18.8463 38.6411 18.628 37.588 18.628V20.628C38.4015 20.628 38.8496 20.8017 39.0876 20.9939L40.3443 19.4381ZM37.588 18.628H35.628V20.628H37.588V18.628ZM34.628 19.628V24.612H36.628V19.628H34.628ZM35.628 25.612H37.364V23.612H35.628V25.612ZM52.3039 16.352V15.352H51.6053L51.365 16.008L52.3039 16.352ZM57.1759 16.352L58.1135 16.0043L57.8716 15.352H57.1759V16.352ZM64.0919 35V36H65.5294L65.0295 34.6523L64.0919 35ZM59.8919 35L58.9496 35.3348L59.186 36H59.8919V35ZM58.3799 30.744L59.3222 30.4092L59.0859 29.744H58.3799V30.744ZM51.0439 30.744V29.744H50.3247L50.0959 30.4259L51.0439 30.744ZM49.6159 35V36H50.3352L50.564 35.3181L49.6159 35ZM45.4719 35L44.533 34.656L44.0406 36H45.4719V35ZM57.1759 27.272V28.272H58.5893L58.1189 26.9392L57.1759 27.272ZM54.6559 20.132L55.5989 19.7992L54.6399 17.082L53.7095 19.8091L54.6559 20.132ZM52.2199 27.272L51.2735 26.9491L50.8222 28.272H52.2199V27.272ZM52.3039 17.352H57.1759V15.352H52.3039V17.352ZM56.2383 16.6997L63.1543 35.3477L65.0295 34.6523L58.1135 16.0043L56.2383 16.6997ZM64.0919 34H59.8919V36H64.0919V34ZM60.8342 34.6652L59.3222 30.4092L57.4376 31.0788L58.9496 35.3348L60.8342 34.6652ZM58.3799 29.744H51.0439V31.744H58.3799V29.744ZM50.0959 30.4259L48.6679 34.6819L50.564 35.3181L51.992 31.0621L50.0959 30.4259ZM49.6159 34H45.4719V36H49.6159V34ZM46.4109 35.344L53.2429 16.696L51.365 16.008L44.533 34.656L46.4109 35.344ZM58.1189 26.9392L55.5989 19.7992L53.7129 20.4648L56.2329 27.6048L58.1189 26.9392ZM53.7095 19.8091L51.2735 26.9491L53.1664 27.5949L55.6024 20.4549L53.7095 19.8091ZM52.2199 28.272H57.1759V26.272H52.2199V28.272ZM69.4977 34.328L69.0505 35.2224L69.0571 35.2258L69.0639 35.229L69.4977 34.328ZM66.0537 31.136L66.9183 30.6336L66.0537 31.136ZM66.1097 20.916L65.2375 20.4267L65.233 20.4349L66.1097 20.916ZM69.6937 17.36L69.2171 16.4809L69.2126 16.4833L69.6937 17.36ZM78.3177 16.492L78.071 17.4611L78.0751 17.4621L78.3177 16.492ZM81.0897 17.612L82.0497 17.892L82.2649 17.154L81.6071 16.7563L81.0897 17.612ZM80.1097 20.972L79.5856 21.8237L80.7025 22.511L81.0697 21.252L80.1097 20.972ZM77.6737 19.936L77.3937 20.896L77.403 20.8987L77.4123 20.9012L77.6737 19.936ZM71.7657 20.356L72.2543 21.2285L72.26 21.2253L71.7657 20.356ZM69.5817 22.596L68.7012 22.1219L68.6979 22.1281L69.5817 22.596ZM70.5057 30.352L69.8107 31.071L69.8168 31.0769L69.8229 31.0827L70.5057 30.352ZM77.3377 31.78L77.5021 32.7664L78.3377 32.6271V31.78H77.3377ZM77.3377 27.916H78.3377V26.916H77.3377V27.916ZM74.9857 27.916H73.9857V28.916H74.9857V27.916ZM74.9857 24.64V23.64H73.9857V24.64H74.9857ZM81.0617 24.64H82.0617V23.64H81.0617V24.64ZM81.0617 34.328L81.4158 35.2632L82.0617 35.0186V34.328H81.0617ZM74.8737 34.42C72.9174 34.42 71.2802 34.0764 69.9315 33.427L69.0639 35.229C70.7392 36.0356 72.686 36.42 74.8737 36.42V34.42ZM69.9449 33.4336C68.6177 32.77 67.6185 31.8385 66.9183 30.6336L65.1891 31.6384C66.0942 33.1961 67.3911 34.3927 69.0505 35.2224L69.9449 33.4336ZM66.9183 30.6336C66.22 29.4318 65.8497 27.9695 65.8497 26.208H63.8497C63.8497 28.2545 64.2821 30.0776 65.1891 31.6384L66.9183 30.6336ZM65.8497 26.208C65.8497 24.3544 66.2383 22.7603 66.9864 21.3971L65.233 20.4349C64.3011 22.1331 63.8497 24.067 63.8497 26.208H65.8497ZM66.9818 21.4053C67.7495 20.0369 68.809 18.9862 70.1748 18.2367L69.2126 16.4833C67.517 17.4138 66.1872 18.7338 65.2375 20.4267L66.9818 21.4053ZM70.1703 18.2391C71.5534 17.4892 73.1679 17.1 75.0417 17.1V15.1C72.8834 15.1 70.9326 15.5508 69.2171 16.4809L70.1703 18.2391ZM75.0417 17.1C76.1234 17.1 77.132 17.2221 78.071 17.4611L78.5644 15.5229C77.45 15.2393 76.2746 15.1 75.0417 15.1V17.1ZM78.0751 17.4621C79.0378 17.7028 79.8666 18.0411 80.5723 18.4677L81.6071 16.7563C80.7074 16.2123 79.6883 15.8039 78.5602 15.5219L78.0751 17.4621ZM80.1297 17.332L79.1497 20.692L81.0697 21.252L82.0497 17.892L80.1297 17.332ZM80.6338 20.1203C79.8174 19.618 78.9157 19.2364 77.9351 18.9708L77.4123 20.9012C78.2236 21.121 78.9459 21.43 79.5856 21.8237L80.6338 20.1203ZM77.9537 18.976C76.9746 18.6904 76.003 18.544 75.0417 18.544V20.544C75.7977 20.544 76.5808 20.6589 77.3937 20.896L77.9537 18.976ZM75.0417 18.544C73.6585 18.544 72.3921 18.8494 71.2714 19.4867L72.26 21.2253C73.0432 20.7799 73.9609 20.544 75.0417 20.544V18.544ZM71.2771 19.4835C70.1726 20.102 69.3111 20.9893 68.7012 22.1219L70.4622 23.0701C70.8976 22.2614 71.4921 21.6554 72.2543 21.2285L71.2771 19.4835ZM68.6979 22.1281C68.105 23.2479 67.8257 24.5246 67.8257 25.928H69.8257C69.8257 24.7927 70.0503 23.8481 70.4655 23.0639L68.6979 22.1281ZM67.8257 25.928C67.8257 28.0079 68.4577 29.7631 69.8107 31.071L71.2007 29.633C70.3136 28.7755 69.8257 27.5814 69.8257 25.928H67.8257ZM69.8229 31.0827C71.1912 32.3612 73.0083 32.948 75.1537 32.948V30.948C73.379 30.948 72.0975 30.4708 71.1884 29.6213L69.8229 31.0827ZM75.1537 32.948C75.9847 32.948 76.7684 32.8887 77.5021 32.7664L77.1733 30.7936C76.563 30.8953 75.8906 30.948 75.1537 30.948V32.948ZM78.3377 31.78V27.916H76.3377V31.78H78.3377ZM77.3377 26.916H74.9857V28.916H77.3377V26.916ZM75.9857 27.916V24.64H73.9857V27.916H75.9857ZM74.9857 25.64H81.0617V23.64H74.9857V25.64ZM80.0617 24.64V34.328H82.0617V24.64H80.0617ZM80.7076 33.3928C78.9059 34.075 76.9641 34.42 74.8737 34.42V36.42C77.1886 36.42 79.3721 36.037 81.4158 35.2632L80.7076 33.3928ZM88.131 34.16L88.6284 33.2925L88.131 34.16ZM84.855 30.772L83.9698 31.2373L83.9746 31.2461L84.855 30.772ZM84.855 20.72L83.9699 20.2547L84.855 20.72ZM88.103 17.332L87.6056 16.4645V16.4645L88.103 17.332ZM97.819 17.332L97.3216 18.1996L97.3304 18.2045L97.819 17.332ZM101.067 20.664L100.184 21.134L101.067 20.664ZM101.067 30.744L101.952 31.2093L101.955 31.2046L101.067 30.744ZM97.819 34.16L98.3164 35.0276L98.325 35.0225L97.819 34.16ZM96.643 30.156L95.8801 29.5094L95.8737 29.5171L96.643 30.156ZM97.399 22.596L96.4837 22.9987L96.4886 23.0099L96.4938 23.0209L97.399 22.596ZM95.607 20.468L95.057 21.3032L95.0687 21.3109L95.0807 21.3183L95.607 20.468ZM90.315 20.468L90.8506 21.3125L90.8558 21.3092L90.315 20.468ZM88.523 22.596L87.6145 22.1781L87.6108 22.1864L88.523 22.596ZM88.523 28.924L87.6108 29.3336L87.6142 29.3413L87.6178 29.3489L88.523 28.924ZM90.315 31.052L90.865 30.2168L90.315 31.052ZM92.975 34.364C91.2965 34.364 89.8577 33.9973 88.6284 33.2925L87.6336 35.0275C89.2044 35.9281 90.9949 36.364 92.975 36.364V34.364ZM88.6284 33.2925C87.3945 32.585 86.4333 31.5939 85.7355 30.2979L83.9746 31.2461C84.8447 32.8621 86.0676 34.1296 87.6336 35.0275L88.6284 33.2925ZM85.7402 30.3067C85.0607 29.014 84.707 27.5071 84.707 25.76H82.707C82.707 27.7836 83.1187 29.618 83.9699 31.2373L85.7402 30.3067ZM84.707 25.76C84.707 23.9925 85.0614 22.4767 85.7402 21.1853L83.9699 20.2547C83.118 21.8753 82.707 23.7195 82.707 25.76H84.707ZM85.7402 21.1853C86.4189 19.8941 87.3686 18.9058 88.6004 18.1995L87.6056 16.4645C86.0375 17.3636 84.8218 18.6339 83.9699 20.2547L85.7402 21.1853ZM88.6004 18.1995C89.8282 17.4956 91.2758 17.128 92.975 17.128V15.128C90.9782 15.128 89.1779 15.5631 87.6056 16.4645L88.6004 18.1995ZM92.975 17.128C94.6536 17.128 96.0924 17.4947 97.3216 18.1995L98.3164 16.4645C96.7457 15.5639 94.9552 15.128 92.975 15.128V17.128ZM97.3304 18.2045C98.5606 18.8934 99.5077 19.8632 100.184 21.134L101.95 20.194C101.096 18.5902 99.8775 17.3386 98.3076 16.4595L97.3304 18.2045ZM100.184 21.134C100.861 22.4053 101.215 23.9006 101.215 25.648H103.215C103.215 23.6248 102.803 21.7974 101.95 20.194L100.184 21.134ZM101.215 25.648C101.215 27.4356 100.86 28.9719 100.179 30.2834L101.955 31.2046C102.805 29.5668 103.215 27.7057 103.215 25.648H101.215ZM100.182 30.2787C99.5021 31.5719 98.5498 32.5719 97.313 33.2975L98.325 35.0225C99.8883 34.1054 101.101 32.8281 101.952 31.2093L100.182 30.2787ZM97.3216 33.2925C96.0924 33.9973 94.6536 34.364 92.975 34.364V36.364C94.9552 36.364 96.7457 35.9281 98.3164 35.0275L97.3216 33.2925ZM92.975 32.808C94.7796 32.808 96.2931 32.1425 97.4123 30.7949L95.8737 29.5171C95.1636 30.3722 94.2318 30.808 92.975 30.808V32.808ZM97.4059 30.8025C98.5297 29.4765 99.043 27.7612 99.043 25.76H97.043C97.043 27.4175 96.6231 28.6328 95.8801 29.5095L97.4059 30.8025ZM99.043 25.76C99.043 24.445 98.8064 23.2408 98.3043 22.1711L96.4938 23.0209C96.8504 23.7805 97.043 24.6857 97.043 25.76H99.043ZM98.3143 22.1933C97.8312 21.0953 97.1074 20.2207 96.1334 19.6177L95.0807 21.3183C95.6747 21.686 96.1455 22.23 96.4837 22.9987L98.3143 22.1933ZM96.157 19.6328C95.2153 19.0127 94.1436 18.712 92.975 18.712V20.712C93.7851 20.712 94.4681 20.9153 95.057 21.3032L96.157 19.6328ZM92.975 18.712C91.8063 18.712 90.7297 19.0126 89.7743 19.6268L90.8558 21.3092C91.4684 20.9154 92.1651 20.712 92.975 20.712V18.712ZM89.7795 19.6235C88.8303 20.2254 88.1134 21.0937 87.6145 22.1781L89.4315 23.0139C89.7914 22.2317 90.2691 21.6812 90.8506 21.3125L89.7795 19.6235ZM87.6108 22.1864C87.1323 23.2521 86.907 24.4508 86.907 25.76H88.907C88.907 24.6799 89.0925 23.7692 89.4353 23.0056L87.6108 22.1864ZM86.907 25.76C86.907 27.0692 87.1323 28.2679 87.6108 29.3336L89.4353 28.5144C89.0925 27.7508 88.907 26.8401 88.907 25.76H86.907ZM87.6178 29.3489C88.1172 30.4128 88.8302 31.2715 89.765 31.8872L90.865 30.2168C90.2692 29.8244 89.7876 29.2645 89.4283 28.4991L87.6178 29.3489ZM89.765 31.8872C90.7098 32.5094 91.7919 32.808 92.975 32.808V30.808C92.1422 30.808 91.4509 30.6026 90.865 30.2168L89.765 31.8872ZM105.021 16.352V15.352H104.021V16.352H105.021ZM109.781 16.352L110.642 15.8432L110.352 15.352H109.781V16.352ZM117.509 29.428L116.648 29.9368L118.509 33.0855V29.428H117.509ZM117.509 16.352V15.352H116.509V16.352H117.509ZM121.233 16.352H122.233V15.352H121.233V16.352ZM121.233 35V36H122.233V35H121.233ZM116.529 35L115.668 35.5091L115.959 36H116.529V35ZM108.745 21.84L109.606 21.3309L107.745 18.1851V21.84H108.745ZM108.745 35V36H109.745V35H108.745ZM105.021 35H104.021V36H105.021V35ZM105.021 17.352H109.781V15.352H105.021V17.352ZM108.92 16.8608L116.648 29.9368L118.37 28.9192L110.642 15.8432L108.92 16.8608ZM118.509 29.428V16.352H116.509V29.428H118.509ZM117.509 17.352H121.233V15.352H117.509V17.352ZM120.233 16.352V35H122.233V16.352H120.233ZM121.233 34H116.529V36H121.233V34ZM117.39 34.4909L109.606 21.3309L107.884 22.3491L115.668 35.5091L117.39 34.4909ZM107.745 21.84V35H109.745V21.84H107.745ZM108.745 34H105.021V36H108.745V34ZM106.021 35V16.352H104.021V35H106.021Z" fill="black"/>
<defs>
<filter id="filter0_d_23_484" x="0" y="0" width="133" height="52" filterUnits="userSpaceOnUse" color-interpolation-filters="sRGB">
<feFlood flood-opacity="0" result="BackgroundImageFix"/>
<feColorMatrix in="SourceAlpha" type="matrix" values="0 0 0 0 0 0 0 0 0 0 0 0 0 0 0 0 0 0 127 0" result="hardAlpha"/>
<feMorphology radius="3" operator="dilate" in="SourceAlpha" result="effect1_dropShadow_23_484"/>
<feOffset/>
<feComposite in2="hardAlpha" operator="out"/>
<feColorMatrix type="matrix" values="0 0 0 0 0 0 0 0 0 0 0 0 0 0 0 0 0 0 1 0"/>
<feBlend mode="normal" in2="BackgroundImageFix" result="effect1_dropShadow_23_484"/>
<feBlend mode="normal" in="SourceGraphic" in2="effect1_dropShadow_23_484" result="shape"/>
</filter>
<linearGradient id="paint0_linear_23_484" x1="66.5" y1="3" x2="66.5" y2="49" gradientUnits="userSpaceOnUse">
<stop stop-color="#B2A6FF"/>
<stop offset="0.520833" stop-color="#332258"/>
<stop offset="1" stop-color="#B2A6FF"/>
</linearGradient>
</defs>
</svg>
