<svg width="133" height="52" viewBox="0 0 133 52" fill="none" xmlns="http://www.w3.org/2000/svg">
<g filter="url(#filter0_d_23_487)">
<rect x="3" y="3" width="127" height="46" rx="23" fill="url(#paint0_linear_23_487)"/>
<rect x="4.5" y="4.5" width="124" height="43" rx="21.5" stroke="white" stroke-width="3"/>
</g>
<path d="M13.96 16.352H25.3V19.88H17.964V23.604H24.04V27.02H17.964V31.472H25.3V35H13.96V16.352ZM30.2077 16.352H34.2677V31.472H40.9877V35H30.2077V16.352ZM45.1975 16.352H56.5375V19.88H49.2015V23.604H55.2775V27.02H49.2015V31.472H56.5375V35H45.1975V16.352ZM65.6946 19.88H60.5986V16.352H74.8226V19.88H69.7826V35H65.6946V19.88ZM78.9207 16.352C79.4807 16.3333 80.526 16.324 82.0567 16.324C83.606 16.324 84.6607 16.3333 85.2207 16.352C87.3487 16.4267 88.9353 16.9493 89.9807 17.92C91.026 18.872 91.5487 20.16 91.5487 21.784C91.5487 23.1653 91.194 24.3413 90.4847 25.312C89.794 26.264 88.8233 26.8893 87.5727 27.188C87.9647 27.5053 88.366 27.944 88.7767 28.504C89.1873 29.0453 89.7567 29.8947 90.4847 31.052C91.25 32.2653 92.0247 33.5813 92.8087 35H88.1047L84.9407 29.12C84.6047 28.504 84.2967 28.1213 84.0167 27.972C83.7553 27.804 83.354 27.72 82.8127 27.72V35H78.9207V16.352ZM84.5487 24.612C85.5007 24.612 86.2473 24.3693 86.7887 23.884C87.3487 23.3987 87.6287 22.7453 87.6287 21.924C87.6287 21.1773 87.386 20.608 86.9007 20.216C86.4153 19.824 85.706 19.628 84.7727 19.628H82.8127V24.612H84.5487ZM96.3246 16.352H100.385V35H96.3246V16.352ZM114.631 35.364C111.644 35.364 109.311 34.5613 107.631 32.956C105.951 31.3507 105.111 29.0827 105.111 26.152C105.111 24.1547 105.503 22.3907 106.287 20.86C107.089 19.3293 108.219 18.1533 109.675 17.332C111.131 16.492 112.811 16.072 114.715 16.072C116.264 16.072 117.757 16.352 119.195 16.912L118.439 20.524C117.169 19.9453 115.937 19.656 114.743 19.656C113.044 19.656 111.7 20.216 110.711 21.336C109.721 22.4373 109.227 23.912 109.227 25.76C109.227 27.6453 109.749 29.1107 110.795 30.156C111.84 31.2013 113.287 31.724 115.135 31.724C116.348 31.724 117.524 31.528 118.663 31.136L119.279 34.58C117.916 35.1027 116.367 35.364 114.631 35.364Z" fill="white"/>
<path d="M13.96 16.352V15.352H12.96V16.352H13.96ZM25.3 16.352H26.3V15.352H25.3V16.352ZM25.3 19.88V20.88H26.3V19.88H25.3ZM17.964 19.88V18.88H16.964V19.88H17.964ZM17.964 23.604H16.964V24.604H17.964V23.604ZM24.04 23.604H25.04V22.604H24.04V23.604ZM24.04 27.02V28.02H25.04V27.02H24.04ZM17.964 27.02V26.02H16.964V27.02H17.964ZM17.964 31.472H16.964V32.472H17.964V31.472ZM25.3 31.472H26.3V30.472H25.3V31.472ZM25.3 35V36H26.3V35H25.3ZM13.96 35H12.96V36H13.96V35ZM13.96 17.352H25.3V15.352H13.96V17.352ZM24.3 16.352V19.88H26.3V16.352H24.3ZM25.3 18.88H17.964V20.88H25.3V18.88ZM16.964 19.88V23.604H18.964V19.88H16.964ZM17.964 24.604H24.04V22.604H17.964V24.604ZM23.04 23.604V27.02H25.04V23.604H23.04ZM24.04 26.02H17.964V28.02H24.04V26.02ZM16.964 27.02V31.472H18.964V27.02H16.964ZM17.964 32.472H25.3V30.472H17.964V32.472ZM24.3 31.472V35H26.3V31.472H24.3ZM25.3 34H13.96V36H25.3V34ZM14.96 35V16.352H12.96V35H14.96ZM30.2077 16.352V15.352H29.2077V16.352H30.2077ZM34.2677 16.352H35.2677V15.352H34.2677V16.352ZM34.2677 31.472H33.2677V32.472H34.2677V31.472ZM40.9877 31.472H41.9877V30.472H40.9877V31.472ZM40.9877 35V36H41.9877V35H40.9877ZM30.2077 35H29.2077V36H30.2077V35ZM30.2077 17.352H34.2677V15.352H30.2077V17.352ZM33.2677 16.352V31.472H35.2677V16.352H33.2677ZM34.2677 32.472H40.9877V30.472H34.2677V32.472ZM39.9877 31.472V35H41.9877V31.472H39.9877ZM40.9877 34H30.2077V36H40.9877V34ZM31.2077 35V16.352H29.2077V35H31.2077ZM45.1975 16.352V15.352H44.1975V16.352H45.1975ZM56.5375 16.352H57.5375V15.352H56.5375V16.352ZM56.5375 19.88V20.88H57.5375V19.88H56.5375ZM49.2015 19.88V18.88H48.2015V19.88H49.2015ZM49.2015 23.604H48.2015V24.604H49.2015V23.604ZM55.2775 23.604H56.2775V22.604H55.2775V23.604ZM55.2775 27.02V28.02H56.2775V27.02H55.2775ZM49.2015 27.02V26.02H48.2015V27.02H49.2015ZM49.2015 31.472H48.2015V32.472H49.2015V31.472ZM56.5375 31.472H57.5375V30.472H56.5375V31.472ZM56.5375 35V36H57.5375V35H56.5375ZM45.1975 35H44.1975V36H45.1975V35ZM45.1975 17.352H56.5375V15.352H45.1975V17.352ZM55.5375 16.352V19.88H57.5375V16.352H55.5375ZM56.5375 18.88H49.2015V20.88H56.5375V18.88ZM48.2015 19.88V23.604H50.2015V19.88H48.2015ZM49.2015 24.604H55.2775V22.604H49.2015V24.604ZM54.2775 23.604V27.02H56.2775V23.604H54.2775ZM55.2775 26.02H49.2015V28.02H55.2775V26.02ZM48.2015 27.02V31.472H50.2015V27.02H48.2015ZM49.2015 32.472H56.5375V30.472H49.2015V32.472ZM55.5375 31.472V35H57.5375V31.472H55.5375ZM56.5375 34H45.1975V36H56.5375V34ZM46.1975 35V16.352H44.1975V35H46.1975ZM65.6946 19.88H66.6946V18.88H65.6946V19.88ZM60.5986 19.88H59.5986V20.88H60.5986V19.88ZM60.5986 16.352V15.352H59.5986V16.352H60.5986ZM74.8226 16.352H75.8226V15.352H74.8226V16.352ZM74.8226 19.88V20.88H75.8226V19.88H74.8226ZM69.7826 19.88V18.88H68.7826V19.88H69.7826ZM69.7826 35V36H70.7826V35H69.7826ZM65.6946 35H64.6946V36H65.6946V35ZM65.6946 18.88H60.5986V20.88H65.6946V18.88ZM61.5986 19.88V16.352H59.5986V19.88H61.5986ZM60.5986 17.352H74.8226V15.352H60.5986V17.352ZM73.8226 16.352V19.88H75.8226V16.352H73.8226ZM74.8226 18.88H69.7826V20.88H74.8226V18.88ZM68.7826 19.88V35H70.7826V19.88H68.7826ZM69.7826 34H65.6946V36H69.7826V34ZM66.6946 35V19.88H64.6946V35H66.6946ZM78.9207 16.352L78.8873 15.3526L77.9207 15.3848V16.352H78.9207ZM85.2207 16.352L85.2557 15.3526L85.254 15.3526L85.2207 16.352ZM89.9807 17.92L89.3002 18.6528L89.3073 18.6593L89.9807 17.92ZM90.4847 25.312L89.6773 24.722L89.6752 24.7248L90.4847 25.312ZM87.5727 27.188L87.3404 26.2153L85.3647 26.6872L86.9435 27.9652L87.5727 27.188ZM88.7767 28.504L87.9703 29.0954L87.9751 29.1019L87.98 29.1084L88.7767 28.504ZM90.4847 31.052L89.6382 31.5845L89.6389 31.5855L90.4847 31.052ZM92.8087 35V36H94.5038L93.6839 34.5163L92.8087 35ZM88.1047 35L87.2241 35.4739L87.5072 36H88.1047V35ZM84.9407 29.12L85.8213 28.6461L85.8186 28.6411L84.9407 29.12ZM84.0167 27.972L83.4759 28.8132L83.5101 28.8352L83.5461 28.8544L84.0167 27.972ZM82.8127 27.72V26.72H81.8127V27.72H82.8127ZM82.8127 35V36H83.8127V35H82.8127ZM78.9207 35H77.9207V36H78.9207V35ZM86.7887 23.884L86.1337 23.1283L86.1274 23.1338L86.1211 23.1394L86.7887 23.884ZM86.9007 20.216L86.2723 20.9939V20.9939L86.9007 20.216ZM82.8127 19.628V18.628H81.8127V19.628H82.8127ZM82.8127 24.612H81.8127V25.612H82.8127V24.612ZM78.954 17.3514C79.495 17.3334 80.5244 17.324 82.0567 17.324V15.324C80.5276 15.324 79.4664 15.3333 78.8873 15.3526L78.954 17.3514ZM82.0567 17.324C83.6077 17.324 84.6464 17.3334 85.1873 17.3514L85.254 15.3526C84.6749 15.3333 83.6042 15.324 82.0567 15.324V17.324ZM85.1856 17.3514C87.1882 17.4216 88.5 17.9097 89.3002 18.6528L90.6611 17.1872C89.3707 15.9889 87.5092 15.4317 85.2557 15.3526L85.1856 17.3514ZM89.3073 18.6593C90.1128 19.3929 90.5487 20.3954 90.5487 21.784H92.5487C92.5487 19.9246 91.9392 18.3511 90.654 17.1807L89.3073 18.6593ZM90.5487 21.784C90.5487 22.986 90.2434 23.9473 89.6773 24.722L91.292 25.902C92.1446 24.7353 92.5487 23.3446 92.5487 21.784H90.5487ZM89.6752 24.7248C89.1382 25.465 88.3821 25.9666 87.3404 26.2153L87.8049 28.1607C89.2645 27.8121 90.4498 27.063 91.2941 25.8992L89.6752 24.7248ZM86.9435 27.9652C87.2489 28.2125 87.5928 28.5807 87.9703 29.0954L89.5831 27.9126C89.1392 27.3073 88.6804 26.7982 88.2019 26.4108L86.9435 27.9652ZM87.98 29.1084C88.3631 29.6135 88.9135 30.4324 89.6382 31.5845L91.3311 30.5195C90.5998 29.3569 90.0115 28.4772 89.5733 27.8996L87.98 29.1084ZM89.6389 31.5855C90.3927 32.7806 91.1576 34.0798 91.9334 35.4837L93.6839 34.5163C92.8917 33.0829 92.1073 31.7501 91.3305 30.5185L89.6389 31.5855ZM92.8087 34H88.1047V36H92.8087V34ZM88.9853 34.5261L85.8213 28.6462L84.0601 29.5938L87.2241 35.4739L88.9853 34.5261ZM85.8186 28.6411C85.6331 28.3011 85.44 27.9967 85.2367 27.744C85.0396 27.4992 84.7933 27.2529 84.4872 27.0896L83.5461 28.8544C83.52 28.8405 83.5677 28.8602 83.6786 28.998C83.7833 29.128 83.9122 29.3229 84.0628 29.5989L85.8186 28.6411ZM84.5574 27.1308C84.0546 26.8076 83.4207 26.72 82.8127 26.72V28.72C83.035 28.72 83.199 28.7375 83.3148 28.7618C83.3716 28.7737 83.412 28.7862 83.439 28.7964C83.4658 28.8067 83.4764 28.8135 83.4759 28.8132L84.5574 27.1308ZM81.8127 27.72V35H83.8127V27.72H81.8127ZM82.8127 34H78.9207V36H82.8127V34ZM79.9207 35V16.352H77.9207V35H79.9207ZM84.5487 25.612C85.6691 25.612 86.6806 25.3239 87.4562 24.6286L86.1211 23.1394C85.814 23.4148 85.3323 23.612 84.5487 23.612V25.612ZM87.4436 24.6397C88.2481 23.9425 88.6287 23.0001 88.6287 21.924H86.6287C86.6287 22.4906 86.4492 22.8549 86.1337 23.1283L87.4436 24.6397ZM88.6287 21.924C88.6287 20.9412 88.2963 20.0578 87.529 19.4381L86.2723 20.9939C86.4756 21.1582 86.6287 21.4135 86.6287 21.924H88.6287ZM87.529 19.4381C86.7963 18.8463 85.8258 18.628 84.7727 18.628V20.628C85.5862 20.628 86.0343 20.8017 86.2723 20.9939L87.529 19.4381ZM84.7727 18.628H82.8127V20.628H84.7727V18.628ZM81.8127 19.628V24.612H83.8127V19.628H81.8127ZM82.8127 25.612H84.5487V23.612H82.8127V25.612ZM96.3246 16.352V15.352H95.3246V16.352H96.3246ZM100.385 16.352H101.385V15.352H100.385V16.352ZM100.385 35V36H101.385V35H100.385ZM96.3246 35H95.3246V36H96.3246V35ZM96.3246 17.352H100.385V15.352H96.3246V17.352ZM99.3846 16.352V35H101.385V16.352H99.3846ZM100.385 34H96.3246V36H100.385V34ZM97.3246 35V16.352H95.3246V35H97.3246ZM107.631 32.956L108.321 32.233L107.631 32.956ZM106.286 20.86L105.401 20.3956L105.396 20.4041L106.286 20.86ZM109.674 17.332L110.166 18.203L110.174 18.1982L109.674 17.332ZM119.195 16.912L120.173 17.1169L120.347 16.2877L119.558 15.9802L119.195 16.912ZM118.438 20.524L118.024 21.4339L119.161 21.9525L119.417 20.7289L118.438 20.524ZM110.711 21.336L111.454 22.0043L111.46 21.998L110.711 21.336ZM110.795 30.156L111.502 29.4489L110.795 30.156ZM118.663 31.136L119.647 30.9599L119.441 29.8103L118.337 30.1905L118.663 31.136ZM119.279 34.58L119.637 35.5137L120.408 35.2176L120.263 34.4039L119.279 34.58ZM114.631 34.364C111.825 34.364 109.767 33.614 108.321 32.233L106.94 33.679C108.854 35.5086 111.463 36.364 114.631 36.364V34.364ZM108.321 32.233C106.888 30.8629 106.111 28.8852 106.111 26.152H104.111C104.111 29.2801 105.013 31.8384 106.94 33.679L108.321 32.233ZM106.111 26.152C106.111 24.2876 106.476 22.6843 107.177 21.3159L105.396 20.4041C104.529 22.097 104.111 24.0218 104.111 26.152H106.111ZM107.172 21.3244C107.888 19.9583 108.884 18.9263 110.166 18.203L109.183 16.461C107.553 17.3804 106.29 18.7003 105.401 20.3956L107.172 21.3244ZM110.174 18.1982C111.459 17.457 112.962 17.072 114.715 17.072V15.072C112.659 15.072 110.802 15.527 109.175 16.4658L110.174 18.1982ZM114.715 17.072C116.14 17.072 117.51 17.3291 118.831 17.8438L119.558 15.9802C118.004 15.3749 116.387 15.072 114.715 15.072V17.072ZM118.216 16.7071L117.46 20.3191L119.417 20.7289L120.173 17.1169L118.216 16.7071ZM118.853 19.6141C117.475 18.9859 116.102 18.656 114.743 18.656V20.656C115.772 20.656 116.863 20.9047 118.024 21.4339L118.853 19.6141ZM114.743 18.656C112.801 18.656 111.167 19.3085 109.961 20.674L111.46 21.998C112.232 21.1235 113.287 20.656 114.743 20.656V18.656ZM109.967 20.6677C108.774 21.995 108.227 23.729 108.227 25.76H110.227C110.227 24.095 110.668 22.8796 111.454 22.0043L109.967 20.6677ZM108.227 25.76C108.227 27.8339 108.807 29.5822 110.087 30.8631L111.502 29.4489C110.692 28.6391 110.227 27.4567 110.227 25.76H108.227ZM110.087 30.8631C111.365 32.1403 113.091 32.724 115.134 32.724V30.724C113.482 30.724 112.315 30.2624 111.502 29.4489L110.087 30.8631ZM115.134 32.724C116.458 32.724 117.744 32.5099 118.988 32.0815L118.337 30.1905C117.304 30.5461 116.238 30.724 115.134 30.724V32.724ZM117.678 31.3121L118.294 34.7561L120.263 34.4039L119.647 30.9599L117.678 31.3121ZM118.92 33.6463C117.691 34.1177 116.267 34.364 114.631 34.364V36.364C116.466 36.364 118.14 36.0876 119.637 35.5137L118.92 33.6463Z" fill="black"/>
<defs>
<filter id="filter0_d_23_487" x="0" y="0" width="133" height="52" filterUnits="userSpaceOnUse" color-interpolation-filters="sRGB">
<feFlood flood-opacity="0" result="BackgroundImageFix"/>
<feColorMatrix in="SourceAlpha" type="matrix" values="0 0 0 0 0 0 0 0 0 0 0 0 0 0 0 0 0 0 127 0" result="hardAlpha"/>
<feMorphology radius="3" operator="dilate" in="SourceAlpha" result="effect1_dropShadow_23_487"/>
<feOffset/>
<feComposite in2="hardAlpha" operator="out"/>
<feColorMatrix type="matrix" values="0 0 0 0 0 0 0 0 0 0 0 0 0 0 0 0 0 0 1 0"/>
<feBlend mode="normal" in2="BackgroundImageFix" result="effect1_dropShadow_23_487"/>
<feBlend mode="normal" in="SourceGraphic" in2="effect1_dropShadow_23_487" result="shape"/>
</filter>
<linearGradient id="paint0_linear_23_487" x1="66.5" y1="3" x2="66.5" y2="49" gradientUnits="userSpaceOnUse">
<stop stop-color="#FFDD29"/>
<stop offset="0.520833" stop-color="#CF7E1E"/>
<stop offset="1" stop-color="#FFDD29"/>
</linearGradient>
</defs>
</svg>
