<svg width="133" height="52" viewBox="0 0 133 52" fill="none" xmlns="http://www.w3.org/2000/svg">
<g filter="url(#filter0_d_24_2)">
<rect x="3" y="3" width="127" height="46" rx="23" fill="url(#paint0_linear_24_2)"/>
<rect x="4.5" y="4.5" width="124" height="43" rx="21.5" stroke="white" stroke-width="3"/>
</g>
<path d="M20.96 16.352H32.356V19.88H25.02V24.136H31.096V27.636H25.02V35H20.96V16.352ZM44.8449 16.352H49.7169L56.6329 35H52.4329L50.9209 30.744H43.5849L42.1569 35H38.0129L44.8449 16.352ZM49.7169 27.272L47.1969 20.132L44.7609 27.272H49.7169ZM65.0248 16.352H69.0848V35H65.0248V16.352ZM79.1307 16.352C79.6907 16.3333 80.736 16.324 82.2667 16.324C83.816 16.324 84.8707 16.3333 85.4307 16.352C87.5587 16.4267 89.1453 16.9493 90.1907 17.92C91.236 18.872 91.7587 20.16 91.7587 21.784C91.7587 23.1653 91.404 24.3413 90.6947 25.312C90.004 26.264 89.0333 26.8893 87.7827 27.188C88.1747 27.5053 88.576 27.944 88.9867 28.504C89.3973 29.0453 89.9667 29.8947 90.6947 31.052C91.46 32.2653 92.2347 33.5813 93.0187 35H88.3147L85.1507 29.12C84.8147 28.504 84.5067 28.1213 84.2267 27.972C83.9653 27.804 83.564 27.72 83.0227 27.72V35H79.1307V16.352ZM84.7587 24.612C85.7107 24.612 86.4573 24.3693 86.9987 23.884C87.5587 23.3987 87.8387 22.7453 87.8387 21.924C87.8387 21.1773 87.596 20.608 87.1107 20.216C86.6253 19.824 85.916 19.628 84.9827 19.628H83.0227V24.612H84.7587ZM105.081 27.244L98.8372 16.352H103.401L107.181 23.716L110.933 16.352H115.413L109.141 27.244V35H105.081V27.244Z" fill="white"/>
<path d="M20.96 16.352V15.352H19.96V16.352H20.96ZM32.356 16.352H33.356V15.352H32.356V16.352ZM32.356 19.88V20.88H33.356V19.88H32.356ZM25.02 19.88V18.88H24.02V19.88H25.02ZM25.02 24.136H24.02V25.136H25.02V24.136ZM31.096 24.136H32.096V23.136H31.096V24.136ZM31.096 27.636V28.636H32.096V27.636H31.096ZM25.02 27.636V26.636H24.02V27.636H25.02ZM25.02 35V36H26.02V35H25.02ZM20.96 35H19.96V36H20.96V35ZM20.96 17.352H32.356V15.352H20.96V17.352ZM31.356 16.352V19.88H33.356V16.352H31.356ZM32.356 18.88H25.02V20.88H32.356V18.88ZM24.02 19.88V24.136H26.02V19.88H24.02ZM25.02 25.136H31.096V23.136H25.02V25.136ZM30.096 24.136V27.636H32.096V24.136H30.096ZM31.096 26.636H25.02V28.636H31.096V26.636ZM24.02 27.636V35H26.02V27.636H24.02ZM25.02 34H20.96V36H25.02V34ZM21.96 35V16.352H19.96V35H21.96ZM44.8449 16.352V15.352H44.1462L43.9059 16.008L44.8449 16.352ZM49.7169 16.352L50.6545 16.0043L50.4126 15.352H49.7169V16.352ZM56.6329 35V36H58.0703L57.5705 34.6523L56.6329 35ZM52.4329 35L51.4906 35.3348L51.7269 36H52.4329V35ZM50.9209 30.744L51.8632 30.4092L51.6268 29.744H50.9209V30.744ZM43.5849 30.744V29.744H42.8656L42.6368 30.4259L43.5849 30.744ZM42.1569 35V36H42.8761L43.1049 35.3181L42.1569 35ZM38.0129 35L37.0739 34.656L36.5815 36H38.0129V35ZM49.7169 27.272V28.272H51.1303L50.6599 26.9392L49.7169 27.272ZM47.1969 20.132L48.1399 19.7992L47.1809 17.082L46.2504 19.8091L47.1969 20.132ZM44.7609 27.272L43.8144 26.9491L43.3631 28.272H44.7609V27.272ZM44.8449 17.352H49.7169V15.352H44.8449V17.352ZM48.7793 16.6997L55.6953 35.3477L57.5705 34.6523L50.6545 16.0043L48.7793 16.6997ZM56.6329 34H52.4329V36H56.6329V34ZM53.3752 34.6652L51.8632 30.4092L49.9786 31.0788L51.4906 35.3348L53.3752 34.6652ZM50.9209 29.744H43.5849V31.744H50.9209V29.744ZM42.6368 30.4259L41.2088 34.6819L43.1049 35.3181L44.5329 31.0621L42.6368 30.4259ZM42.1569 34H38.0129V36H42.1569V34ZM38.9518 35.344L45.7838 16.696L43.9059 16.008L37.0739 34.656L38.9518 35.344ZM50.6599 26.9392L48.1399 19.7992L46.2539 20.4648L48.7739 27.6048L50.6599 26.9392ZM46.2504 19.8091L43.8144 26.9491L45.7073 27.5949L48.1433 20.4549L46.2504 19.8091ZM44.7609 28.272H49.7169V26.272H44.7609V28.272ZM65.0248 16.352V15.352H64.0248V16.352H65.0248ZM69.0848 16.352H70.0848V15.352H69.0848V16.352ZM69.0848 35V36H70.0848V35H69.0848ZM65.0248 35H64.0248V36H65.0248V35ZM65.0248 17.352H69.0848V15.352H65.0248V17.352ZM68.0848 16.352V35H70.0848V16.352H68.0848ZM69.0848 34H65.0248V36H69.0848V34ZM66.0248 35V16.352H64.0248V35H66.0248ZM79.1307 16.352L79.0973 15.3526L78.1307 15.3848V16.352H79.1307ZM85.4307 16.352L85.4657 15.3526L85.464 15.3526L85.4307 16.352ZM90.1907 17.92L89.5102 18.6528L89.5173 18.6593L90.1907 17.92ZM90.6947 25.312L89.8873 24.722L89.8852 24.7248L90.6947 25.312ZM87.7827 27.188L87.5504 26.2153L85.5747 26.6872L87.1535 27.9652L87.7827 27.188ZM88.9867 28.504L88.1803 29.0954L88.1851 29.1019L88.19 29.1084L88.9867 28.504ZM90.6947 31.052L89.8482 31.5845L89.8489 31.5855L90.6947 31.052ZM93.0187 35V36H94.7138L93.8939 34.5163L93.0187 35ZM88.3147 35L87.4341 35.4739L87.7172 36H88.3147V35ZM85.1507 29.12L86.0313 28.6461L86.0286 28.6411L85.1507 29.12ZM84.2267 27.972L83.6859 28.8132L83.7201 28.8352L83.7561 28.8544L84.2267 27.972ZM83.0227 27.72V26.72H82.0227V27.72H83.0227ZM83.0227 35V36H84.0227V35H83.0227ZM79.1307 35H78.1307V36H79.1307V35ZM86.9987 23.884L86.3437 23.1283L86.3374 23.1338L86.3311 23.1394L86.9987 23.884ZM87.1107 20.216L86.4823 20.9939V20.9939L87.1107 20.216ZM83.0227 19.628V18.628H82.0227V19.628H83.0227ZM83.0227 24.612H82.0227V25.612H83.0227V24.612ZM79.164 17.3514C79.705 17.3334 80.7344 17.324 82.2667 17.324V15.324C80.7376 15.324 79.6764 15.3333 79.0973 15.3526L79.164 17.3514ZM82.2667 17.324C83.8177 17.324 84.8564 17.3334 85.3973 17.3514L85.464 15.3526C84.8849 15.3333 83.8142 15.324 82.2667 15.324V17.324ZM85.3956 17.3514C87.3982 17.4216 88.71 17.9097 89.5102 18.6528L90.8711 17.1872C89.5807 15.9889 87.7192 15.4317 85.4657 15.3526L85.3956 17.3514ZM89.5173 18.6593C90.3228 19.3929 90.7587 20.3954 90.7587 21.784H92.7587C92.7587 19.9246 92.1492 18.3511 90.864 17.1807L89.5173 18.6593ZM90.7587 21.784C90.7587 22.986 90.4534 23.9473 89.8873 24.722L91.5021 25.902C92.3546 24.7353 92.7587 23.3446 92.7587 21.784H90.7587ZM89.8852 24.7248C89.3482 25.465 88.5921 25.9666 87.5504 26.2153L88.0149 28.1607C89.4745 27.8121 90.6598 27.063 91.5041 25.8992L89.8852 24.7248ZM87.1535 27.9652C87.4589 28.2125 87.8028 28.5807 88.1803 29.0954L89.7931 27.9126C89.3492 27.3073 88.8904 26.7982 88.4119 26.4108L87.1535 27.9652ZM88.19 29.1084C88.5731 29.6135 89.1235 30.4324 89.8482 31.5845L91.5411 30.5195C90.8098 29.3569 90.2215 28.4772 89.7833 27.8996L88.19 29.1084ZM89.8489 31.5855C90.6027 32.7806 91.3676 34.0798 92.1434 35.4837L93.8939 34.5163C93.1017 33.0829 92.3173 31.7501 91.5405 30.5185L89.8489 31.5855ZM93.0187 34H88.3147V36H93.0187V34ZM89.1953 34.5261L86.0313 28.6462L84.2701 29.5938L87.4341 35.4739L89.1953 34.5261ZM86.0286 28.6411C85.8431 28.3011 85.65 27.9967 85.4467 27.744C85.2496 27.4992 85.0033 27.2529 84.6972 27.0896L83.7561 28.8544C83.73 28.8405 83.7777 28.8602 83.8886 28.998C83.9933 29.128 84.1222 29.3229 84.2728 29.5989L86.0286 28.6411ZM84.7674 27.1308C84.2647 26.8076 83.6307 26.72 83.0227 26.72V28.72C83.245 28.72 83.409 28.7375 83.5248 28.7618C83.5816 28.7737 83.622 28.7862 83.649 28.7964C83.6758 28.8067 83.6864 28.8135 83.6859 28.8132L84.7674 27.1308ZM82.0227 27.72V35H84.0227V27.72H82.0227ZM83.0227 34H79.1307V36H83.0227V34ZM80.1307 35V16.352H78.1307V35H80.1307ZM84.7587 25.612C85.8791 25.612 86.8906 25.3239 87.6662 24.6286L86.3311 23.1394C86.024 23.4148 85.5423 23.612 84.7587 23.612V25.612ZM87.6536 24.6397C88.4581 23.9425 88.8387 23.0001 88.8387 21.924H86.8387C86.8387 22.4906 86.6592 22.8549 86.3437 23.1283L87.6536 24.6397ZM88.8387 21.924C88.8387 20.9412 88.5063 20.0578 87.739 19.4381L86.4823 20.9939C86.6856 21.1582 86.8387 21.4135 86.8387 21.924H88.8387ZM87.739 19.4381C87.0063 18.8463 86.0358 18.628 84.9827 18.628V20.628C85.7962 20.628 86.2443 20.8017 86.4823 20.9939L87.739 19.4381ZM84.9827 18.628H83.0227V20.628H84.9827V18.628ZM82.0227 19.628V24.612H84.0227V19.628H82.0227ZM83.0227 25.612H84.7587V23.612H83.0227V25.612ZM105.081 27.244H106.081V26.9777L105.949 26.7467L105.081 27.244ZM98.8372 16.352V15.352H97.1113L97.9696 16.8493L98.8372 16.352ZM103.401 16.352L104.291 15.8953L104.012 15.352H103.401V16.352ZM107.181 23.716L106.292 24.1727L107.185 25.9123L108.072 24.17L107.181 23.716ZM110.933 16.352V15.352H110.32L110.042 15.898L110.933 16.352ZM115.413 16.352L116.28 16.851L117.143 15.352H115.413V16.352ZM109.141 27.244L108.275 26.745L108.141 26.9767V27.244H109.141ZM109.141 35V36H110.141V35H109.141ZM105.081 35H104.081V36H105.081V35ZM105.949 26.7467L99.7047 15.8547L97.9696 16.8493L104.214 27.7413L105.949 26.7467ZM98.8372 17.352H103.401V15.352H98.8372V17.352ZM102.512 16.8087L106.292 24.1727L108.071 23.2593L104.291 15.8953L102.512 16.8087ZM108.072 24.17L111.824 16.806L110.042 15.898L106.29 23.262L108.072 24.17ZM110.933 17.352H115.413V15.352H110.933V17.352ZM114.547 15.853L108.275 26.745L110.008 27.743L116.28 16.851L114.547 15.853ZM108.141 27.244V35H110.141V27.244H108.141ZM109.141 34H105.081V36H109.141V34ZM106.081 35V27.244H104.081V35H106.081Z" fill="black"/>
<defs>
<filter id="filter0_d_24_2" x="0" y="0" width="133" height="52" filterUnits="userSpaceOnUse" color-interpolation-filters="sRGB">
<feFlood flood-opacity="0" result="BackgroundImageFix"/>
<feColorMatrix in="SourceAlpha" type="matrix" values="0 0 0 0 0 0 0 0 0 0 0 0 0 0 0 0 0 0 127 0" result="hardAlpha"/>
<feMorphology radius="3" operator="dilate" in="SourceAlpha" result="effect1_dropShadow_24_2"/>
<feOffset/>
<feComposite in2="hardAlpha" operator="out"/>
<feColorMatrix type="matrix" values="0 0 0 0 0 0 0 0 0 0 0 0 0 0 0 0 0 0 1 0"/>
<feBlend mode="normal" in2="BackgroundImageFix" result="effect1_dropShadow_24_2"/>
<feBlend mode="normal" in="SourceGraphic" in2="effect1_dropShadow_24_2" result="shape"/>
</filter>
<linearGradient id="paint0_linear_24_2" x1="66.5" y1="3" x2="66.5" y2="49" gradientUnits="userSpaceOnUse">
<stop stop-color="#EBC0FF"/>
<stop offset="0.520833" stop-color="#CD7AE1"/>
<stop offset="1" stop-color="#EBC0FF"/>
</linearGradient>
</defs>
</svg>
