<svg width="133" height="52" viewBox="0 0 133 52" fill="none" xmlns="http://www.w3.org/2000/svg">
<g filter="url(#filter0_d_23_502)">
<rect x="3" y="3" width="127" height="46" rx="23" fill="url(#paint0_linear_23_502)"/>
<rect x="4.5" y="4.5" width="124" height="43" rx="21.5" stroke="white" stroke-width="3"/>
</g>
<path d="M11.96 16.352H23.356V19.88H16.02V24.136H22.096V27.636H16.02V35H11.96V16.352ZM24.8288 16.352H28.8888V35H24.8288V16.352ZM40.5307 35.42C38.4587 35.42 36.6667 35.056 35.1547 34.328C33.6614 33.5813 32.5134 32.5173 31.7107 31.136C30.9081 29.7547 30.5067 28.112 30.5067 26.208C30.5067 24.2107 30.9267 22.4467 31.7667 20.916C32.6254 19.3853 33.8201 18.2 35.3507 17.36C36.9001 16.52 38.6827 16.1 40.6987 16.1C41.8561 16.1 42.9481 16.2307 43.9747 16.492C45.0201 16.7533 45.9441 17.1267 46.7467 17.612L45.7667 20.972C45.0387 20.524 44.2267 20.1787 43.3307 19.936C42.4347 19.6747 41.5574 19.544 40.6987 19.544C39.4667 19.544 38.3747 19.8147 37.4227 20.356C36.4894 20.8787 35.7614 21.6253 35.2387 22.596C34.7347 23.548 34.4827 24.6587 34.4827 25.928C34.4827 27.7947 35.0427 29.2693 36.1627 30.352C37.3014 31.416 38.8507 31.948 40.8107 31.948C41.5947 31.948 42.3227 31.892 42.9947 31.78V27.916H40.6427V24.64H46.7187V34.328C44.7961 35.056 42.7334 35.42 40.5307 35.42ZM48.6641 16.352H52.7521V23.576H60.6761V16.352H64.7921V35H60.6761V27.048H52.7521V35H48.6641V16.352ZM70.863 19.88H65.767V16.352H79.991V19.88H74.951V35H70.863V19.88ZM81.2051 16.352H85.2651V35H81.2051V16.352ZM87.583 16.352H92.343L100.071 29.428V16.352H103.795V35H99.091L91.307 21.84V35H87.583V16.352ZM115.212 35.42C113.14 35.42 111.348 35.056 109.836 34.328C108.343 33.5813 107.195 32.5173 106.392 31.136C105.589 29.7547 105.188 28.112 105.188 26.208C105.188 24.2107 105.608 22.4467 106.448 20.916C107.307 19.3853 108.501 18.2 110.032 17.36C111.581 16.52 113.364 16.1 115.38 16.1C116.537 16.1 117.629 16.2307 118.656 16.492C119.701 16.7533 120.625 17.1267 121.428 17.612L120.448 20.972C119.72 20.524 118.908 20.1787 118.012 19.936C117.116 19.6747 116.239 19.544 115.38 19.544C114.148 19.544 113.056 19.8147 112.104 20.356C111.171 20.8787 110.443 21.6253 109.92 22.596C109.416 23.548 109.164 24.6587 109.164 25.928C109.164 27.7947 109.724 29.2693 110.844 30.352C111.983 31.416 113.532 31.948 115.492 31.948C116.276 31.948 117.004 31.892 117.676 31.78V27.916H115.324V24.64H121.4V34.328C119.477 35.056 117.415 35.42 115.212 35.42Z" fill="white"/>
<path d="M11.96 16.352V15.352H10.96V16.352H11.96ZM23.356 16.352H24.356V15.352H23.356V16.352ZM23.356 19.88V20.88H24.356V19.88H23.356ZM16.02 19.88V18.88H15.02V19.88H16.02ZM16.02 24.136H15.02V25.136H16.02V24.136ZM22.096 24.136H23.096V23.136H22.096V24.136ZM22.096 27.636V28.636H23.096V27.636H22.096ZM16.02 27.636V26.636H15.02V27.636H16.02ZM16.02 35V36H17.02V35H16.02ZM11.96 35H10.96V36H11.96V35ZM11.96 17.352H23.356V15.352H11.96V17.352ZM22.356 16.352V19.88H24.356V16.352H22.356ZM23.356 18.88H16.02V20.88H23.356V18.88ZM15.02 19.88V24.136H17.02V19.88H15.02ZM16.02 25.136H22.096V23.136H16.02V25.136ZM21.096 24.136V27.636H23.096V24.136H21.096ZM22.096 26.636H16.02V28.636H22.096V26.636ZM15.02 27.636V35H17.02V27.636H15.02ZM16.02 34H11.96V36H16.02V34ZM12.96 35V16.352H10.96V35H12.96ZM24.8288 16.352V15.352H23.8288V16.352H24.8288ZM28.8888 16.352H29.8888V15.352H28.8888V16.352ZM28.8888 35V36H29.8888V35H28.8888ZM24.8288 35H23.8288V36H24.8288V35ZM24.8288 17.352H28.8888V15.352H24.8288V17.352ZM27.8888 16.352V35H29.8888V16.352H27.8888ZM28.8888 34H24.8288V36H28.8888V34ZM25.8288 35V16.352H23.8288V35H25.8288ZM35.1547 34.328L34.7075 35.2224L34.7142 35.2258L34.7209 35.229L35.1547 34.328ZM31.7107 31.136L32.5753 30.6336L31.7107 31.136ZM31.7667 20.916L30.8945 20.4267L30.8901 20.4349L31.7667 20.916ZM35.3507 17.36L34.8741 16.4809L34.8696 16.4833L35.3507 17.36ZM43.9747 16.492L43.728 17.4611L43.7322 17.4621L43.9747 16.492ZM46.7467 17.612L47.7067 17.892L47.922 17.154L47.2641 16.7563L46.7467 17.612ZM45.7667 20.972L45.2426 21.8237L46.3595 22.511L46.7267 21.252L45.7667 20.972ZM43.3307 19.936L43.0507 20.896L43.06 20.8987L43.0693 20.9012L43.3307 19.936ZM37.4227 20.356L37.9113 21.2285L37.917 21.2253L37.4227 20.356ZM35.2387 22.596L34.3582 22.1219L34.3549 22.1281L35.2387 22.596ZM36.1627 30.352L35.4677 31.071L35.4738 31.0769L35.48 31.0827L36.1627 30.352ZM42.9947 31.78L43.1591 32.7664L43.9947 32.6271V31.78H42.9947ZM42.9947 27.916H43.9947V26.916H42.9947V27.916ZM40.6427 27.916H39.6427V28.916H40.6427V27.916ZM40.6427 24.64V23.64H39.6427V24.64H40.6427ZM46.7187 24.64H47.7187V23.64H46.7187V24.64ZM46.7187 34.328L47.0728 35.2632L47.7187 35.0186V34.328H46.7187ZM40.5307 34.42C38.5744 34.42 36.9372 34.0764 35.5885 33.427L34.7209 35.229C36.3962 36.0356 38.343 36.42 40.5307 36.42V34.42ZM35.6019 33.4336C34.2747 32.77 33.2755 31.8385 32.5753 30.6336L30.8461 31.6384C31.7513 33.1961 33.0481 34.3927 34.7075 35.2224L35.6019 33.4336ZM32.5753 30.6336C31.877 29.4318 31.5067 27.9695 31.5067 26.208H29.5067C29.5067 28.2545 29.9391 30.0776 30.8461 31.6384L32.5753 30.6336ZM31.5067 26.208C31.5067 24.3544 31.8953 22.7603 32.6434 21.3971L30.8901 20.4349C29.9581 22.1331 29.5067 24.067 29.5067 26.208H31.5067ZM32.6389 21.4053C33.4065 20.0369 34.4661 18.9862 35.8318 18.2367L34.8696 16.4833C33.174 17.4138 31.8443 18.7338 30.8946 20.4267L32.6389 21.4053ZM35.8273 18.2391C37.2104 17.4892 38.825 17.1 40.6987 17.1V15.1C38.5405 15.1 36.5897 15.5508 34.8741 16.4809L35.8273 18.2391ZM40.6987 17.1C41.7805 17.1 42.789 17.2221 43.728 17.4611L44.2214 15.5229C43.1071 15.2393 41.9316 15.1 40.6987 15.1V17.1ZM43.7322 17.4621C44.6948 17.7028 45.5236 18.0411 46.2293 18.4677L47.2641 16.7563C46.3645 16.2123 45.3453 15.8039 44.2173 15.5219L43.7322 17.4621ZM45.7867 17.332L44.8067 20.692L46.7267 21.252L47.7067 17.892L45.7867 17.332ZM46.2908 20.1203C45.4745 19.618 44.5728 19.2364 43.5921 18.9708L43.0693 20.9012C43.8807 21.121 44.603 21.43 45.2426 21.8237L46.2908 20.1203ZM43.6107 18.976C42.6316 18.6904 41.66 18.544 40.6987 18.544V20.544C41.4548 20.544 42.2378 20.6589 43.0507 20.896L43.6107 18.976ZM40.6987 18.544C39.3155 18.544 38.0492 18.8494 36.9284 19.4867L37.917 21.2253C38.7003 20.7799 39.618 20.544 40.6987 20.544V18.544ZM36.9341 19.4835C35.8297 20.102 34.9681 20.9893 34.3582 22.1219L36.1192 23.0701C36.5547 22.2614 37.1491 21.6554 37.9113 21.2285L36.9341 19.4835ZM34.3549 22.1281C33.7621 23.2479 33.4827 24.5246 33.4827 25.928H35.4827C35.4827 24.7927 35.7074 23.8481 36.1225 23.0639L34.3549 22.1281ZM33.4827 25.928C33.4827 28.0079 34.1148 29.7631 35.4677 31.071L36.8577 29.633C35.9707 28.7755 35.4827 27.5814 35.4827 25.928H33.4827ZM35.48 31.0827C36.8483 32.3612 38.6654 32.948 40.8107 32.948V30.948C39.0361 30.948 37.7545 30.4708 36.8455 29.6213L35.48 31.0827ZM40.8107 32.948C41.6418 32.948 42.4254 32.8887 43.1591 32.7664L42.8303 30.7936C42.22 30.8953 41.5477 30.948 40.8107 30.948V32.948ZM43.9947 31.78V27.916H41.9947V31.78H43.9947ZM42.9947 26.916H40.6427V28.916H42.9947V26.916ZM41.6427 27.916V24.64H39.6427V27.916H41.6427ZM40.6427 25.64H46.7187V23.64H40.6427V25.64ZM45.7187 24.64V34.328H47.7187V24.64H45.7187ZM46.3646 33.3928C44.5629 34.075 42.6211 34.42 40.5307 34.42V36.42C42.8457 36.42 45.0292 36.037 47.0728 35.2632L46.3646 33.3928ZM48.6641 16.352V15.352H47.6641V16.352H48.6641ZM52.7521 16.352H53.7521V15.352H52.7521V16.352ZM52.7521 23.576H51.7521V24.576H52.7521V23.576ZM60.6761 23.576V24.576H61.6761V23.576H60.6761ZM60.6761 16.352V15.352H59.6761V16.352H60.6761ZM64.7921 16.352H65.7921V15.352H64.7921V16.352ZM64.7921 35V36H65.7921V35H64.7921ZM60.6761 35H59.6761V36H60.6761V35ZM60.6761 27.048H61.6761V26.048H60.6761V27.048ZM52.7521 27.048V26.048H51.7521V27.048H52.7521ZM52.7521 35V36H53.7521V35H52.7521ZM48.6641 35H47.6641V36H48.6641V35ZM48.6641 17.352H52.7521V15.352H48.6641V17.352ZM51.7521 16.352V23.576H53.7521V16.352H51.7521ZM52.7521 24.576H60.6761V22.576H52.7521V24.576ZM61.6761 23.576V16.352H59.6761V23.576H61.6761ZM60.6761 17.352H64.7921V15.352H60.6761V17.352ZM63.7921 16.352V35H65.7921V16.352H63.7921ZM64.7921 34H60.6761V36H64.7921V34ZM61.6761 35V27.048H59.6761V35H61.6761ZM60.6761 26.048H52.7521V28.048H60.6761V26.048ZM51.7521 27.048V35H53.7521V27.048H51.7521ZM52.7521 34H48.6641V36H52.7521V34ZM49.6641 35V16.352H47.6641V35H49.6641ZM70.863 19.88H71.863V18.88H70.863V19.88ZM65.767 19.88H64.767V20.88H65.767V19.88ZM65.767 16.352V15.352H64.767V16.352H65.767ZM79.991 16.352H80.991V15.352H79.991V16.352ZM79.991 19.88V20.88H80.991V19.88H79.991ZM74.951 19.88V18.88H73.951V19.88H74.951ZM74.951 35V36H75.951V35H74.951ZM70.863 35H69.863V36H70.863V35ZM70.863 18.88H65.767V20.88H70.863V18.88ZM66.767 19.88V16.352H64.767V19.88H66.767ZM65.767 17.352H79.991V15.352H65.767V17.352ZM78.991 16.352V19.88H80.991V16.352H78.991ZM79.991 18.88H74.951V20.88H79.991V18.88ZM73.951 19.88V35H75.951V19.88H73.951ZM74.951 34H70.863V36H74.951V34ZM71.863 35V19.88H69.863V35H71.863ZM81.2051 16.352V15.352H80.2051V16.352H81.2051ZM85.2651 16.352H86.2651V15.352H85.2651V16.352ZM85.2651 35V36H86.2651V35H85.2651ZM81.2051 35H80.2051V36H81.2051V35ZM81.2051 17.352H85.2651V15.352H81.2051V17.352ZM84.2651 16.352V35H86.2651V16.352H84.2651ZM85.2651 34H81.2051V36H85.2651V34ZM82.2051 35V16.352H80.2051V35H82.2051ZM87.583 16.352V15.352H86.583V16.352H87.583ZM92.343 16.352L93.2039 15.8432L92.9136 15.352H92.343V16.352ZM100.071 29.428L99.2101 29.9368L101.071 33.0855V29.428H100.071ZM100.071 16.352V15.352H99.071V16.352H100.071ZM103.795 16.352H104.795V15.352H103.795V16.352ZM103.795 35V36H104.795V35H103.795ZM99.091 35L98.2303 35.5091L98.5206 36H99.091V35ZM91.307 21.84L92.1677 21.3309L90.307 18.1851V21.84H91.307ZM91.307 35V36H92.307V35H91.307ZM87.583 35H86.583V36H87.583V35ZM87.583 17.352H92.343V15.352H87.583V17.352ZM91.4821 16.8608L99.2101 29.9368L100.932 28.9192L93.2039 15.8432L91.4821 16.8608ZM101.071 29.428V16.352H99.071V29.428H101.071ZM100.071 17.352H103.795V15.352H100.071V17.352ZM102.795 16.352V35H104.795V16.352H102.795ZM103.795 34H99.091V36H103.795V34ZM99.9517 34.4909L92.1677 21.3309L90.4463 22.3491L98.2303 35.5091L99.9517 34.4909ZM90.307 21.84V35H92.307V21.84H90.307ZM91.307 34H87.583V36H91.307V34ZM88.583 35V16.352H86.583V35H88.583ZM109.836 34.328L109.389 35.2224L109.395 35.2258L109.402 35.229L109.836 34.328ZM106.392 31.136L107.257 30.6336L106.392 31.136ZM106.448 20.916L105.576 20.4267L105.571 20.4349L106.448 20.916ZM110.032 17.36L109.555 16.4809L109.551 16.4833L110.032 17.36ZM118.656 16.492L118.409 17.4611L118.413 17.4621L118.656 16.492ZM121.428 17.612L122.388 17.892L122.603 17.154L121.945 16.7563L121.428 17.612ZM120.448 20.972L119.924 21.8237L121.041 22.511L121.408 21.252L120.448 20.972ZM118.012 19.936L117.732 20.896L117.741 20.8987L117.751 20.9012L118.012 19.936ZM112.104 20.356L112.593 21.2285L112.598 21.2253L112.104 20.356ZM109.92 22.596L109.039 22.1219L109.036 22.1281L109.92 22.596ZM110.844 30.352L110.149 31.071L110.155 31.0769L110.161 31.0827L110.844 30.352ZM117.676 31.78L117.84 32.7664L118.676 32.6271V31.78H117.676ZM117.676 27.916H118.676V26.916H117.676V27.916ZM115.324 27.916H114.324V28.916H115.324V27.916ZM115.324 24.64V23.64H114.324V24.64H115.324ZM121.4 24.64H122.4V23.64H121.4V24.64ZM121.4 34.328L121.754 35.2632L122.4 35.0186V34.328H121.4ZM115.212 34.42C113.256 34.42 111.618 34.0764 110.27 33.427L109.402 35.229C111.077 36.0356 113.024 36.42 115.212 36.42V34.42ZM110.283 33.4336C108.956 32.77 107.957 31.8385 107.257 30.6336L105.527 31.6384C106.433 33.1961 107.729 34.3927 109.389 35.2224L110.283 33.4336ZM107.257 30.6336C106.558 29.4318 106.188 27.9695 106.188 26.208H104.188C104.188 28.2545 104.62 30.0776 105.527 31.6384L107.257 30.6336ZM106.188 26.208C106.188 24.3544 106.577 22.7603 107.325 21.3971L105.571 20.4349C104.639 22.1331 104.188 24.067 104.188 26.208H106.188ZM107.32 21.4053C108.088 20.0369 109.147 18.9862 110.513 18.2367L109.551 16.4833C107.855 17.4138 106.526 18.7338 105.576 20.4267L107.32 21.4053ZM110.509 18.2391C111.892 17.4892 113.506 17.1 115.38 17.1V15.1C113.222 15.1 111.271 15.5508 109.555 16.4809L110.509 18.2391ZM115.38 17.1C116.462 17.1 117.47 17.2221 118.409 17.4611L118.903 15.5229C117.788 15.2393 116.613 15.1 115.38 15.1V17.1ZM118.413 17.4621C119.376 17.7028 120.205 18.0411 120.911 18.4677L121.945 16.7563C121.046 16.2123 120.027 15.8039 118.899 15.5219L118.413 17.4621ZM120.468 17.332L119.488 20.692L121.408 21.252L122.388 17.892L120.468 17.332ZM120.972 20.1203C120.156 19.618 119.254 19.2364 118.273 18.9708L117.751 20.9012C118.562 21.121 119.284 21.43 119.924 21.8237L120.972 20.1203ZM118.292 18.976C117.313 18.6904 116.341 18.544 115.38 18.544V20.544C116.136 20.544 116.919 20.6589 117.732 20.896L118.292 18.976ZM115.38 18.544C113.997 18.544 112.73 18.8494 111.61 19.4867L112.598 21.2253C113.382 20.7799 114.299 20.544 115.38 20.544V18.544ZM111.615 19.4835C110.511 20.102 109.649 20.9893 109.039 22.1219L110.8 23.0701C111.236 22.2614 111.83 21.6554 112.593 21.2285L111.615 19.4835ZM109.036 22.1281C108.443 23.2479 108.164 24.5246 108.164 25.928H110.164C110.164 24.7927 110.389 23.8481 110.804 23.0639L109.036 22.1281ZM108.164 25.928C108.164 28.0079 108.796 29.7631 110.149 31.071L111.539 29.633C110.652 28.7755 110.164 27.5814 110.164 25.928H108.164ZM110.161 31.0827C111.53 32.3612 113.347 32.948 115.492 32.948V30.948C113.717 30.948 112.436 30.4708 111.527 29.6213L110.161 31.0827ZM115.492 32.948C116.323 32.948 117.107 32.8887 117.84 32.7664L117.512 30.7936C116.901 30.8953 116.229 30.948 115.492 30.948V32.948ZM118.676 31.78V27.916H116.676V31.78H118.676ZM117.676 26.916H115.324V28.916H117.676V26.916ZM116.324 27.916V24.64H114.324V27.916H116.324ZM115.324 25.64H121.4V23.64H115.324V25.64ZM120.4 24.64V34.328H122.4V24.64H120.4ZM121.046 33.3928C119.244 34.075 117.302 34.42 115.212 34.42V36.42C117.527 36.42 119.71 36.037 121.754 35.2632L121.046 33.3928Z" fill="black"/>
<defs>
<filter id="filter0_d_23_502" x="0" y="0" width="133" height="52" filterUnits="userSpaceOnUse" color-interpolation-filters="sRGB">
<feFlood flood-opacity="0" result="BackgroundImageFix"/>
<feColorMatrix in="SourceAlpha" type="matrix" values="0 0 0 0 0 0 0 0 0 0 0 0 0 0 0 0 0 0 127 0" result="hardAlpha"/>
<feMorphology radius="3" operator="dilate" in="SourceAlpha" result="effect1_dropShadow_23_502"/>
<feOffset/>
<feComposite in2="hardAlpha" operator="out"/>
<feColorMatrix type="matrix" values="0 0 0 0 0 0 0 0 0 0 0 0 0 0 0 0 0 0 1 0"/>
<feBlend mode="normal" in2="BackgroundImageFix" result="effect1_dropShadow_23_502"/>
<feBlend mode="normal" in="SourceGraphic" in2="effect1_dropShadow_23_502" result="shape"/>
</filter>
<linearGradient id="paint0_linear_23_502" x1="66.5" y1="3" x2="66.5" y2="49" gradientUnits="userSpaceOnUse">
<stop stop-color="#77371B"/>
<stop offset="0.520833" stop-color="#23110B"/>
<stop offset="1" stop-color="#77371B"/>
</linearGradient>
</defs>
</svg>
