<svg width="133" height="52" viewBox="0 0 133 52" fill="none" xmlns="http://www.w3.org/2000/svg">
<g filter="url(#filter0_d_23_509)">
<rect x="3" y="3" width="127" height="46" rx="23" fill="url(#paint0_linear_23_509)"/>
<rect x="4.5" y="4.5" width="124" height="43" rx="21.5" stroke="white" stroke-width="3"/>
</g>
<path d="M23.96 16.352H35.356V19.88H28.02V24.136H34.096V27.636H28.02V35H23.96V16.352ZM50.1288 16.352H54.1888V35H50.1288V16.352ZM69.6947 16.352C70.2547 16.3333 71.3001 16.324 72.8307 16.324C74.3801 16.324 75.4347 16.3333 75.9947 16.352C78.1227 16.4267 79.7094 16.9493 80.7547 17.92C81.8001 18.872 82.3227 20.16 82.3227 21.784C82.3227 23.1653 81.9681 24.3413 81.2587 25.312C80.5681 26.264 79.5974 26.8893 78.3467 27.188C78.7387 27.5053 79.1401 27.944 79.5507 28.504C79.9614 29.0453 80.5307 29.8947 81.2587 31.052C82.0241 32.2653 82.7987 33.5813 83.5827 35H78.8787L75.7147 29.12C75.3787 28.504 75.0707 28.1213 74.7907 27.972C74.5294 27.804 74.1281 27.72 73.5867 27.72V35H69.6947V16.352ZM75.3227 24.612C76.2747 24.612 77.0214 24.3693 77.5627 23.884C78.1227 23.3987 78.4027 22.7453 78.4027 21.924C78.4027 21.1773 78.1601 20.608 77.6747 20.216C77.1894 19.824 76.4801 19.628 75.5467 19.628H73.5867V24.612H75.3227ZM96.9547 16.352H108.295V19.88H100.959V23.604H107.035V27.02H100.959V31.472H108.295V35H96.9547V16.352Z" fill="white"/>
<path d="M23.96 16.352V15.352H22.96V16.352H23.96ZM35.356 16.352H36.356V15.352H35.356V16.352ZM35.356 19.88V20.88H36.356V19.88H35.356ZM28.02 19.88V18.88H27.02V19.88H28.02ZM28.02 24.136H27.02V25.136H28.02V24.136ZM34.096 24.136H35.096V23.136H34.096V24.136ZM34.096 27.636V28.636H35.096V27.636H34.096ZM28.02 27.636V26.636H27.02V27.636H28.02ZM28.02 35V36H29.02V35H28.02ZM23.96 35H22.96V36H23.96V35ZM23.96 17.352H35.356V15.352H23.96V17.352ZM34.356 16.352V19.88H36.356V16.352H34.356ZM35.356 18.88H28.02V20.88H35.356V18.88ZM27.02 19.88V24.136H29.02V19.88H27.02ZM28.02 25.136H34.096V23.136H28.02V25.136ZM33.096 24.136V27.636H35.096V24.136H33.096ZM34.096 26.636H28.02V28.636H34.096V26.636ZM27.02 27.636V35H29.02V27.636H27.02ZM28.02 34H23.96V36H28.02V34ZM24.96 35V16.352H22.96V35H24.96ZM50.1288 16.352V15.352H49.1288V16.352H50.1288ZM54.1888 16.352H55.1888V15.352H54.1888V16.352ZM54.1888 35V36H55.1888V35H54.1888ZM50.1288 35H49.1288V36H50.1288V35ZM50.1288 17.352H54.1888V15.352H50.1288V17.352ZM53.1888 16.352V35H55.1888V16.352H53.1888ZM54.1888 34H50.1288V36H54.1888V34ZM51.1288 35V16.352H49.1288V35H51.1288ZM69.6947 16.352L69.6614 15.3526L68.6947 15.3848V16.352H69.6947ZM75.9947 16.352L76.0298 15.3526L76.028 15.3526L75.9947 16.352ZM80.7547 17.92L80.0742 18.6528L80.0814 18.6593L80.7547 17.92ZM81.2587 25.312L80.4513 24.722L80.4493 24.7248L81.2587 25.312ZM78.3467 27.188L78.1144 26.2153L76.1387 26.6872L77.7175 27.9652L78.3467 27.188ZM79.5507 28.504L78.7443 29.0954L78.7491 29.1019L78.754 29.1084L79.5507 28.504ZM81.2587 31.052L80.4123 31.5845L80.4129 31.5855L81.2587 31.052ZM83.5827 35V36H85.2779L84.458 34.5163L83.5827 35ZM78.8787 35L77.9981 35.4739L78.2812 36H78.8787V35ZM75.7147 29.12L76.5953 28.6461L76.5926 28.6411L75.7147 29.12ZM74.7907 27.972L74.25 28.8132L74.2842 28.8352L74.3201 28.8544L74.7907 27.972ZM73.5867 27.72V26.72H72.5867V27.72H73.5867ZM73.5867 35V36H74.5867V35H73.5867ZM69.6947 35H68.6947V36H69.6947V35ZM77.5627 23.884L76.9078 23.1283L76.9014 23.1338L76.8952 23.1394L77.5627 23.884ZM77.6747 20.216L77.0464 20.9939L77.0464 20.9939L77.6747 20.216ZM73.5867 19.628V18.628H72.5867V19.628H73.5867ZM73.5867 24.612H72.5867V25.612H73.5867V24.612ZM69.728 17.3514C70.269 17.3334 71.2985 17.324 72.8307 17.324V15.324C71.3016 15.324 70.2404 15.3333 69.6614 15.3526L69.728 17.3514ZM72.8307 17.324C74.3818 17.324 75.4205 17.3334 75.9614 17.3514L76.028 15.3526C75.449 15.3333 74.3783 15.324 72.8307 15.324V17.324ZM75.9597 17.3514C77.9622 17.4216 79.2741 17.9097 80.0743 18.6528L81.4352 17.1872C80.1447 15.9889 78.2832 15.4317 76.0298 15.3526L75.9597 17.3514ZM80.0814 18.6593C80.8869 19.3929 81.3227 20.3954 81.3227 21.784H83.3227C83.3227 19.9246 82.7132 18.3511 81.428 17.1807L80.0814 18.6593ZM81.3227 21.784C81.3227 22.986 81.0174 23.9473 80.4513 24.722L82.0661 25.902C82.9187 24.7353 83.3227 23.3446 83.3227 21.784H81.3227ZM80.4493 24.7248C79.9123 25.465 79.1562 25.9666 78.1144 26.2153L78.579 28.1607C80.0386 27.8121 81.2238 27.063 82.0681 25.8992L80.4493 24.7248ZM77.7175 27.9652C78.023 28.2125 78.3669 28.5807 78.7443 29.0954L80.3571 27.9126C79.9132 27.3073 79.4545 26.7982 78.9759 26.4108L77.7175 27.9652ZM78.754 29.1084C79.1372 29.6135 79.6876 30.4324 80.4123 31.5845L82.1052 30.5195C81.3739 29.3569 80.7856 28.4772 80.3474 27.8996L78.754 29.1084ZM80.4129 31.5855C81.1667 32.7806 81.9316 34.0798 82.7075 35.4837L84.458 34.5163C83.6658 33.0829 82.8814 31.7501 82.1045 30.5185L80.4129 31.5855ZM83.5827 34H78.8787V36H83.5827V34ZM79.7593 34.5261L76.5953 28.6462L74.8341 29.5938L77.9981 35.4739L79.7593 34.5261ZM76.5926 28.6411C76.4071 28.3011 76.2141 27.9967 76.0107 27.744C75.8137 27.4992 75.5673 27.2529 75.2613 27.0896L74.3201 28.8544C74.2941 28.8405 74.3418 28.8602 74.4527 28.998C74.5573 29.128 74.6863 29.3229 74.8368 29.5989L76.5926 28.6411ZM75.3315 27.1308C74.8287 26.8076 74.1948 26.72 73.5867 26.72V28.72C73.809 28.72 73.973 28.7375 74.0889 28.7618C74.1457 28.7737 74.186 28.7862 74.213 28.7964C74.2399 28.8067 74.2505 28.8135 74.25 28.8132L75.3315 27.1308ZM72.5867 27.72V35H74.5867V27.72H72.5867ZM73.5867 34H69.6947V36H73.5867V34ZM70.6947 35V16.352H68.6947V35H70.6947ZM75.3227 25.612C76.4431 25.612 77.4547 25.3239 78.2303 24.6286L76.8952 23.1394C76.5881 23.4148 76.1063 23.612 75.3227 23.612V25.612ZM78.2176 24.6397C79.0221 23.9425 79.4027 23.0001 79.4027 21.924H77.4027C77.4027 22.4906 77.2233 22.8549 76.9078 23.1283L78.2176 24.6397ZM79.4027 21.924C79.4027 20.9412 79.0704 20.0578 78.3031 19.4381L77.0464 20.9939C77.2497 21.1582 77.4027 21.4135 77.4027 21.924H79.4027ZM78.3031 19.4381C77.5704 18.8463 76.5998 18.628 75.5467 18.628V20.628C76.3603 20.628 76.8084 20.8017 77.0464 20.9939L78.3031 19.4381ZM75.5467 18.628H73.5867V20.628H75.5467V18.628ZM72.5867 19.628V24.612H74.5867V19.628H72.5867ZM73.5867 25.612H75.3227V23.612H73.5867V25.612ZM96.9547 16.352V15.352H95.9547V16.352H96.9547ZM108.295 16.352H109.295V15.352H108.295V16.352ZM108.295 19.88V20.88H109.295V19.88H108.295ZM100.959 19.88V18.88H99.9587V19.88H100.959ZM100.959 23.604H99.9587V24.604H100.959V23.604ZM107.035 23.604H108.035V22.604H107.035V23.604ZM107.035 27.02V28.02H108.035V27.02H107.035ZM100.959 27.02V26.02H99.9587V27.02H100.959ZM100.959 31.472H99.9587V32.472H100.959V31.472ZM108.295 31.472H109.295V30.472H108.295V31.472ZM108.295 35V36H109.295V35H108.295ZM96.9547 35H95.9547V36H96.9547V35ZM96.9547 17.352H108.295V15.352H96.9547V17.352ZM107.295 16.352V19.88H109.295V16.352H107.295ZM108.295 18.88H100.959V20.88H108.295V18.88ZM99.9587 19.88V23.604H101.959V19.88H99.9587ZM100.959 24.604H107.035V22.604H100.959V24.604ZM106.035 23.604V27.02H108.035V23.604H106.035ZM107.035 26.02H100.959V28.02H107.035V26.02ZM99.9587 27.02V31.472H101.959V27.02H99.9587ZM100.959 32.472H108.295V30.472H100.959V32.472ZM107.295 31.472V35H109.295V31.472H107.295ZM108.295 34H96.9547V36H108.295V34ZM97.9547 35V16.352H95.9547V35H97.9547Z" fill="black"/>
<defs>
<filter id="filter0_d_23_509" x="0" y="0" width="133" height="52" filterUnits="userSpaceOnUse" color-interpolation-filters="sRGB">
<feFlood flood-opacity="0" result="BackgroundImageFix"/>
<feColorMatrix in="SourceAlpha" type="matrix" values="0 0 0 0 0 0 0 0 0 0 0 0 0 0 0 0 0 0 127 0" result="hardAlpha"/>
<feMorphology radius="3" operator="dilate" in="SourceAlpha" result="effect1_dropShadow_23_509"/>
<feOffset/>
<feComposite in2="hardAlpha" operator="out"/>
<feColorMatrix type="matrix" values="0 0 0 0 0 0 0 0 0 0 0 0 0 0 0 0 0 0 1 0"/>
<feBlend mode="normal" in2="BackgroundImageFix" result="effect1_dropShadow_23_509"/>
<feBlend mode="normal" in="SourceGraphic" in2="effect1_dropShadow_23_509" result="shape"/>
</filter>
<linearGradient id="paint0_linear_23_509" x1="66.5" y1="3" x2="66.5" y2="49" gradientUnits="userSpaceOnUse">
<stop stop-color="#DE803C"/>
<stop offset="0.520833" stop-color="#EE3030"/>
<stop offset="1" stop-color="#DE803C"/>
</linearGradient>
</defs>
</svg>
