<svg width="133" height="52" viewBox="0 0 133 52" fill="none" xmlns="http://www.w3.org/2000/svg">
<g filter="url(#filter0_d_23_523)">
<rect x="3" y="3" width="127" height="46" rx="23" fill="url(#paint0_linear_23_523)"/>
<rect x="4.5" y="4.5" width="124" height="43" rx="21.5" stroke="white" stroke-width="3"/>
</g>
<path d="M27.284 35.42C25.212 35.42 23.42 35.056 21.908 34.328C20.4147 33.5813 19.2667 32.5173 18.464 31.136C17.6613 29.7547 17.26 28.112 17.26 26.208C17.26 24.2107 17.68 22.4467 18.52 20.916C19.3787 19.3853 20.5733 18.2 22.104 17.36C23.6533 16.52 25.436 16.1 27.452 16.1C28.6093 16.1 29.7013 16.2307 30.728 16.492C31.7733 16.7533 32.6973 17.1267 33.5 17.612L32.52 20.972C31.792 20.524 30.98 20.1787 30.084 19.936C29.188 19.6747 28.3107 19.544 27.452 19.544C26.22 19.544 25.128 19.8147 24.176 20.356C23.2427 20.8787 22.5147 21.6253 21.992 22.596C21.488 23.548 21.236 24.6587 21.236 25.928C21.236 27.7947 21.796 29.2693 22.916 30.352C24.0547 31.416 25.604 31.948 27.564 31.948C28.348 31.948 29.076 31.892 29.748 31.78V27.916H27.396V24.64H33.472V34.328C31.5493 35.056 29.4867 35.42 27.284 35.42ZM40.0373 16.352H44.1253V23.576H52.0493V16.352H56.1653V35H52.0493V27.048H44.1253V35H40.0373V16.352ZM71.3083 35.364C69.479 35.364 67.8643 34.9627 66.4643 34.16C65.0643 33.3573 63.9723 32.228 63.1883 30.772C62.423 29.316 62.0403 27.6453 62.0403 25.76C62.0403 23.856 62.423 22.176 63.1883 20.72C63.9536 19.264 65.0363 18.1347 66.4363 17.332C67.8363 16.5293 69.4603 16.128 71.3083 16.128C73.1376 16.128 74.7523 16.5293 76.1523 17.332C77.5523 18.116 78.635 19.2267 79.4003 20.664C80.1656 22.1013 80.5483 23.7627 80.5483 25.648C80.5483 27.5707 80.1656 29.2693 79.4003 30.744C78.635 32.2 77.5523 33.3387 76.1523 34.16C74.7523 34.9627 73.1376 35.364 71.3083 35.364ZM71.3083 31.808C72.839 31.808 74.0616 31.2573 74.9763 30.156C75.9096 29.0547 76.3763 27.5893 76.3763 25.76C76.3763 24.5653 76.1616 23.5107 75.7323 22.596C75.3216 21.6627 74.7243 20.9533 73.9403 20.468C73.175 19.964 72.2976 19.712 71.3083 19.712C70.319 19.712 69.4323 19.964 68.6483 20.468C67.883 20.9533 67.2856 21.6627 66.8563 22.596C66.4456 23.5107 66.2403 24.5653 66.2403 25.76C66.2403 26.9547 66.4456 28.0093 66.8563 28.924C67.2856 29.8387 67.883 30.548 68.6483 31.052C69.4136 31.556 70.3003 31.808 71.3083 31.808ZM91.6357 35.364C90.553 35.364 89.517 35.2427 88.5277 35C87.557 34.7573 86.717 34.4307 86.0077 34.02L86.3437 30.268C87.1837 30.7907 88.061 31.2013 88.9757 31.5C89.909 31.78 90.7677 31.92 91.5517 31.92C92.4477 31.92 93.1757 31.7333 93.7357 31.36C94.2957 30.9867 94.5757 30.492 94.5757 29.876C94.5757 29.372 94.389 28.9893 94.0157 28.728C93.6423 28.448 93.0543 28.1493 92.2517 27.832L91.5797 27.552C91.4863 27.5147 91.3837 27.4773 91.2717 27.44C91.1597 27.384 91.029 27.328 90.8797 27.272C89.8343 26.8427 88.9943 26.4413 88.3597 26.068C87.725 25.676 87.1743 25.1347 86.7077 24.444C86.2597 23.7533 86.0357 22.8573 86.0357 21.756C86.0357 19.964 86.6423 18.5547 87.8557 17.528C89.069 16.5013 90.7583 15.988 92.9237 15.988C94.5663 15.988 96.2463 16.324 97.9637 16.996L97.3477 20.692C96.657 20.3 95.9103 19.992 95.1077 19.768C94.3237 19.544 93.577 19.432 92.8677 19.432C91.9903 19.432 91.309 19.6093 90.8237 19.964C90.3383 20.3 90.0957 20.7573 90.0957 21.336C90.0957 21.84 90.2637 22.232 90.5997 22.512C90.9357 22.792 91.477 23.0907 92.2237 23.408L93.3717 23.856C94.4543 24.2667 95.3503 24.668 96.0597 25.06C96.769 25.452 97.3757 26.0213 97.8797 26.768C98.3837 27.496 98.6357 28.448 98.6357 29.624C98.6357 31.4347 98.0197 32.844 96.7877 33.852C95.5557 34.86 93.8383 35.364 91.6357 35.364ZM108.632 19.88H103.536V16.352H117.76V19.88H112.72V35H108.632V19.88Z" fill="white"/>
<path d="M21.908 34.328L21.4608 35.2224L21.4675 35.2258L21.4742 35.229L21.908 34.328ZM18.464 31.136L19.3286 30.6336L18.464 31.136ZM18.52 20.916L17.6478 20.4267L17.6433 20.4349L18.52 20.916ZM22.104 17.36L21.6274 16.4809L21.6229 16.4833L22.104 17.36ZM30.728 16.492L30.4813 17.4611L30.4855 17.4621L30.728 16.492ZM33.5 17.612L34.46 17.892L34.6752 17.154L34.0174 16.7563L33.5 17.612ZM32.52 20.972L31.9959 21.8237L33.1128 22.511L33.48 21.252L32.52 20.972ZM30.084 19.936L29.804 20.896L29.8133 20.8987L29.8226 20.9012L30.084 19.936ZM24.176 20.356L24.6646 21.2285L24.6703 21.2253L24.176 20.356ZM21.992 22.596L21.1115 22.1219L21.1082 22.1281L21.992 22.596ZM22.916 30.352L22.221 31.071L22.2271 31.0769L22.2333 31.0827L22.916 30.352ZM29.748 31.78L29.9124 32.7664L30.748 32.6271V31.78H29.748ZM29.748 27.916H30.748V26.916H29.748V27.916ZM27.396 27.916H26.396V28.916H27.396V27.916ZM27.396 24.64V23.64H26.396V24.64H27.396ZM33.472 24.64H34.472V23.64H33.472V24.64ZM33.472 34.328L33.8261 35.2632L34.472 35.0186V34.328H33.472ZM27.284 34.42C25.3277 34.42 23.6905 34.0764 22.3418 33.427L21.4742 35.229C23.1495 36.0356 25.0963 36.42 27.284 36.42V34.42ZM22.3552 33.4336C21.028 32.77 20.0288 31.8385 19.3286 30.6336L17.5994 31.6384C18.5045 33.1961 19.8014 34.3927 21.4608 35.2224L22.3552 33.4336ZM19.3286 30.6336C18.6303 29.4318 18.26 27.9695 18.26 26.208H16.26C16.26 28.2545 16.6924 30.0776 17.5994 31.6384L19.3286 30.6336ZM18.26 26.208C18.26 24.3544 18.6486 22.7603 19.3967 21.3971L17.6433 20.4349C16.7114 22.1331 16.26 24.067 16.26 26.208H18.26ZM19.3921 21.4053C20.1598 20.0369 21.2194 18.9862 22.5851 18.2367L21.6229 16.4833C19.9273 17.4138 18.5976 18.7338 17.6479 20.4267L19.3921 21.4053ZM22.5806 18.2391C23.9637 17.4892 25.5783 17.1 27.452 17.1V15.1C25.2937 15.1 23.3429 15.5508 21.6274 16.4809L22.5806 18.2391ZM27.452 17.1C28.5337 17.1 29.5423 17.2221 30.4813 17.4611L30.9747 15.5229C29.8603 15.2393 28.6849 15.1 27.452 15.1V17.1ZM30.4855 17.4621C31.4481 17.7028 32.2769 18.0411 32.9826 18.4677L34.0174 16.7563C33.1177 16.2123 32.0986 15.8039 30.9705 15.5219L30.4855 17.4621ZM32.54 17.332L31.56 20.692L33.48 21.252L34.46 17.892L32.54 17.332ZM33.0441 20.1203C32.2277 19.618 31.3261 19.2364 30.3454 18.9708L29.8226 20.9012C30.6339 21.121 31.3563 21.43 31.9959 21.8237L33.0441 20.1203ZM30.364 18.976C29.3849 18.6904 28.4133 18.544 27.452 18.544V20.544C28.2081 20.544 28.9911 20.6589 29.804 20.896L30.364 18.976ZM27.452 18.544C26.0688 18.544 24.8024 18.8494 23.6817 19.4867L24.6703 21.2253C25.4536 20.7799 26.3712 20.544 27.452 20.544V18.544ZM23.6874 19.4835C22.583 20.102 21.7214 20.9893 21.1115 22.1219L22.8725 23.0701C23.3079 22.2614 23.9024 21.6554 24.6646 21.2285L23.6874 19.4835ZM21.1082 22.1281C20.5154 23.2479 20.236 24.5246 20.236 25.928H22.236C22.236 24.7927 22.4606 23.8481 22.8758 23.0639L21.1082 22.1281ZM20.236 25.928C20.236 28.0079 20.868 29.7631 22.221 31.071L23.611 29.633C22.724 28.7755 22.236 27.5814 22.236 25.928H20.236ZM22.2333 31.0827C23.6016 32.3612 25.4187 32.948 27.564 32.948V30.948C25.7893 30.948 24.5078 30.4708 23.5987 29.6213L22.2333 31.0827ZM27.564 32.948C28.395 32.948 29.1787 32.8887 29.9124 32.7664L29.5836 30.7936C28.9733 30.8953 28.301 30.948 27.564 30.948V32.948ZM30.748 31.78V27.916H28.748V31.78H30.748ZM29.748 26.916H27.396V28.916H29.748V26.916ZM28.396 27.916V24.64H26.396V27.916H28.396ZM27.396 25.64H33.472V23.64H27.396V25.64ZM32.472 24.64V34.328H34.472V24.64H32.472ZM33.1179 33.3928C31.3162 34.075 29.3744 34.42 27.284 34.42V36.42C29.599 36.42 31.7824 36.037 33.8261 35.2632L33.1179 33.3928ZM40.0373 16.352V15.352H39.0373V16.352H40.0373ZM44.1253 16.352H45.1253V15.352H44.1253V16.352ZM44.1253 23.576H43.1253V24.576H44.1253V23.576ZM52.0493 23.576V24.576H53.0493V23.576H52.0493ZM52.0493 16.352V15.352H51.0493V16.352H52.0493ZM56.1653 16.352H57.1653V15.352H56.1653V16.352ZM56.1653 35V36H57.1653V35H56.1653ZM52.0493 35H51.0493V36H52.0493V35ZM52.0493 27.048H53.0493V26.048H52.0493V27.048ZM44.1253 27.048V26.048H43.1253V27.048H44.1253ZM44.1253 35V36H45.1253V35H44.1253ZM40.0373 35H39.0373V36H40.0373V35ZM40.0373 17.352H44.1253V15.352H40.0373V17.352ZM43.1253 16.352V23.576H45.1253V16.352H43.1253ZM44.1253 24.576H52.0493V22.576H44.1253V24.576ZM53.0493 23.576V16.352H51.0493V23.576H53.0493ZM52.0493 17.352H56.1653V15.352H52.0493V17.352ZM55.1653 16.352V35H57.1653V16.352H55.1653ZM56.1653 34H52.0493V36H56.1653V34ZM53.0493 35V27.048H51.0493V35H53.0493ZM52.0493 26.048H44.1253V28.048H52.0493V26.048ZM43.1253 27.048V35H45.1253V27.048H43.1253ZM44.1253 34H40.0373V36H44.1253V34ZM41.0373 35V16.352H39.0373V35H41.0373ZM66.4643 34.16L66.9617 33.2925L66.4643 34.16ZM63.1883 30.772L62.3031 31.2373L62.3078 31.2461L63.1883 30.772ZM63.1883 20.72L62.3031 20.2547L63.1883 20.72ZM66.4363 17.332L65.9389 16.4645V16.4645L66.4363 17.332ZM76.1523 17.332L75.6549 18.1996L75.6637 18.2045L76.1523 17.332ZM79.4003 20.664L78.5176 21.134L79.4003 20.664ZM79.4003 30.744L80.2855 31.2093L80.2879 31.2046L79.4003 30.744ZM76.1523 34.16L76.6497 35.0276L76.6583 35.0225L76.1523 34.16ZM74.9763 30.156L74.2134 29.5094L74.207 29.5171L74.9763 30.156ZM75.7323 22.596L74.817 22.9987L74.8219 23.0099L74.8271 23.0209L75.7323 22.596ZM73.9403 20.468L73.3903 21.3032L73.402 21.3109L73.414 21.3183L73.9403 20.468ZM68.6483 20.468L69.1839 21.3125L69.1891 21.3092L68.6483 20.468ZM66.8563 22.596L65.9478 22.1781L65.944 22.1864L66.8563 22.596ZM66.8563 28.924L65.944 29.3336L65.9475 29.3413L65.9511 29.3489L66.8563 28.924ZM68.6483 31.052L69.1983 30.2168L68.6483 31.052ZM71.3083 34.364C69.6298 34.364 68.191 33.9973 66.9617 33.2925L65.9669 35.0275C67.5377 35.9281 69.3282 36.364 71.3083 36.364V34.364ZM66.9617 33.2925C65.7278 32.585 64.7666 31.5939 64.0688 30.2979L62.3078 31.2461C63.178 32.8621 64.4009 34.1296 65.9669 35.0275L66.9617 33.2925ZM64.0735 30.3067C63.3939 29.014 63.0403 27.5071 63.0403 25.76H61.0403C61.0403 27.7836 61.452 29.618 62.3031 31.2373L64.0735 30.3067ZM63.0403 25.76C63.0403 23.9925 63.3947 22.4767 64.0735 21.1853L62.3031 20.2547C61.4513 21.8753 61.0403 23.7195 61.0403 25.76H63.0403ZM64.0735 21.1853C64.7522 19.8941 65.7019 18.9058 66.9337 18.1995L65.9389 16.4645C64.3707 17.3636 63.1551 18.6339 62.3031 20.2547L64.0735 21.1853ZM66.9337 18.1995C68.1615 17.4956 69.6091 17.128 71.3083 17.128V15.128C69.3115 15.128 67.5112 15.5631 65.9389 16.4645L66.9337 18.1995ZM71.3083 17.128C72.9869 17.128 74.4257 17.4947 75.6549 18.1995L76.6497 16.4645C75.079 15.5639 73.2884 15.128 71.3083 15.128V17.128ZM75.6637 18.2045C76.8939 18.8934 77.841 19.8632 78.5176 21.134L80.283 20.194C79.429 18.5902 78.2107 17.3386 76.6409 16.4595L75.6637 18.2045ZM78.5176 21.134C79.1946 22.4053 79.5483 23.9006 79.5483 25.648H81.5483C81.5483 23.6248 81.1367 21.7974 80.283 20.194L78.5176 21.134ZM79.5483 25.648C79.5483 27.4356 79.1934 28.9719 78.5127 30.2834L80.2879 31.2046C81.1379 29.5668 81.5483 27.7057 81.5483 25.648H79.5483ZM78.5151 30.2787C77.8354 31.5719 76.8831 32.5719 75.6463 33.2975L76.6583 35.0225C78.2216 34.1054 79.4345 32.8281 80.2855 31.2093L78.5151 30.2787ZM75.6549 33.2925C74.4257 33.9973 72.9869 34.364 71.3083 34.364V36.364C73.2884 36.364 75.079 35.9281 76.6497 35.0275L75.6549 33.2925ZM71.3083 32.808C73.1128 32.808 74.6264 32.1425 75.7456 30.7949L74.207 29.5171C73.4969 30.3722 72.5651 30.808 71.3083 30.808V32.808ZM75.7392 30.8025C76.8629 29.4765 77.3763 27.7612 77.3763 25.76H75.3763C75.3763 27.4175 74.9564 28.6328 74.2134 29.5095L75.7392 30.8025ZM77.3763 25.76C77.3763 24.445 77.1397 23.2408 76.6376 22.1711L74.8271 23.0209C75.1836 23.7805 75.3763 24.6857 75.3763 25.76H77.3763ZM76.6476 22.1933C76.1645 21.0953 75.4406 20.2207 74.4667 19.6177L73.414 21.3183C74.008 21.686 74.4788 22.23 74.817 22.9987L76.6476 22.1933ZM74.4903 19.6328C73.5486 19.0127 72.4769 18.712 71.3083 18.712V20.712C72.1184 20.712 72.8013 20.9153 73.3903 21.3032L74.4903 19.6328ZM71.3083 18.712C70.1396 18.712 69.0629 19.0126 68.1076 19.6268L69.1891 21.3092C69.8017 20.9154 70.4984 20.712 71.3083 20.712V18.712ZM68.1128 19.6235C67.1635 20.2254 66.4467 21.0937 65.9478 22.1781L67.7648 23.0139C68.1246 22.2317 68.6024 21.6812 69.1839 21.3125L68.1128 19.6235ZM65.944 22.1864C65.4655 23.2521 65.2403 24.4508 65.2403 25.76H67.2403C67.2403 24.6799 67.4257 23.7692 67.7686 23.0056L65.944 22.1864ZM65.2403 25.76C65.2403 27.0692 65.4655 28.2679 65.944 29.3336L67.7686 28.5144C67.4257 27.7508 67.2403 26.8401 67.2403 25.76H65.2403ZM65.9511 29.3489C66.4504 30.4128 67.1635 31.2715 68.0983 31.8872L69.1983 30.2168C68.6025 29.8244 68.1208 29.2645 67.7615 28.4991L65.9511 29.3489ZM68.0983 31.8872C69.0431 32.5094 70.1251 32.808 71.3083 32.808V30.808C70.4755 30.808 69.7842 30.6026 69.1983 30.2168L68.0983 31.8872ZM88.5277 35L88.2851 35.9702L88.2894 35.9712L88.5277 35ZM86.0077 34.02L85.0116 33.9308L84.9548 34.5659L85.5066 34.8854L86.0077 34.02ZM86.3437 30.268L86.872 29.4189L85.4926 28.5606L85.3476 30.1788L86.3437 30.268ZM88.9757 31.5L88.6653 32.4506L88.6767 32.4544L88.6883 32.4578L88.9757 31.5ZM93.7357 31.36L93.181 30.528L93.7357 31.36ZM94.0157 28.728L93.4157 29.528L93.4288 29.5378L93.4422 29.5472L94.0157 28.728ZM92.2517 27.832L91.867 28.7551L91.8755 28.7586L91.884 28.762L92.2517 27.832ZM91.5797 27.552L91.9643 26.6289L91.9577 26.6262L91.951 26.6235L91.5797 27.552ZM91.2717 27.44L90.8244 28.3344L90.888 28.3662L90.9554 28.3887L91.2717 27.44ZM90.8797 27.272L90.4997 28.197L90.514 28.2029L90.5285 28.2083L90.8797 27.272ZM88.3597 26.068L87.8342 26.9188L87.8433 26.9245L87.8526 26.9299L88.3597 26.068ZM86.7077 24.444L85.8687 24.9882L85.8738 24.9961L85.8791 25.0039L86.7077 24.444ZM97.9637 16.996L98.9501 17.1604L99.0834 16.3603L98.3281 16.0648L97.9637 16.996ZM97.3477 20.692L96.854 21.5617L98.0988 22.2681L98.3341 20.8564L97.3477 20.692ZM95.1077 19.768L94.8329 20.7295L94.8389 20.7312L95.1077 19.768ZM90.8237 19.964L91.3929 20.7862L91.4034 20.7789L91.4137 20.7714L90.8237 19.964ZM90.5997 22.512L89.9595 23.2802V23.2802L90.5997 22.512ZM92.2237 23.408L91.8325 24.3283L91.8462 24.3342L91.8601 24.3396L92.2237 23.408ZM93.3717 23.856L93.0081 24.7876L93.017 24.791L93.3717 23.856ZM96.0597 25.06L95.576 25.9352L96.0597 25.06ZM97.8797 26.768L97.0508 27.3275L97.0575 27.3372L97.8797 26.768ZM96.7877 33.852L96.1544 33.078L96.7877 33.852ZM91.6357 34.364C90.6283 34.364 89.6725 34.2512 88.7659 34.0288L88.2894 35.9712C89.3615 36.2342 90.4777 36.364 91.6357 36.364V34.364ZM88.7702 34.0299C87.871 33.8051 87.1217 33.5095 86.5087 33.1546L85.5066 34.8854C86.3123 35.3519 87.243 35.7096 88.2851 35.9701L88.7702 34.0299ZM87.0037 34.1092L87.3397 30.3572L85.3476 30.1788L85.0116 33.9308L87.0037 34.1092ZM85.8154 31.1171C86.7217 31.681 87.672 32.1263 88.6653 32.4506L89.2861 30.5494C88.45 30.2764 87.6456 29.9003 86.872 29.4189L85.8154 31.1171ZM88.6883 32.4578C89.6932 32.7593 90.6501 32.92 91.5517 32.92V30.92C90.8852 30.92 90.1247 30.8007 89.263 30.5422L88.6883 32.4578ZM91.5517 32.92C92.5809 32.92 93.5198 32.7058 94.2904 32.192L93.181 30.528C92.8315 30.7609 92.3144 30.92 91.5517 30.92V32.92ZM94.2904 32.1921C95.0981 31.6535 95.5757 30.8614 95.5757 29.876H93.5757C93.5757 30.1226 93.4932 30.3198 93.181 30.528L94.2904 32.1921ZM95.5757 29.876C95.5757 29.086 95.2612 28.3792 94.5891 27.9088L93.4422 29.5472C93.5168 29.5994 93.5757 29.658 93.5757 29.876H95.5757ZM94.6157 27.928C94.1344 27.567 93.4474 27.2294 92.6193 26.902L91.884 28.762C92.6613 29.0693 93.1503 29.329 93.4157 29.528L94.6157 27.928ZM92.6363 26.9089L91.9643 26.6289L91.195 28.4751L91.867 28.7551L92.6363 26.9089ZM91.951 26.6235C91.8367 26.5778 91.7154 26.5338 91.5879 26.4913L90.9554 28.3887C91.0519 28.4209 91.1359 28.4515 91.2083 28.4805L91.951 26.6235ZM91.7189 26.5456C91.5685 26.4704 91.4045 26.4008 91.2308 26.3357L90.5285 28.2083C90.6535 28.2552 90.7508 28.2976 90.8244 28.3344L91.7189 26.5456ZM91.2596 26.347C90.2375 25.9272 89.4451 25.5463 88.8667 25.2061L87.8526 26.9299C88.5436 27.3364 89.4311 27.7581 90.4997 28.197L91.2596 26.347ZM88.8851 25.2172C88.3844 24.9079 87.933 24.4713 87.5362 23.8841L85.8791 25.0039C86.4157 25.798 87.0656 26.4441 87.8342 26.9188L88.8851 25.2172ZM87.5466 23.8998C87.2337 23.4174 87.0357 22.7279 87.0357 21.756H85.0357C85.0357 22.9868 85.2856 24.0892 85.8687 24.9882L87.5466 23.8998ZM87.0357 21.756C87.0357 20.2161 87.5431 19.1025 88.5016 18.2914L87.2097 16.7646C85.7416 18.0069 85.0357 19.7119 85.0357 21.756H87.0357ZM88.5016 18.2914C89.4782 17.465 90.9091 16.988 92.9237 16.988V14.988C90.6076 14.988 88.6598 15.5377 87.2097 16.7646L88.5016 18.2914ZM92.9237 16.988C94.4273 16.988 95.9839 17.2951 97.5993 17.9272L98.3281 16.0648C96.5088 15.3529 94.7054 14.988 92.9237 14.988V16.988ZM96.9773 16.8316L96.3613 20.5276L98.3341 20.8564L98.9501 17.1604L96.9773 16.8316ZM97.8413 19.8223C97.0763 19.3882 96.2537 19.0496 95.3765 18.8048L94.8389 20.7312C95.5669 20.9344 96.2376 21.2118 96.854 21.5617L97.8413 19.8223ZM95.3824 18.8065C94.5221 18.5607 93.6826 18.432 92.8677 18.432V20.432C93.4714 20.432 94.1252 20.5273 94.8329 20.7295L95.3824 18.8065ZM92.8677 18.432C91.8716 18.432 90.9527 18.6311 90.2336 19.1566L91.4137 20.7714C91.6652 20.5876 92.1091 20.432 92.8677 20.432V18.432ZM90.2544 19.1418C89.5058 19.6601 89.0957 20.4214 89.0957 21.336H91.0957C91.0957 21.0933 91.1709 20.9399 91.3929 20.7862L90.2544 19.1418ZM89.0957 21.336C89.0957 22.0863 89.3593 22.7801 89.9595 23.2802L91.2398 21.7438C91.168 21.6839 91.0957 21.5937 91.0957 21.336H89.0957ZM89.9595 23.2802C90.4095 23.6552 91.0588 23.9995 91.8325 24.3283L92.6148 22.4877C91.8952 22.1818 91.4619 21.9288 91.2398 21.7438L89.9595 23.2802ZM91.8601 24.3396L93.0081 24.7876L93.7352 22.9244L92.5872 22.4764L91.8601 24.3396ZM93.017 24.791C94.0724 25.1913 94.9216 25.5736 95.576 25.9352L96.5433 24.1848C95.7791 23.7624 94.8362 23.342 93.7263 22.921L93.017 24.791ZM95.576 25.9352C96.132 26.2425 96.6253 26.697 97.0508 27.3275L98.7085 26.2085C98.126 25.3456 97.4059 24.6614 96.5433 24.1848L95.576 25.9352ZM97.0575 27.3372C97.4132 27.851 97.6357 28.5856 97.6357 29.624H99.6357C99.6357 28.3104 99.3541 27.141 98.7019 26.1988L97.0575 27.3372ZM97.6357 29.624C97.6357 31.1811 97.1206 32.2875 96.1544 33.078L97.4209 34.626C98.9187 33.4005 99.6357 31.6882 99.6357 29.624H97.6357ZM96.1544 33.078C95.1589 33.8926 93.6952 34.364 91.6357 34.364V36.364C93.9814 36.364 95.9524 35.8274 97.4209 34.626L96.1544 33.078ZM108.632 19.88H109.632V18.88H108.632V19.88ZM103.536 19.88H102.536V20.88H103.536V19.88ZM103.536 16.352V15.352H102.536V16.352H103.536ZM117.76 16.352H118.76V15.352H117.76V16.352ZM117.76 19.88V20.88H118.76V19.88H117.76ZM112.72 19.88V18.88H111.72V19.88H112.72ZM112.72 35V36H113.72V35H112.72ZM108.632 35H107.632V36H108.632V35ZM108.632 18.88H103.536V20.88H108.632V18.88ZM104.536 19.88V16.352H102.536V19.88H104.536ZM103.536 17.352H117.76V15.352H103.536V17.352ZM116.76 16.352V19.88H118.76V16.352H116.76ZM117.76 18.88H112.72V20.88H117.76V18.88ZM111.72 19.88V35H113.72V19.88H111.72ZM112.72 34H108.632V36H112.72V34ZM109.632 35V19.88H107.632V35H109.632Z" fill="black"/>
<defs>
<filter id="filter0_d_23_523" x="0" y="0" width="133" height="52" filterUnits="userSpaceOnUse" color-interpolation-filters="sRGB">
<feFlood flood-opacity="0" result="BackgroundImageFix"/>
<feColorMatrix in="SourceAlpha" type="matrix" values="0 0 0 0 0 0 0 0 0 0 0 0 0 0 0 0 0 0 127 0" result="hardAlpha"/>
<feMorphology radius="3" operator="dilate" in="SourceAlpha" result="effect1_dropShadow_23_523"/>
<feOffset/>
<feComposite in2="hardAlpha" operator="out"/>
<feColorMatrix type="matrix" values="0 0 0 0 0 0 0 0 0 0 0 0 0 0 0 0 0 0 1 0"/>
<feBlend mode="normal" in2="BackgroundImageFix" result="effect1_dropShadow_23_523"/>
<feBlend mode="normal" in="SourceGraphic" in2="effect1_dropShadow_23_523" result="shape"/>
</filter>
<linearGradient id="paint0_linear_23_523" x1="66.5" y1="3" x2="66.5" y2="49" gradientUnits="userSpaceOnUse">
<stop stop-color="#5243B1"/>
<stop offset="0.0001" stop-color="#7D6EDC"/>
<stop offset="0.520833" stop-color="#2E2374"/>
<stop offset="1" stop-color="#7D6EDC"/>
</linearGradient>
</defs>
</svg>
