<svg width="133" height="52" viewBox="0 0 133 52" fill="none" xmlns="http://www.w3.org/2000/svg">
<g filter="url(#filter0_d_23_529)">
<rect x="3" y="3" width="127" height="46" rx="23" fill="url(#paint0_linear_23_529)"/>
<rect x="4.5" y="4.5" width="124" height="43" rx="21.5" stroke="white" stroke-width="3"/>
</g>
<path d="M27.284 35.42C25.212 35.42 23.42 35.056 21.908 34.328C20.4147 33.5813 19.2667 32.5173 18.464 31.136C17.6613 29.7547 17.26 28.112 17.26 26.208C17.26 24.2107 17.68 22.4467 18.52 20.916C19.3787 19.3853 20.5733 18.2 22.104 17.36C23.6533 16.52 25.436 16.1 27.452 16.1C28.6093 16.1 29.7013 16.2307 30.728 16.492C31.7733 16.7533 32.6973 17.1267 33.5 17.612L32.52 20.972C31.792 20.524 30.98 20.1787 30.084 19.936C29.188 19.6747 28.3107 19.544 27.452 19.544C26.22 19.544 25.128 19.8147 24.176 20.356C23.2427 20.8787 22.5147 21.6253 21.992 22.596C21.488 23.548 21.236 24.6587 21.236 25.928C21.236 27.7947 21.796 29.2693 22.916 30.352C24.0547 31.416 25.604 31.948 27.564 31.948C28.348 31.948 29.076 31.892 29.748 31.78V27.916H27.396V24.64H33.472V34.328C31.5493 35.056 29.4867 35.42 27.284 35.42ZM42.1653 16.352C42.7253 16.3333 43.7707 16.324 45.3013 16.324C46.8507 16.324 47.9053 16.3333 48.4653 16.352C50.5933 16.4267 52.18 16.9493 53.2253 17.92C54.2707 18.872 54.7933 20.16 54.7933 21.784C54.7933 23.1653 54.4387 24.3413 53.7293 25.312C53.0387 26.264 52.068 26.8893 50.8173 27.188C51.2093 27.5053 51.6107 27.944 52.0213 28.504C52.432 29.0453 53.0013 29.8947 53.7293 31.052C54.4947 32.2653 55.2693 33.5813 56.0533 35H51.3493L48.1853 29.12C47.8493 28.504 47.5413 28.1213 47.2613 27.972C47 27.804 46.5987 27.72 46.0573 27.72V35H42.1653V16.352ZM47.7933 24.612C48.7453 24.612 49.492 24.3693 50.0333 23.884C50.5933 23.3987 50.8733 22.7453 50.8733 21.924C50.8733 21.1773 50.6307 20.608 50.1453 20.216C49.66 19.824 48.9507 19.628 48.0173 19.628H46.0573V24.612H47.7933ZM68.0533 16.352H72.9253L79.8413 35H75.6413L74.1293 30.744H66.7933L65.3653 35H61.2213L68.0533 16.352ZM72.9253 27.272L70.4053 20.132L67.9693 27.272H72.9253ZM91.9572 35.364C90.8746 35.364 89.8386 35.2427 88.8492 35C87.8786 34.7573 87.0386 34.4307 86.3292 34.02L86.6652 30.268C87.5052 30.7907 88.3826 31.2013 89.2972 31.5C90.2306 31.78 91.0892 31.92 91.8732 31.92C92.7692 31.92 93.4972 31.7333 94.0572 31.36C94.6172 30.9867 94.8972 30.492 94.8972 29.876C94.8972 29.372 94.7106 28.9893 94.3372 28.728C93.9639 28.448 93.3759 28.1493 92.5732 27.832L91.9012 27.552C91.8079 27.5147 91.7052 27.4773 91.5932 27.44C91.4812 27.384 91.3506 27.328 91.2012 27.272C90.1559 26.8427 89.3159 26.4413 88.6812 26.068C88.0466 25.676 87.4959 25.1347 87.0292 24.444C86.5812 23.7533 86.3572 22.8573 86.3572 21.756C86.3572 19.964 86.9639 18.5547 88.1772 17.528C89.3906 16.5013 91.0799 15.988 93.2452 15.988C94.8879 15.988 96.5679 16.324 98.2852 16.996L97.6692 20.692C96.9786 20.3 96.2319 19.992 95.4292 19.768C94.6452 19.544 93.8986 19.432 93.1892 19.432C92.3119 19.432 91.6306 19.6093 91.1452 19.964C90.6599 20.3 90.4172 20.7573 90.4172 21.336C90.4172 21.84 90.5852 22.232 90.9212 22.512C91.2572 22.792 91.7986 23.0907 92.5452 23.408L93.6932 23.856C94.7759 24.2667 95.6719 24.668 96.3812 25.06C97.0906 25.452 97.6972 26.0213 98.2012 26.768C98.7052 27.496 98.9572 28.448 98.9572 29.624C98.9572 31.4347 98.3412 32.844 97.1092 33.852C95.8772 34.86 94.1599 35.364 91.9572 35.364ZM111.872 35.364C110.79 35.364 109.754 35.2427 108.764 35C107.794 34.7573 106.954 34.4307 106.244 34.02L106.58 30.268C107.42 30.7907 108.298 31.2013 109.212 31.5C110.146 31.78 111.004 31.92 111.788 31.92C112.684 31.92 113.412 31.7333 113.972 31.36C114.532 30.9867 114.812 30.492 114.812 29.876C114.812 29.372 114.626 28.9893 114.252 28.728C113.879 28.448 113.291 28.1493 112.488 27.832L111.816 27.552C111.723 27.5147 111.62 27.4773 111.508 27.44C111.396 27.384 111.266 27.328 111.116 27.272C110.071 26.8427 109.231 26.4413 108.596 26.068C107.962 25.676 107.411 25.1347 106.944 24.444C106.496 23.7533 106.272 22.8573 106.272 21.756C106.272 19.964 106.879 18.5547 108.092 17.528C109.306 16.5013 110.995 15.988 113.16 15.988C114.803 15.988 116.483 16.324 118.2 16.996L117.584 20.692C116.894 20.3 116.147 19.992 115.344 19.768C114.56 19.544 113.814 19.432 113.104 19.432C112.227 19.432 111.546 19.6093 111.06 19.964C110.575 20.3 110.332 20.7573 110.332 21.336C110.332 21.84 110.5 22.232 110.836 22.512C111.172 22.792 111.714 23.0907 112.46 23.408L113.608 23.856C114.691 24.2667 115.587 24.668 116.296 25.06C117.006 25.452 117.612 26.0213 118.116 26.768C118.62 27.496 118.872 28.448 118.872 29.624C118.872 31.4347 118.256 32.844 117.024 33.852C115.792 34.86 114.075 35.364 111.872 35.364Z" fill="white"/>
<path d="M21.908 34.328L21.4608 35.2224L21.4675 35.2258L21.4742 35.229L21.908 34.328ZM18.464 31.136L19.3286 30.6336L18.464 31.136ZM18.52 20.916L17.6478 20.4267L17.6433 20.4349L18.52 20.916ZM22.104 17.36L21.6274 16.4809L21.6229 16.4833L22.104 17.36ZM30.728 16.492L30.4813 17.4611L30.4855 17.4621L30.728 16.492ZM33.5 17.612L34.46 17.892L34.6752 17.154L34.0174 16.7563L33.5 17.612ZM32.52 20.972L31.9959 21.8237L33.1128 22.511L33.48 21.252L32.52 20.972ZM30.084 19.936L29.804 20.896L29.8133 20.8987L29.8226 20.9012L30.084 19.936ZM24.176 20.356L24.6646 21.2285L24.6703 21.2253L24.176 20.356ZM21.992 22.596L21.1115 22.1219L21.1082 22.1281L21.992 22.596ZM22.916 30.352L22.221 31.071L22.2271 31.0769L22.2333 31.0827L22.916 30.352ZM29.748 31.78L29.9124 32.7664L30.748 32.6271V31.78H29.748ZM29.748 27.916H30.748V26.916H29.748V27.916ZM27.396 27.916H26.396V28.916H27.396V27.916ZM27.396 24.64V23.64H26.396V24.64H27.396ZM33.472 24.64H34.472V23.64H33.472V24.64ZM33.472 34.328L33.8261 35.2632L34.472 35.0186V34.328H33.472ZM27.284 34.42C25.3277 34.42 23.6905 34.0764 22.3418 33.427L21.4742 35.229C23.1495 36.0356 25.0963 36.42 27.284 36.42V34.42ZM22.3552 33.4336C21.028 32.77 20.0288 31.8385 19.3286 30.6336L17.5994 31.6384C18.5045 33.1961 19.8014 34.3927 21.4608 35.2224L22.3552 33.4336ZM19.3286 30.6336C18.6303 29.4318 18.26 27.9695 18.26 26.208H16.26C16.26 28.2545 16.6924 30.0776 17.5994 31.6384L19.3286 30.6336ZM18.26 26.208C18.26 24.3544 18.6486 22.7603 19.3967 21.3971L17.6433 20.4349C16.7114 22.1331 16.26 24.067 16.26 26.208H18.26ZM19.3921 21.4053C20.1598 20.0369 21.2194 18.9862 22.5851 18.2367L21.6229 16.4833C19.9273 17.4138 18.5976 18.7338 17.6479 20.4267L19.3921 21.4053ZM22.5806 18.2391C23.9637 17.4892 25.5783 17.1 27.452 17.1V15.1C25.2937 15.1 23.3429 15.5508 21.6274 16.4809L22.5806 18.2391ZM27.452 17.1C28.5337 17.1 29.5423 17.2221 30.4813 17.4611L30.9747 15.5229C29.8603 15.2393 28.6849 15.1 27.452 15.1V17.1ZM30.4855 17.4621C31.4481 17.7028 32.2769 18.0411 32.9826 18.4677L34.0174 16.7563C33.1177 16.2123 32.0986 15.8039 30.9705 15.5219L30.4855 17.4621ZM32.54 17.332L31.56 20.692L33.48 21.252L34.46 17.892L32.54 17.332ZM33.0441 20.1203C32.2277 19.618 31.3261 19.2364 30.3454 18.9708L29.8226 20.9012C30.6339 21.121 31.3563 21.43 31.9959 21.8237L33.0441 20.1203ZM30.364 18.976C29.3849 18.6904 28.4133 18.544 27.452 18.544V20.544C28.2081 20.544 28.9911 20.6589 29.804 20.896L30.364 18.976ZM27.452 18.544C26.0688 18.544 24.8024 18.8494 23.6817 19.4867L24.6703 21.2253C25.4536 20.7799 26.3712 20.544 27.452 20.544V18.544ZM23.6874 19.4835C22.583 20.102 21.7214 20.9893 21.1115 22.1219L22.8725 23.0701C23.3079 22.2614 23.9024 21.6554 24.6646 21.2285L23.6874 19.4835ZM21.1082 22.1281C20.5154 23.2479 20.236 24.5246 20.236 25.928H22.236C22.236 24.7927 22.4606 23.8481 22.8758 23.0639L21.1082 22.1281ZM20.236 25.928C20.236 28.0079 20.868 29.7631 22.221 31.071L23.611 29.633C22.724 28.7755 22.236 27.5814 22.236 25.928H20.236ZM22.2333 31.0827C23.6016 32.3612 25.4187 32.948 27.564 32.948V30.948C25.7893 30.948 24.5078 30.4708 23.5987 29.6213L22.2333 31.0827ZM27.564 32.948C28.395 32.948 29.1787 32.8887 29.9124 32.7664L29.5836 30.7936C28.9733 30.8953 28.301 30.948 27.564 30.948V32.948ZM30.748 31.78V27.916H28.748V31.78H30.748ZM29.748 26.916H27.396V28.916H29.748V26.916ZM28.396 27.916V24.64H26.396V27.916H28.396ZM27.396 25.64H33.472V23.64H27.396V25.64ZM32.472 24.64V34.328H34.472V24.64H32.472ZM33.1179 33.3928C31.3162 34.075 29.3744 34.42 27.284 34.42V36.42C29.599 36.42 31.7824 36.037 33.8261 35.2632L33.1179 33.3928ZM42.1653 16.352L42.132 15.3526L41.1653 15.3848V16.352H42.1653ZM48.4653 16.352L48.5004 15.3526L48.4987 15.3526L48.4653 16.352ZM53.2253 17.92L52.5449 18.6528L52.552 18.6593L53.2253 17.92ZM53.7293 25.312L52.922 24.722L52.9199 24.7248L53.7293 25.312ZM50.8173 27.188L50.5851 26.2153L48.6093 26.6872L50.1881 27.9652L50.8173 27.188ZM52.0213 28.504L51.2149 29.0954L51.2197 29.1019L51.2247 29.1084L52.0213 28.504ZM53.7293 31.052L52.8829 31.5845L52.8835 31.5855L53.7293 31.052ZM56.0533 35V36H57.7485L56.9286 34.5163L56.0533 35ZM51.3493 35L50.4687 35.4739L50.7519 36H51.3493V35ZM48.1853 29.12L49.066 28.6461L49.0632 28.6411L48.1853 29.12ZM47.2613 27.972L46.7206 28.8132L46.7548 28.8352L46.7908 28.8544L47.2613 27.972ZM46.0573 27.72V26.72H45.0573V27.72H46.0573ZM46.0573 35V36H47.0573V35H46.0573ZM42.1653 35H41.1653V36H42.1653V35ZM50.0333 23.884L49.3784 23.1283L49.3721 23.1338L49.3658 23.1394L50.0333 23.884ZM50.1453 20.216L49.517 20.9939L49.517 20.9939L50.1453 20.216ZM46.0573 19.628V18.628H45.0573V19.628H46.0573ZM46.0573 24.612H45.0573V25.612H46.0573V24.612ZM42.1987 17.3514C42.7396 17.3334 43.7691 17.324 45.3013 17.324V15.324C43.7723 15.324 42.711 15.3333 42.132 15.3526L42.1987 17.3514ZM45.3013 17.324C46.8524 17.324 47.8911 17.3334 48.432 17.3514L48.4987 15.3526C47.9196 15.3333 46.8489 15.324 45.3013 15.324V17.324ZM48.4303 17.3514C50.4328 17.4216 51.7447 17.9097 52.5449 18.6528L53.9058 17.1872C52.6153 15.9889 50.7538 15.4317 48.5004 15.3526L48.4303 17.3514ZM52.552 18.6593C53.3575 19.3929 53.7933 20.3954 53.7933 21.784H55.7933C55.7933 19.9246 55.1839 18.3511 53.8987 17.1807L52.552 18.6593ZM53.7933 21.784C53.7933 22.986 53.4881 23.9473 52.922 24.722L54.5367 25.902C55.3893 24.7353 55.7933 23.3446 55.7933 21.784H53.7933ZM52.9199 24.7248C52.3829 25.465 51.6268 25.9666 50.5851 26.2153L51.0496 28.1607C52.5092 27.8121 53.6944 27.063 54.5388 25.8992L52.9199 24.7248ZM50.1881 27.9652C50.4936 28.2125 50.8375 28.5807 51.2149 29.0954L52.8278 27.9126C52.3839 27.3073 51.9251 26.7982 51.4465 26.4108L50.1881 27.9652ZM51.2247 29.1084C51.6078 29.6135 52.1582 30.4324 52.8829 31.5845L54.5758 30.5195C53.8445 29.3569 53.2562 28.4772 52.818 27.8996L51.2247 29.1084ZM52.8835 31.5855C53.6374 32.7806 54.4023 34.0798 55.1781 35.4837L56.9286 34.5163C56.1364 33.0829 55.352 31.7501 54.5751 30.5185L52.8835 31.5855ZM56.0533 34H51.3493V36H56.0533V34ZM52.2299 34.5261L49.066 28.6462L47.3047 29.5938L50.4687 35.4739L52.2299 34.5261ZM49.0632 28.6411C48.8778 28.3011 48.6847 27.9967 48.4814 27.744C48.2843 27.4992 48.038 27.2529 47.7319 27.0896L46.7908 28.8544C46.7647 28.8405 46.8124 28.8602 46.9233 28.998C47.028 29.128 47.1569 29.3229 47.3074 29.5989L49.0632 28.6411ZM47.8021 27.1308C47.2993 26.8076 46.6654 26.72 46.0573 26.72V28.72C46.2796 28.72 46.4436 28.7375 46.5595 28.7618C46.6163 28.7737 46.6567 28.7862 46.6836 28.7964C46.7105 28.8067 46.7211 28.8135 46.7206 28.8132L47.8021 27.1308ZM45.0573 27.72V35H47.0573V27.72H45.0573ZM46.0573 34H42.1653V36H46.0573V34ZM43.1653 35V16.352H41.1653V35H43.1653ZM47.7933 25.612C48.9137 25.612 49.9253 25.3239 50.7009 24.6286L49.3658 23.1394C49.0587 23.4148 48.5769 23.612 47.7933 23.612V25.612ZM50.6883 24.6397C51.4928 23.9425 51.8733 23.0001 51.8733 21.924H49.8733C49.8733 22.4906 49.6939 22.8549 49.3784 23.1283L50.6883 24.6397ZM51.8733 21.924C51.8733 20.9412 51.541 20.0578 50.7737 19.4381L49.517 20.9939C49.7203 21.1582 49.8733 21.4135 49.8733 21.924H51.8733ZM50.7737 19.4381C50.041 18.8463 49.0704 18.628 48.0173 18.628V20.628C48.8309 20.628 49.279 20.8017 49.517 20.9939L50.7737 19.4381ZM48.0173 18.628H46.0573V20.628H48.0173V18.628ZM45.0573 19.628V24.612H47.0573V19.628H45.0573ZM46.0573 25.612H47.7933V23.612H46.0573V25.612ZM68.0533 16.352V15.352H67.3547L67.1143 16.008L68.0533 16.352ZM72.9253 16.352L73.8629 16.0043L73.621 15.352H72.9253V16.352ZM79.8413 35V36H81.2787L80.7789 34.6523L79.8413 35ZM75.6413 35L74.699 35.3348L74.9353 36H75.6413V35ZM74.1293 30.744L75.0716 30.4092L74.8353 29.744H74.1293V30.744ZM66.7933 30.744V29.744H66.0741L65.8453 30.4259L66.7933 30.744ZM65.3653 35V36H66.0846L66.3134 35.3181L65.3653 35ZM61.2213 35L60.2823 34.656L59.7899 36H61.2213V35ZM72.9253 27.272V28.272H74.3387L73.8683 26.9392L72.9253 27.272ZM70.4053 20.132L71.3483 19.7992L70.3893 17.082L69.4589 19.8091L70.4053 20.132ZM67.9693 27.272L67.0229 26.9491L66.5715 28.272H67.9693V27.272ZM68.0533 17.352H72.9253V15.352H68.0533V17.352ZM71.9877 16.6997L78.9037 35.3477L80.7789 34.6523L73.8629 16.0043L71.9877 16.6997ZM79.8413 34H75.6413V36H79.8413V34ZM76.5836 34.6652L75.0716 30.4092L73.187 31.0788L74.699 35.3348L76.5836 34.6652ZM74.1293 29.744H66.7933V31.744H74.1293V29.744ZM65.8453 30.4259L64.4173 34.6819L66.3134 35.3181L67.7414 31.0621L65.8453 30.4259ZM65.3653 34H61.2213V36H65.3653V34ZM62.1603 35.344L68.9923 16.696L67.1143 16.008L60.2823 34.656L62.1603 35.344ZM73.8683 26.9392L71.3483 19.7992L69.4623 20.4648L71.9823 27.6048L73.8683 26.9392ZM69.4589 19.8091L67.0229 26.9491L68.9157 27.5949L71.3517 20.4549L69.4589 19.8091ZM67.9693 28.272H72.9253V26.272H67.9693V28.272ZM88.8492 35L88.6067 35.9702L88.611 35.9712L88.8492 35ZM86.3292 34.02L85.3332 33.9308L85.2763 34.5659L85.8282 34.8854L86.3292 34.02ZM86.6652 30.268L87.1935 29.4189L85.8141 28.5606L85.6692 30.1788L86.6652 30.268ZM89.2972 31.5L88.9868 32.4506L88.9983 32.4544L89.0099 32.4578L89.2972 31.5ZM94.0572 31.36L93.5025 30.528L94.0572 31.36ZM94.3372 28.728L93.7372 29.528L93.7503 29.5378L93.7638 29.5472L94.3372 28.728ZM92.5732 27.832L92.1886 28.7551L92.1971 28.7586L92.2056 28.762L92.5732 27.832ZM91.9012 27.552L92.2858 26.6289L92.2792 26.6262L92.2726 26.6235L91.9012 27.552ZM91.5932 27.44L91.146 28.3344L91.2096 28.3662L91.277 28.3887L91.5932 27.44ZM91.2012 27.272L90.8213 28.197L90.8356 28.2029L90.8501 28.2083L91.2012 27.272ZM88.6812 26.068L88.1557 26.9188L88.1649 26.9245L88.1742 26.9299L88.6812 26.068ZM87.0292 24.444L86.1903 24.9882L86.1954 24.9961L86.2006 25.0039L87.0292 24.444ZM98.2852 16.996L99.2716 17.1604L99.405 16.3603L98.6496 16.0648L98.2852 16.996ZM97.6692 20.692L97.1756 21.5617L98.4203 22.2681L98.6556 20.8564L97.6692 20.692ZM95.4292 19.768L95.1545 20.7295L95.1604 20.7312L95.4292 19.768ZM91.1452 19.964L91.7144 20.7862L91.7249 20.7789L91.7352 20.7714L91.1452 19.964ZM90.9212 22.512L90.281 23.2802V23.2802L90.9212 22.512ZM92.5452 23.408L92.1541 24.3283L92.1678 24.3342L92.1817 24.3396L92.5452 23.408ZM93.6932 23.856L93.3297 24.7876L93.3386 24.791L93.6932 23.856ZM96.3812 25.06L95.8975 25.9352L96.3812 25.06ZM98.2012 26.768L97.3723 27.3275L97.379 27.3372L98.2012 26.768ZM97.1092 33.852L96.476 33.078L97.1092 33.852ZM91.9572 34.364C90.9498 34.364 89.9941 34.2512 89.0874 34.0288L88.611 35.9712C89.683 36.2342 90.7993 36.364 91.9572 36.364V34.364ZM89.0918 34.0299C88.1925 33.8051 87.4432 33.5095 86.8303 33.1546L85.8282 34.8854C86.6339 35.3519 87.5646 35.7096 88.6067 35.9701L89.0918 34.0299ZM87.3252 34.1092L87.6612 30.3572L85.6692 30.1788L85.3332 33.9308L87.3252 34.1092ZM86.1369 31.1171C87.0433 31.681 87.9936 32.1263 88.9868 32.4506L89.6076 30.5494C88.7715 30.2764 87.9672 29.9003 87.1935 29.4189L86.1369 31.1171ZM89.0099 32.4578C90.0148 32.7593 90.9716 32.92 91.8732 32.92V30.92C91.2068 30.92 90.4463 30.8007 89.5846 30.5422L89.0099 32.4578ZM91.8732 32.92C92.9025 32.92 93.8414 32.7058 94.6119 32.192L93.5025 30.528C93.1531 30.7609 92.6359 30.92 91.8732 30.92V32.92ZM94.6119 32.1921C95.4197 31.6535 95.8972 30.8614 95.8972 29.876H93.8972C93.8972 30.1226 93.8148 30.3198 93.5025 30.528L94.6119 32.1921ZM95.8972 29.876C95.8972 29.086 95.5828 28.3792 94.9107 27.9088L93.7638 29.5472C93.8383 29.5994 93.8972 29.658 93.8972 29.876H95.8972ZM94.9372 27.928C94.4559 27.567 93.7689 27.2294 92.9409 26.902L92.2056 28.762C92.9828 29.0693 93.4718 29.329 93.7372 29.528L94.9372 27.928ZM92.9578 26.9089L92.2858 26.6289L91.5166 28.4751L92.1886 28.7551L92.9578 26.9089ZM92.2726 26.6235C92.1583 26.5778 92.0369 26.5338 91.9094 26.4913L91.277 28.3887C91.3735 28.4209 91.4575 28.4515 91.5298 28.4805L92.2726 26.6235ZM92.0404 26.5456C91.8901 26.4704 91.7261 26.4008 91.5523 26.3357L90.8501 28.2083C90.9751 28.2552 91.0724 28.2976 91.146 28.3344L92.0404 26.5456ZM91.5811 26.347C90.5591 25.9272 89.7666 25.5463 89.1882 25.2061L88.1742 26.9299C88.8652 27.3364 89.7527 27.7581 90.8213 28.197L91.5811 26.347ZM89.2067 25.2172C88.706 24.9079 88.2545 24.4713 87.8578 23.8841L86.2006 25.0039C86.7372 25.798 87.3871 26.4441 88.1557 26.9188L89.2067 25.2172ZM87.8682 23.8998C87.5553 23.4174 87.3572 22.7279 87.3572 21.756H85.3572C85.3572 22.9868 85.6072 24.0892 86.1903 24.9882L87.8682 23.8998ZM87.3572 21.756C87.3572 20.2161 87.8646 19.1025 88.8232 18.2914L87.5313 16.7646C86.0632 18.0069 85.3572 19.7119 85.3572 21.756H87.3572ZM88.8232 18.2914C89.7998 17.465 91.2306 16.988 93.2452 16.988V14.988C90.9291 14.988 88.9813 15.5377 87.5313 16.7646L88.8232 18.2914ZM93.2452 16.988C94.7488 16.988 96.3054 17.2951 97.9208 17.9272L98.6496 16.0648C96.8303 15.3529 95.0269 14.988 93.2452 14.988V16.988ZM97.2988 16.8316L96.6828 20.5276L98.6556 20.8564L99.2716 17.1604L97.2988 16.8316ZM98.1628 19.8223C97.3979 19.3882 96.5753 19.0496 95.698 18.8048L95.1604 20.7312C95.8885 20.9344 96.5592 21.2118 97.1756 21.5617L98.1628 19.8223ZM95.7039 18.8065C94.8437 18.5607 94.0041 18.432 93.1892 18.432V20.432C93.793 20.432 94.4468 20.5273 95.1545 20.7295L95.7039 18.8065ZM93.1892 18.432C92.1931 18.432 91.2743 18.6311 90.5552 19.1566L91.7352 20.7714C91.9868 20.5876 92.4307 20.432 93.1892 20.432V18.432ZM90.576 19.1418C89.8274 19.6601 89.4172 20.4214 89.4172 21.336H91.4172C91.4172 21.0933 91.4924 20.9399 91.7144 20.7862L90.576 19.1418ZM89.4172 21.336C89.4172 22.0863 89.6809 22.7801 90.281 23.2802L91.5614 21.7438C91.4895 21.6839 91.4172 21.5937 91.4172 21.336H89.4172ZM90.281 23.2802C90.731 23.6552 91.3803 23.9995 92.1541 24.3283L92.9364 22.4877C92.2168 22.1818 91.7834 21.9288 91.5614 21.7438L90.281 23.2802ZM92.1817 24.3396L93.3297 24.7876L94.0568 22.9244L92.9088 22.4764L92.1817 24.3396ZM93.3386 24.791C94.394 25.1913 95.2432 25.5736 95.8975 25.9352L96.8649 24.1848C96.1006 23.7624 95.1578 23.342 94.0479 22.921L93.3386 24.791ZM95.8975 25.9352C96.4536 26.2425 96.9468 26.697 97.3724 27.3275L99.0301 26.2085C98.4476 25.3456 97.7275 24.6614 96.8649 24.1848L95.8975 25.9352ZM97.379 27.3372C97.7347 27.851 97.9572 28.5856 97.9572 29.624H99.9572C99.9572 28.3104 99.6757 27.141 99.0234 26.1988L97.379 27.3372ZM97.9572 29.624C97.9572 31.1811 97.4422 32.2875 96.476 33.078L97.7425 34.626C99.2403 33.4005 99.9572 31.6882 99.9572 29.624H97.9572ZM96.476 33.078C95.4805 33.8926 94.0168 34.364 91.9572 34.364V36.364C94.303 36.364 96.274 35.8274 97.7425 34.626L96.476 33.078ZM108.764 35L108.522 35.9702L108.526 35.9712L108.764 35ZM106.244 34.02L105.248 33.9308L105.191 34.5659L105.743 34.8854L106.244 34.02ZM106.58 30.268L107.109 29.4189L105.729 28.5606L105.584 30.1788L106.58 30.268ZM109.212 31.5L108.902 32.4506L108.913 32.4544L108.925 32.4578L109.212 31.5ZM113.972 31.36L113.418 30.528L113.972 31.36ZM114.252 28.728L113.652 29.528L113.665 29.5378L113.679 29.5472L114.252 28.728ZM112.488 27.832L112.104 28.7551L112.112 28.7586L112.121 28.762L112.488 27.832ZM111.816 27.552L112.201 26.6289L112.194 26.6262L112.188 26.6235L111.816 27.552ZM111.508 27.44L111.061 28.3344L111.125 28.3662L111.192 28.3887L111.508 27.44ZM111.116 27.272L110.736 28.197L110.751 28.2029L110.765 28.2083L111.116 27.272ZM108.596 26.068L108.071 26.9188L108.08 26.9245L108.089 26.9299L108.596 26.068ZM106.944 24.444L106.105 24.9882L106.11 24.9961L106.116 25.0039L106.944 24.444ZM118.2 16.996L119.187 17.1604L119.32 16.3603L118.565 16.0648L118.2 16.996ZM117.584 20.692L117.091 21.5617L118.335 22.2681L118.571 20.8564L117.584 20.692ZM115.344 19.768L115.069 20.7295L115.075 20.7312L115.344 19.768ZM111.06 19.964L111.629 20.7862L111.64 20.7789L111.65 20.7714L111.06 19.964ZM110.836 22.512L110.196 23.2802V23.2802L110.836 22.512ZM112.46 23.408L112.069 24.3283L112.083 24.3342L112.097 24.3396L112.46 23.408ZM113.608 23.856L113.245 24.7876L113.254 24.791L113.608 23.856ZM116.296 25.06L115.813 25.9352L116.296 25.06ZM118.116 26.768L117.287 27.3275L117.294 27.3372L118.116 26.768ZM117.024 33.852L116.391 33.078L117.024 33.852ZM111.872 34.364C110.865 34.364 109.909 34.2512 109.002 34.0288L108.526 35.9712C109.598 36.2342 110.714 36.364 111.872 36.364V34.364ZM109.007 34.0299C108.108 33.8051 107.358 33.5095 106.745 33.1546L105.743 34.8854C106.549 35.3519 107.48 35.7096 108.522 35.9701L109.007 34.0299ZM107.24 34.1092L107.576 30.3572L105.584 30.1788L105.248 33.9308L107.24 34.1092ZM106.052 31.1171C106.958 31.681 107.909 32.1263 108.902 32.4506L109.523 30.5494C108.687 30.2764 107.882 29.9003 107.109 29.4189L106.052 31.1171ZM108.925 32.4578C109.93 32.7593 110.887 32.92 111.788 32.92V30.92C111.122 30.92 110.361 30.8007 109.5 30.5422L108.925 32.4578ZM111.788 32.92C112.818 32.92 113.756 32.7058 114.527 32.192L113.418 30.528C113.068 30.7609 112.551 30.92 111.788 30.92V32.92ZM114.527 32.1921C115.335 31.6535 115.812 30.8614 115.812 29.876H113.812C113.812 30.1226 113.73 30.3198 113.418 30.528L114.527 32.1921ZM115.812 29.876C115.812 29.086 115.498 28.3792 114.826 27.9088L113.679 29.5472C113.753 29.5994 113.812 29.658 113.812 29.876H115.812ZM114.852 27.928C114.371 27.567 113.684 27.2294 112.856 26.902L112.121 28.762C112.898 29.0693 113.387 29.329 113.652 29.528L114.852 27.928ZM112.873 26.9089L112.201 26.6289L111.432 28.4751L112.104 28.7551L112.873 26.9089ZM112.188 26.6235C112.073 26.5778 111.952 26.5338 111.824 26.4913L111.192 28.3887C111.289 28.4209 111.372 28.4515 111.445 28.4805L112.188 26.6235ZM111.955 26.5456C111.805 26.4704 111.641 26.4008 111.467 26.3357L110.765 28.2083C110.89 28.2552 110.987 28.2976 111.061 28.3344L111.955 26.5456ZM111.496 26.347C110.474 25.9272 109.682 25.5463 109.103 25.2061L108.089 26.9299C108.78 27.3364 109.668 27.7581 110.736 28.197L111.496 26.347ZM109.122 25.2172C108.621 24.9079 108.17 24.4713 107.773 23.8841L106.116 25.0039C106.652 25.798 107.302 26.4441 108.071 26.9188L109.122 25.2172ZM107.783 23.8998C107.47 23.4174 107.272 22.7279 107.272 21.756H105.272C105.272 22.9868 105.522 24.0892 106.105 24.9882L107.783 23.8998ZM107.272 21.756C107.272 20.2161 107.78 19.1025 108.738 18.2914L107.446 16.7646C105.978 18.0069 105.272 19.7119 105.272 21.756H107.272ZM108.738 18.2914C109.715 17.465 111.146 16.988 113.16 16.988V14.988C110.844 14.988 108.896 15.5377 107.446 16.7646L108.738 18.2914ZM113.16 16.988C114.664 16.988 116.22 17.2951 117.836 17.9272L118.565 16.0648C116.745 15.3529 114.942 14.988 113.16 14.988V16.988ZM117.214 16.8316L116.598 20.5276L118.571 20.8564L119.187 17.1604L117.214 16.8316ZM118.078 19.8223C117.313 19.3882 116.49 19.0496 115.613 18.8048L115.075 20.7312C115.803 20.9344 116.474 21.2118 117.091 21.5617L118.078 19.8223ZM115.619 18.8065C114.759 18.5607 113.919 18.432 113.104 18.432V20.432C113.708 20.432 114.362 20.5273 115.07 20.7295L115.619 18.8065ZM113.104 18.432C112.108 18.432 111.189 18.6311 110.47 19.1566L111.65 20.7714C111.902 20.5876 112.346 20.432 113.104 20.432V18.432ZM110.491 19.1418C109.742 19.6601 109.332 20.4214 109.332 21.336H111.332C111.332 21.0933 111.407 20.9399 111.629 20.7862L110.491 19.1418ZM109.332 21.336C109.332 22.0863 109.596 22.7801 110.196 23.2802L111.476 21.7438C111.405 21.6839 111.332 21.5937 111.332 21.336H109.332ZM110.196 23.2802C110.646 23.6552 111.295 23.9995 112.069 24.3283L112.851 22.4877C112.132 22.1818 111.698 21.9288 111.476 21.7438L110.196 23.2802ZM112.097 24.3396L113.245 24.7876L113.972 22.9244L112.824 22.4764L112.097 24.3396ZM113.254 24.791C114.309 25.1913 115.158 25.5736 115.813 25.9352L116.78 24.1848C116.016 23.7624 115.073 23.342 113.963 22.921L113.254 24.791ZM115.813 25.9352C116.369 26.2425 116.862 26.697 117.287 27.3275L118.945 26.2085C118.363 25.3456 117.642 24.6614 116.78 24.1848L115.813 25.9352ZM117.294 27.3372C117.65 27.851 117.872 28.5856 117.872 29.624H119.872C119.872 28.3104 119.591 27.141 118.938 26.1988L117.294 27.3372ZM117.872 29.624C117.872 31.1811 117.357 32.2875 116.391 33.078L117.657 34.626C119.155 33.4005 119.872 31.6882 119.872 29.624H117.872ZM116.391 33.078C115.395 33.8926 113.932 34.364 111.872 34.364V36.364C114.218 36.364 116.189 35.8274 117.657 34.626L116.391 33.078Z" fill="black"/>
<defs>
<filter id="filter0_d_23_529" x="0" y="0" width="133" height="52" filterUnits="userSpaceOnUse" color-interpolation-filters="sRGB">
<feFlood flood-opacity="0" result="BackgroundImageFix"/>
<feColorMatrix in="SourceAlpha" type="matrix" values="0 0 0 0 0 0 0 0 0 0 0 0 0 0 0 0 0 0 127 0" result="hardAlpha"/>
<feMorphology radius="3" operator="dilate" in="SourceAlpha" result="effect1_dropShadow_23_529"/>
<feOffset/>
<feComposite in2="hardAlpha" operator="out"/>
<feColorMatrix type="matrix" values="0 0 0 0 0 0 0 0 0 0 0 0 0 0 0 0 0 0 1 0"/>
<feBlend mode="normal" in2="BackgroundImageFix" result="effect1_dropShadow_23_529"/>
<feBlend mode="normal" in="SourceGraphic" in2="effect1_dropShadow_23_529" result="shape"/>
</filter>
<linearGradient id="paint0_linear_23_529" x1="66.5" y1="3" x2="66.5" y2="49" gradientUnits="userSpaceOnUse">
<stop stop-color="#D5FA88"/>
<stop offset="0.520833" stop-color="#46A52E"/>
<stop offset="1" stop-color="#E3FA88"/>
</linearGradient>
</defs>
</svg>
