<svg width="133" height="52" viewBox="0 0 133 52" fill="none" xmlns="http://www.w3.org/2000/svg">
<g filter="url(#filter0_d_23_483)">
<rect x="3" y="3" width="127" height="46" rx="23" fill="url(#paint0_linear_23_483)"/>
<rect x="4.5" y="4.5" width="124" height="43" rx="21.5" stroke="white" stroke-width="3"/>
</g>
<path d="M20.284 35.42C18.212 35.42 16.42 35.056 14.908 34.328C13.4147 33.5813 12.2667 32.5173 11.464 31.136C10.6613 29.7547 10.26 28.112 10.26 26.208C10.26 24.2107 10.68 22.4467 11.52 20.916C12.3787 19.3853 13.5733 18.2 15.104 17.36C16.6533 16.52 18.436 16.1 20.452 16.1C21.6093 16.1 22.7013 16.2307 23.728 16.492C24.7733 16.7533 25.6973 17.1267 26.5 17.612L25.52 20.972C24.792 20.524 23.98 20.1787 23.084 19.936C22.188 19.6747 21.3107 19.544 20.452 19.544C19.22 19.544 18.128 19.8147 17.176 20.356C16.2427 20.8787 15.5147 21.6253 14.992 22.596C14.488 23.548 14.236 24.6587 14.236 25.928C14.236 27.7947 14.796 29.2693 15.916 30.352C17.0547 31.416 18.604 31.948 20.564 31.948C21.348 31.948 22.076 31.892 22.748 31.78V27.916H20.396V24.64H26.472V34.328C24.5493 35.056 22.4867 35.42 20.284 35.42ZM30.1253 16.352C30.6853 16.3333 31.7307 16.324 33.2613 16.324C34.8107 16.324 35.8653 16.3333 36.4253 16.352C38.5533 16.4267 40.14 16.9493 41.1853 17.92C42.2307 18.872 42.7533 20.16 42.7533 21.784C42.7533 23.1653 42.3987 24.3413 41.6893 25.312C40.9987 26.264 40.028 26.8893 38.7773 27.188C39.1693 27.5053 39.5707 27.944 39.9813 28.504C40.392 29.0453 40.9613 29.8947 41.6893 31.052C42.4547 32.2653 43.2293 33.5813 44.0133 35H39.3093L36.1453 29.12C35.8093 28.504 35.5013 28.1213 35.2213 27.972C34.96 27.804 34.5587 27.72 34.0173 27.72V35H30.1253V16.352ZM35.7533 24.612C36.7053 24.612 37.452 24.3693 37.9933 23.884C38.5533 23.3987 38.8333 22.7453 38.8333 21.924C38.8333 21.1773 38.5907 20.608 38.1053 20.216C37.62 19.824 36.9107 19.628 35.9773 19.628H34.0173V24.612H35.7533ZM54.3333 35.364C52.504 35.364 50.8893 34.9627 49.4893 34.16C48.0893 33.3573 46.9973 32.228 46.2133 30.772C45.448 29.316 45.0653 27.6453 45.0653 25.76C45.0653 23.856 45.448 22.176 46.2133 20.72C46.9786 19.264 48.0613 18.1347 49.4613 17.332C50.8613 16.5293 52.4853 16.128 54.3333 16.128C56.1626 16.128 57.7773 16.5293 59.1773 17.332C60.5773 18.116 61.66 19.2267 62.4253 20.664C63.1906 22.1013 63.5733 23.7627 63.5733 25.648C63.5733 27.5707 63.1906 29.2693 62.4253 30.744C61.66 32.2 60.5773 33.3387 59.1773 34.16C57.7773 34.9627 56.1626 35.364 54.3333 35.364ZM54.3333 31.808C55.864 31.808 57.0866 31.2573 58.0013 30.156C58.9346 29.0547 59.4013 27.5893 59.4013 25.76C59.4013 24.5653 59.1866 23.5107 58.7573 22.596C58.3466 21.6627 57.7493 20.9533 56.9653 20.468C56.2 19.964 55.3226 19.712 54.3333 19.712C53.344 19.712 52.4573 19.964 51.6733 20.468C50.908 20.9533 50.3106 21.6627 49.8813 22.596C49.4706 23.5107 49.2653 24.5653 49.2653 25.76C49.2653 26.9547 49.4706 28.0093 49.8813 28.924C50.3106 29.8387 50.908 30.548 51.6733 31.052C52.4386 31.556 53.3253 31.808 54.3333 31.808ZM74.662 35.364C73.1126 35.364 71.75 35.0373 70.574 34.384C69.398 33.7307 68.4833 32.816 67.83 31.64C67.1953 30.4453 66.878 29.0733 66.878 27.524V16.352H70.966V27.216C70.966 28.5973 71.2926 29.6987 71.946 30.52C72.618 31.3227 73.5233 31.724 74.662 31.724C75.8006 31.724 76.706 31.3227 77.378 30.52C78.05 29.6987 78.386 28.5973 78.386 27.216V16.352H82.446V27.524C82.446 29.0733 82.1193 30.4453 81.466 31.64C80.8313 32.816 79.926 33.7307 78.75 34.384C77.574 35.0373 76.2113 35.364 74.662 35.364ZM86.3741 16.352H91.1341L98.8621 29.428V16.352H102.586V35H97.8821L90.0981 21.84V35H86.3741V16.352ZM109.439 35.028C108.114 35.028 107.124 35.0187 106.471 35V16.352C107.274 16.3333 108.459 16.324 110.027 16.324C111.614 16.324 112.799 16.3333 113.583 16.352C115.412 16.3707 116.999 16.744 118.343 17.472C119.706 18.1813 120.751 19.1987 121.479 20.524C122.226 21.8493 122.599 23.3987 122.599 25.172C122.599 27.1133 122.17 28.8213 121.311 30.296C120.471 31.7707 119.276 32.9187 117.727 33.74C116.196 34.5613 114.414 34.9813 112.379 35C111.726 35.0187 110.746 35.028 109.439 35.028ZM112.351 31.472C114.236 31.472 115.72 30.9213 116.803 29.82C117.886 28.7187 118.427 27.2067 118.427 25.284C118.427 23.548 117.96 22.2133 117.027 21.28C116.112 20.3467 114.787 19.88 113.051 19.88H110.531V31.472H112.351Z" fill="white"/>
<path d="M14.908 34.328L14.4608 35.2224L14.4675 35.2258L14.4742 35.229L14.908 34.328ZM11.464 31.136L12.3286 30.6336L11.464 31.136ZM11.52 20.916L10.6478 20.4267L10.6433 20.4349L11.52 20.916ZM15.104 17.36L14.6274 16.4809L14.6229 16.4833L15.104 17.36ZM23.728 16.492L23.4813 17.4611L23.4855 17.4621L23.728 16.492ZM26.5 17.612L27.46 17.892L27.6752 17.154L27.0174 16.7563L26.5 17.612ZM25.52 20.972L24.9959 21.8237L26.1128 22.511L26.48 21.252L25.52 20.972ZM23.084 19.936L22.804 20.896L22.8133 20.8987L22.8226 20.9012L23.084 19.936ZM17.176 20.356L17.6646 21.2285L17.6703 21.2253L17.176 20.356ZM14.992 22.596L14.1115 22.1219L14.1082 22.1281L14.992 22.596ZM15.916 30.352L15.221 31.071L15.2271 31.0769L15.2333 31.0827L15.916 30.352ZM22.748 31.78L22.9124 32.7664L23.748 32.6271V31.78H22.748ZM22.748 27.916H23.748V26.916H22.748V27.916ZM20.396 27.916H19.396V28.916H20.396V27.916ZM20.396 24.64V23.64H19.396V24.64H20.396ZM26.472 24.64H27.472V23.64H26.472V24.64ZM26.472 34.328L26.8261 35.2632L27.472 35.0186V34.328H26.472ZM20.284 34.42C18.3277 34.42 16.6905 34.0764 15.3418 33.427L14.4742 35.229C16.1495 36.0356 18.0963 36.42 20.284 36.42V34.42ZM15.3552 33.4336C14.028 32.77 13.0288 31.8385 12.3286 30.6336L10.5994 31.6384C11.5045 33.1961 12.8014 34.3927 14.4608 35.2224L15.3552 33.4336ZM12.3286 30.6336C11.6303 29.4318 11.26 27.9695 11.26 26.208H9.26C9.26 28.2545 9.6924 30.0776 10.5994 31.6384L12.3286 30.6336ZM11.26 26.208C11.26 24.3544 11.6486 22.7603 12.3967 21.3971L10.6433 20.4349C9.71141 22.1331 9.26 24.067 9.26 26.208H11.26ZM12.3921 21.4053C13.1598 20.0369 14.2194 18.9862 15.5851 18.2367L14.6229 16.4833C12.9273 17.4138 11.5976 18.7338 10.6479 20.4267L12.3921 21.4053ZM15.5806 18.2391C16.9637 17.4892 18.5783 17.1 20.452 17.1V15.1C18.2937 15.1 16.3429 15.5508 14.6274 16.4809L15.5806 18.2391ZM20.452 17.1C21.5337 17.1 22.5423 17.2221 23.4813 17.4611L23.9747 15.5229C22.8603 15.2393 21.6849 15.1 20.452 15.1V17.1ZM23.4855 17.4621C24.4481 17.7028 25.2769 18.0411 25.9826 18.4677L27.0174 16.7563C26.1177 16.2123 25.0986 15.8039 23.9705 15.5219L23.4855 17.4621ZM25.54 17.332L24.56 20.692L26.48 21.252L27.46 17.892L25.54 17.332ZM26.0441 20.1203C25.2277 19.618 24.3261 19.2364 23.3454 18.9708L22.8226 20.9012C23.6339 21.121 24.3563 21.43 24.9959 21.8237L26.0441 20.1203ZM23.364 18.976C22.3849 18.6904 21.4133 18.544 20.452 18.544V20.544C21.2081 20.544 21.9911 20.6589 22.804 20.896L23.364 18.976ZM20.452 18.544C19.0688 18.544 17.8024 18.8494 16.6817 19.4867L17.6703 21.2253C18.4536 20.7799 19.3712 20.544 20.452 20.544V18.544ZM16.6874 19.4835C15.583 20.102 14.7214 20.9893 14.1115 22.1219L15.8725 23.0701C16.3079 22.2614 16.9024 21.6554 17.6646 21.2285L16.6874 19.4835ZM14.1082 22.1281C13.5154 23.2479 13.236 24.5246 13.236 25.928H15.236C15.236 24.7927 15.4606 23.8481 15.8758 23.0639L14.1082 22.1281ZM13.236 25.928C13.236 28.0079 13.868 29.7631 15.221 31.071L16.611 29.633C15.724 28.7755 15.236 27.5814 15.236 25.928H13.236ZM15.2333 31.0827C16.6016 32.3612 18.4187 32.948 20.564 32.948V30.948C18.7893 30.948 17.5078 30.4708 16.5987 29.6213L15.2333 31.0827ZM20.564 32.948C21.395 32.948 22.1787 32.8887 22.9124 32.7664L22.5836 30.7936C21.9733 30.8953 21.301 30.948 20.564 30.948V32.948ZM23.748 31.78V27.916H21.748V31.78H23.748ZM22.748 26.916H20.396V28.916H22.748V26.916ZM21.396 27.916V24.64H19.396V27.916H21.396ZM20.396 25.64H26.472V23.64H20.396V25.64ZM25.472 24.64V34.328H27.472V24.64H25.472ZM26.1179 33.3928C24.3162 34.075 22.3744 34.42 20.284 34.42V36.42C22.599 36.42 24.7824 36.037 26.8261 35.2632L26.1179 33.3928ZM30.1253 16.352L30.092 15.3526L29.1253 15.3848V16.352H30.1253ZM36.4253 16.352L36.4604 15.3526L36.4587 15.3526L36.4253 16.352ZM41.1853 17.92L40.5049 18.6528L40.512 18.6593L41.1853 17.92ZM41.6893 25.312L40.8819 24.722L40.8799 24.7248L41.6893 25.312ZM38.7773 27.188L38.5451 26.2153L36.5693 26.6872L38.1481 27.9652L38.7773 27.188ZM39.9813 28.504L39.1749 29.0954L39.1797 29.1019L39.1847 29.1084L39.9813 28.504ZM41.6893 31.052L40.8429 31.5845L40.8435 31.5855L41.6893 31.052ZM44.0133 35V36H45.7085L44.8886 34.5163L44.0133 35ZM39.3093 35L38.4287 35.4739L38.7119 36H39.3093V35ZM36.1453 29.12L37.026 28.6461L37.0232 28.6411L36.1453 29.12ZM35.2213 27.972L34.6806 28.8132L34.7148 28.8352L34.7508 28.8544L35.2213 27.972ZM34.0173 27.72V26.72H33.0173V27.72H34.0173ZM34.0173 35V36H35.0173V35H34.0173ZM30.1253 35H29.1253V36H30.1253V35ZM37.9933 23.884L37.3384 23.1283L37.3321 23.1338L37.3258 23.1394L37.9933 23.884ZM38.1053 20.216L37.477 20.9939V20.9939L38.1053 20.216ZM34.0173 19.628V18.628H33.0173V19.628H34.0173ZM34.0173 24.612H33.0173V25.612H34.0173V24.612ZM30.1587 17.3514C30.6996 17.3334 31.7291 17.324 33.2613 17.324V15.324C31.7323 15.324 30.671 15.3333 30.092 15.3526L30.1587 17.3514ZM33.2613 17.324C34.8124 17.324 35.8511 17.3334 36.392 17.3514L36.4587 15.3526C35.8796 15.3333 34.8089 15.324 33.2613 15.324V17.324ZM36.3903 17.3514C38.3928 17.4216 39.7047 17.9097 40.5049 18.6528L41.8658 17.1872C40.5753 15.9889 38.7138 15.4317 36.4604 15.3526L36.3903 17.3514ZM40.512 18.6593C41.3175 19.3929 41.7533 20.3954 41.7533 21.784H43.7533C43.7533 19.9246 43.1439 18.3511 41.8587 17.1807L40.512 18.6593ZM41.7533 21.784C41.7533 22.986 41.4481 23.9473 40.882 24.722L42.4967 25.902C43.3493 24.7353 43.7533 23.3446 43.7533 21.784H41.7533ZM40.8799 24.7248C40.3429 25.465 39.5868 25.9666 38.5451 26.2153L39.0096 28.1607C40.4692 27.8121 41.6544 27.063 42.4988 25.8992L40.8799 24.7248ZM38.1481 27.9652C38.4536 28.2125 38.7975 28.5807 39.1749 29.0954L40.7878 27.9126C40.3439 27.3073 39.8851 26.7982 39.4065 26.4108L38.1481 27.9652ZM39.1847 29.1084C39.5678 29.6135 40.1182 30.4324 40.8429 31.5845L42.5358 30.5195C41.8045 29.3569 41.2162 28.4772 40.778 27.8996L39.1847 29.1084ZM40.8435 31.5855C41.5974 32.7806 42.3623 34.0798 43.1381 35.4837L44.8886 34.5163C44.0964 33.0829 43.312 31.7501 42.5351 30.5185L40.8435 31.5855ZM44.0133 34H39.3093V36H44.0133V34ZM40.19 34.5261L37.0259 28.6462L35.2647 29.5938L38.4287 35.4739L40.19 34.5261ZM37.0232 28.6411C36.8378 28.3011 36.6447 27.9967 36.4414 27.744C36.2443 27.4992 35.998 27.2529 35.6919 27.0896L34.7508 28.8544C34.7247 28.8405 34.7724 28.8602 34.8833 28.998C34.988 29.128 35.1169 29.3229 35.2674 29.5989L37.0232 28.6411ZM35.7621 27.1308C35.2593 26.8076 34.6254 26.72 34.0173 26.72V28.72C34.2396 28.72 34.4036 28.7375 34.5195 28.7618C34.5763 28.7737 34.6167 28.7862 34.6436 28.7964C34.6705 28.8067 34.6811 28.8135 34.6806 28.8132L35.7621 27.1308ZM33.0173 27.72V35H35.0173V27.72H33.0173ZM34.0173 34H30.1253V36H34.0173V34ZM31.1253 35V16.352H29.1253V35H31.1253ZM35.7533 25.612C36.8737 25.612 37.8853 25.3239 38.6609 24.6286L37.3258 23.1394C37.0187 23.4148 36.5369 23.612 35.7533 23.612V25.612ZM38.6483 24.6397C39.4528 23.9425 39.8333 23.0001 39.8333 21.924H37.8333C37.8333 22.4906 37.6539 22.8549 37.3384 23.1283L38.6483 24.6397ZM39.8333 21.924C39.8333 20.9412 39.501 20.0578 38.7337 19.4381L37.477 20.9939C37.6803 21.1582 37.8333 21.4135 37.8333 21.924H39.8333ZM38.7337 19.4381C38.001 18.8463 37.0304 18.628 35.9773 18.628V20.628C36.7909 20.628 37.239 20.8017 37.477 20.9939L38.7337 19.4381ZM35.9773 18.628H34.0173V20.628H35.9773V18.628ZM33.0173 19.628V24.612H35.0173V19.628H33.0173ZM34.0173 25.612H35.7533V23.612H34.0173V25.612ZM49.4893 34.16L49.9867 33.2925L49.4893 34.16ZM46.2133 30.772L45.3281 31.2373L45.3328 31.2461L46.2133 30.772ZM46.2133 20.72L45.3281 20.2547L46.2133 20.72ZM49.4613 17.332L48.9639 16.4645V16.4645L49.4613 17.332ZM59.1773 17.332L58.6799 18.1996L58.6887 18.2045L59.1773 17.332ZM62.4253 20.664L61.5426 21.134L62.4253 20.664ZM62.4253 30.744L63.3105 31.2093L63.3129 31.2046L62.4253 30.744ZM59.1773 34.16L59.6747 35.0276L59.6833 35.0225L59.1773 34.16ZM58.0013 30.156L57.2384 29.5094L57.232 29.5171L58.0013 30.156ZM58.7573 22.596L57.842 22.9987L57.8469 23.0099L57.8521 23.0209L58.7573 22.596ZM56.9653 20.468L56.4153 21.3032L56.427 21.3109L56.439 21.3183L56.9653 20.468ZM51.6733 20.468L52.2089 21.3125L52.2141 21.3092L51.6733 20.468ZM49.8813 22.596L48.9728 22.1781L48.969 22.1864L49.8813 22.596ZM49.8813 28.924L48.969 29.3336L48.9725 29.3413L48.9761 29.3489L49.8813 28.924ZM51.6733 31.052L52.2233 30.2168L51.6733 31.052ZM54.3333 34.364C52.6548 34.364 51.216 33.9973 49.9867 33.2925L48.9919 35.0275C50.5627 35.9281 52.3532 36.364 54.3333 36.364V34.364ZM49.9867 33.2925C48.7528 32.585 47.7916 31.5939 47.0938 30.2979L45.3328 31.2461C46.203 32.8621 47.4259 34.1296 48.9919 35.0275L49.9867 33.2925ZM47.0985 30.3067C46.4189 29.014 46.0653 27.5071 46.0653 25.76H44.0653C44.0653 27.7836 44.477 29.618 45.3281 31.2373L47.0985 30.3067ZM46.0653 25.76C46.0653 23.9925 46.4197 22.4767 47.0985 21.1853L45.3281 20.2547C44.4763 21.8753 44.0653 23.7195 44.0653 25.76H46.0653ZM47.0985 21.1853C47.7772 19.8941 48.7269 18.9058 49.9587 18.1995L48.9639 16.4645C47.3957 17.3636 46.1801 18.6339 45.3281 20.2547L47.0985 21.1853ZM49.9587 18.1995C51.1865 17.4956 52.6341 17.128 54.3333 17.128V15.128C52.3365 15.128 50.5362 15.5631 48.9639 16.4645L49.9587 18.1995ZM54.3333 17.128C56.0119 17.128 57.4507 17.4947 58.6799 18.1995L59.6747 16.4645C58.104 15.5639 56.3134 15.128 54.3333 15.128V17.128ZM58.6887 18.2045C59.9189 18.8934 60.866 19.8632 61.5426 21.134L63.308 20.194C62.454 18.5902 61.2357 17.3386 59.6659 16.4595L58.6887 18.2045ZM61.5426 21.134C62.2196 22.4053 62.5733 23.9006 62.5733 25.648H64.5733C64.5733 23.6248 64.1617 21.7974 63.308 20.194L61.5426 21.134ZM62.5733 25.648C62.5733 27.4356 62.2184 28.9719 61.5377 30.2834L63.3129 31.2046C64.1629 29.5668 64.5733 27.7057 64.5733 25.648H62.5733ZM61.5401 30.2787C60.8604 31.5719 59.9081 32.5719 58.6713 33.2975L59.6833 35.0225C61.2466 34.1054 62.4595 32.8281 63.3105 31.2093L61.5401 30.2787ZM58.6799 33.2925C57.4507 33.9973 56.0119 34.364 54.3333 34.364V36.364C56.3134 36.364 58.104 35.9281 59.6747 35.0275L58.6799 33.2925ZM54.3333 32.808C56.1378 32.808 57.6514 32.1425 58.7706 30.7949L57.232 29.5171C56.5219 30.3722 55.5901 30.808 54.3333 30.808V32.808ZM58.7642 30.8025C59.8879 29.4765 60.4013 27.7612 60.4013 25.76H58.4013C58.4013 27.4175 57.9814 28.6328 57.2384 29.5095L58.7642 30.8025ZM60.4013 25.76C60.4013 24.445 60.1647 23.2408 59.6626 22.1711L57.8521 23.0209C58.2086 23.7805 58.4013 24.6857 58.4013 25.76H60.4013ZM59.6726 22.1933C59.1895 21.0953 58.4656 20.2207 57.4917 19.6177L56.439 21.3183C57.033 21.686 57.5038 22.23 57.842 22.9987L59.6726 22.1933ZM57.5153 19.6328C56.5736 19.0127 55.5019 18.712 54.3333 18.712V20.712C55.1434 20.712 55.8263 20.9153 56.4153 21.3032L57.5153 19.6328ZM54.3333 18.712C53.1646 18.712 52.0879 19.0126 51.1326 19.6268L52.2141 21.3092C52.8267 20.9154 53.5234 20.712 54.3333 20.712V18.712ZM51.1378 19.6235C50.1885 20.2254 49.4717 21.0937 48.9728 22.1781L50.7898 23.0139C51.1496 22.2317 51.6274 21.6812 52.2089 21.3125L51.1378 19.6235ZM48.969 22.1864C48.4905 23.2521 48.2653 24.4508 48.2653 25.76H50.2653C50.2653 24.6799 50.4507 23.7692 50.7936 23.0056L48.969 22.1864ZM48.2653 25.76C48.2653 27.0692 48.4905 28.2679 48.969 29.3336L50.7936 28.5144C50.4507 27.7508 50.2653 26.8401 50.2653 25.76H48.2653ZM48.9761 29.3489C49.4754 30.4128 50.1885 31.2715 51.1233 31.8872L52.2233 30.2168C51.6275 29.8244 51.1458 29.2645 50.7865 28.4991L48.9761 29.3489ZM51.1233 31.8872C52.0681 32.5094 53.1501 32.808 54.3333 32.808V30.808C53.5005 30.808 52.8092 30.6026 52.2233 30.2168L51.1233 31.8872ZM70.574 34.384L70.0883 35.2582L70.574 34.384ZM67.83 31.64L66.9469 32.1092L66.9513 32.1174L66.9558 32.1256L67.83 31.64ZM66.878 16.352V15.352H65.878V16.352H66.878ZM70.966 16.352H71.966V15.352H70.966V16.352ZM71.946 30.52L71.1634 31.1425L71.1712 31.1523L71.1792 31.1619L71.946 30.52ZM77.378 30.52L78.1448 31.162L78.1519 31.1532L77.378 30.52ZM78.386 16.352V15.352H77.386V16.352H78.386ZM82.446 16.352H83.446V15.352H82.446V16.352ZM81.466 31.64L80.5886 31.1602L80.5859 31.1651L81.466 31.64ZM78.75 34.384L78.2643 33.5098L78.75 34.384ZM74.662 34.364C73.2565 34.364 72.0658 34.0689 71.0596 33.5098L70.0883 35.2582C71.4341 36.0058 72.9687 36.364 74.662 36.364V34.364ZM71.0596 33.5098C70.0469 32.9472 69.2668 32.1671 68.7041 31.1544L66.9558 32.1256C67.6998 33.4649 68.7491 34.5141 70.0883 35.2582L71.0596 33.5098ZM68.7131 31.1708C68.1657 30.1404 67.878 28.9337 67.878 27.524H65.878C65.878 29.213 66.2249 30.7502 66.9469 32.1092L68.7131 31.1708ZM67.878 27.524V16.352H65.878V27.524H67.878ZM66.878 17.352H70.966V15.352H66.878V17.352ZM69.966 16.352V27.216H71.966V16.352H69.966ZM69.966 27.216C69.966 28.7516 70.3303 30.0952 71.1634 31.1425L72.7286 29.8975C72.255 29.3021 71.966 28.4431 71.966 27.216H69.966ZM71.1792 31.1619C72.0594 32.2132 73.2568 32.724 74.662 32.724V30.724C73.7898 30.724 73.1766 30.4321 72.7127 29.8781L71.1792 31.1619ZM74.662 32.724C76.0671 32.724 77.2646 32.2132 78.1447 31.1619L76.6112 29.8781C76.1474 30.4321 75.5341 30.724 74.662 30.724V32.724ZM78.1519 31.1532C79.0093 30.1054 79.386 28.7577 79.386 27.216H77.386C77.386 28.437 77.0907 29.2919 76.604 29.8868L78.1519 31.1532ZM79.386 27.216V16.352H77.386V27.216H79.386ZM78.386 17.352H82.446V15.352H78.386V17.352ZM81.446 16.352V27.524H83.446V16.352H81.446ZM81.446 27.524C81.446 28.929 81.1509 30.1319 80.5886 31.1602L82.3433 32.1198C83.0877 30.7588 83.446 29.2176 83.446 27.524H81.446ZM80.5859 31.1651C80.0426 32.1719 79.2746 32.9486 78.2643 33.5098L79.2356 35.2582C80.5773 34.5128 81.62 33.4601 82.346 32.1149L80.5859 31.1651ZM78.2643 33.5098C77.2581 34.0689 76.0674 34.364 74.662 34.364V36.364C76.3552 36.364 77.8898 36.0058 79.2356 35.2582L78.2643 33.5098ZM86.3741 16.352V15.352H85.3741V16.352H86.3741ZM91.1341 16.352L91.9949 15.8432L91.7046 15.352H91.1341V16.352ZM98.8621 29.428L98.0012 29.9368L99.8621 33.0855V29.428H98.8621ZM98.8621 16.352V15.352H97.8621V16.352H98.8621ZM102.586 16.352H103.586V15.352H102.586V16.352ZM102.586 35V36H103.586V35H102.586ZM97.8821 35L97.0214 35.5091L97.3117 36H97.8821V35ZM90.0981 21.84L90.9588 21.3309L89.0981 18.1851V21.84H90.0981ZM90.0981 35V36H91.0981V35H90.0981ZM86.3741 35H85.3741V36H86.3741V35ZM86.3741 17.352H91.1341V15.352H86.3741V17.352ZM90.2732 16.8608L98.0012 29.9368L99.723 28.9192L91.9949 15.8432L90.2732 16.8608ZM99.8621 29.428V16.352H97.8621V29.428H99.8621ZM98.8621 17.352H102.586V15.352H98.8621V17.352ZM101.586 16.352V35H103.586V16.352H101.586ZM102.586 34H97.8821V36H102.586V34ZM98.7428 34.4909L90.9588 21.3309L89.2374 22.3491L97.0214 35.5091L98.7428 34.4909ZM89.0981 21.84V35H91.0981V21.84H89.0981ZM90.0981 34H86.3741V36H90.0981V34ZM87.3741 35V16.352H85.3741V35H87.3741ZM106.471 35H105.471V35.9718L106.443 35.9996L106.471 35ZM106.471 16.352L106.448 15.3523L105.471 15.375V16.352H106.471ZM113.583 16.352L113.559 17.3518L113.573 17.3519L113.583 16.352ZM118.343 17.472L117.867 18.3513L117.874 18.3552L117.881 18.359L118.343 17.472ZM121.479 20.524L120.603 21.0055L120.608 21.0148L121.479 20.524ZM121.311 30.296L120.447 29.7928L120.442 29.801L121.311 30.296ZM117.727 33.74L117.259 32.8565L117.254 32.8588L117.727 33.74ZM112.379 35L112.37 34L112.36 34.0001L112.351 34.0004L112.379 35ZM116.803 29.82L117.516 30.521L116.803 29.82ZM117.027 21.28L116.313 21.98L116.32 21.9871L117.027 21.28ZM110.531 19.88V18.88H109.531V19.88H110.531ZM110.531 31.472H109.531V32.472H110.531V31.472ZM109.439 34.028C108.116 34.028 107.138 34.0187 106.5 34.0004L106.443 35.9996C107.111 36.0187 108.112 36.028 109.439 36.028V34.028ZM107.471 35V16.352H105.471V35H107.471ZM106.494 17.3517C107.285 17.3333 108.461 17.324 110.027 17.324V15.324C108.457 15.324 107.262 15.3333 106.448 15.3523L106.494 17.3517ZM110.027 17.324C111.612 17.324 112.788 17.3333 113.559 17.3517L113.607 15.3523C112.81 15.3333 111.615 15.324 110.027 15.324V17.324ZM113.573 17.3519C115.271 17.3693 116.692 17.7148 117.867 18.3513L118.819 16.5927C117.306 15.7732 115.554 15.3721 113.593 15.3521L113.573 17.3519ZM117.881 18.359C119.072 18.9787 119.971 19.8562 120.603 21.0054L122.356 20.0426C121.531 18.5411 120.34 17.384 118.805 16.585L117.881 18.359ZM120.608 21.0148C121.257 22.1672 121.599 23.5419 121.599 25.172H123.599C123.599 23.2554 123.194 21.5315 122.35 20.0332L120.608 21.0148ZM121.599 25.172C121.599 26.9613 121.205 28.491 120.447 29.7928L122.175 30.7992C123.135 29.1517 123.599 27.2653 123.599 25.172H121.599ZM120.442 29.801C119.699 31.1051 118.646 32.1209 117.259 32.8565L118.195 34.6235C119.907 33.7164 121.243 32.4362 122.18 30.791L120.442 29.801ZM117.254 32.8588C115.889 33.5915 114.27 33.9826 112.37 34L112.388 36C114.557 35.9801 116.504 35.5312 118.2 34.6212L117.254 32.8588ZM112.351 34.0004C111.712 34.0187 110.744 34.028 109.439 34.028V36.028C110.748 36.028 111.739 36.0187 112.408 35.9996L112.351 34.0004ZM112.351 32.472C114.441 32.472 116.205 31.8544 117.516 30.521L116.09 29.119C115.235 29.9883 114.031 30.472 112.351 30.472V32.472ZM117.516 30.521C118.825 29.1894 119.427 27.4012 119.427 25.284H117.427C117.427 27.0122 116.946 28.248 116.09 29.119L117.516 30.521ZM119.427 25.284C119.427 23.3696 118.909 21.7473 117.734 20.5729L116.32 21.9871C117.012 22.6794 117.427 23.7264 117.427 25.284H119.427ZM117.741 20.5801C116.583 19.398 114.964 18.88 113.051 18.88V20.88C114.61 20.88 115.642 21.2953 116.313 21.9799L117.741 20.5801ZM113.051 18.88H110.531V20.88H113.051V18.88ZM109.531 19.88V31.472H111.531V19.88H109.531ZM110.531 32.472H112.351V30.472H110.531V32.472Z" fill="black"/>
<defs>
<filter id="filter0_d_23_483" x="0" y="0" width="133" height="52" filterUnits="userSpaceOnUse" color-interpolation-filters="sRGB">
<feFlood flood-opacity="0" result="BackgroundImageFix"/>
<feColorMatrix in="SourceAlpha" type="matrix" values="0 0 0 0 0 0 0 0 0 0 0 0 0 0 0 0 0 0 127 0" result="hardAlpha"/>
<feMorphology radius="3" operator="dilate" in="SourceAlpha" result="effect1_dropShadow_23_483"/>
<feOffset/>
<feComposite in2="hardAlpha" operator="out"/>
<feColorMatrix type="matrix" values="0 0 0 0 0 0 0 0 0 0 0 0 0 0 0 0 0 0 1 0"/>
<feBlend mode="normal" in2="BackgroundImageFix" result="effect1_dropShadow_23_483"/>
<feBlend mode="normal" in="SourceGraphic" in2="effect1_dropShadow_23_483" result="shape"/>
</filter>
<linearGradient id="paint0_linear_23_483" x1="66.5" y1="3" x2="66.5" y2="49" gradientUnits="userSpaceOnUse">
<stop stop-color="#CAAC4B"/>
<stop offset="0.505208" stop-color="#69571C"/>
<stop offset="1" stop-color="#CAAC4B"/>
</linearGradient>
</defs>
</svg>
