<svg width="133" height="52" viewBox="0 0 133 52" fill="none" xmlns="http://www.w3.org/2000/svg">
<g filter="url(#filter0_d_23_549)">
<rect x="3" y="3" width="127" height="46" rx="23" fill="url(#paint0_linear_23_549)"/>
<rect x="4.5" y="4.5" width="124" height="43" rx="21.5" stroke="white" stroke-width="3"/>
</g>
<path d="M33.184 16.352H37.244V35H33.184V16.352ZM65.0699 35.364C62.0832 35.364 59.7499 34.5613 58.0699 32.956C56.3899 31.3507 55.5499 29.0827 55.5499 26.152C55.5499 24.1547 55.9419 22.3907 56.7259 20.86C57.5285 19.3293 58.6579 18.1533 60.1139 17.332C61.5699 16.492 63.2499 16.072 65.1539 16.072C66.7032 16.072 68.1965 16.352 69.6339 16.912L68.8779 20.524C67.6085 19.9453 66.3765 19.656 65.1819 19.656C63.4832 19.656 62.1392 20.216 61.1499 21.336C60.1605 22.4373 59.6659 23.912 59.6659 25.76C59.6659 27.6453 60.1885 29.1107 61.2339 30.156C62.2792 31.2013 63.7259 31.724 65.5739 31.724C66.7872 31.724 67.9632 31.528 69.1019 31.136L69.7179 34.58C68.3552 35.1027 66.8059 35.364 65.0699 35.364ZM87.9669 16.352H99.3069V19.88H91.9709V23.604H98.0469V27.02H91.9709V31.472H99.3069V35H87.9669V16.352Z" fill="white"/>
<path d="M33.184 16.352V15.352H32.184V16.352H33.184ZM37.244 16.352H38.244V15.352H37.244V16.352ZM37.244 35V36H38.244V35H37.244ZM33.184 35H32.184V36H33.184V35ZM33.184 17.352H37.244V15.352H33.184V17.352ZM36.244 16.352V35H38.244V16.352H36.244ZM37.244 34H33.184V36H37.244V34ZM34.184 35V16.352H32.184V35H34.184ZM58.0699 32.956L58.7607 32.233L58.0699 32.956ZM56.7259 20.86L55.8402 20.3956L55.8358 20.4041L56.7259 20.86ZM60.1139 17.332L60.6052 18.203L60.6136 18.1982L60.1139 17.332ZM69.6339 16.912L70.6127 17.1169L70.7862 16.2877L69.9969 15.9802L69.6339 16.912ZM68.8779 20.524L68.4631 21.4339L69.6006 21.9525L69.8567 20.7289L68.8779 20.524ZM61.1499 21.336L61.8938 22.0043L61.8993 21.998L61.1499 21.336ZM61.2339 30.156L61.941 29.4489L61.2339 30.156ZM69.1019 31.136L70.0863 30.9599L69.8806 29.8103L68.7764 30.1905L69.1019 31.136ZM69.7179 34.58L70.076 35.5137L70.8478 35.2176L70.7023 34.4039L69.7179 34.58ZM65.0699 34.364C62.2643 34.364 60.206 33.614 58.7607 32.233L57.379 33.679C59.2938 35.5086 61.9022 36.364 65.0699 36.364V34.364ZM58.7607 32.233C57.3269 30.8629 56.5499 28.8852 56.5499 26.152H54.5499C54.5499 29.2801 55.4528 31.8384 57.379 33.679L58.7607 32.233ZM56.5499 26.152C56.5499 24.2876 56.915 22.6843 57.6159 21.3159L55.8358 20.4041C54.9687 22.097 54.5499 24.0218 54.5499 26.152H56.5499ZM57.6115 21.3244C58.3279 19.9583 59.323 18.9263 60.6052 18.203L59.6226 16.461C57.9928 17.3804 56.7292 18.7003 55.8403 20.3956L57.6115 21.3244ZM60.6136 18.1982C61.8983 17.457 63.4016 17.072 65.1539 17.072V15.072C63.0982 15.072 61.2414 15.527 59.6142 16.4658L60.6136 18.1982ZM65.1539 17.072C66.5796 17.072 67.9498 17.3291 69.2708 17.8438L69.9969 15.9802C68.4433 15.3749 66.8268 15.072 65.1539 15.072V17.072ZM68.6551 16.7071L67.8991 20.3191L69.8567 20.7289L70.6127 17.1169L68.6551 16.7071ZM69.2927 19.6141C67.9148 18.9859 66.5417 18.656 65.1819 18.656V20.656C66.2114 20.656 67.3023 20.9047 68.4631 21.4339L69.2927 19.6141ZM65.1819 18.656C63.24 18.656 61.6066 19.3085 60.4004 20.674L61.8993 21.998C62.6718 21.1235 63.7264 20.656 65.1819 20.656V18.656ZM60.406 20.6677C59.2136 21.995 58.6659 23.729 58.6659 25.76H60.6659C60.6659 24.095 61.1075 22.8796 61.8938 22.0043L60.406 20.6677ZM58.6659 25.76C58.6659 27.8339 59.2459 29.5822 60.5268 30.8631L61.941 29.4489C61.1312 28.6391 60.6659 27.4567 60.6659 25.76H58.6659ZM60.5268 30.8631C61.804 32.1403 63.5307 32.724 65.5739 32.724V30.724C63.921 30.724 62.7545 30.2624 61.941 29.4489L60.5268 30.8631ZM65.5739 32.724C66.8971 32.724 68.1832 32.5099 69.4274 32.0815L68.7764 30.1905C67.7432 30.5461 66.6773 30.724 65.5739 30.724V32.724ZM68.1175 31.3121L68.7335 34.7561L70.7023 34.4039L70.0863 30.9599L68.1175 31.3121ZM69.3598 33.6463C68.1308 34.1177 66.7061 34.364 65.0699 34.364V36.364C66.9056 36.364 68.5796 36.0876 70.076 35.5137L69.3598 33.6463ZM87.9669 16.352V15.352H86.9669V16.352H87.9669ZM99.3069 16.352H100.307V15.352H99.3069V16.352ZM99.3069 19.88V20.88H100.307V19.88H99.3069ZM91.9709 19.88V18.88H90.9709V19.88H91.9709ZM91.9709 23.604H90.9709V24.604H91.9709V23.604ZM98.0469 23.604H99.0469V22.604H98.0469V23.604ZM98.0469 27.02V28.02H99.0469V27.02H98.0469ZM91.9709 27.02V26.02H90.9709V27.02H91.9709ZM91.9709 31.472H90.9709V32.472H91.9709V31.472ZM99.3069 31.472H100.307V30.472H99.3069V31.472ZM99.3069 35V36H100.307V35H99.3069ZM87.9669 35H86.9669V36H87.9669V35ZM87.9669 17.352H99.3069V15.352H87.9669V17.352ZM98.3069 16.352V19.88H100.307V16.352H98.3069ZM99.3069 18.88H91.9709V20.88H99.3069V18.88ZM90.9709 19.88V23.604H92.9709V19.88H90.9709ZM91.9709 24.604H98.0469V22.604H91.9709V24.604ZM97.0469 23.604V27.02H99.0469V23.604H97.0469ZM98.0469 26.02H91.9709V28.02H98.0469V26.02ZM90.9709 27.02V31.472H92.9709V27.02H90.9709ZM91.9709 32.472H99.3069V30.472H91.9709V32.472ZM98.3069 31.472V35H100.307V31.472H98.3069ZM99.3069 34H87.9669V36H99.3069V34ZM88.9669 35V16.352H86.9669V35H88.9669Z" fill="black"/>
<defs>
<filter id="filter0_d_23_549" x="0" y="0" width="133" height="52" filterUnits="userSpaceOnUse" color-interpolation-filters="sRGB">
<feFlood flood-opacity="0" result="BackgroundImageFix"/>
<feColorMatrix in="SourceAlpha" type="matrix" values="0 0 0 0 0 0 0 0 0 0 0 0 0 0 0 0 0 0 127 0" result="hardAlpha"/>
<feMorphology radius="3" operator="dilate" in="SourceAlpha" result="effect1_dropShadow_23_549"/>
<feOffset/>
<feComposite in2="hardAlpha" operator="out"/>
<feColorMatrix type="matrix" values="0 0 0 0 0 0 0 0 0 0 0 0 0 0 0 0 0 0 1 0"/>
<feBlend mode="normal" in2="BackgroundImageFix" result="effect1_dropShadow_23_549"/>
<feBlend mode="normal" in="SourceGraphic" in2="effect1_dropShadow_23_549" result="shape"/>
</filter>
<linearGradient id="paint0_linear_23_549" x1="66.5" y1="3" x2="66.5" y2="49" gradientUnits="userSpaceOnUse">
<stop stop-color="#C9FFF8"/>
<stop offset="0.520833" stop-color="#49B7CF"/>
<stop offset="1" stop-color="#C9FFF8"/>
</linearGradient>
</defs>
</svg>
