<svg width="133" height="52" viewBox="0 0 133 52" fill="none" xmlns="http://www.w3.org/2000/svg">
<g filter="url(#filter0_d_23_552)">
<rect x="3" y="3" width="127" height="46" rx="23" fill="url(#paint0_linear_23_552)"/>
<rect x="4.5" y="4.5" width="124" height="43" rx="21.5" stroke="white" stroke-width="3"/>
</g>
<path d="M11.96 16.352H16.72L24.448 29.428V16.352H28.172V35H23.468L15.684 21.84V35H11.96V16.352ZM40.093 35.364C38.2637 35.364 36.649 34.9627 35.249 34.16C33.849 33.3573 32.757 32.228 31.973 30.772C31.2077 29.316 30.825 27.6453 30.825 25.76C30.825 23.856 31.2077 22.176 31.973 20.72C32.7383 19.264 33.821 18.1347 35.221 17.332C36.621 16.5293 38.245 16.128 40.093 16.128C41.9223 16.128 43.537 16.5293 44.937 17.332C46.337 18.116 47.4197 19.2267 48.185 20.664C48.9503 22.1013 49.333 23.7627 49.333 25.648C49.333 27.5707 48.9503 29.2693 48.185 30.744C47.4197 32.2 46.337 33.3387 44.937 34.16C43.537 34.9627 41.9223 35.364 40.093 35.364ZM40.093 31.808C41.6237 31.808 42.8463 31.2573 43.761 30.156C44.6943 29.0547 45.161 27.5893 45.161 25.76C45.161 24.5653 44.9463 23.5107 44.517 22.596C44.1063 21.6627 43.509 20.9533 42.725 20.468C41.9597 19.964 41.0823 19.712 40.093 19.712C39.1037 19.712 38.217 19.964 37.433 20.468C36.6677 20.9533 36.0703 21.6627 35.641 22.596C35.2303 23.5107 35.025 24.5653 35.025 25.76C35.025 26.9547 35.2303 28.0093 35.641 28.924C36.0703 29.8387 36.6677 30.548 37.433 31.052C38.1983 31.556 39.085 31.808 40.093 31.808ZM51.8869 16.352C52.4469 16.3333 53.4922 16.324 55.0229 16.324C56.5722 16.324 57.6269 16.3333 58.1869 16.352C60.3149 16.4267 61.9016 16.9493 62.9469 17.92C63.9922 18.872 64.5149 20.16 64.5149 21.784C64.5149 23.1653 64.1602 24.3413 63.4509 25.312C62.7602 26.264 61.7896 26.8893 60.5389 27.188C60.9309 27.5053 61.3322 27.944 61.7429 28.504C62.1536 29.0453 62.7229 29.8947 63.4509 31.052C64.2162 32.2653 64.9909 33.5813 65.7749 35H61.0709L57.9069 29.12C57.5709 28.504 57.2629 28.1213 56.9829 27.972C56.7216 27.804 56.3202 27.72 55.7789 27.72V35H51.8869V16.352ZM57.5149 24.612C58.4669 24.612 59.2136 24.3693 59.7549 23.884C60.3149 23.3987 60.5949 22.7453 60.5949 21.924C60.5949 21.1773 60.3522 20.608 59.8669 20.216C59.3816 19.824 58.6722 19.628 57.7389 19.628H55.7789V24.612H57.5149ZM71.3349 21.84L70.1589 35H66.5469L68.3109 16.352H73.3509L78.1109 29.736L82.7309 16.352H87.7709L89.4789 35H85.8389L84.5509 21.896L79.6229 35.196L76.2909 35.504L71.3349 21.84ZM97.4066 16.352H102.279L109.195 35H104.995L103.483 30.744H96.1466L94.7186 35H90.5746L97.4066 16.352ZM102.279 27.272L99.7586 20.132L97.3226 27.272H102.279ZM110.923 16.352H114.983V31.472H121.703V35H110.923V16.352Z" fill="white"/>
<path d="M11.96 16.352V15.352H10.96V16.352H11.96ZM16.72 16.352L17.5809 15.8432L17.2906 15.352H16.72V16.352ZM24.448 29.428L23.5871 29.9368L25.448 33.0855V29.428H24.448ZM24.448 16.352V15.352H23.448V16.352H24.448ZM28.172 16.352H29.172V15.352H28.172V16.352ZM28.172 35V36H29.172V35H28.172ZM23.468 35L22.6073 35.5091L22.8977 36H23.468V35ZM15.684 21.84L16.5447 21.3309L14.684 18.1851V21.84H15.684ZM15.684 35V36H16.684V35H15.684ZM11.96 35H10.96V36H11.96V35ZM11.96 17.352H16.72V15.352H11.96V17.352ZM15.8591 16.8608L23.5871 29.9368L25.3089 28.9192L17.5809 15.8432L15.8591 16.8608ZM25.448 29.428V16.352H23.448V29.428H25.448ZM24.448 17.352H28.172V15.352H24.448V17.352ZM27.172 16.352V35H29.172V16.352H27.172ZM28.172 34H23.468V36H28.172V34ZM24.3287 34.4909L16.5447 21.3309L14.8233 22.3491L22.6073 35.5091L24.3287 34.4909ZM14.684 21.84V35H16.684V21.84H14.684ZM15.684 34H11.96V36H15.684V34ZM12.96 35V16.352H10.96V35H12.96ZM35.249 34.16L35.7464 33.2925L35.249 34.16ZM31.973 30.772L31.0878 31.2373L31.0925 31.2461L31.973 30.772ZM31.973 20.72L31.0878 20.2547L31.973 20.72ZM35.221 17.332L34.7236 16.4645V16.4645L35.221 17.332ZM44.937 17.332L44.4396 18.1996L44.4484 18.2045L44.937 17.332ZM48.185 20.664L47.3023 21.134L48.185 20.664ZM48.185 30.744L49.0702 31.2093L49.0726 31.2046L48.185 30.744ZM44.937 34.16L45.4344 35.0276L45.443 35.0225L44.937 34.16ZM43.761 30.156L42.9981 29.5094L42.9917 29.5171L43.761 30.156ZM44.517 22.596L43.6017 22.9987L43.6066 23.0099L43.6118 23.0209L44.517 22.596ZM42.725 20.468L42.175 21.3032L42.1867 21.3109L42.1986 21.3183L42.725 20.468ZM37.433 20.468L37.9686 21.3125L37.9738 21.3092L37.433 20.468ZM35.641 22.596L34.7325 22.1781L34.7287 22.1864L35.641 22.596ZM35.641 28.924L34.7287 29.3336L34.7322 29.3413L34.7358 29.3489L35.641 28.924ZM37.433 31.052L37.983 30.2168H37.983L37.433 31.052ZM40.093 34.364C38.4145 34.364 36.9757 33.9973 35.7464 33.2925L34.7516 35.0275C36.3223 35.9281 38.1129 36.364 40.093 36.364V34.364ZM35.7464 33.2925C34.5125 32.585 33.5513 31.5939 32.8535 30.2979L31.0925 31.2461C31.9627 32.8621 33.1855 34.1296 34.7516 35.0275L35.7464 33.2925ZM32.8582 30.3067C32.1786 29.014 31.825 27.5071 31.825 25.76H29.825C29.825 27.7836 30.2367 29.618 31.0878 31.2373L32.8582 30.3067ZM31.825 25.76C31.825 23.9925 32.1793 22.4767 32.8582 21.1853L31.0878 20.2547C30.236 21.8753 29.825 23.7195 29.825 25.76H31.825ZM32.8582 21.1853C33.5369 19.8941 34.4866 18.9058 35.7184 18.1995L34.7236 16.4645C33.1554 17.3636 31.9398 18.6339 31.0878 20.2547L32.8582 21.1853ZM35.7184 18.1995C36.9462 17.4956 38.3938 17.128 40.093 17.128V15.128C38.0962 15.128 36.2958 15.5631 34.7236 16.4645L35.7184 18.1995ZM40.093 17.128C41.7715 17.128 43.2103 17.4947 44.4396 18.1995L45.4344 16.4645C43.8637 15.5639 42.0731 15.128 40.093 15.128V17.128ZM44.4484 18.2045C45.6786 18.8934 46.6257 19.8632 47.3023 21.134L49.0677 20.194C48.2137 18.5902 46.9954 17.3386 45.4256 16.4595L44.4484 18.2045ZM47.3023 21.134C47.9793 22.4053 48.333 23.9006 48.333 25.648H50.333C50.333 23.6248 49.9214 21.7974 49.0677 20.194L47.3023 21.134ZM48.333 25.648C48.333 27.4356 47.9781 28.9719 47.2974 30.2834L49.0726 31.2046C49.9226 29.5668 50.333 27.7057 50.333 25.648H48.333ZM47.2998 30.2787C46.6201 31.5719 45.6677 32.5719 44.431 33.2975L45.443 35.0225C47.0063 34.1054 48.2192 32.8281 49.0702 31.2093L47.2998 30.2787ZM44.4396 33.2925C43.2103 33.9973 41.7715 34.364 40.093 34.364V36.364C42.0731 36.364 43.8637 35.9281 45.4344 35.0275L44.4396 33.2925ZM40.093 32.808C41.8975 32.808 43.4111 32.1425 44.5303 30.7949L42.9917 29.5171C42.2816 30.3722 41.3498 30.808 40.093 30.808V32.808ZM44.5239 30.8025C45.6476 29.4765 46.161 27.7612 46.161 25.76H44.161C44.161 27.4175 43.741 28.6328 42.9981 29.5095L44.5239 30.8025ZM46.161 25.76C46.161 24.445 45.9243 23.2408 45.4222 22.1711L43.6118 23.0209C43.9683 23.7805 44.161 24.6857 44.161 25.76H46.161ZM45.4323 22.1933C44.9492 21.0953 44.2253 20.2207 43.2514 19.6177L42.1986 21.3183C42.7927 21.686 43.2635 22.23 43.6017 22.9987L45.4323 22.1933ZM43.275 19.6328C42.3333 19.0127 41.2616 18.712 40.093 18.712V20.712C40.9031 20.712 41.586 20.9153 42.175 21.3032L43.275 19.6328ZM40.093 18.712C38.9243 18.712 37.8476 19.0126 36.8922 19.6268L37.9738 21.3092C38.5864 20.9154 39.2831 20.712 40.093 20.712V18.712ZM36.8975 19.6235C35.9482 20.2254 35.2313 21.0937 34.7325 22.1781L36.5495 23.0139C36.9093 22.2317 37.3871 21.6812 37.9685 21.3125L36.8975 19.6235ZM34.7287 22.1864C34.2502 23.2521 34.025 24.4508 34.025 25.76H36.025C36.025 24.6799 36.2104 23.7692 36.5533 23.0056L34.7287 22.1864ZM34.025 25.76C34.025 27.0692 34.2502 28.2679 34.7287 29.3336L36.5533 28.5144C36.2104 27.7508 36.025 26.8401 36.025 25.76H34.025ZM34.7358 29.3489C35.2351 30.4128 35.9482 31.2715 36.883 31.8872L37.983 30.2168C37.3872 29.8244 36.9055 29.2645 36.5462 28.4991L34.7358 29.3489ZM36.883 31.8872C37.8278 32.5094 38.9098 32.808 40.093 32.808V30.808C39.2602 30.808 38.5689 30.6026 37.983 30.2168L36.883 31.8872ZM51.8869 16.352L51.8536 15.3526L50.8869 15.3848V16.352H51.8869ZM58.1869 16.352L58.222 15.3526L58.2202 15.3526L58.1869 16.352ZM62.9469 17.92L62.2664 18.6528L62.2736 18.6593L62.9469 17.92ZM63.4509 25.312L62.6435 24.722L62.6415 24.7248L63.4509 25.312ZM60.5389 27.188L60.3066 26.2153L58.3309 26.6872L59.9097 27.9652L60.5389 27.188ZM61.7429 28.504L60.9365 29.0954L60.9413 29.1019L60.9462 29.1084L61.7429 28.504ZM63.4509 31.052L62.6044 31.5845L62.6051 31.5855L63.4509 31.052ZM65.7749 35V36H67.4701L66.6502 34.5163L65.7749 35ZM61.0709 35L60.1903 35.4739L60.4734 36H61.0709V35ZM57.9069 29.12L58.7875 28.6461L58.7848 28.6411L57.9069 29.12ZM56.9829 27.972L56.4422 28.8132L56.4764 28.8352L56.5123 28.8544L56.9829 27.972ZM55.7789 27.72V26.72H54.7789V27.72H55.7789ZM55.7789 35V36H56.7789V35H55.7789ZM51.8869 35H50.8869V36H51.8869V35ZM59.7549 23.884L59.1 23.1283L59.0936 23.1338L59.0874 23.1394L59.7549 23.884ZM59.8669 20.216L59.2386 20.9939L59.2386 20.9939L59.8669 20.216ZM55.7789 19.628V18.628H54.7789V19.628H55.7789ZM55.7789 24.612H54.7789V25.612H55.7789V24.612ZM51.9202 17.3514C52.4612 17.3334 53.4906 17.324 55.0229 17.324V15.324C53.4938 15.324 52.4326 15.3333 51.8536 15.3526L51.9202 17.3514ZM55.0229 17.324C56.574 17.324 57.6127 17.3334 58.1536 17.3514L58.2202 15.3526C57.6412 15.3333 56.5705 15.324 55.0229 15.324V17.324ZM58.1518 17.3514C60.1544 17.4216 61.4662 17.9097 62.2665 18.6528L63.6274 17.1872C62.3369 15.9889 60.4754 15.4317 58.222 15.3526L58.1518 17.3514ZM62.2736 18.6593C63.079 19.3929 63.5149 20.3954 63.5149 21.784H65.5149C65.5149 19.9246 64.9054 18.3511 63.6202 17.1807L62.2736 18.6593ZM63.5149 21.784C63.5149 22.986 63.2096 23.9473 62.6435 24.722L64.2583 25.902C65.1109 24.7353 65.5149 23.3446 65.5149 21.784H63.5149ZM62.6415 24.7248C62.1045 25.465 61.3484 25.9666 60.3066 26.2153L60.7712 28.1607C62.2308 27.8121 63.416 27.063 64.2603 25.8992L62.6415 24.7248ZM59.9097 27.9652C60.2151 28.2125 60.5591 28.5807 60.9365 29.0954L62.5493 27.9126C62.1054 27.3073 61.6467 26.7982 61.1681 26.4108L59.9097 27.9652ZM60.9462 29.1084C61.3294 29.6135 61.8798 30.4324 62.6044 31.5845L64.2974 30.5195C63.566 29.3569 62.9778 28.4772 62.5396 27.8996L60.9462 29.1084ZM62.6051 31.5855C63.3589 32.7806 64.1238 34.0798 64.8997 35.4837L66.6502 34.5163C65.858 33.0829 65.0736 31.7501 64.2967 30.5185L62.6051 31.5855ZM65.7749 34H61.0709V36H65.7749V34ZM61.9515 34.5261L58.7875 28.6462L57.0263 29.5938L60.1903 35.4739L61.9515 34.5261ZM58.7848 28.6411C58.5993 28.3011 58.4063 27.9967 58.2029 27.744C58.0059 27.4992 57.7595 27.2529 57.4535 27.0896L56.5123 28.8544C56.4863 28.8405 56.5339 28.8602 56.6449 28.998C56.7495 29.128 56.8785 29.3229 57.029 29.5989L58.7848 28.6411ZM57.5237 27.1308C57.0209 26.8076 56.387 26.72 55.7789 26.72V28.72C56.0012 28.72 56.1652 28.7375 56.281 28.7618C56.3379 28.7737 56.3782 28.7862 56.4052 28.7964C56.4321 28.8067 56.4427 28.8135 56.4422 28.8132L57.5237 27.1308ZM54.7789 27.72V35H56.7789V27.72H54.7789ZM55.7789 34H51.8869V36H55.7789V34ZM52.8869 35V16.352H50.8869V35H52.8869ZM57.5149 25.612C58.6353 25.612 59.6469 25.3239 60.4225 24.6286L59.0874 23.1394C58.7803 23.4148 58.2985 23.612 57.5149 23.612V25.612ZM60.4098 24.6397C61.2143 23.9425 61.5949 23.0001 61.5949 21.924H59.5949C59.5949 22.4906 59.4155 22.8549 59.1 23.1283L60.4098 24.6397ZM61.5949 21.924C61.5949 20.9412 61.2626 20.0578 60.4952 19.4381L59.2386 20.9939C59.4419 21.1582 59.5949 21.4135 59.5949 21.924H61.5949ZM60.4952 19.4381C59.7626 18.8463 58.792 18.628 57.7389 18.628V20.628C58.5525 20.628 59.0006 20.8017 59.2386 20.9939L60.4952 19.4381ZM57.7389 18.628H55.7789V20.628H57.7389V18.628ZM54.7789 19.628V24.612H56.7789V19.628H54.7789ZM55.7789 25.612H57.5149V23.612H55.7789V25.612ZM71.3349 21.84L72.275 21.499L70.3388 21.751L71.3349 21.84ZM70.1589 35V36H71.0735L71.1549 35.089L70.1589 35ZM66.5469 35L65.5513 34.9058L65.4478 36H66.5469V35ZM68.3109 16.352V15.352H67.401L67.3153 16.2578L68.3109 16.352ZM73.3509 16.352L74.2931 16.0169L74.0566 15.352H73.3509V16.352ZM78.1109 29.736L77.1687 30.0711L78.125 32.7599L79.0561 30.0623L78.1109 29.736ZM82.7309 16.352V15.352H82.0182L81.7856 16.0257L82.7309 16.352ZM87.7709 16.352L88.7667 16.2608L88.6835 15.352H87.7709V16.352ZM89.4789 35V36H90.5747L90.4747 34.9088L89.4789 35ZM85.8389 35L84.8437 35.0978L84.9324 36H85.8389V35ZM84.5509 21.896L85.5461 21.7982L83.6132 21.5486L84.5509 21.896ZM79.6229 35.196L79.7149 36.1918L80.3418 36.1338L80.5606 35.5434L79.6229 35.196ZM76.2909 35.504L75.3508 35.845L75.6141 36.5708L76.3829 36.4998L76.2909 35.504ZM70.3388 21.751L69.1628 34.911L71.1549 35.089L72.3309 21.929L70.3388 21.751ZM70.1589 34H66.5469V36H70.1589V34ZM67.5424 35.0942L69.3064 16.4462L67.3153 16.2578L65.5513 34.9058L67.5424 35.0942ZM68.3109 17.352H73.3509V15.352H68.3109V17.352ZM72.4087 16.6871L77.1687 30.0711L79.0531 29.4009L74.2931 16.0169L72.4087 16.6871ZM79.0561 30.0623L83.6761 16.6783L81.7856 16.0257L77.1656 29.4097L79.0561 30.0623ZM82.7309 17.352H87.7709V15.352H82.7309V17.352ZM86.775 16.4432L88.483 35.0912L90.4747 34.9088L88.7667 16.2608L86.775 16.4432ZM89.4789 34H85.8389V36H89.4789V34ZM86.8341 34.9022L85.5461 21.7982L83.5557 21.9938L84.8437 35.0978L86.8341 34.9022ZM83.6132 21.5486L78.6852 34.8486L80.5606 35.5434L85.4886 22.2434L83.6132 21.5486ZM79.5308 34.2002L76.1988 34.5082L76.3829 36.4998L79.7149 36.1918L79.5308 34.2002ZM77.2309 35.163L72.275 21.499L70.3948 22.181L75.3508 35.845L77.2309 35.163ZM97.4066 16.352V15.352H96.708L96.4676 16.008L97.4066 16.352ZM102.279 16.352L103.216 16.0043L102.974 15.352H102.279V16.352ZM109.195 35V36H110.632L110.132 34.6523L109.195 35ZM104.995 35L104.052 35.3348L104.289 36H104.995V35ZM103.483 30.744L104.425 30.4092L104.189 29.744H103.483V30.744ZM96.1466 30.744V29.744H95.4273L95.1985 30.4259L96.1466 30.744ZM94.7186 35V36H95.4379L95.6666 35.3181L94.7186 35ZM90.5746 35L89.6356 34.656L89.1432 36H90.5746V35ZM102.279 27.272V28.272H103.692L103.222 26.9392L102.279 27.272ZM99.7586 20.132L100.702 19.7992L99.7426 17.082L98.8122 19.8091L99.7586 20.132ZM97.3226 27.272L96.3762 26.9491L95.9248 28.272H97.3226V27.272ZM97.4066 17.352H102.279V15.352H97.4066V17.352ZM101.341 16.6997L108.257 35.3477L110.132 34.6523L103.216 16.0043L101.341 16.6997ZM109.195 34H104.995V36H109.195V34ZM105.937 34.6652L104.425 30.4092L102.54 31.0788L104.052 35.3348L105.937 34.6652ZM103.483 29.744H96.1466V31.744H103.483V29.744ZM95.1985 30.4259L93.7705 34.6819L95.6666 35.3181L97.0947 31.0621L95.1985 30.4259ZM94.7186 34H90.5746V36H94.7186V34ZM91.5136 35.344L98.3456 16.696L96.4676 16.008L89.6356 34.656L91.5136 35.344ZM103.222 26.9392L100.702 19.7992L98.8156 20.4648L101.336 27.6048L103.222 26.9392ZM98.8122 19.8091L96.3762 26.9491L98.269 27.5949L100.705 20.4549L98.8122 19.8091ZM97.3226 28.272H102.279V26.272H97.3226V28.272ZM110.923 16.352V15.352H109.923V16.352H110.923ZM114.982 16.352H115.982V15.352H114.982V16.352ZM114.982 31.472H113.982V32.472H114.982V31.472ZM121.702 31.472H122.702V30.472H121.702V31.472ZM121.702 35V36H122.702V35H121.702ZM110.923 35H109.923V36H110.923V35ZM110.923 17.352H114.982V15.352H110.923V17.352ZM113.982 16.352V31.472H115.982V16.352H113.982ZM114.982 32.472H121.702V30.472H114.982V32.472ZM120.702 31.472V35H122.702V31.472H120.702ZM121.702 34H110.923V36H121.702V34ZM111.923 35V16.352H109.923V35H111.923Z" fill="black"/>
<defs>
<filter id="filter0_d_23_552" x="0" y="0" width="133" height="52" filterUnits="userSpaceOnUse" color-interpolation-filters="sRGB">
<feFlood flood-opacity="0" result="BackgroundImageFix"/>
<feColorMatrix in="SourceAlpha" type="matrix" values="0 0 0 0 0 0 0 0 0 0 0 0 0 0 0 0 0 0 127 0" result="hardAlpha"/>
<feMorphology radius="3" operator="dilate" in="SourceAlpha" result="effect1_dropShadow_23_552"/>
<feOffset/>
<feComposite in2="hardAlpha" operator="out"/>
<feColorMatrix type="matrix" values="0 0 0 0 0 0 0 0 0 0 0 0 0 0 0 0 0 0 1 0"/>
<feBlend mode="normal" in2="BackgroundImageFix" result="effect1_dropShadow_23_552"/>
<feBlend mode="normal" in="SourceGraphic" in2="effect1_dropShadow_23_552" result="shape"/>
</filter>
<linearGradient id="paint0_linear_23_552" x1="66.5" y1="3" x2="66.5" y2="49" gradientUnits="userSpaceOnUse">
<stop stop-color="#C8C2BA"/>
<stop offset="0.520833" stop-color="#877761"/>
<stop offset="1" stop-color="#C8C2BA"/>
</linearGradient>
</defs>
</svg>
