<svg width="133" height="52" viewBox="0 0 133 52" fill="none" xmlns="http://www.w3.org/2000/svg">
<g filter="url(#filter0_d_23_565)">
<rect x="3" y="3" width="127" height="46" rx="23" fill="url(#paint0_linear_23_565)"/>
<rect x="4.5" y="4.5" width="124" height="43" rx="21.5" stroke="white" stroke-width="3"/>
</g>
<path d="M11.96 16.352C12.5013 16.3333 13.528 16.324 15.04 16.324C16.5707 16.324 17.6067 16.3333 18.148 16.352C20.0707 16.3893 21.5827 16.9027 22.684 17.892C23.7853 18.8813 24.336 20.2533 24.336 22.008C24.336 23.2587 24.056 24.3693 23.496 25.34C22.936 26.292 22.1427 27.0293 21.116 27.552C20.108 28.0747 18.96 28.336 17.672 28.336H15.852V35H11.96V16.352ZM17.504 25.032C18.4187 25.032 19.128 24.7707 19.632 24.248C20.1547 23.7253 20.416 23.016 20.416 22.12C20.416 20.4773 19.5107 19.656 17.7 19.656H15.852V25.032H17.504ZM38.6307 35.364C36.8013 35.364 35.1867 34.9627 33.7867 34.16C32.3867 33.3573 31.2947 32.228 30.5107 30.772C29.7453 29.316 29.3627 27.6453 29.3627 25.76C29.3627 23.856 29.7453 22.176 30.5107 20.72C31.276 19.264 32.3587 18.1347 33.7587 17.332C35.1587 16.5293 36.7827 16.128 38.6307 16.128C40.46 16.128 42.0747 16.5293 43.4747 17.332C44.8747 18.116 45.9573 19.2267 46.7227 20.664C47.488 22.1013 47.8707 23.7627 47.8707 25.648C47.8707 27.5707 47.488 29.2693 46.7227 30.744C45.9573 32.2 44.8747 33.3387 43.4747 34.16C42.0747 34.9627 40.46 35.364 38.6307 35.364ZM38.6307 31.808C40.1613 31.808 41.384 31.2573 42.2987 30.156C43.232 29.0547 43.6987 27.5893 43.6987 25.76C43.6987 24.5653 43.484 23.5107 43.0547 22.596C42.644 21.6627 42.0467 20.9533 41.2627 20.468C40.4973 19.964 39.62 19.712 38.6307 19.712C37.6413 19.712 36.7547 19.964 35.9707 20.468C35.2053 20.9533 34.608 21.6627 34.1787 22.596C33.768 23.5107 33.5627 24.5653 33.5627 25.76C33.5627 26.9547 33.768 28.0093 34.1787 28.924C34.608 29.8387 35.2053 30.548 35.9707 31.052C36.736 31.556 37.6227 31.808 38.6307 31.808ZM53.7006 16.352H57.7606V35H53.7006V16.352ZM69.3464 35.364C68.2638 35.364 67.2278 35.2427 66.2384 35C65.2678 34.7573 64.4278 34.4307 63.7184 34.02L64.0544 30.268C64.8944 30.7907 65.7718 31.2013 66.6864 31.5C67.6198 31.78 68.4784 31.92 69.2624 31.92C70.1584 31.92 70.8864 31.7333 71.4464 31.36C72.0064 30.9867 72.2864 30.492 72.2864 29.876C72.2864 29.372 72.0998 28.9893 71.7264 28.728C71.3531 28.448 70.7651 28.1493 69.9624 27.832L69.2904 27.552C69.1971 27.5147 69.0944 27.4773 68.9824 27.44C68.8704 27.384 68.7398 27.328 68.5904 27.272C67.5451 26.8427 66.7051 26.4413 66.0704 26.068C65.4358 25.676 64.8851 25.1347 64.4184 24.444C63.9704 23.7533 63.7464 22.8573 63.7464 21.756C63.7464 19.964 64.3531 18.5547 65.5664 17.528C66.7798 16.5013 68.4691 15.988 70.6344 15.988C72.2771 15.988 73.9571 16.324 75.6744 16.996L75.0584 20.692C74.3678 20.3 73.6211 19.992 72.8184 19.768C72.0344 19.544 71.2878 19.432 70.5784 19.432C69.7011 19.432 69.0198 19.6093 68.5344 19.964C68.0491 20.3 67.8064 20.7573 67.8064 21.336C67.8064 21.84 67.9744 22.232 68.3104 22.512C68.6464 22.792 69.1878 23.0907 69.9344 23.408L71.0824 23.856C72.1651 24.2667 73.0611 24.668 73.7704 25.06C74.4798 25.452 75.0864 26.0213 75.5904 26.768C76.0944 27.496 76.3464 28.448 76.3464 29.624C76.3464 31.4347 75.7304 32.844 74.4984 33.852C73.2664 34.86 71.5491 35.364 69.3464 35.364ZM90.5149 35.364C88.6855 35.364 87.0709 34.9627 85.6709 34.16C84.2709 33.3573 83.1789 32.228 82.3949 30.772C81.6295 29.316 81.2469 27.6453 81.2469 25.76C81.2469 23.856 81.6295 22.176 82.3949 20.72C83.1602 19.264 84.2429 18.1347 85.6429 17.332C87.0429 16.5293 88.6669 16.128 90.5149 16.128C92.3442 16.128 93.9589 16.5293 95.3589 17.332C96.7589 18.116 97.8415 19.2267 98.6069 20.664C99.3722 22.1013 99.7549 23.7627 99.7549 25.648C99.7549 27.5707 99.3722 29.2693 98.6069 30.744C97.8415 32.2 96.7589 33.3387 95.3589 34.16C93.9589 34.9627 92.3442 35.364 90.5149 35.364ZM90.5149 31.808C92.0455 31.808 93.2682 31.2573 94.1829 30.156C95.1162 29.0547 95.5829 27.5893 95.5829 25.76C95.5829 24.5653 95.3682 23.5107 94.9389 22.596C94.5282 21.6627 93.9309 20.9533 93.1469 20.468C92.3815 19.964 91.5042 19.712 90.5149 19.712C89.5255 19.712 88.6389 19.964 87.8549 20.468C87.0895 20.9533 86.4922 21.6627 86.0629 22.596C85.6522 23.5107 85.4469 24.5653 85.4469 25.76C85.4469 26.9547 85.6522 28.0093 86.0629 28.924C86.4922 29.8387 87.0895 30.548 87.8549 31.052C88.6202 31.556 89.5069 31.808 90.5149 31.808ZM105.361 16.352H110.121L117.849 29.428V16.352H121.573V35H116.869L109.085 21.84V35H105.361V16.352Z" fill="white"/>
<path d="M11.96 16.352L11.9255 15.3526L10.96 15.3859V16.352H11.96ZM18.148 16.352L18.1135 17.3514L18.1211 17.3517L18.1286 17.3518L18.148 16.352ZM22.684 17.892L22.0157 18.6359H22.0157L22.684 17.892ZM23.496 25.34L24.358 25.847L24.3622 25.8397L23.496 25.34ZM21.116 27.552L20.6623 26.6608L20.6557 26.6642L21.116 27.552ZM15.852 28.336V27.336H14.852V28.336H15.852ZM15.852 35V36H16.852V35H15.852ZM11.96 35H10.96V36H11.96V35ZM19.632 24.248L18.9249 23.5409L18.9185 23.5473L18.9122 23.5539L19.632 24.248ZM15.852 19.656V18.656H14.852V19.656H15.852ZM15.852 25.032H14.852V26.032H15.852V25.032ZM11.9945 17.3514C12.516 17.3334 13.5261 17.324 15.04 17.324V15.324C13.5299 15.324 12.4866 15.3332 11.9255 15.3526L11.9945 17.3514ZM15.04 17.324C16.5728 17.324 17.592 17.3334 18.1135 17.3514L18.1825 15.3526C17.6213 15.3332 16.5686 15.324 15.04 15.324V17.324ZM18.1286 17.3518C19.8845 17.3859 21.1408 17.85 22.0157 18.6359L23.3523 17.1481C22.0245 15.9554 20.2569 15.3928 18.1674 15.3522L18.1286 17.3518ZM22.0157 18.6359C22.8666 19.4003 23.336 20.4797 23.336 22.008H25.336C25.336 20.027 24.704 18.3624 23.3523 17.1481L22.0157 18.6359ZM23.336 22.008C23.336 23.1041 23.0923 24.0386 22.6298 24.8403L24.3622 25.8397C25.0197 24.7 25.336 23.4133 25.336 22.008H23.336ZM22.6341 24.833C22.175 25.6133 21.5268 26.2208 20.6623 26.6608L21.5697 28.4432C22.7586 27.8379 23.697 26.9707 24.3579 25.847L22.6341 24.833ZM20.6557 26.6642C19.808 27.1038 18.8215 27.336 17.672 27.336V29.336C19.0985 29.336 20.408 29.0456 21.5763 28.4398L20.6557 26.6642ZM17.672 27.336H15.852V29.336H17.672V27.336ZM14.852 28.336V35H16.852V28.336H14.852ZM15.852 34H11.96V36H15.852V34ZM12.96 35V16.352H10.96V35H12.96ZM17.504 26.032C18.6155 26.032 19.6131 25.7082 20.3518 24.9421L18.9122 23.5539C18.6429 23.8331 18.2219 24.032 17.504 24.032V26.032ZM20.3391 24.9551C21.0879 24.2063 21.416 23.2212 21.416 22.12H19.416C19.416 22.8108 19.2215 23.2443 18.9249 23.5409L20.3391 24.9551ZM21.416 22.12C21.416 21.1181 21.1354 20.1905 20.4089 19.5314C19.7009 18.889 18.7367 18.656 17.7 18.656V20.656C18.474 20.656 18.8678 20.8336 19.0651 21.0126C19.2439 21.1749 19.416 21.4793 19.416 22.12H21.416ZM17.7 18.656H15.852V20.656H17.7V18.656ZM14.852 19.656V25.032H16.852V19.656H14.852ZM15.852 26.032H17.504V24.032H15.852V26.032ZM33.7867 34.16L34.284 33.2925L33.7867 34.16ZM30.5107 30.772L29.6254 31.2373L29.6302 31.2461L30.5107 30.772ZM30.5107 20.72L29.6255 20.2547L30.5107 20.72ZM33.7587 17.332L33.2613 16.4645V16.4645L33.7587 17.332ZM43.4747 17.332L42.9772 18.1996L42.9861 18.2045L43.4747 17.332ZM46.7227 20.664L45.84 21.134L46.7227 20.664ZM46.7227 30.744L47.6078 31.2093L47.6102 31.2046L46.7227 30.744ZM43.4747 34.16L43.9721 35.0276L43.9807 35.0225L43.4747 34.16ZM42.2987 30.156L41.5357 29.5094L41.5294 29.5171L42.2987 30.156ZM43.0547 22.596L42.1393 22.9987L42.1442 23.0099L42.1494 23.0209L43.0547 22.596ZM41.2627 20.468L40.7127 21.3032L40.7244 21.3109L40.7363 21.3183L41.2627 20.468ZM35.9707 20.468L36.5062 21.3125L36.5114 21.3092L35.9707 20.468ZM34.1787 22.596L33.2701 22.1781L33.2664 22.1864L34.1787 22.596ZM34.1787 28.924L33.2664 29.3336L33.2698 29.3413L33.2734 29.3489L34.1787 28.924ZM35.9707 31.052L36.5206 30.2168H36.5206L35.9707 31.052ZM38.6307 34.364C36.9521 34.364 35.5133 33.9973 34.284 33.2925L33.2893 35.0275C34.86 35.9281 36.6505 36.364 38.6307 36.364V34.364ZM34.284 33.2925C33.0501 32.585 32.089 31.5939 31.3911 30.2979L29.6302 31.2461C30.5004 32.8621 31.7232 34.1296 33.2893 35.0275L34.284 33.2925ZM31.3958 30.3067C30.7163 29.014 30.3627 27.5071 30.3627 25.76H28.3627C28.3627 27.7836 28.7744 29.618 29.6255 31.2373L31.3958 30.3067ZM30.3627 25.76C30.3627 23.9925 30.717 22.4767 31.3958 21.1853L29.6255 20.2547C28.7736 21.8753 28.3627 23.7195 28.3627 25.76H30.3627ZM31.3958 21.1853C32.0745 19.8941 33.0242 18.9058 34.256 18.1995L33.2613 16.4645C31.6931 17.3636 30.4774 18.6339 29.6255 20.2547L31.3958 21.1853ZM34.256 18.1995C35.4838 17.4956 36.9315 17.128 38.6307 17.128V15.128C36.6338 15.128 34.8335 15.5631 33.2613 16.4645L34.256 18.1995ZM38.6307 17.128C40.3092 17.128 41.748 17.4947 42.9773 18.1995L43.972 16.4645C42.4013 15.5639 40.6108 15.128 38.6307 15.128V17.128ZM42.9861 18.2045C44.2162 18.8934 45.1633 19.8632 45.84 21.134L47.6053 20.194C46.7513 18.5902 45.5331 17.3386 43.9633 16.4595L42.9861 18.2045ZM45.84 21.134C46.5169 22.4053 46.8707 23.9006 46.8707 25.648H48.8707C48.8707 23.6248 48.4591 21.7974 47.6053 20.194L45.84 21.134ZM46.8707 25.648C46.8707 27.4356 46.5157 28.9719 45.8351 30.2834L47.6102 31.2046C48.4603 29.5668 48.8707 27.7057 48.8707 25.648H46.8707ZM45.8375 30.2787C45.1578 31.5719 44.2054 32.5719 42.9686 33.2975L43.9807 35.0225C45.5439 34.1054 46.7569 32.8281 47.6078 31.2093L45.8375 30.2787ZM42.9773 33.2925C41.748 33.9973 40.3092 34.364 38.6307 34.364V36.364C40.6108 36.364 42.4013 35.9281 43.972 35.0275L42.9773 33.2925ZM38.6307 32.808C40.4352 32.808 41.9488 32.1425 43.0679 30.7949L41.5294 29.5171C40.8192 30.3722 39.8875 30.808 38.6307 30.808V32.808ZM43.0616 30.8025C44.1853 29.4765 44.6987 27.7612 44.6987 25.76H42.6987C42.6987 27.4175 42.2787 28.6328 41.5358 29.5095L43.0616 30.8025ZM44.6987 25.76C44.6987 24.445 44.462 23.2408 43.9599 22.1711L42.1494 23.0209C42.506 23.7805 42.6987 24.6857 42.6987 25.76H44.6987ZM43.97 22.1933C43.4869 21.0953 42.763 20.2207 41.789 19.6177L40.7363 21.3183C41.3303 21.686 41.8011 22.23 42.1393 22.9987L43.97 22.1933ZM41.8126 19.6328C40.871 19.0127 39.7992 18.712 38.6307 18.712V20.712C39.4408 20.712 40.1237 20.9153 40.7127 21.3032L41.8126 19.6328ZM38.6307 18.712C37.4619 18.712 36.3853 19.0126 35.4299 19.6268L36.5114 21.3092C37.124 20.9154 37.8207 20.712 38.6307 20.712V18.712ZM35.4351 19.6235C34.4859 20.2254 33.769 21.0937 33.2702 22.1781L35.0871 23.0139C35.447 22.2317 35.9248 21.6812 36.5062 21.3125L35.4351 19.6235ZM33.2664 22.1864C32.7879 23.2521 32.5627 24.4508 32.5627 25.76H34.5627C34.5627 24.6799 34.7481 23.7692 35.0909 23.0056L33.2664 22.1864ZM32.5627 25.76C32.5627 27.0692 32.7879 28.2679 33.2664 29.3336L35.0909 28.5144C34.7481 27.7508 34.5627 26.8401 34.5627 25.76H32.5627ZM33.2734 29.3489C33.7728 30.4128 34.4858 31.2715 35.4207 31.8872L36.5206 30.2168C35.9248 29.8244 35.4432 29.2645 35.0839 28.4991L33.2734 29.3489ZM35.4207 31.8872C36.3655 32.5094 37.4475 32.808 38.6307 32.808V30.808C37.7978 30.808 37.1065 30.6026 36.5206 30.2168L35.4207 31.8872ZM53.7006 16.352V15.352H52.7006V16.352H53.7006ZM57.7606 16.352H58.7606V15.352H57.7606V16.352ZM57.7606 35V36H58.7606V35H57.7606ZM53.7006 35H52.7006V36H53.7006V35ZM53.7006 17.352H57.7606V15.352H53.7006V17.352ZM56.7606 16.352V35H58.7606V16.352H56.7606ZM57.7606 34H53.7006V36H57.7606V34ZM54.7006 35V16.352H52.7006V35H54.7006ZM66.2384 35L65.9959 35.9702L66.0002 35.9712L66.2384 35ZM63.7184 34.02L62.7224 33.9308L62.6655 34.5659L63.2174 34.8854L63.7184 34.02ZM64.0544 30.268L64.5827 29.4189L63.2033 28.5606L63.0584 30.1788L64.0544 30.268ZM66.6864 31.5L66.376 32.4506L66.3875 32.4544L66.3991 32.4578L66.6864 31.5ZM71.4464 31.36L70.8917 30.528L71.4464 31.36ZM71.7264 28.728L71.1264 29.528L71.1395 29.5378L71.153 29.5472L71.7264 28.728ZM69.9624 27.832L69.5778 28.7551L69.5863 28.7586L69.5948 28.762L69.9624 27.832ZM69.2904 27.552L69.6751 26.6289L69.6685 26.6262L69.6618 26.6235L69.2904 27.552ZM68.9824 27.44L68.5352 28.3344L68.5988 28.3662L68.6662 28.3887L68.9824 27.44ZM68.5904 27.272L68.2105 28.197L68.2248 28.2029L68.2393 28.2083L68.5904 27.272ZM66.0704 26.068L65.5449 26.9188L65.5541 26.9245L65.5634 26.9299L66.0704 26.068ZM64.4184 24.444L63.5795 24.9882L63.5846 24.9961L63.5899 25.0039L64.4184 24.444ZM75.6744 16.996L76.6608 17.1604L76.7942 16.3603L76.0388 16.0648L75.6744 16.996ZM75.0584 20.692L74.5648 21.5617L75.8095 22.2681L76.0448 20.8564L75.0584 20.692ZM72.8184 19.768L72.5437 20.7295L72.5496 20.7312L72.8184 19.768ZM68.5344 19.964L69.1036 20.7862L69.1141 20.7789L69.1245 20.7714L68.5344 19.964ZM68.3104 22.512L67.6703 23.2802V23.2802L68.3104 22.512ZM69.9344 23.408L69.5433 24.3283L69.557 24.3342L69.5709 24.3396L69.9344 23.408ZM71.0824 23.856L70.7189 24.7876L70.7278 24.791L71.0824 23.856ZM73.7704 25.06L73.2868 25.9352L73.7704 25.06ZM75.5904 26.768L74.7615 27.3275L74.7682 27.3372L75.5904 26.768ZM74.4984 33.852L73.8652 33.078L74.4984 33.852ZM69.3464 34.364C68.339 34.364 67.3833 34.2512 66.4767 34.0288L66.0002 35.9712C67.0722 36.2342 68.1885 36.364 69.3464 36.364V34.364ZM66.481 34.0299C65.5818 33.8051 64.8325 33.5095 64.2195 33.1546L63.2174 34.8854C64.0231 35.3519 64.9538 35.7096 65.9959 35.9701L66.481 34.0299ZM64.7145 34.1092L65.0505 30.3572L63.0584 30.1788L62.7224 33.9308L64.7145 34.1092ZM63.5261 31.1171C64.4325 31.681 65.3828 32.1263 66.376 32.4506L66.9968 30.5494C66.1608 30.2764 65.3564 29.9003 64.5827 29.4189L63.5261 31.1171ZM66.3991 32.4578C67.404 32.7593 68.3609 32.92 69.2624 32.92V30.92C68.596 30.92 67.8355 30.8007 66.9738 30.5422L66.3991 32.4578ZM69.2624 32.92C70.2917 32.92 71.2306 32.7058 72.0011 32.192L70.8917 30.528C70.5423 30.7609 70.0252 30.92 69.2624 30.92V32.92ZM72.0011 32.1921C72.8089 31.6535 73.2864 30.8614 73.2864 29.876H71.2864C71.2864 30.1226 71.204 30.3198 70.8917 30.528L72.0011 32.1921ZM73.2864 29.876C73.2864 29.086 72.972 28.3792 72.2999 27.9088L71.153 29.5472C71.2275 29.5994 71.2864 29.658 71.2864 29.876H73.2864ZM72.3264 27.928C71.8452 27.567 71.1581 27.2294 70.3301 26.902L69.5948 28.762C70.3721 29.0693 70.8611 29.329 71.1264 29.528L72.3264 27.928ZM70.3471 26.9089L69.6751 26.6289L68.9058 28.4751L69.5778 28.7551L70.3471 26.9089ZM69.6618 26.6235C69.5475 26.5778 69.4261 26.5338 69.2987 26.4913L68.6662 28.3887C68.7627 28.4209 68.8467 28.4515 68.919 28.4805L69.6618 26.6235ZM69.4297 26.5456C69.2793 26.4704 69.1153 26.4008 68.9416 26.3357L68.2393 28.2083C68.3643 28.2552 68.4616 28.2976 68.5352 28.3344L69.4297 26.5456ZM68.9704 26.347C67.9483 25.9272 67.1558 25.5463 66.5775 25.2061L65.5634 26.9299C66.2544 27.3364 67.1419 27.7581 68.2105 28.197L68.9704 26.347ZM66.5959 25.2172C66.0952 24.9079 65.6438 24.4713 65.247 23.8841L63.5899 25.0039C64.1265 25.798 64.7763 26.4441 65.5449 26.9188L66.5959 25.2172ZM65.2574 23.8998C64.9445 23.4174 64.7464 22.7279 64.7464 21.756H62.7464C62.7464 22.9868 62.9964 24.0892 63.5795 24.9882L65.2574 23.8998ZM64.7464 21.756C64.7464 20.2161 65.2538 19.1025 66.2124 18.2914L64.9205 16.7646C63.4524 18.0069 62.7464 19.7119 62.7464 21.756H64.7464ZM66.2124 18.2914C67.189 17.465 68.6199 16.988 70.6344 16.988V14.988C68.3183 14.988 66.3705 15.5377 64.9205 16.7646L66.2124 18.2914ZM70.6344 16.988C72.1381 16.988 73.6947 17.2951 75.31 17.9272L76.0388 16.0648C74.2196 15.3529 72.4162 14.988 70.6344 14.988V16.988ZM74.688 16.8316L74.072 20.5276L76.0448 20.8564L76.6608 17.1604L74.688 16.8316ZM75.552 19.8223C74.7871 19.3882 73.9645 19.0496 73.0872 18.8048L72.5496 20.7312C73.2777 20.9344 73.9484 21.2118 74.5648 21.5617L75.552 19.8223ZM73.0932 18.8065C72.2329 18.5607 71.3933 18.432 70.5784 18.432V20.432C71.1822 20.432 71.836 20.5273 72.5437 20.7295L73.0932 18.8065ZM70.5784 18.432C69.5823 18.432 68.6635 18.6311 67.9444 19.1566L69.1245 20.7714C69.376 20.5876 69.8199 20.432 70.5784 20.432V18.432ZM67.9652 19.1418C67.2166 19.6601 66.8064 20.4214 66.8064 21.336H68.8064C68.8064 21.0933 68.8816 20.9399 69.1036 20.7862L67.9652 19.1418ZM66.8064 21.336C66.8064 22.0863 67.0701 22.7801 67.6703 23.2802L68.9506 21.7438C68.8788 21.6839 68.8064 21.5937 68.8064 21.336H66.8064ZM67.6703 23.2802C68.1202 23.6552 68.7695 23.9995 69.5433 24.3283L70.3256 22.4877C69.606 22.1818 69.1726 21.9288 68.9506 21.7438L67.6703 23.2802ZM69.5709 24.3396L70.7189 24.7876L71.446 22.9244L70.298 22.4764L69.5709 24.3396ZM70.7278 24.791C71.7832 25.1913 72.6324 25.5736 73.2868 25.9352L74.2541 24.1848C73.4898 23.7624 72.547 23.342 71.4371 22.921L70.7278 24.791ZM73.2868 25.9352C73.8428 26.2425 74.3361 26.697 74.7616 27.3275L76.4193 26.2085C75.8368 25.3456 75.1167 24.6614 74.2541 24.1848L73.2868 25.9352ZM74.7682 27.3372C75.124 27.851 75.3464 28.5856 75.3464 29.624H77.3464C77.3464 28.3104 77.0649 27.141 76.4126 26.1988L74.7682 27.3372ZM75.3464 29.624C75.3464 31.1811 74.8314 32.2875 73.8652 33.078L75.1317 34.626C76.6295 33.4005 77.3464 31.6882 77.3464 29.624H75.3464ZM73.8652 33.078C72.8697 33.8926 71.406 34.364 69.3464 34.364V36.364C71.6922 36.364 73.6632 35.8274 75.1317 34.626L73.8652 33.078ZM85.6709 34.16L86.1683 33.2925L85.6709 34.16ZM82.3949 30.772L81.5097 31.2373L81.5144 31.2461L82.3949 30.772ZM82.3949 20.72L81.5097 20.2547L82.3949 20.72ZM85.6429 17.332L85.1455 16.4645V16.4645L85.6429 17.332ZM95.3589 17.332L94.8615 18.1996L94.8703 18.2045L95.3589 17.332ZM98.6069 20.664L97.7242 21.134L98.6069 20.664ZM98.6069 30.744L99.4921 31.2093L99.4945 31.2046L98.6069 30.744ZM95.3589 34.16L95.8563 35.0276L95.8649 35.0225L95.3589 34.16ZM94.1829 30.156L93.4199 29.5094L93.4136 29.5171L94.1829 30.156ZM94.9389 22.596L94.0236 22.9987L94.0285 23.0099L94.0336 23.0209L94.9389 22.596ZM93.1469 20.468L92.5969 21.3032L92.6086 21.3109L92.6205 21.3183L93.1469 20.468ZM87.8549 20.468L88.3904 21.3125L88.3956 21.3092L87.8549 20.468ZM86.0629 22.596L85.1544 22.1781L85.1506 22.1864L86.0629 22.596ZM86.0629 28.924L85.1506 29.3336L85.1541 29.3413L85.1576 29.3489L86.0629 28.924ZM87.8549 31.052L88.4049 30.2168L87.8549 31.052ZM90.5149 34.364C88.8363 34.364 87.3975 33.9973 86.1683 33.2925L85.1735 35.0275C86.7442 35.9281 88.5348 36.364 90.5149 36.364V34.364ZM86.1683 33.2925C84.9343 32.585 83.9732 31.5939 83.2753 30.2979L81.5144 31.2461C82.3846 32.8621 83.6074 34.1296 85.1735 35.0275L86.1683 33.2925ZM83.28 30.3067C82.6005 29.014 82.2469 27.5071 82.2469 25.76H80.2469C80.2469 27.7836 80.6586 29.618 81.5097 31.2373L83.28 30.3067ZM82.2469 25.76C82.2469 23.9925 82.6012 22.4767 83.28 21.1853L81.5097 20.2547C80.6579 21.8753 80.2469 23.7195 80.2469 25.76H82.2469ZM83.28 21.1853C83.9588 19.8941 84.9084 18.9058 86.1403 18.1995L85.1455 16.4645C83.5773 17.3636 82.3617 18.6339 81.5097 20.2547L83.28 21.1853ZM86.1403 18.1995C87.368 17.4956 88.8157 17.128 90.5149 17.128V15.128C88.5181 15.128 86.7177 15.5631 85.1455 16.4645L86.1403 18.1995ZM90.5149 17.128C92.1934 17.128 93.6322 17.4947 94.8615 18.1995L95.8563 16.4645C94.2855 15.5639 92.495 15.128 90.5149 15.128V17.128ZM94.8703 18.2045C96.1004 18.8934 97.0475 19.8632 97.7242 21.134L99.4895 20.194C98.6356 18.5902 97.4173 17.3386 95.8475 16.4595L94.8703 18.2045ZM97.7242 21.134C98.4011 22.4053 98.7549 23.9006 98.7549 25.648H100.755C100.755 23.6248 100.343 21.7974 99.4895 20.194L97.7242 21.134ZM98.7549 25.648C98.7549 27.4356 98.3999 28.9719 97.7193 30.2834L99.4945 31.2046C100.344 29.5668 100.755 27.7057 100.755 25.648H98.7549ZM97.7217 30.2787C97.042 31.5719 96.0896 32.5719 94.8529 33.2975L95.8649 35.0225C97.4281 34.1054 98.6411 32.8281 99.492 31.2093L97.7217 30.2787ZM94.8615 33.2925C93.6322 33.9973 92.1934 34.364 90.5149 34.364V36.364C92.495 36.364 94.2855 35.9281 95.8563 35.0275L94.8615 33.2925ZM90.5149 32.808C92.3194 32.808 93.833 32.1425 94.9522 30.7949L93.4136 29.5171C92.7034 30.3722 91.7717 30.808 90.5149 30.808V32.808ZM94.9458 30.8025C96.0695 29.4765 96.5829 27.7612 96.5829 25.76H94.5829C94.5829 27.4175 94.1629 28.6328 93.42 29.5095L94.9458 30.8025ZM96.5829 25.76C96.5829 24.445 96.3462 23.2408 95.8441 22.1711L94.0336 23.0209C94.3902 23.7805 94.5829 24.6857 94.5829 25.76H96.5829ZM95.8542 22.1933C95.3711 21.0953 94.6472 20.2207 93.6732 19.6177L92.6205 21.3183C93.2146 21.686 93.6853 22.23 94.0236 22.9987L95.8542 22.1933ZM93.6969 19.6328C92.7552 19.0127 91.6834 18.712 90.5149 18.712V20.712C91.325 20.712 92.0079 20.9153 92.5969 21.3032L93.6969 19.6328ZM90.5149 18.712C89.3461 18.712 88.2695 19.0126 87.3141 19.6268L88.3956 21.3092C89.0082 20.9154 89.7049 20.712 90.5149 20.712V18.712ZM87.3193 19.6235C86.3701 20.2254 85.6532 21.0937 85.1544 22.1781L86.9714 23.0139C87.3312 22.2317 87.809 21.6812 88.3904 21.3125L87.3193 19.6235ZM85.1506 22.1864C84.6721 23.2521 84.4469 24.4508 84.4469 25.76H86.4469C86.4469 24.6799 86.6323 23.7692 86.9751 23.0056L85.1506 22.1864ZM84.4469 25.76C84.4469 27.0692 84.6721 28.2679 85.1506 29.3336L86.9751 28.5144C86.6323 27.7508 86.4469 26.8401 86.4469 25.76H84.4469ZM85.1576 29.3489C85.657 30.4128 86.3701 31.2715 87.3049 31.8872L88.4049 30.2168C87.809 29.8244 87.3274 29.2645 86.9681 28.4991L85.1576 29.3489ZM87.3049 31.8872C88.2497 32.5094 89.3317 32.808 90.5149 32.808V30.808C89.682 30.808 88.9907 30.6026 88.4049 30.2168L87.3049 31.8872ZM105.361 16.352V15.352H104.361V16.352H105.361ZM110.121 16.352L110.982 15.8432L110.691 15.352H110.121V16.352ZM117.849 29.428L116.988 29.9368L118.849 33.0855V29.428H117.849ZM117.849 16.352V15.352H116.849V16.352H117.849ZM121.573 16.352H122.573V15.352H121.573V16.352ZM121.573 35V36H122.573V35H121.573ZM116.869 35L116.008 35.5091L116.298 36H116.869V35ZM109.085 21.84L109.945 21.3309L108.085 18.1851V21.84H109.085ZM109.085 35V36H110.085V35H109.085ZM105.361 35H104.361V36H105.361V35ZM105.361 17.352H110.121V15.352H105.361V17.352ZM109.26 16.8608L116.988 29.9368L118.71 28.9192L110.982 15.8432L109.26 16.8608ZM118.849 29.428V16.352H116.849V29.428H118.849ZM117.849 17.352H121.573V15.352H117.849V17.352ZM120.573 16.352V35H122.573V16.352H120.573ZM121.573 34H116.869V36H121.573V34ZM117.729 34.4909L109.945 21.3309L108.224 22.3491L116.008 35.5091L117.729 34.4909ZM108.085 21.84V35H110.085V21.84H108.085ZM109.085 34H105.361V36H109.085V34ZM106.361 35V16.352H104.361V35H106.361Z" fill="black"/>
<defs>
<filter id="filter0_d_23_565" x="0" y="0" width="133" height="52" filterUnits="userSpaceOnUse" color-interpolation-filters="sRGB">
<feFlood flood-opacity="0" result="BackgroundImageFix"/>
<feColorMatrix in="SourceAlpha" type="matrix" values="0 0 0 0 0 0 0 0 0 0 0 0 0 0 0 0 0 0 127 0" result="hardAlpha"/>
<feMorphology radius="3" operator="dilate" in="SourceAlpha" result="effect1_dropShadow_23_565"/>
<feOffset/>
<feComposite in2="hardAlpha" operator="out"/>
<feColorMatrix type="matrix" values="0 0 0 0 0 0 0 0 0 0 0 0 0 0 0 0 0 0 1 0"/>
<feBlend mode="normal" in2="BackgroundImageFix" result="effect1_dropShadow_23_565"/>
<feBlend mode="normal" in="SourceGraphic" in2="effect1_dropShadow_23_565" result="shape"/>
</filter>
<linearGradient id="paint0_linear_23_565" x1="66.5" y1="3" x2="66.5" y2="49" gradientUnits="userSpaceOnUse">
<stop stop-color="#8F4594"/>
<stop offset="0.520833" stop-color="#4E2251"/>
<stop offset="1" stop-color="#8F4594"/>
</linearGradient>
</defs>
</svg>
