<svg width="133" height="52" viewBox="0 0 133 52" fill="none" xmlns="http://www.w3.org/2000/svg">
<g filter="url(#filter0_d_23_572)">
<rect x="3" y="3" width="127" height="46" rx="23" fill="url(#paint0_linear_23_572)"/>
<rect x="4.5" y="4.5" width="124" height="43" rx="21.5" stroke="white" stroke-width="3"/>
</g>
<path d="M14.96 16.352C15.5013 16.3333 16.528 16.324 18.04 16.324C19.5707 16.324 20.6067 16.3333 21.148 16.352C23.0707 16.3893 24.5827 16.9027 25.684 17.892C26.7853 18.8813 27.336 20.2533 27.336 22.008C27.336 23.2587 27.056 24.3693 26.496 25.34C25.936 26.292 25.1427 27.0293 24.116 27.552C23.108 28.0747 21.96 28.336 20.672 28.336H18.852V35H14.96V16.352ZM20.504 25.032C21.4187 25.032 22.128 24.7707 22.632 24.248C23.1547 23.7253 23.416 23.016 23.416 22.12C23.416 20.4773 22.5107 19.656 20.7 19.656H18.852V25.032H20.504ZM35.0572 35.364C33.9746 35.364 32.9386 35.2427 31.9492 35C30.9786 34.7573 30.1386 34.4307 29.4292 34.02L29.7652 30.268C30.6052 30.7907 31.4826 31.2013 32.3972 31.5C33.3306 31.78 34.1892 31.92 34.9732 31.92C35.8692 31.92 36.5972 31.7333 37.1572 31.36C37.7172 30.9867 37.9972 30.492 37.9972 29.876C37.9972 29.372 37.8106 28.9893 37.4372 28.728C37.0639 28.448 36.4759 28.1493 35.6732 27.832L35.0012 27.552C34.9079 27.5147 34.8052 27.4773 34.6932 27.44C34.5812 27.384 34.4506 27.328 34.3012 27.272C33.2559 26.8427 32.4159 26.4413 31.7812 26.068C31.1466 25.676 30.5959 25.1347 30.1292 24.444C29.6812 23.7533 29.4572 22.8573 29.4572 21.756C29.4572 19.964 30.0639 18.5547 31.2772 17.528C32.4906 16.5013 34.1799 15.988 36.3452 15.988C37.9879 15.988 39.6679 16.324 41.3852 16.996L40.7692 20.692C40.0786 20.3 39.3319 19.992 38.5292 19.768C37.7452 19.544 36.9986 19.432 36.2892 19.432C35.4119 19.432 34.7306 19.6093 34.2452 19.964C33.7599 20.3 33.5172 20.7573 33.5172 21.336C33.5172 21.84 33.6852 22.232 34.0212 22.512C34.3572 22.792 34.8986 23.0907 35.6452 23.408L36.7932 23.856C37.8759 24.2667 38.7719 24.668 39.4812 25.06C40.1906 25.452 40.7972 26.0213 41.3012 26.768C41.8052 27.496 42.0572 28.448 42.0572 29.624C42.0572 31.4347 41.4412 32.844 40.2092 33.852C38.9772 34.86 37.2599 35.364 35.0572 35.364ZM49.1482 27.244L42.9042 16.352H47.4682L51.2482 23.716L55.0002 16.352H59.4802L53.2082 27.244V35H49.1482V27.244ZM69.1757 35.364C66.189 35.364 63.8557 34.5613 62.1757 32.956C60.4957 31.3507 59.6557 29.0827 59.6557 26.152C59.6557 24.1547 60.0477 22.3907 60.8317 20.86C61.6343 19.3293 62.7637 18.1533 64.2197 17.332C65.6757 16.492 67.3557 16.072 69.2597 16.072C70.809 16.072 72.3023 16.352 73.7397 16.912L72.9837 20.524C71.7143 19.9453 70.4823 19.656 69.2877 19.656C67.589 19.656 66.245 20.216 65.2557 21.336C64.2663 22.4373 63.7717 23.912 63.7717 25.76C63.7717 27.6453 64.2943 29.1107 65.3397 30.156C66.385 31.2013 67.8317 31.724 69.6797 31.724C70.893 31.724 72.069 31.528 73.2077 31.136L73.8237 34.58C72.461 35.1027 70.9117 35.364 69.1757 35.364ZM76.8127 16.352H80.9007V23.576H88.8247V16.352H92.9407V35H88.8247V27.048H80.9007V35H76.8127V16.352ZM96.7996 16.352H100.86V35H96.7996V16.352ZM113.426 35.364C110.439 35.364 108.106 34.5613 106.426 32.956C104.745 31.3507 103.905 29.0827 103.905 26.152C103.905 24.1547 104.297 22.3907 105.081 20.86C105.884 19.3293 107.013 18.1533 108.47 17.332C109.925 16.492 111.605 16.072 113.509 16.072C115.059 16.072 116.552 16.352 117.99 16.912L117.234 20.524C115.964 19.9453 114.732 19.656 113.538 19.656C111.839 19.656 110.495 20.216 109.506 21.336C108.516 22.4373 108.021 23.912 108.021 25.76C108.021 27.6453 108.544 29.1107 109.59 30.156C110.635 31.2013 112.082 31.724 113.93 31.724C115.143 31.724 116.319 31.528 117.458 31.136L118.074 34.58C116.711 35.1027 115.162 35.364 113.426 35.364Z" fill="white"/>
<path d="M14.96 16.352L14.9255 15.3526L13.96 15.3859V16.352H14.96ZM21.148 16.352L21.1135 17.3514L21.1211 17.3517L21.1286 17.3518L21.148 16.352ZM25.684 17.892L25.0157 18.6359H25.0157L25.684 17.892ZM26.496 25.34L27.358 25.847L27.3622 25.8397L26.496 25.34ZM24.116 27.552L23.6623 26.6608L23.6557 26.6642L24.116 27.552ZM18.852 28.336V27.336H17.852V28.336H18.852ZM18.852 35V36H19.852V35H18.852ZM14.96 35H13.96V36H14.96V35ZM22.632 24.248L21.9249 23.5409L21.9185 23.5473L21.9122 23.5539L22.632 24.248ZM18.852 19.656V18.656H17.852V19.656H18.852ZM18.852 25.032H17.852V26.032H18.852V25.032ZM14.9945 17.3514C15.516 17.3334 16.5261 17.324 18.04 17.324V15.324C16.5299 15.324 15.4866 15.3332 14.9255 15.3526L14.9945 17.3514ZM18.04 17.324C19.5728 17.324 20.592 17.3334 21.1135 17.3514L21.1825 15.3526C20.6213 15.3332 19.5686 15.324 18.04 15.324V17.324ZM21.1286 17.3518C22.8845 17.3859 24.1408 17.85 25.0157 18.6359L26.3523 17.1481C25.0245 15.9554 23.2569 15.3928 21.1674 15.3522L21.1286 17.3518ZM25.0157 18.6359C25.8666 19.4003 26.336 20.4797 26.336 22.008H28.336C28.336 20.027 27.704 18.3624 26.3523 17.1481L25.0157 18.6359ZM26.336 22.008C26.336 23.1041 26.0923 24.0386 25.6298 24.8403L27.3622 25.8397C28.0197 24.7 28.336 23.4133 28.336 22.008H26.336ZM25.6341 24.833C25.175 25.6133 24.5268 26.2208 23.6623 26.6608L24.5697 28.4432C25.7586 27.8379 26.697 26.9707 27.3579 25.847L25.6341 24.833ZM23.6557 26.6642C22.808 27.1038 21.8215 27.336 20.672 27.336V29.336C22.0985 29.336 23.408 29.0456 24.5763 28.4398L23.6557 26.6642ZM20.672 27.336H18.852V29.336H20.672V27.336ZM17.852 28.336V35H19.852V28.336H17.852ZM18.852 34H14.96V36H18.852V34ZM15.96 35V16.352H13.96V35H15.96ZM20.504 26.032C21.6155 26.032 22.6131 25.7082 23.3518 24.9421L21.9122 23.5539C21.6429 23.8331 21.2219 24.032 20.504 24.032V26.032ZM23.3391 24.9551C24.0879 24.2063 24.416 23.2212 24.416 22.12H22.416C22.416 22.8108 22.2215 23.2443 21.9249 23.5409L23.3391 24.9551ZM24.416 22.12C24.416 21.1181 24.1354 20.1905 23.4089 19.5314C22.7009 18.889 21.7367 18.656 20.7 18.656V20.656C21.474 20.656 21.8678 20.8336 22.0651 21.0126C22.2439 21.1749 22.416 21.4793 22.416 22.12H24.416ZM20.7 18.656H18.852V20.656H20.7V18.656ZM17.852 19.656V25.032H19.852V19.656H17.852ZM18.852 26.032H20.504V24.032H18.852V26.032ZM31.9492 35L31.7067 35.9702L31.711 35.9712L31.9492 35ZM29.4292 34.02L28.4332 33.9308L28.3763 34.5659L28.9282 34.8854L29.4292 34.02ZM29.7652 30.268L30.2935 29.4189L28.9141 28.5606L28.7692 30.1788L29.7652 30.268ZM32.3972 31.5L32.0868 32.4506L32.0983 32.4544L32.1099 32.4578L32.3972 31.5ZM37.1572 31.36L36.6025 30.528L37.1572 31.36ZM37.4372 28.728L36.8372 29.528L36.8503 29.5378L36.8638 29.5472L37.4372 28.728ZM35.6732 27.832L35.2886 28.7551L35.2971 28.7586L35.3056 28.762L35.6732 27.832ZM35.0012 27.552L35.3858 26.6289L35.3792 26.6262L35.3726 26.6235L35.0012 27.552ZM34.6932 27.44L34.246 28.3344L34.3096 28.3662L34.377 28.3887L34.6932 27.44ZM34.3012 27.272L33.9213 28.197L33.9356 28.2029L33.9501 28.2083L34.3012 27.272ZM31.7812 26.068L31.2557 26.9188L31.2649 26.9245L31.2742 26.9299L31.7812 26.068ZM30.1292 24.444L29.2903 24.9882L29.2954 24.9961L29.3006 25.0039L30.1292 24.444ZM41.3852 16.996L42.3716 17.1604L42.505 16.3603L41.7496 16.0648L41.3852 16.996ZM40.7692 20.692L40.2756 21.5617L41.5203 22.2681L41.7556 20.8564L40.7692 20.692ZM38.5292 19.768L38.2545 20.7295L38.2604 20.7312L38.5292 19.768ZM34.2452 19.964L34.8144 20.7862L34.8249 20.7789L34.8352 20.7714L34.2452 19.964ZM34.0212 22.512L33.381 23.2802V23.2802L34.0212 22.512ZM35.6452 23.408L35.2541 24.3283L35.2678 24.3342L35.2817 24.3396L35.6452 23.408ZM36.7932 23.856L36.4297 24.7876L36.4386 24.791L36.7932 23.856ZM39.4812 25.06L38.9975 25.9352L39.4812 25.06ZM41.3012 26.768L40.4723 27.3275L40.479 27.3372L41.3012 26.768ZM40.2092 33.852L39.576 33.078L40.2092 33.852ZM35.0572 34.364C34.0498 34.364 33.0941 34.2512 32.1874 34.0288L31.711 35.9712C32.783 36.2342 33.8993 36.364 35.0572 36.364V34.364ZM32.1918 34.0299C31.2925 33.8051 30.5432 33.5095 29.9303 33.1546L28.9282 34.8854C29.7339 35.3519 30.6646 35.7096 31.7067 35.9701L32.1918 34.0299ZM30.4252 34.1092L30.7612 30.3572L28.7692 30.1788L28.4332 33.9308L30.4252 34.1092ZM29.2369 31.1171C30.1433 31.681 31.0936 32.1263 32.0868 32.4506L32.7076 30.5494C31.8715 30.2764 31.0672 29.9003 30.2935 29.4189L29.2369 31.1171ZM32.1099 32.4578C33.1148 32.7593 34.0716 32.92 34.9732 32.92V30.92C34.3068 30.92 33.5463 30.8007 32.6846 30.5422L32.1099 32.4578ZM34.9732 32.92C36.0025 32.92 36.9414 32.7058 37.7119 32.192L36.6025 30.528C36.2531 30.7609 35.7359 30.92 34.9732 30.92V32.92ZM37.7119 32.1921C38.5197 31.6535 38.9972 30.8614 38.9972 29.876H36.9972C36.9972 30.1226 36.9148 30.3198 36.6025 30.528L37.7119 32.1921ZM38.9972 29.876C38.9972 29.086 38.6828 28.3792 38.0107 27.9088L36.8638 29.5472C36.9383 29.5994 36.9972 29.658 36.9972 29.876H38.9972ZM38.0372 27.928C37.5559 27.567 36.8689 27.2294 36.0409 26.902L35.3056 28.762C36.0828 29.0693 36.5718 29.329 36.8372 29.528L38.0372 27.928ZM36.0578 26.9089L35.3858 26.6289L34.6166 28.4751L35.2886 28.7551L36.0578 26.9089ZM35.3726 26.6235C35.2583 26.5778 35.1369 26.5338 35.0094 26.4913L34.377 28.3887C34.4735 28.4209 34.5575 28.4515 34.6298 28.4805L35.3726 26.6235ZM35.1404 26.5456C34.9901 26.4704 34.826 26.4008 34.6523 26.3357L33.9501 28.2083C34.0751 28.2552 34.1724 28.2976 34.246 28.3344L35.1404 26.5456ZM34.6811 26.347C33.6591 25.9272 32.8666 25.5463 32.2882 25.2061L31.2742 26.9299C31.9651 27.3364 32.8527 27.7581 33.9213 28.197L34.6811 26.347ZM32.3067 25.2172C31.806 24.9079 31.3545 24.4713 30.9578 23.8841L29.3006 25.0039C29.8372 25.798 30.4871 26.4441 31.2557 26.9188L32.3067 25.2172ZM30.9682 23.8998C30.6553 23.4174 30.4572 22.7279 30.4572 21.756H28.4572C28.4572 22.9868 28.7072 24.0892 29.2903 24.9882L30.9682 23.8998ZM30.4572 21.756C30.4572 20.2161 30.9646 19.1025 31.9232 18.2914L30.6313 16.7646C29.1632 18.0069 28.4572 19.7119 28.4572 21.756H30.4572ZM31.9232 18.2914C32.8998 17.465 34.3306 16.988 36.3452 16.988V14.988C34.0291 14.988 32.0813 15.5377 30.6313 16.7646L31.9232 18.2914ZM36.3452 16.988C37.8488 16.988 39.4054 17.2951 41.0208 17.9272L41.7496 16.0648C39.9303 15.3529 38.1269 14.988 36.3452 14.988V16.988ZM40.3988 16.8316L39.7828 20.5276L41.7556 20.8564L42.3716 17.1604L40.3988 16.8316ZM41.2628 19.8223C40.4979 19.3882 39.6753 19.0496 38.798 18.8048L38.2604 20.7312C38.9885 20.9344 39.6592 21.2118 40.2756 21.5617L41.2628 19.8223ZM38.8039 18.8065C37.9436 18.5607 37.1041 18.432 36.2892 18.432V20.432C36.893 20.432 37.5468 20.5273 38.2545 20.7295L38.8039 18.8065ZM36.2892 18.432C35.2931 18.432 34.3743 18.6311 33.6552 19.1566L34.8352 20.7714C35.0868 20.5876 35.5307 20.432 36.2892 20.432V18.432ZM33.676 19.1418C32.9274 19.6601 32.5172 20.4214 32.5172 21.336H34.5172C34.5172 21.0933 34.5924 20.9399 34.8144 20.7862L33.676 19.1418ZM32.5172 21.336C32.5172 22.0863 32.7809 22.7801 33.381 23.2802L34.6614 21.7438C34.5895 21.6839 34.5172 21.5937 34.5172 21.336H32.5172ZM33.381 23.2802C33.831 23.6552 34.4803 23.9995 35.2541 24.3283L36.0364 22.4877C35.3168 22.1818 34.8834 21.9288 34.6614 21.7438L33.381 23.2802ZM35.2817 24.3396L36.4297 24.7876L37.1568 22.9244L36.0088 22.4764L35.2817 24.3396ZM36.4386 24.791C37.494 25.1913 38.3432 25.5736 38.9975 25.9352L39.9649 24.1848C39.2006 23.7624 38.2578 23.342 37.1479 22.921L36.4386 24.791ZM38.9975 25.9352C39.5536 26.2425 40.0468 26.697 40.4724 27.3275L42.1301 26.2085C41.5476 25.3456 40.8275 24.6614 39.9649 24.1848L38.9975 25.9352ZM40.479 27.3372C40.8347 27.851 41.0572 28.5856 41.0572 29.624H43.0572C43.0572 28.3104 42.7757 27.141 42.1234 26.1988L40.479 27.3372ZM41.0572 29.624C41.0572 31.1811 40.5422 32.2875 39.576 33.078L40.8425 34.626C42.3403 33.4005 43.0572 31.6882 43.0572 29.624H41.0572ZM39.576 33.078C38.5805 33.8926 37.1168 34.364 35.0572 34.364V36.364C37.403 36.364 39.374 35.8274 40.8425 34.626L39.576 33.078ZM49.1482 27.244H50.1482V26.9777L50.0158 26.7467L49.1482 27.244ZM42.9042 16.352V15.352H41.1783L42.0367 16.8493L42.9042 16.352ZM47.4682 16.352L48.3579 15.8953L48.079 15.352H47.4682V16.352ZM51.2482 23.716L50.3586 24.1727L51.2515 25.9123L52.1392 24.17L51.2482 23.716ZM55.0002 16.352V15.352H54.3874L54.1092 15.898L55.0002 16.352ZM59.4802 16.352L60.3468 16.851L61.21 15.352H59.4802V16.352ZM53.2082 27.244L52.3416 26.745L52.2082 26.9767V27.244H53.2082ZM53.2082 35V36H54.2082V35H53.2082ZM49.1482 35H48.1482V36H49.1482V35ZM50.0158 26.7467L43.7718 15.8547L42.0367 16.8493L48.2807 27.7413L50.0158 26.7467ZM42.9042 17.352H47.4682V15.352H42.9042V17.352ZM46.5786 16.8087L50.3586 24.1727L52.1379 23.2593L48.3579 15.8953L46.5786 16.8087ZM52.1392 24.17L55.8912 16.806L54.1092 15.898L50.3572 23.262L52.1392 24.17ZM55.0002 17.352H59.4802V15.352H55.0002V17.352ZM58.6136 15.853L52.3416 26.745L54.0748 27.743L60.3468 16.851L58.6136 15.853ZM52.2082 27.244V35H54.2082V27.244H52.2082ZM53.2082 34H49.1482V36H53.2082V34ZM50.1482 35V27.244H48.1482V35H50.1482ZM62.1757 32.956L62.8665 32.233H62.8665L62.1757 32.956ZM60.8317 20.86L59.946 20.3956L59.9416 20.4041L60.8317 20.86ZM64.2197 17.332L64.711 18.203L64.7194 18.1982L64.2197 17.332ZM73.7397 16.912L74.7184 17.1169L74.892 16.2877L74.1027 15.9802L73.7397 16.912ZM72.9837 20.524L72.5688 21.4339L73.7063 21.9525L73.9624 20.7289L72.9837 20.524ZM65.2557 21.336L65.9996 22.0043L66.0051 21.998L65.2557 21.336ZM65.3397 30.156L66.0468 29.4489L65.3397 30.156ZM73.2077 31.136L74.192 30.9599L73.9864 29.8103L72.8821 30.1905L73.2077 31.136ZM73.8237 34.58L74.1818 35.5137L74.9536 35.2176L74.808 34.4039L73.8237 34.58ZM69.1757 34.364C66.37 34.364 64.3118 33.614 62.8665 32.233L61.4848 33.679C63.3995 35.5086 66.0079 36.364 69.1757 36.364V34.364ZM62.8665 32.233C61.4327 30.8629 60.6557 28.8852 60.6557 26.152H58.6557C58.6557 29.2801 59.5586 31.8384 61.4848 33.679L62.8665 32.233ZM60.6557 26.152C60.6557 24.2876 61.0208 22.6843 61.7217 21.3159L59.9416 20.4041C59.0745 22.097 58.6557 24.0218 58.6557 26.152H60.6557ZM61.7173 21.3244C62.4336 19.9583 63.4288 18.9263 64.711 18.203L63.7283 16.461C62.0986 17.3804 60.835 18.7003 59.946 20.3956L61.7173 21.3244ZM64.7194 18.1982C66.0041 17.457 67.5074 17.072 69.2597 17.072V15.072C67.2039 15.072 65.3472 15.527 63.7199 16.4658L64.7194 18.1982ZM69.2597 17.072C70.6854 17.072 72.0555 17.3291 73.3766 17.8438L74.1027 15.9802C72.5491 15.3749 70.9326 15.072 69.2597 15.072V17.072ZM72.7609 16.7071L72.0049 20.3191L73.9624 20.7289L74.7184 17.1169L72.7609 16.7071ZM73.3985 19.6141C72.0206 18.9859 70.6475 18.656 69.2877 18.656V20.656C70.3172 20.656 71.4081 20.9047 72.5688 21.4339L73.3985 19.6141ZM69.2877 18.656C67.3458 18.656 65.7124 19.3085 64.5062 20.674L66.0051 21.998C66.7776 21.1235 67.8322 20.656 69.2877 20.656V18.656ZM64.5117 20.6677C63.3194 21.995 62.7717 23.729 62.7717 25.76H64.7717C64.7717 24.095 65.2132 22.8796 65.9996 22.0043L64.5117 20.6677ZM62.7717 25.76C62.7717 27.8339 63.3517 29.5822 64.6325 30.8631L66.0468 29.4489C65.237 28.6391 64.7717 27.4567 64.7717 25.76H62.7717ZM64.6325 30.8631C65.9097 32.1403 67.6365 32.724 69.6797 32.724V30.724C68.0268 30.724 66.8602 30.2624 66.0468 29.4489L64.6325 30.8631ZM69.6797 32.724C71.0029 32.724 72.289 32.5099 73.5332 32.0815L72.8821 30.1905C71.849 30.5461 70.7831 30.724 69.6797 30.724V32.724ZM72.2233 31.3121L72.8393 34.7561L74.808 34.4039L74.192 30.9599L72.2233 31.3121ZM73.4655 33.6463C72.2366 34.1177 70.8119 34.364 69.1757 34.364V36.364C71.0114 36.364 72.6854 36.0876 74.1818 35.5137L73.4655 33.6463ZM76.8127 16.352V15.352H75.8127V16.352H76.8127ZM80.9007 16.352H81.9007V15.352H80.9007V16.352ZM80.9007 23.576H79.9007V24.576H80.9007V23.576ZM88.8247 23.576V24.576H89.8247V23.576H88.8247ZM88.8247 16.352V15.352H87.8247V16.352H88.8247ZM92.9407 16.352H93.9407V15.352H92.9407V16.352ZM92.9407 35V36H93.9407V35H92.9407ZM88.8247 35H87.8247V36H88.8247V35ZM88.8247 27.048H89.8247V26.048H88.8247V27.048ZM80.9007 27.048V26.048H79.9007V27.048H80.9007ZM80.9007 35V36H81.9007V35H80.9007ZM76.8127 35H75.8127V36H76.8127V35ZM76.8127 17.352H80.9007V15.352H76.8127V17.352ZM79.9007 16.352V23.576H81.9007V16.352H79.9007ZM80.9007 24.576H88.8247V22.576H80.9007V24.576ZM89.8247 23.576V16.352H87.8247V23.576H89.8247ZM88.8247 17.352H92.9407V15.352H88.8247V17.352ZM91.9407 16.352V35H93.9407V16.352H91.9407ZM92.9407 34H88.8247V36H92.9407V34ZM89.8247 35V27.048H87.8247V35H89.8247ZM88.8247 26.048H80.9007V28.048H88.8247V26.048ZM79.9007 27.048V35H81.9007V27.048H79.9007ZM80.9007 34H76.8127V36H80.9007V34ZM77.8127 35V16.352H75.8127V35H77.8127ZM96.7996 16.352V15.352H95.7996V16.352H96.7996ZM100.86 16.352H101.86V15.352H100.86V16.352ZM100.86 35V36H101.86V35H100.86ZM96.7996 35H95.7996V36H96.7996V35ZM96.7996 17.352H100.86V15.352H96.7996V17.352ZM99.8596 16.352V35H101.86V16.352H99.8596ZM100.86 34H96.7996V36H100.86V34ZM97.7996 35V16.352H95.7996V35H97.7996ZM106.425 32.956L107.116 32.233L106.425 32.956ZM105.081 20.86L104.196 20.3956L104.191 20.4041L105.081 20.86ZM108.469 17.332L108.961 18.203L108.969 18.1982L108.469 17.332ZM117.99 16.912L118.968 17.1169L119.142 16.2877L118.353 15.9802L117.99 16.912ZM117.233 20.524L116.819 21.4339L117.956 21.9525L118.212 20.7289L117.233 20.524ZM109.506 21.336L110.249 22.0043L110.255 21.998L109.506 21.336ZM109.59 30.156L110.297 29.4489L109.59 30.156ZM117.458 31.136L118.442 30.9599L118.236 29.8103L117.132 30.1905L117.458 31.136ZM118.074 34.58L118.432 35.5137L119.203 35.2176L119.058 34.4039L118.074 34.58ZM113.425 34.364C110.62 34.364 108.562 33.614 107.116 32.233L105.735 33.679C107.649 35.5086 110.258 36.364 113.425 36.364V34.364ZM107.116 32.233C105.683 30.8629 104.906 28.8852 104.906 26.152H102.906C102.906 29.2801 103.808 31.8384 105.735 33.679L107.116 32.233ZM104.906 26.152C104.906 24.2876 105.271 22.6843 105.972 21.3159L104.191 20.4041C103.324 22.097 102.906 24.0218 102.906 26.152H104.906ZM105.967 21.3244C106.683 19.9583 107.679 18.9263 108.961 18.203L107.978 16.461C106.348 17.3804 105.085 18.7003 104.196 20.3956L105.967 21.3244ZM108.969 18.1982C110.254 17.457 111.757 17.072 113.509 17.072V15.072C111.454 15.072 109.597 15.527 107.97 16.4658L108.969 18.1982ZM113.509 17.072C114.935 17.072 116.305 17.3291 117.626 17.8438L118.353 15.9802C116.799 15.3749 115.182 15.072 113.509 15.072V17.072ZM117.011 16.7071L116.255 20.3191L118.212 20.7289L118.968 17.1169L117.011 16.7071ZM117.648 19.6141C116.27 18.9859 114.897 18.656 113.537 18.656V20.656C114.567 20.656 115.658 20.9047 116.819 21.4339L117.648 19.6141ZM113.537 18.656C111.596 18.656 109.962 19.3085 108.756 20.674L110.255 21.998C111.027 21.1235 112.082 20.656 113.537 20.656V18.656ZM108.762 20.6677C107.569 21.995 107.021 23.729 107.021 25.76H109.021C109.021 24.095 109.463 22.8796 110.249 22.0043L108.762 20.6677ZM107.021 25.76C107.021 27.8339 107.602 29.5822 108.882 30.8631L110.297 29.4489C109.487 28.6391 109.021 27.4567 109.021 25.76H107.021ZM108.882 30.8631C110.16 32.1403 111.886 32.724 113.929 32.724V30.724C112.277 30.724 111.11 30.2624 110.297 29.4489L108.882 30.8631ZM113.929 32.724C115.253 32.724 116.539 32.5099 117.783 32.0815L117.132 30.1905C116.099 30.5461 115.033 30.724 113.929 30.724V32.724ZM116.473 31.3121L117.089 34.7561L119.058 34.4039L118.442 30.9599L116.473 31.3121ZM117.715 33.6463C116.486 34.1177 115.062 34.364 113.425 34.364V36.364C115.261 36.364 116.935 36.0876 118.432 35.5137L117.715 33.6463Z" fill="black"/>
<defs>
<filter id="filter0_d_23_572" x="0" y="0" width="133" height="52" filterUnits="userSpaceOnUse" color-interpolation-filters="sRGB">
<feFlood flood-opacity="0" result="BackgroundImageFix"/>
<feColorMatrix in="SourceAlpha" type="matrix" values="0 0 0 0 0 0 0 0 0 0 0 0 0 0 0 0 0 0 127 0" result="hardAlpha"/>
<feMorphology radius="3" operator="dilate" in="SourceAlpha" result="effect1_dropShadow_23_572"/>
<feOffset/>
<feComposite in2="hardAlpha" operator="out"/>
<feColorMatrix type="matrix" values="0 0 0 0 0 0 0 0 0 0 0 0 0 0 0 0 0 0 1 0"/>
<feBlend mode="normal" in2="BackgroundImageFix" result="effect1_dropShadow_23_572"/>
<feBlend mode="normal" in="SourceGraphic" in2="effect1_dropShadow_23_572" result="shape"/>
</filter>
<linearGradient id="paint0_linear_23_572" x1="66.5" y1="3" x2="66.5" y2="49" gradientUnits="userSpaceOnUse">
<stop stop-color="#EC457D"/>
<stop offset="0.520833" stop-color="#952349"/>
<stop offset="1" stop-color="#EC457D"/>
</linearGradient>
</defs>
</svg>
