<svg width="133" height="52" viewBox="0 0 133 52" fill="none" xmlns="http://www.w3.org/2000/svg">
<g filter="url(#filter0_d_23_579)">
<rect x="3" y="3" width="127" height="46" rx="23" fill="url(#paint0_linear_23_579)"/>
<rect x="4.5" y="4.5" width="124" height="43" rx="21.5" stroke="white" stroke-width="3"/>
</g>
<path d="M21.848 16.352C22.408 16.3333 23.4533 16.324 24.984 16.324C26.5333 16.324 27.588 16.3333 28.148 16.352C30.276 16.4267 31.8627 16.9493 32.908 17.92C33.9533 18.872 34.476 20.16 34.476 21.784C34.476 23.1653 34.1213 24.3413 33.412 25.312C32.7213 26.264 31.7507 26.8893 30.5 27.188C30.892 27.5053 31.2933 27.944 31.704 28.504C32.1147 29.0453 32.684 29.8947 33.412 31.052C34.1773 32.2653 34.952 33.5813 35.736 35H31.032L27.868 29.12C27.532 28.504 27.224 28.1213 26.944 27.972C26.6827 27.804 26.2813 27.72 25.74 27.72V35H21.848V16.352ZM27.476 24.612C28.428 24.612 29.1747 24.3693 29.716 23.884C30.276 23.3987 30.556 22.7453 30.556 21.924C30.556 21.1773 30.3133 20.608 29.828 20.216C29.3427 19.824 28.6333 19.628 27.7 19.628H25.74V24.612H27.476ZM53.476 35.364C51.6466 35.364 50.032 34.9627 48.632 34.16C47.232 33.3573 46.14 32.228 45.356 30.772C44.5906 29.316 44.208 27.6453 44.208 25.76C44.208 23.856 44.5906 22.176 45.356 20.72C46.1213 19.264 47.204 18.1347 48.604 17.332C50.004 16.5293 51.628 16.128 53.476 16.128C55.3053 16.128 56.92 16.5293 58.32 17.332C59.72 18.116 60.8026 19.2267 61.568 20.664C62.3333 22.1013 62.716 23.7627 62.716 25.648C62.716 27.5707 62.3333 29.2693 61.568 30.744C60.8026 32.2 59.72 33.3387 58.32 34.16C56.92 34.9627 55.3053 35.364 53.476 35.364ZM53.476 31.808C55.0066 31.808 56.2293 31.2573 57.144 30.156C58.0773 29.0547 58.544 27.5893 58.544 25.76C58.544 24.5653 58.3293 23.5107 57.9 22.596C57.4893 21.6627 56.892 20.9533 56.108 20.468C55.3426 19.964 54.4653 19.712 53.476 19.712C52.4866 19.712 51.6 19.964 50.816 20.468C50.0506 20.9533 49.4533 21.6627 49.024 22.596C48.6133 23.5107 48.408 24.5653 48.408 25.76C48.408 26.9547 48.6133 28.0093 49.024 28.924C49.4533 29.8387 50.0506 30.548 50.816 31.052C51.5813 31.556 52.468 31.808 53.476 31.808ZM82.34 35.364C79.3534 35.364 77.02 34.5613 75.34 32.956C73.66 31.3507 72.82 29.0827 72.82 26.152C72.82 24.1547 73.212 22.3907 73.996 20.86C74.7987 19.3293 75.928 18.1533 77.384 17.332C78.84 16.492 80.52 16.072 82.424 16.072C83.9734 16.072 85.4667 16.352 86.904 16.912L86.148 20.524C84.8787 19.9453 83.6467 19.656 82.452 19.656C80.7534 19.656 79.4094 20.216 78.42 21.336C77.4307 22.4373 76.936 23.912 76.936 25.76C76.936 27.6453 77.4587 29.1107 78.504 30.156C79.5494 31.2013 80.996 31.724 82.844 31.724C84.0574 31.724 85.2334 31.528 86.372 31.136L86.988 34.58C85.6254 35.1027 84.076 35.364 82.34 35.364ZM97.677 16.352H101.737V23.576L107.813 16.352H112.657L104.985 25.2L112.265 35H107.337L101.737 27.468V35H97.677V16.352Z" fill="white"/>
<path d="M21.848 16.352L21.8147 15.3526L20.848 15.3848V16.352H21.848ZM28.148 16.352L28.1831 15.3526L28.1813 15.3526L28.148 16.352ZM32.908 17.92L32.2275 18.6528L32.2347 18.6593L32.908 17.92ZM33.412 25.312L32.6046 24.722L32.6026 24.7248L33.412 25.312ZM30.5 27.188L30.2677 26.2153L28.292 26.6872L29.8708 27.9652L30.5 27.188ZM31.704 28.504L30.8976 29.0954L30.9024 29.1019L30.9073 29.1084L31.704 28.504ZM33.412 31.052L32.5655 31.5845L32.5662 31.5855L33.412 31.052ZM35.736 35V36H37.4312L36.6112 34.5163L35.736 35ZM31.032 35L30.1514 35.4739L30.4345 36H31.032V35ZM27.868 29.12L28.7486 28.6461L28.7459 28.6411L27.868 29.12ZM26.944 27.972L26.4032 28.8132L26.4375 28.8352L26.4734 28.8544L26.944 27.972ZM25.74 27.72V26.72H24.74V27.72H25.74ZM25.74 35V36H26.74V35H25.74ZM21.848 35H20.848V36H21.848V35ZM29.716 23.884L29.0611 23.1283L29.0547 23.1338L29.0485 23.1394L29.716 23.884ZM29.828 20.216L29.1997 20.9939L29.1997 20.9939L29.828 20.216ZM25.74 19.628V18.628H24.74V19.628H25.74ZM25.74 24.612H24.74V25.612H25.74V24.612ZM21.8813 17.3514C22.4223 17.3334 23.4517 17.324 24.984 17.324V15.324C23.4549 15.324 22.3937 15.3333 21.8147 15.3526L21.8813 17.3514ZM24.984 17.324C26.5351 17.324 27.5738 17.3334 28.1147 17.3514L28.1813 15.3526C27.6022 15.3333 26.5316 15.324 24.984 15.324V17.324ZM28.1129 17.3514C30.1155 17.4216 31.4273 17.9097 32.2275 18.6528L33.5885 17.1872C32.298 15.9889 30.4365 15.4317 28.1831 15.3526L28.1129 17.3514ZM32.2347 18.6593C33.0401 19.3929 33.476 20.3954 33.476 21.784H35.476C35.476 19.9246 34.8665 18.3511 33.5813 17.1807L32.2347 18.6593ZM33.476 21.784C33.476 22.986 33.1707 23.9473 32.6046 24.722L34.2194 25.902C35.072 24.7353 35.476 23.3446 35.476 21.784H33.476ZM32.6026 24.7248C32.0656 25.465 31.3095 25.9666 30.2677 26.2153L30.7323 28.1607C32.1919 27.8121 33.3771 27.063 34.2214 25.8992L32.6026 24.7248ZM29.8708 27.9652C30.1762 28.2125 30.5201 28.5807 30.8976 29.0954L32.5104 27.9126C32.0665 27.3073 31.6078 26.7982 31.1292 26.4108L29.8708 27.9652ZM30.9073 29.1084C31.2905 29.6135 31.8409 30.4324 32.5655 31.5845L34.2585 30.5195C33.5271 29.3569 32.9389 28.4772 32.5007 27.8996L30.9073 29.1084ZM32.5662 31.5855C33.32 32.7806 34.0849 34.0798 34.8608 35.4837L36.6112 34.5163C35.8191 33.0829 35.0346 31.7501 34.2578 30.5185L32.5662 31.5855ZM35.736 34H31.032V36H35.736V34ZM31.9126 34.5261L28.7486 28.6462L26.9874 29.5938L30.1514 35.4739L31.9126 34.5261ZM28.7459 28.6411C28.5604 28.3011 28.3674 27.9967 28.164 27.744C27.967 27.4992 27.7206 27.2529 27.4146 27.0896L26.4734 28.8544C26.4474 28.8405 26.495 28.8602 26.606 28.998C26.7106 29.128 26.8396 29.3229 26.9901 29.5989L28.7459 28.6411ZM27.4848 27.1308C26.982 26.8076 26.3481 26.72 25.74 26.72V28.72C25.9623 28.72 26.1263 28.7375 26.2421 28.7618C26.299 28.7737 26.3393 28.7862 26.3663 28.7964C26.3932 28.8067 26.4038 28.8135 26.4032 28.8132L27.4848 27.1308ZM24.74 27.72V35H26.74V27.72H24.74ZM25.74 34H21.848V36H25.74V34ZM22.848 35V16.352H20.848V35H22.848ZM27.476 25.612C28.5964 25.612 29.608 25.3239 30.3835 24.6286L29.0485 23.1394C28.7414 23.4148 28.2596 23.612 27.476 23.612V25.612ZM30.3709 24.6397C31.1754 23.9425 31.556 23.0001 31.556 21.924H29.556C29.556 22.4906 29.3766 22.8549 29.0611 23.1283L30.3709 24.6397ZM31.556 21.924C31.556 20.9412 31.2237 20.0578 30.4563 19.4381L29.1997 20.9939C29.403 21.1582 29.556 21.4135 29.556 21.924H31.556ZM30.4563 19.4381C29.7237 18.8463 28.7531 18.628 27.7 18.628V20.628C28.5136 20.628 28.9617 20.8017 29.1997 20.9939L30.4563 19.4381ZM27.7 18.628H25.74V20.628H27.7V18.628ZM24.74 19.628V24.612H26.74V19.628H24.74ZM25.74 25.612H27.476V23.612H25.74V25.612ZM48.632 34.16L49.1294 33.2925L48.632 34.16ZM45.356 30.772L44.4708 31.2373L44.4755 31.2461L45.356 30.772ZM45.356 20.72L44.4708 20.2547L45.356 20.72ZM48.604 17.332L48.1066 16.4645V16.4645L48.604 17.332ZM58.32 17.332L57.8226 18.1996L57.8314 18.2045L58.32 17.332ZM61.568 20.664L60.6853 21.134L61.568 20.664ZM61.568 30.744L62.4531 31.2093L62.4556 31.2046L61.568 30.744ZM58.32 34.16L58.8174 35.0276L58.826 35.0225L58.32 34.16ZM57.144 30.156L56.381 29.5094L56.3747 29.5171L57.144 30.156ZM57.9 22.596L56.9847 22.9987L56.9896 23.0099L56.9947 23.0209L57.9 22.596ZM56.108 20.468L55.558 21.3032L55.5697 21.3109L55.5816 21.3183L56.108 20.468ZM50.816 20.468L51.3515 21.3125L51.3567 21.3092L50.816 20.468ZM49.024 22.596L48.1154 22.1781L48.1117 22.1864L49.024 22.596ZM49.024 28.924L48.1117 29.3336L48.1152 29.3413L48.1187 29.3489L49.024 28.924ZM50.816 31.052L51.366 30.2168H51.366L50.816 31.052ZM53.476 34.364C51.7974 34.364 50.3586 33.9973 49.1294 33.2925L48.1346 35.0275C49.7053 35.9281 51.4958 36.364 53.476 36.364V34.364ZM49.1294 33.2925C47.8954 32.585 46.9343 31.5939 46.2364 30.2979L44.4755 31.2461C45.3457 32.8621 46.5685 34.1296 48.1346 35.0275L49.1294 33.2925ZM46.2411 30.3067C45.5616 29.014 45.208 27.5071 45.208 25.76H43.208C43.208 27.7836 43.6197 29.618 44.4708 31.2373L46.2411 30.3067ZM45.208 25.76C45.208 23.9925 45.5623 22.4767 46.2411 21.1853L44.4708 20.2547C43.619 21.8753 43.208 23.7195 43.208 25.76H45.208ZM46.2411 21.1853C46.9199 19.8941 47.8695 18.9058 49.1014 18.1995L48.1066 16.4645C46.5384 17.3636 45.3228 18.6339 44.4708 20.2547L46.2411 21.1853ZM49.1014 18.1995C50.3291 17.4956 51.7768 17.128 53.476 17.128V15.128C51.4792 15.128 49.6788 15.5631 48.1066 16.4645L49.1014 18.1995ZM53.476 17.128C55.1545 17.128 56.5933 17.4947 57.8226 18.1995L58.8174 16.4645C57.2466 15.5639 55.4561 15.128 53.476 15.128V17.128ZM57.8314 18.2045C59.0615 18.8934 60.0086 19.8632 60.6853 21.134L62.4506 20.194C61.5967 18.5902 60.3784 17.3386 58.8086 16.4595L57.8314 18.2045ZM60.6853 21.134C61.3622 22.4053 61.716 23.9006 61.716 25.648H63.716C63.716 23.6248 63.3044 21.7974 62.4506 20.194L60.6853 21.134ZM61.716 25.648C61.716 27.4356 61.361 28.9719 60.6804 30.2834L62.4556 31.2046C63.3056 29.5668 63.716 27.7057 63.716 25.648H61.716ZM60.6828 30.2787C60.0031 31.5719 59.0507 32.5719 57.814 33.2975L58.826 35.0225C60.3892 34.1054 61.6022 32.8281 62.4531 31.2093L60.6828 30.2787ZM57.8226 33.2925C56.5933 33.9973 55.1545 34.364 53.476 34.364V36.364C55.4561 36.364 57.2466 35.9281 58.8174 35.0275L57.8226 33.2925ZM53.476 32.808C55.2805 32.808 56.7941 32.1425 57.9133 30.7949L56.3747 29.5171C55.6645 30.3722 54.7328 30.808 53.476 30.808V32.808ZM57.9069 30.8025C59.0306 29.4765 59.544 27.7612 59.544 25.76H57.544C57.544 27.4175 57.124 28.6328 56.3811 29.5095L57.9069 30.8025ZM59.544 25.76C59.544 24.445 59.3073 23.2408 58.8052 22.1711L56.9947 23.0209C57.3513 23.7805 57.544 24.6857 57.544 25.76H59.544ZM58.8153 22.1933C58.3322 21.0953 57.6083 20.2207 56.6343 19.6177L55.5816 21.3183C56.1756 21.686 56.6464 22.23 56.9847 22.9987L58.8153 22.1933ZM56.658 19.6328C55.7163 19.0127 54.6445 18.712 53.476 18.712V20.712C54.2861 20.712 54.969 20.9153 55.558 21.3032L56.658 19.6328ZM53.476 18.712C52.3072 18.712 51.2306 19.0126 50.2752 19.6268L51.3567 21.3092C51.9693 20.9154 52.666 20.712 53.476 20.712V18.712ZM50.2804 19.6235C49.3312 20.2254 48.6143 21.0937 48.1155 22.1781L49.9325 23.0139C50.2923 22.2317 50.7701 21.6812 51.3515 21.3125L50.2804 19.6235ZM48.1117 22.1864C47.6332 23.2521 47.408 24.4508 47.408 25.76H49.408C49.408 24.6799 49.5934 23.7692 49.9362 23.0056L48.1117 22.1864ZM47.408 25.76C47.408 27.0692 47.6332 28.2679 48.1117 29.3336L49.9362 28.5144C49.5934 27.7508 49.408 26.8401 49.408 25.76H47.408ZM48.1187 29.3489C48.6181 30.4128 49.3311 31.2715 50.266 31.8872L51.366 30.2168C50.7701 29.8244 50.2885 29.2645 49.9292 28.4991L48.1187 29.3489ZM50.266 31.8872C51.2108 32.5094 52.2928 32.808 53.476 32.808V30.808C52.6431 30.808 51.9518 30.6026 51.366 30.2168L50.266 31.8872ZM75.34 32.956L76.0309 32.233H76.0309L75.34 32.956ZM73.996 20.86L73.1104 20.3956L73.106 20.4041L73.996 20.86ZM77.384 17.332L77.8754 18.203L77.8838 18.1982L77.384 17.332ZM86.904 16.912L87.8828 17.1169L88.0564 16.2877L87.2671 15.9802L86.904 16.912ZM86.148 20.524L85.7332 21.4339L86.8707 21.9525L87.1268 20.7289L86.148 20.524ZM78.42 21.336L79.164 22.0043L79.1695 21.998L78.42 21.336ZM78.504 30.156L79.2111 29.4489L78.504 30.156ZM86.372 31.136L87.3564 30.9599L87.1508 29.8103L86.0465 30.1905L86.372 31.136ZM86.988 34.58L87.3462 35.5137L88.118 35.2176L87.9724 34.4039L86.988 34.58ZM82.34 34.364C79.5344 34.364 77.4761 33.614 76.0309 32.233L74.6492 33.679C76.5639 35.5086 79.1723 36.364 82.34 36.364V34.364ZM76.0309 32.233C74.5971 30.8629 73.82 28.8852 73.82 26.152H71.82C71.82 29.2801 72.723 31.8384 74.6492 33.679L76.0309 32.233ZM73.82 26.152C73.82 24.2876 74.1852 22.6843 74.8861 21.3159L73.106 20.4041C72.2389 22.097 71.82 24.0218 71.82 26.152H73.82ZM74.8817 21.3244C75.598 19.9583 76.5931 18.9263 77.8754 18.203L76.8927 16.461C75.2629 17.3804 73.9994 18.7003 73.1104 20.3956L74.8817 21.3244ZM77.8838 18.1982C79.1685 17.457 80.6717 17.072 82.424 17.072V15.072C80.3683 15.072 78.5116 15.527 76.8843 16.4658L77.8838 18.1982ZM82.424 17.072C83.8497 17.072 85.2199 17.3291 86.541 17.8438L87.2671 15.9802C85.7135 15.3749 84.097 15.072 82.424 15.072V17.072ZM85.9252 16.7071L85.1692 20.3191L87.1268 20.7289L87.8828 17.1169L85.9252 16.7071ZM86.5628 19.6141C85.1849 18.9859 83.8119 18.656 82.452 18.656V20.656C83.4815 20.656 84.5725 20.9047 85.7332 21.4339L86.5628 19.6141ZM82.452 18.656C80.5102 18.656 78.8767 19.3085 77.6706 20.674L79.1695 21.998C79.942 21.1235 80.9966 20.656 82.452 20.656V18.656ZM77.6761 20.6677C76.4838 21.995 75.936 23.729 75.936 25.76H77.936C77.936 24.095 78.3776 22.8796 79.164 22.0043L77.6761 20.6677ZM75.936 25.76C75.936 27.8339 76.5161 29.5822 77.7969 30.8631L79.2111 29.4489C78.4013 28.6391 77.936 27.4567 77.936 25.76H75.936ZM77.7969 30.8631C79.0741 32.1403 80.8009 32.724 82.844 32.724V30.724C81.1912 30.724 80.0246 30.2624 79.2111 29.4489L77.7969 30.8631ZM82.844 32.724C84.1673 32.724 85.4533 32.5099 86.6975 32.0815L86.0465 30.1905C85.0134 30.5461 83.9474 30.724 82.844 30.724V32.724ZM85.3877 31.3121L86.0037 34.7561L87.9724 34.4039L87.3564 30.9599L85.3877 31.3121ZM86.6299 33.6463C85.401 34.1177 83.9763 34.364 82.34 34.364V36.364C84.1758 36.364 85.8498 36.0876 87.3462 35.5137L86.6299 33.6463ZM97.677 16.352V15.352H96.677V16.352H97.677ZM101.737 16.352H102.737V15.352H101.737V16.352ZM101.737 23.576H100.737V26.3185L102.502 24.2197L101.737 23.576ZM107.813 16.352V15.352H107.347L107.048 15.7083L107.813 16.352ZM112.657 16.352L113.413 17.0071L114.848 15.352H112.657V16.352ZM104.985 25.2L104.229 24.5449L103.703 25.1516L104.182 25.7963L104.985 25.2ZM112.265 35V36H114.254L113.068 34.4037L112.265 35ZM107.337 35L106.535 35.5967L106.834 36H107.337V35ZM101.737 27.468L102.54 26.8713L100.737 24.447V27.468H101.737ZM101.737 35V36H102.737V35H101.737ZM97.677 35H96.677V36H97.677V35ZM97.677 17.352H101.737V15.352H97.677V17.352ZM100.737 16.352V23.576H102.737V16.352H100.737ZM102.502 24.2197L108.578 16.9957L107.048 15.7083L100.972 22.9323L102.502 24.2197ZM107.813 17.352H112.657V15.352H107.813V17.352ZM111.902 15.6969L104.229 24.5449L105.741 25.8551L113.413 17.0071L111.902 15.6969ZM104.182 25.7963L111.462 35.5963L113.068 34.4037L105.788 24.6037L104.182 25.7963ZM112.265 34H107.337V36H112.265V34ZM108.14 34.4033L102.54 26.8713L100.935 28.0647L106.535 35.5967L108.14 34.4033ZM100.737 27.468V35H102.737V27.468H100.737ZM101.737 34H97.677V36H101.737V34ZM98.677 35V16.352H96.677V35H98.677Z" fill="black"/>
<defs>
<filter id="filter0_d_23_579" x="0" y="0" width="133" height="52" filterUnits="userSpaceOnUse" color-interpolation-filters="sRGB">
<feFlood flood-opacity="0" result="BackgroundImageFix"/>
<feColorMatrix in="SourceAlpha" type="matrix" values="0 0 0 0 0 0 0 0 0 0 0 0 0 0 0 0 0 0 127 0" result="hardAlpha"/>
<feMorphology radius="3" operator="dilate" in="SourceAlpha" result="effect1_dropShadow_23_579"/>
<feOffset/>
<feComposite in2="hardAlpha" operator="out"/>
<feColorMatrix type="matrix" values="0 0 0 0 0 0 0 0 0 0 0 0 0 0 0 0 0 0 1 0"/>
<feBlend mode="normal" in2="BackgroundImageFix" result="effect1_dropShadow_23_579"/>
<feBlend mode="normal" in="SourceGraphic" in2="effect1_dropShadow_23_579" result="shape"/>
</filter>
<linearGradient id="paint0_linear_23_579" x1="66.5" y1="3" x2="66.5" y2="49" gradientUnits="userSpaceOnUse">
<stop stop-color="#B9A357"/>
<stop offset="0.520833" stop-color="#7B6824"/>
<stop offset="1" stop-color="#B9A357"/>
</linearGradient>
</defs>
</svg>
