<svg width="133" height="52" viewBox="0 0 133 52" fill="none" xmlns="http://www.w3.org/2000/svg">
<g filter="url(#filter0_d_23_586)">
<rect x="3" y="3" width="127" height="46" rx="23" fill="url(#paint0_linear_23_586)"/>
<rect x="4.5" y="4.5" width="124" height="43" rx="21.5" stroke="white" stroke-width="3"/>
</g>
<path d="M26.888 35.364C25.8053 35.364 24.7693 35.2427 23.78 35C22.8093 34.7573 21.9693 34.4307 21.26 34.02L21.596 30.268C22.436 30.7907 23.3133 31.2013 24.228 31.5C25.1613 31.78 26.02 31.92 26.804 31.92C27.7 31.92 28.428 31.7333 28.988 31.36C29.548 30.9867 29.828 30.492 29.828 29.876C29.828 29.372 29.6413 28.9893 29.268 28.728C28.8947 28.448 28.3067 28.1493 27.504 27.832L26.832 27.552C26.7387 27.5147 26.636 27.4773 26.524 27.44C26.412 27.384 26.2813 27.328 26.132 27.272C25.0867 26.8427 24.2467 26.4413 23.612 26.068C22.9773 25.676 22.4267 25.1347 21.96 24.444C21.512 23.7533 21.288 22.8573 21.288 21.756C21.288 19.964 21.8947 18.5547 23.108 17.528C24.3213 16.5013 26.0107 15.988 28.176 15.988C29.8187 15.988 31.4987 16.324 33.216 16.996L32.6 20.692C31.9093 20.3 31.1627 19.992 30.36 19.768C29.576 19.544 28.8293 19.432 28.12 19.432C27.2427 19.432 26.5613 19.6093 26.076 19.964C25.5907 20.3 25.348 20.7573 25.348 21.336C25.348 21.84 25.516 22.232 25.852 22.512C26.188 22.792 26.7293 23.0907 27.476 23.408L28.624 23.856C29.7067 24.2667 30.6027 24.668 31.312 25.06C32.0213 25.452 32.628 26.0213 33.132 26.768C33.636 27.496 33.888 28.448 33.888 29.624C33.888 31.4347 33.272 32.844 32.04 33.852C30.808 34.86 29.0907 35.364 26.888 35.364ZM45.5644 19.88H40.4684V16.352H54.6924V19.88H49.6524V35H45.5644V19.88ZM61.9825 16.352H73.3225V19.88H65.9865V23.604H72.0625V27.02H65.9865V31.472H73.3225V35H61.9825V16.352ZM81.3102 16.352H92.6502V19.88H85.3142V23.604H91.3902V27.02H85.3142V31.472H92.6502V35H81.3102V16.352ZM100.638 16.352H104.698V31.472H111.418V35H100.638V16.352Z" fill="white"/>
<path d="M23.78 35L23.5375 35.9702L23.5418 35.9712L23.78 35ZM21.26 34.02L20.264 33.9308L20.2071 34.5659L20.759 34.8854L21.26 34.02ZM21.596 30.268L22.1243 29.4189L20.7449 28.5606L20.6 30.1788L21.596 30.268ZM24.228 31.5L23.9176 32.4506L23.9291 32.4544L23.9407 32.4578L24.228 31.5ZM28.988 31.36L28.4333 30.528L28.988 31.36ZM29.268 28.728L28.668 29.528L28.6811 29.5378L28.6945 29.5472L29.268 28.728ZM27.504 27.832L27.1194 28.7551L27.1278 28.7586L27.1363 28.762L27.504 27.832ZM26.832 27.552L27.2166 26.6289L27.21 26.6262L27.2034 26.6235L26.832 27.552ZM26.524 27.44L26.0768 28.3344L26.1404 28.3662L26.2078 28.3887L26.524 27.44ZM26.132 27.272L25.7521 28.197L25.7664 28.2029L25.7809 28.2083L26.132 27.272ZM23.612 26.068L23.0865 26.9188L23.0957 26.9245L23.105 26.9299L23.612 26.068ZM21.96 24.444L21.121 24.9882L21.1262 24.9961L21.1314 25.0039L21.96 24.444ZM33.216 16.996L34.2024 17.1604L34.3357 16.3603L33.5804 16.0648L33.216 16.996ZM32.6 20.692L32.1064 21.5617L33.3511 22.2681L33.5864 20.8564L32.6 20.692ZM30.36 19.768L30.0853 20.7295L30.0912 20.7312L30.36 19.768ZM26.076 19.964L26.6452 20.7862L26.6557 20.7789L26.666 20.7714L26.076 19.964ZM25.852 22.512L25.2118 23.2802L25.2118 23.2802L25.852 22.512ZM27.476 23.408L27.0849 24.3283L27.0986 24.3342L27.1125 24.3396L27.476 23.408ZM28.624 23.856L28.2604 24.7876L28.2693 24.791L28.624 23.856ZM31.312 25.06L30.8283 25.9352H30.8283L31.312 25.06ZM33.132 26.768L32.3031 27.3275L32.3098 27.3372L33.132 26.768ZM32.04 33.852L31.4068 33.078L32.04 33.852ZM26.888 34.364C25.8806 34.364 24.9249 34.2512 24.0182 34.0288L23.5418 35.9712C24.6138 36.2342 25.7301 36.364 26.888 36.364V34.364ZM24.0225 34.0299C23.1233 33.8051 22.374 33.5095 21.761 33.1546L20.759 34.8854C21.5646 35.3519 22.4954 35.7096 23.5375 35.9701L24.0225 34.0299ZM22.256 34.1092L22.592 30.3572L20.6 30.1788L20.264 33.9308L22.256 34.1092ZM21.0677 31.1171C21.9741 31.681 22.9243 32.1263 23.9176 32.4506L24.5384 30.5494C23.7023 30.2764 22.898 29.9003 22.1243 29.4189L21.0677 31.1171ZM23.9407 32.4578C24.9456 32.7593 25.9024 32.92 26.804 32.92V30.92C26.1376 30.92 25.3771 30.8007 24.5153 30.5422L23.9407 32.4578ZM26.804 32.92C27.8333 32.92 28.7721 32.7058 29.5427 32.192L28.4333 30.528C28.0839 30.7609 27.5667 30.92 26.804 30.92V32.92ZM29.5427 32.1921C30.3505 31.6535 30.828 30.8614 30.828 29.876H28.828C28.828 30.1226 28.7455 30.3198 28.4333 30.528L29.5427 32.1921ZM30.828 29.876C30.828 29.086 30.5136 28.3792 29.8415 27.9088L28.6945 29.5472C28.7691 29.5994 28.828 29.658 28.828 29.876H30.828ZM29.868 27.928C29.3867 27.567 28.6997 27.2294 27.8717 26.902L27.1363 28.762C27.9136 29.0693 28.4026 29.329 28.668 29.528L29.868 27.928ZM27.8886 26.9089L27.2166 26.6289L26.4474 28.4751L27.1194 28.7551L27.8886 26.9089ZM27.2034 26.6235C27.0891 26.5778 26.9677 26.5338 26.8402 26.4913L26.2078 28.3887C26.3043 28.4209 26.3883 28.4515 26.4606 28.4805L27.2034 26.6235ZM26.9712 26.5456C26.8208 26.4704 26.6568 26.4008 26.4831 26.3357L25.7809 28.2083C25.9058 28.2552 26.0032 28.2976 26.0768 28.3344L26.9712 26.5456ZM26.5119 26.347C25.4899 25.9272 24.6974 25.5463 24.119 25.2061L23.105 26.9299C23.7959 27.3364 24.6834 27.7581 25.7521 28.197L26.5119 26.347ZM24.1375 25.2172C23.6368 24.9079 23.1853 24.4713 22.7886 23.8841L21.1314 25.0039C21.668 25.798 22.3179 26.4441 23.0865 26.9188L24.1375 25.2172ZM22.799 23.8998C22.4861 23.4174 22.288 22.7279 22.288 21.756H20.288C20.288 22.9868 20.5379 24.0892 21.121 24.9882L22.799 23.8998ZM22.288 21.756C22.288 20.2161 22.7954 19.1025 23.7539 18.2914L22.4621 16.7646C20.9939 18.0069 20.288 19.7119 20.288 21.756H22.288ZM23.7539 18.2914C24.7306 17.465 26.1614 16.988 28.176 16.988V14.988C25.8599 14.988 23.9121 15.5377 22.4621 16.7646L23.7539 18.2914ZM28.176 16.988C29.6796 16.988 31.2362 17.2951 32.8516 17.9272L33.5804 16.0648C31.7611 15.3529 29.9577 14.988 28.176 14.988V16.988ZM32.2296 16.8316L31.6136 20.5276L33.5864 20.8564L34.2024 17.1604L32.2296 16.8316ZM33.0936 19.8223C32.3287 19.3882 31.5061 19.0496 30.6288 18.8048L30.0912 20.7312C30.8193 20.9344 31.49 21.2118 32.1064 21.5617L33.0936 19.8223ZM30.6347 18.8065C29.7744 18.5607 28.9349 18.432 28.12 18.432V20.432C28.7238 20.432 29.3776 20.5273 30.0853 20.7295L30.6347 18.8065ZM28.12 18.432C27.1239 18.432 26.2051 18.6311 25.486 19.1566L26.666 20.7714C26.9176 20.5876 27.3614 20.432 28.12 20.432V18.432ZM25.5068 19.1418C24.7581 19.6601 24.348 20.4214 24.348 21.336H26.348C26.348 21.0933 26.4232 20.9399 26.6452 20.7862L25.5068 19.1418ZM24.348 21.336C24.348 22.0863 24.6117 22.7801 25.2118 23.2802L26.4922 21.7438C26.4203 21.6839 26.348 21.5937 26.348 21.336H24.348ZM25.2118 23.2802C25.6618 23.6552 26.3111 23.9995 27.0849 24.3283L27.8671 22.4877C27.1476 22.1818 26.7142 21.9288 26.4922 21.7438L25.2118 23.2802ZM27.1125 24.3396L28.2605 24.7876L28.9875 22.9244L27.8395 22.4764L27.1125 24.3396ZM28.2693 24.791C29.3248 25.1913 30.1739 25.5736 30.8283 25.9352L31.7957 24.1848C31.0314 23.7624 30.0886 23.342 28.9787 22.921L28.2693 24.791ZM30.8283 25.9352C31.3844 26.2425 31.8776 26.697 32.3032 27.3275L33.9608 26.2085C33.3784 25.3456 32.6583 24.6614 31.7957 24.1848L30.8283 25.9352ZM32.3098 27.3372C32.6655 27.851 32.888 28.5856 32.888 29.624H34.888C34.888 28.3104 34.6065 27.141 33.9542 26.1988L32.3098 27.3372ZM32.888 29.624C32.888 31.1811 32.373 32.2875 31.4068 33.078L32.6732 34.626C34.171 33.4005 34.888 31.6882 34.888 29.624H32.888ZM31.4068 33.078C30.4112 33.8926 28.9476 34.364 26.888 34.364V36.364C29.2338 36.364 31.2048 35.8274 32.6732 34.626L31.4068 33.078ZM45.5644 19.88H46.5644V18.88H45.5644V19.88ZM40.4684 19.88H39.4684V20.88H40.4684V19.88ZM40.4684 16.352V15.352H39.4684V16.352H40.4684ZM54.6924 16.352H55.6924V15.352H54.6924V16.352ZM54.6924 19.88V20.88H55.6924V19.88H54.6924ZM49.6524 19.88V18.88H48.6524V19.88H49.6524ZM49.6524 35V36H50.6524V35H49.6524ZM45.5644 35H44.5644V36H45.5644V35ZM45.5644 18.88H40.4684V20.88H45.5644V18.88ZM41.4684 19.88V16.352H39.4684V19.88H41.4684ZM40.4684 17.352H54.6924V15.352H40.4684V17.352ZM53.6924 16.352V19.88H55.6924V16.352H53.6924ZM54.6924 18.88H49.6524V20.88H54.6924V18.88ZM48.6524 19.88V35H50.6524V19.88H48.6524ZM49.6524 34H45.5644V36H49.6524V34ZM46.5644 35V19.88H44.5644V35H46.5644ZM61.9825 16.352V15.352H60.9825V16.352H61.9825ZM73.3225 16.352H74.3225V15.352H73.3225V16.352ZM73.3225 19.88V20.88H74.3225V19.88H73.3225ZM65.9865 19.88V18.88H64.9865V19.88H65.9865ZM65.9865 23.604H64.9865V24.604H65.9865V23.604ZM72.0625 23.604H73.0625V22.604H72.0625V23.604ZM72.0625 27.02V28.02H73.0625V27.02H72.0625ZM65.9865 27.02V26.02H64.9865V27.02H65.9865ZM65.9865 31.472H64.9865V32.472H65.9865V31.472ZM73.3225 31.472H74.3225V30.472H73.3225V31.472ZM73.3225 35V36H74.3225V35H73.3225ZM61.9825 35H60.9825V36H61.9825V35ZM61.9825 17.352H73.3225V15.352H61.9825V17.352ZM72.3225 16.352V19.88H74.3225V16.352H72.3225ZM73.3225 18.88H65.9865V20.88H73.3225V18.88ZM64.9865 19.88V23.604H66.9865V19.88H64.9865ZM65.9865 24.604H72.0625V22.604H65.9865V24.604ZM71.0625 23.604V27.02H73.0625V23.604H71.0625ZM72.0625 26.02H65.9865V28.02H72.0625V26.02ZM64.9865 27.02V31.472H66.9865V27.02H64.9865ZM65.9865 32.472H73.3225V30.472H65.9865V32.472ZM72.3225 31.472V35H74.3225V31.472H72.3225ZM73.3225 34H61.9825V36H73.3225V34ZM62.9825 35V16.352H60.9825V35H62.9825ZM81.3102 16.352V15.352H80.3102V16.352H81.3102ZM92.6502 16.352H93.6502V15.352H92.6502V16.352ZM92.6502 19.88V20.88H93.6502V19.88H92.6502ZM85.3142 19.88V18.88H84.3142V19.88H85.3142ZM85.3142 23.604H84.3142V24.604H85.3142V23.604ZM91.3902 23.604H92.3902V22.604H91.3902V23.604ZM91.3902 27.02V28.02H92.3902V27.02H91.3902ZM85.3142 27.02V26.02H84.3142V27.02H85.3142ZM85.3142 31.472H84.3142V32.472H85.3142V31.472ZM92.6502 31.472H93.6502V30.472H92.6502V31.472ZM92.6502 35V36H93.6502V35H92.6502ZM81.3102 35H80.3102V36H81.3102V35ZM81.3102 17.352H92.6502V15.352H81.3102V17.352ZM91.6502 16.352V19.88H93.6502V16.352H91.6502ZM92.6502 18.88H85.3142V20.88H92.6502V18.88ZM84.3142 19.88V23.604H86.3142V19.88H84.3142ZM85.3142 24.604H91.3902V22.604H85.3142V24.604ZM90.3902 23.604V27.02H92.3902V23.604H90.3902ZM91.3902 26.02H85.3142V28.02H91.3902V26.02ZM84.3142 27.02V31.472H86.3142V27.02H84.3142ZM85.3142 32.472H92.6502V30.472H85.3142V32.472ZM91.6502 31.472V35H93.6502V31.472H91.6502ZM92.6502 34H81.3102V36H92.6502V34ZM82.3102 35V16.352H80.3102V35H82.3102ZM100.638 16.352V15.352H99.6378V16.352H100.638ZM104.698 16.352H105.698V15.352H104.698V16.352ZM104.698 31.472H103.698V32.472H104.698V31.472ZM111.418 31.472H112.418V30.472H111.418V31.472ZM111.418 35V36H112.418V35H111.418ZM100.638 35H99.6378V36H100.638V35ZM100.638 17.352H104.698V15.352H100.638V17.352ZM103.698 16.352V31.472H105.698V16.352H103.698ZM104.698 32.472H111.418V30.472H104.698V32.472ZM110.418 31.472V35H112.418V31.472H110.418ZM111.418 34H100.638V36H111.418V34ZM101.638 35V16.352H99.6378V35H101.638Z" fill="black"/>
<defs>
<filter id="filter0_d_23_586" x="0" y="0" width="133" height="52" filterUnits="userSpaceOnUse" color-interpolation-filters="sRGB">
<feFlood flood-opacity="0" result="BackgroundImageFix"/>
<feColorMatrix in="SourceAlpha" type="matrix" values="0 0 0 0 0 0 0 0 0 0 0 0 0 0 0 0 0 0 127 0" result="hardAlpha"/>
<feMorphology radius="3" operator="dilate" in="SourceAlpha" result="effect1_dropShadow_23_586"/>
<feOffset/>
<feComposite in2="hardAlpha" operator="out"/>
<feColorMatrix type="matrix" values="0 0 0 0 0 0 0 0 0 0 0 0 0 0 0 0 0 0 1 0"/>
<feBlend mode="normal" in2="BackgroundImageFix" result="effect1_dropShadow_23_586"/>
<feBlend mode="normal" in="SourceGraphic" in2="effect1_dropShadow_23_586" result="shape"/>
</filter>
<linearGradient id="paint0_linear_23_586" x1="66.5" y1="3" x2="66.5" y2="49" gradientUnits="userSpaceOnUse">
<stop stop-color="#CDCCD7"/>
<stop offset="0.46875" stop-color="#84829B"/>
<stop offset="1" stop-color="#CDCCD7"/>
</linearGradient>
</defs>
</svg>
