<svg width="133" height="52" viewBox="0 0 133 52" fill="none" xmlns="http://www.w3.org/2000/svg">
<g filter="url(#filter0_d_23_593)">
<rect x="3" y="3" width="127" height="46" rx="23" fill="url(#paint0_linear_23_593)"/>
<rect x="4.5" y="4.5" width="124" height="43" rx="21.5" stroke="white" stroke-width="3"/>
</g>
<path d="M12.84 16.352H17.152L20.4 29.764L23.732 16.464L28.968 16.072L32.496 30.156L35.772 16.352H39.776L34.736 35H29.836L26.224 20.244L22.472 35H17.628L12.84 16.352ZM50.6057 16.352H55.4777L62.3937 35H58.1937L56.6817 30.744H49.3457L47.9177 35H43.7737L50.6057 16.352ZM55.4777 27.272L52.9577 20.132L50.5217 27.272H55.4777ZM71.1655 19.88H66.0695V16.352H80.2935V19.88H75.2535V35H71.1655V19.88ZM87.5836 16.352H98.9236V19.88H91.5876V23.604H97.6636V27.02H91.5876V31.472H98.9236V35H87.5836V16.352ZM106.799 16.352C107.359 16.3333 108.405 16.324 109.935 16.324C111.485 16.324 112.539 16.3333 113.099 16.352C115.227 16.4267 116.814 16.9493 117.859 17.92C118.905 18.872 119.427 20.16 119.427 21.784C119.427 23.1653 119.073 24.3413 118.363 25.312C117.673 26.264 116.702 26.8893 115.451 27.188C115.843 27.5053 116.245 27.944 116.655 28.504C117.066 29.0453 117.635 29.8947 118.363 31.052C119.129 32.2653 119.903 33.5813 120.687 35H115.983L112.819 29.12C112.483 28.504 112.175 28.1213 111.895 27.972C111.634 27.804 111.233 27.72 110.691 27.72V35H106.799V16.352ZM112.427 24.612C113.379 24.612 114.126 24.3693 114.667 23.884C115.227 23.3987 115.507 22.7453 115.507 21.924C115.507 21.1773 115.265 20.608 114.779 20.216C114.294 19.824 113.585 19.628 112.651 19.628H110.691V24.612H112.427Z" fill="white"/>
<path d="M12.84 16.352V15.352H11.5508L11.8714 16.6007L12.84 16.352ZM17.152 16.352L18.1239 16.1166L17.9387 15.352H17.152V16.352ZM20.4 29.764L19.4281 29.9994L21.37 30.007L20.4 29.764ZM23.732 16.464L23.6573 15.4668L22.9374 15.5207L22.762 16.221L23.732 16.464ZM28.968 16.072L29.938 15.829L29.7333 15.0119L28.8933 15.0748L28.968 16.072ZM32.496 30.156L31.526 30.399L33.469 30.3869L32.496 30.156ZM35.772 16.352V15.352H34.9815L34.799 16.1211L35.772 16.352ZM39.776 16.352L40.7414 16.6129L41.0822 15.352H39.776V16.352ZM34.736 35V36H35.5016L35.7014 35.2609L34.736 35ZM29.836 35L28.8647 35.2378L29.0513 36H29.836V35ZM26.224 20.244L27.1953 20.0062L25.2548 19.9976L26.224 20.244ZM22.472 35V36H23.2496L23.4412 35.2464L22.472 35ZM17.628 35L16.6594 35.2487L16.8523 36H17.628V35ZM12.84 17.352H17.152V15.352H12.84V17.352ZM16.1801 16.5874L19.4281 29.9994L21.3719 29.5286L18.1239 16.1166L16.1801 16.5874ZM21.37 30.007L24.702 16.707L22.762 16.221L19.43 29.521L21.37 30.007ZM23.8067 17.4612L29.0427 17.0692L28.8933 15.0748L23.6573 15.4668L23.8067 17.4612ZM27.998 16.315L31.526 30.399L33.466 29.913L29.938 15.829L27.998 16.315ZM33.469 30.3869L36.745 16.5829L34.799 16.1211L31.523 29.9251L33.469 30.3869ZM35.772 17.352H39.776V15.352H35.772V17.352ZM38.8106 16.0911L33.7706 34.7391L35.7014 35.2609L40.7414 16.6129L38.8106 16.0911ZM34.736 34H29.836V36H34.736V34ZM30.8073 34.7622L27.1953 20.0062L25.2527 20.4818L28.8647 35.2378L30.8073 34.7622ZM25.2548 19.9976L21.5028 34.7536L23.4412 35.2464L27.1932 20.4904L25.2548 19.9976ZM22.472 34H17.628V36H22.472V34ZM18.5966 34.7513L13.8086 16.1033L11.8714 16.6007L16.6594 35.2487L18.5966 34.7513ZM50.6057 16.352V15.352H49.907L49.6667 16.008L50.6057 16.352ZM55.4777 16.352L56.4153 16.0043L56.1733 15.352H55.4777V16.352ZM62.3937 35V36H63.8311L63.3313 34.6523L62.3937 35ZM58.1937 35L57.2514 35.3348L57.4877 36H58.1937V35ZM56.6817 30.744L57.624 30.4092L57.3876 29.744H56.6817V30.744ZM49.3457 30.744V29.744H48.6264L48.3976 30.4259L49.3457 30.744ZM47.9177 35V36H48.6369L48.8657 35.3181L47.9177 35ZM43.7737 35L42.8347 34.656L42.3423 36H43.7737V35ZM55.4777 27.272V28.272H56.8911L56.4206 26.9392L55.4777 27.272ZM52.9577 20.132L53.9006 19.7992L52.9416 17.082L52.0112 19.8091L52.9577 20.132ZM50.5217 27.272L49.5752 26.9491L49.1239 28.272H50.5217V27.272ZM50.6057 17.352H55.4777V15.352H50.6057V17.352ZM54.5401 16.6997L61.4561 35.3477L63.3313 34.6523L56.4153 16.0043L54.5401 16.6997ZM62.3937 34H58.1937V36H62.3937V34ZM59.136 34.6652L57.624 30.4092L55.7394 31.0788L57.2514 35.3348L59.136 34.6652ZM56.6817 29.744H49.3457V31.744H56.6817V29.744ZM48.3976 30.4259L46.9696 34.6819L48.8657 35.3181L50.2937 31.0621L48.3976 30.4259ZM47.9177 34H43.7737V36H47.9177V34ZM44.7126 35.344L51.5446 16.696L49.6667 16.008L42.8347 34.656L44.7126 35.344ZM56.4206 26.9392L53.9006 19.7992L52.0147 20.4648L54.5347 27.6048L56.4206 26.9392ZM52.0112 19.8091L49.5752 26.9491L51.4681 27.5949L53.9041 20.4549L52.0112 19.8091ZM50.5217 28.272H55.4777V26.272H50.5217V28.272ZM71.1655 19.88H72.1655V18.88H71.1655V19.88ZM66.0695 19.88H65.0695V20.88H66.0695V19.88ZM66.0695 16.352V15.352H65.0695V16.352H66.0695ZM80.2935 16.352H81.2935V15.352H80.2935V16.352ZM80.2935 19.88V20.88H81.2935V19.88H80.2935ZM75.2535 19.88V18.88H74.2535V19.88H75.2535ZM75.2535 35V36H76.2535V35H75.2535ZM71.1655 35H70.1655V36H71.1655V35ZM71.1655 18.88H66.0695V20.88H71.1655V18.88ZM67.0695 19.88V16.352H65.0695V19.88H67.0695ZM66.0695 17.352H80.2935V15.352H66.0695V17.352ZM79.2935 16.352V19.88H81.2935V16.352H79.2935ZM80.2935 18.88H75.2535V20.88H80.2935V18.88ZM74.2535 19.88V35H76.2535V19.88H74.2535ZM75.2535 34H71.1655V36H75.2535V34ZM72.1655 35V19.88H70.1655V35H72.1655ZM87.5836 16.352V15.352H86.5836V16.352H87.5836ZM98.9236 16.352H99.9236V15.352H98.9236V16.352ZM98.9236 19.88V20.88H99.9236V19.88H98.9236ZM91.5876 19.88V18.88H90.5876V19.88H91.5876ZM91.5876 23.604H90.5876V24.604H91.5876V23.604ZM97.6636 23.604H98.6636V22.604H97.6636V23.604ZM97.6636 27.02V28.02H98.6636V27.02H97.6636ZM91.5876 27.02V26.02H90.5876V27.02H91.5876ZM91.5876 31.472H90.5876V32.472H91.5876V31.472ZM98.9236 31.472H99.9236V30.472H98.9236V31.472ZM98.9236 35V36H99.9236V35H98.9236ZM87.5836 35H86.5836V36H87.5836V35ZM87.5836 17.352H98.9236V15.352H87.5836V17.352ZM97.9236 16.352V19.88H99.9236V16.352H97.9236ZM98.9236 18.88H91.5876V20.88H98.9236V18.88ZM90.5876 19.88V23.604H92.5876V19.88H90.5876ZM91.5876 24.604H97.6636V22.604H91.5876V24.604ZM96.6636 23.604V27.02H98.6636V23.604H96.6636ZM97.6636 26.02H91.5876V28.02H97.6636V26.02ZM90.5876 27.02V31.472H92.5876V27.02H90.5876ZM91.5876 32.472H98.9236V30.472H91.5876V32.472ZM97.9236 31.472V35H99.9236V31.472H97.9236ZM98.9236 34H87.5836V36H98.9236V34ZM88.5836 35V16.352H86.5836V35H88.5836ZM106.799 16.352L106.766 15.3526L105.799 15.3848V16.352H106.799ZM113.099 16.352L113.134 15.3526L113.133 15.3526L113.099 16.352ZM117.859 17.92L117.179 18.6528L117.186 18.6593L117.859 17.92ZM118.363 25.312L117.556 24.722L117.554 24.7248L118.363 25.312ZM115.451 27.188L115.219 26.2153L113.243 26.6872L114.822 27.9652L115.451 27.188ZM116.655 28.504L115.849 29.0954L115.854 29.1019L115.859 29.1084L116.655 28.504ZM118.363 31.052L117.517 31.5845L117.517 31.5855L118.363 31.052ZM120.687 35V36H122.382L121.562 34.5163L120.687 35ZM115.983 35L115.103 35.4739L115.386 36H115.983V35ZM112.819 29.12L113.7 28.6461L113.697 28.6411L112.819 29.12ZM111.895 27.972L111.354 28.8132L111.389 28.8352L111.425 28.8544L111.895 27.972ZM110.691 27.72V26.72H109.691V27.72H110.691ZM110.691 35V36H111.691V35H110.691ZM106.799 35H105.799V36H106.799V35ZM114.667 23.884L114.012 23.1283L114.006 23.1338L114 23.1394L114.667 23.884ZM114.779 20.216L114.151 20.9939V20.9939L114.779 20.216ZM110.691 19.628V18.628H109.691V19.628H110.691ZM110.691 24.612H109.691V25.612H110.691V24.612ZM106.833 17.3514C107.374 17.3334 108.403 17.324 109.935 17.324V15.324C108.406 15.324 107.345 15.3333 106.766 15.3526L106.833 17.3514ZM109.935 17.324C111.486 17.324 112.525 17.3334 113.066 17.3514L113.133 15.3526C112.553 15.3333 111.483 15.324 109.935 15.324V17.324ZM113.064 17.3514C115.067 17.4216 116.379 17.9097 117.179 18.6528L118.54 17.1872C117.249 15.9889 115.388 15.4317 113.134 15.3526L113.064 17.3514ZM117.186 18.6593C117.991 19.3929 118.427 20.3954 118.427 21.784H120.427C120.427 19.9246 119.818 18.3511 118.533 17.1807L117.186 18.6593ZM118.427 21.784C118.427 22.986 118.122 23.9473 117.556 24.722L119.171 25.902C120.023 24.7353 120.427 23.3446 120.427 21.784H118.427ZM117.554 24.7248C117.017 25.465 116.261 25.9666 115.219 26.2153L115.684 28.1607C117.143 27.8121 118.328 27.063 119.173 25.8992L117.554 24.7248ZM114.822 27.9652C115.127 28.2125 115.471 28.5807 115.849 29.0954L117.462 27.9126C117.018 27.3073 116.559 26.7982 116.08 26.4108L114.822 27.9652ZM115.859 29.1084C116.242 29.6135 116.792 30.4324 117.517 31.5845L119.21 30.5195C118.478 29.3569 117.89 28.4772 117.452 27.8996L115.859 29.1084ZM117.517 31.5855C118.271 32.7806 119.036 34.0798 119.812 35.4837L121.562 34.5163C120.77 33.0829 119.986 31.7501 119.209 30.5185L117.517 31.5855ZM120.687 34H115.983V36H120.687V34ZM116.864 34.5261L113.7 28.6462L111.939 29.5938L115.103 35.4739L116.864 34.5261ZM113.697 28.6411C113.512 28.3011 113.319 27.9967 113.115 27.744C112.918 27.4992 112.672 27.2529 112.366 27.0896L111.425 28.8544C111.399 28.8405 111.446 28.8602 111.557 28.998C111.662 29.128 111.791 29.3229 111.941 29.5989L113.697 28.6411ZM112.436 27.1308C111.933 26.8076 111.299 26.72 110.691 26.72V28.72C110.914 28.72 111.078 28.7375 111.193 28.7618C111.25 28.7737 111.291 28.7862 111.318 28.7964C111.344 28.8067 111.355 28.8135 111.354 28.8132L112.436 27.1308ZM109.691 27.72V35H111.691V27.72H109.691ZM110.691 34H106.799V36H110.691V34ZM107.799 35V16.352H105.799V35H107.799ZM112.427 25.612C113.548 25.612 114.559 25.3239 115.335 24.6286L114 23.1394C113.693 23.4148 113.211 23.612 112.427 23.612V25.612ZM115.322 24.6397C116.127 23.9425 116.507 23.0001 116.507 21.924H114.507C114.507 22.4906 114.328 22.8549 114.012 23.1283L115.322 24.6397ZM116.507 21.924C116.507 20.9412 116.175 20.0578 115.408 19.4381L114.151 20.9939C114.354 21.1582 114.507 21.4135 114.507 21.924H116.507ZM115.408 19.4381C114.675 18.8463 113.704 18.628 112.651 18.628V20.628C113.465 20.628 113.913 20.8017 114.151 20.9939L115.408 19.4381ZM112.651 18.628H110.691V20.628H112.651V18.628ZM109.691 19.628V24.612H111.691V19.628H109.691ZM110.691 25.612H112.427V23.612H110.691V25.612Z" fill="black"/>
<defs>
<filter id="filter0_d_23_593" x="0" y="0" width="133" height="52" filterUnits="userSpaceOnUse" color-interpolation-filters="sRGB">
<feFlood flood-opacity="0" result="BackgroundImageFix"/>
<feColorMatrix in="SourceAlpha" type="matrix" values="0 0 0 0 0 0 0 0 0 0 0 0 0 0 0 0 0 0 127 0" result="hardAlpha"/>
<feMorphology radius="3" operator="dilate" in="SourceAlpha" result="effect1_dropShadow_23_593"/>
<feOffset/>
<feComposite in2="hardAlpha" operator="out"/>
<feColorMatrix type="matrix" values="0 0 0 0 0 0 0 0 0 0 0 0 0 0 0 0 0 0 1 0"/>
<feBlend mode="normal" in2="BackgroundImageFix" result="effect1_dropShadow_23_593"/>
<feBlend mode="normal" in="SourceGraphic" in2="effect1_dropShadow_23_593" result="shape"/>
</filter>
<linearGradient id="paint0_linear_23_593" x1="66.5" y1="3" x2="66.5" y2="49" gradientUnits="userSpaceOnUse">
<stop stop-color="#CDCCD7"/>
<stop offset="0.0001" stop-color="#3B99F3"/>
<stop offset="0.505208" stop-color="#2B6FB0"/>
<stop offset="1" stop-color="#3B99F3"/>
</linearGradient>
</defs>
</svg>
