<svg width="107" height="107" viewBox="0 0 107 107" fill="none" xmlns="http://www.w3.org/2000/svg">
<path fill-rule="evenodd" clip-rule="evenodd" d="M71.514 0.104759C71.592 -0.00636083 71.745 -0.033366 71.8561 0.0444414L79.4536 5.36425C79.5647 5.44206 79.5917 5.5952 79.514 5.70632L68.9396 20.808C74.0804 22.4504 77.5827 24.2219 77.5827 24.2219C77.5827 24.2219 69.0219 38.9474 54.5019 38.9474C39.9818 38.9474 29.6641 25.223 29.6641 25.223C29.6641 25.223 33.3226 22.8882 38.7457 20.8857L27.1471 7.06317C27.0599 6.95924 27.0735 6.80432 27.1774 6.71713L34.2822 0.755405C34.3863 0.668211 34.5411 0.681763 34.6283 0.785681L49.314 18.2875C50.5715 18.1452 51.8526 18.0657 53.1454 18.0657C55.0034 18.0657 56.8592 18.207 58.6709 18.4467L71.514 0.104759ZM74.3867 39.6448C78.2615 36.8774 84.1248 29.6545 84.1248 29.6545C84.1248 29.6545 99.1014 41.5227 99.1014 66.6878C99.1014 91.8526 73.2091 106.998 73.2091 106.998C73.2091 106.998 60.8383 94.505 57.8013 78.668C54.7646 62.8309 62.2936 45.2457 62.2936 45.2457C62.2936 45.2457 70.5117 42.4121 74.3867 39.6448V39.6448ZM32.6561 39.6448C28.7813 36.8774 22.9181 29.6545 22.9181 29.6545C22.9181 29.6545 7.94141 41.5227 7.94141 66.6878C7.94141 91.8526 33.8337 106.998 33.8337 106.998C33.8337 106.998 46.2046 94.505 49.2415 78.668C52.2783 62.8309 44.7492 45.2457 44.7492 45.2457C44.7492 45.2457 36.5311 42.4121 32.6561 39.6448V39.6448Z" fill="white"/>
</svg>
