<svg width="107" height="107" viewBox="0 0 107 107" fill="none" xmlns="http://www.w3.org/2000/svg">
<g clip-path="url(#clip0_23_477)">
<path fill-rule="evenodd" clip-rule="evenodd" d="M47.9367 94.6386C49.9695 94.9498 52.0514 95.1111 54.1713 95.1111C76.7421 95.1111 95.0393 76.8139 95.0393 54.2431C95.0393 31.6722 76.7421 13.375 54.1713 13.375C52.657 13.375 51.1617 13.4574 49.6903 13.6179C60.8866 22.1003 68.2893 36.7942 68.2893 53.5C68.2893 71.063 60.1073 86.4025 47.9367 94.6386ZM53.4282 107C82.9754 107 106.928 83.0473 106.928 53.5C106.928 23.9527 82.9754 0 53.4282 0C23.8809 0 -0.0717773 23.9527 -0.0717773 53.5C-0.0717773 83.0473 23.8809 107 53.4282 107Z" fill="white"/>
</g>
<defs>
<clipPath id="clip0_23_477">
<rect width="107" height="107" fill="white"/>
</clipPath>
</defs>
</svg>
