<svg width="123" height="123" viewBox="0 0 123 123" fill="none" xmlns="http://www.w3.org/2000/svg">
<path fill-rule="evenodd" clip-rule="evenodd" d="M67.4343 61.2312C68.2679 60.7228 68.9751 59.6576 69.5454 58.4738C77.0516 61.5416 82.3264 68.7909 82.3264 77.245C82.3264 88.4759 73.0173 97.5806 61.5341 97.5806C56.8202 97.5806 52.4727 96.0462 48.9852 93.4605C47.8412 92.9188 46.9 92.3985 46.1298 91.9725C44.9351 91.3121 44.1517 90.879 43.6612 90.9467C42.2272 91.1444 42.6435 92.4638 43.0219 93.6623C43.2787 94.4765 43.5182 95.2349 43.1475 95.5477C42.7598 95.8754 41.5039 94.6778 40.0363 93.2787C38.0385 91.3739 35.6486 89.0952 34.5217 89.7797C33.6307 90.3209 34.4957 91.789 35.5547 93.5859L35.6332 93.7193C36.0806 94.4789 36.599 95.2525 37.072 95.9583C38.0337 97.3927 38.8082 98.5487 38.4207 98.7443C37.9522 98.9806 34.6884 96.7777 31.938 93.7193C30.8764 92.539 29.8482 91.2595 28.8925 90.0706V90.0704C26.8008 87.4677 25.0581 85.2995 24.0799 85.5563C22.9031 85.8653 23.7933 88.2926 25.1014 90.6284C25.713 91.7208 26.4325 92.833 27.0554 93.7961V93.7964C28.0243 95.294 28.7597 96.4306 28.493 96.5704C28.1331 96.7585 24.9666 93.6707 22.8159 89.7797C21.5384 87.4684 20.4658 84.9142 19.5974 82.8465C18.6556 80.6039 17.9541 78.9336 17.4922 78.7654C15.8873 78.1814 15.8873 81.4536 16.531 86.1764C16.6149 86.7926 16.74 87.4388 16.894 88.0968C23.1363 108.294 42.312 123 64.9995 123C92.7506 123 115.247 100.997 115.247 73.8557C115.247 48.0229 94.8683 26.8455 68.9761 24.8628C69.0088 23.6459 69.6439 21.2326 69.6439 21.2326C69.6439 21.2326 74.2149 10.1733 74.4566 7.81C74.4724 7.65315 74.4914 7.4827 74.5118 7.30118C74.7965 4.74773 75.3262 0 71.2417 0C69.0604 0 68.0462 1.6227 66.8861 3.47857V3.47859C66.4407 4.19106 65.9736 4.9379 65.411 5.64046C61.3587 10.7009 54.5447 17.0203 50.681 20.387C42.5145 27.503 34.5022 33.3513 29.8292 36.7621L29.8289 36.7623C27.7036 38.3135 26.2692 39.3607 25.8252 39.7934C22.4797 43.0548 10.4843 64.6918 10.4843 64.6918C10.4843 64.6918 6.60508 71.6336 7.9839 73.0416C9.36273 74.4494 12.6878 74.1267 12.6878 74.1267C12.6878 74.1267 57.3572 63.879 61.3563 63.0709C62.4331 62.8532 63.1932 62.7276 63.7767 62.6313C65.361 62.3697 65.6455 62.3226 67.4343 61.2312ZM35.8514 48.0622C33.4536 50.3414 29.477 55.7815 29.477 55.7815C29.477 55.7815 36.8676 56.2367 40.9379 52.3677C45.0084 48.4985 44.0758 41.9048 44.0758 41.9048C44.0758 41.9048 38.2489 45.7831 35.8514 48.0622Z" fill="white"/>
</svg>
