<svg width="139" height="139" viewBox="0 0 139 139" fill="none" xmlns="http://www.w3.org/2000/svg">
<g clip-path="url(#clip0_23_500)">
<path fill-rule="evenodd" clip-rule="evenodd" d="M27.8885 110.217L50.1833 103.752L69.4397 138.961C69.465 139.007 69.5304 139.007 69.5554 138.961L88.8118 103.752L111.107 110.217C111.157 110.231 111.203 110.185 111.188 110.135L104.723 88.281L138.961 69.5554C139.007 69.5304 139.007 69.465 138.961 69.44L104.441 50.5599L111.188 27.7525C111.203 27.7025 111.157 27.6561 111.107 27.6705L88.2889 34.2868L69.5554 0.0342581C69.5304 -0.0114185 69.465 -0.0114198 69.44 0.034257L50.7065 34.2868L27.8885 27.6705C27.8386 27.6561 27.7921 27.7025 27.8071 27.7525L34.5548 50.5599L0.0342581 69.44C-0.0114185 69.465 -0.0114198 69.5304 0.034257 69.5554L34.2725 88.281L27.8071 110.135C27.7921 110.185 27.8386 110.231 27.8885 110.217ZM45.1891 69.7378L60.9838 78.3762L69.6222 94.1706C69.6471 94.2165 69.7128 94.2165 69.7378 94.1706L78.3762 78.3762L94.1706 69.7378C94.2162 69.7128 94.2162 69.6471 94.1706 69.6222L78.3762 60.9838L69.7378 45.1894C69.7128 45.1435 69.6471 45.1435 69.6222 45.1894L60.9838 60.9838L45.1891 69.6222C45.1435 69.6471 45.1435 69.7128 45.1891 69.7378Z" fill="white"/>
</g>
<defs>
<clipPath id="clip0_23_500">
<rect width="139" height="139" fill="white"/>
</clipPath>
</defs>
</svg>
