<svg width="89" height="89" viewBox="0 0 89 89" fill="none" xmlns="http://www.w3.org/2000/svg">
<path fill-rule="evenodd" clip-rule="evenodd" d="M15.3375 7.3991C16.4146 3.14653 20.2671 0 24.8545 0C28.2954 0 31.323 1.77039 33.0758 4.45H35.9463C37.7296 2.61987 40.221 1.48333 42.9781 1.48333C47.0203 1.48333 50.492 3.92646 51.997 7.41667H54.4002C55.9061 6.47657 57.6854 5.93333 59.5914 5.93333C63.6338 5.93333 67.1053 8.37646 68.6103 11.8667H75.1454C75.2012 11.8667 75.2535 11.8817 75.2985 11.9079C75.597 11.8806 75.8993 11.8667 76.2047 11.8667C81.6266 11.8667 86.0216 16.2619 86.0216 21.6837V51.1204L86.0218 51.175L86.0216 51.2296V51.6536C86.0216 51.8331 86.0168 52.012 86.007 52.19C85.4164 72.611 67.054 89 44.4884 89C21.5502 89 2.95508 72.0651 2.95508 51.175C2.95508 41.0914 7.28773 31.9293 14.3501 25.1486C14.3325 34.9791 14.4986 45.1421 15.264 44.9678C17.3135 44.5005 15.7122 14.0522 15.3375 7.3991Z" fill="white"/>
</svg>
