<svg width="99" height="99" viewBox="0 0 99 99" fill="none" xmlns="http://www.w3.org/2000/svg">
<path fill-rule="evenodd" clip-rule="evenodd" d="M68.1124 76.4531C69.3356 71.9805 66.9614 62.7857 66.9614 62.7857C66.9614 62.7857 65.2393 70.2763 62.5485 73.0448C60.2529 75.4063 57.4405 77.0442 53.407 77.4747C56.7048 75.8729 58.9727 72.533 58.9727 68.6725C58.9727 63.2535 54.5038 58.8603 48.9911 58.8603C43.4784 58.8603 39.0093 63.2535 39.0093 68.6725C39.0093 70.1525 39.3429 71.5561 39.9398 72.8145C36.4918 70.0676 35.9496 65.6637 35.9496 65.6637C35.9496 65.6637 32.0994 81.6487 42.7083 89.1681C53.3169 96.6874 74.099 90.2242 74.099 90.2242C74.099 90.2242 44.3586 111.15 22.3207 88.3749C3.33679 68.7555 17.3658 42.9264 17.3658 42.9264C17.3658 42.9264 16.76 45.3225 16.76 48.1039C16.76 50.8854 18.268 53.0017 18.268 53.0017C18.268 53.0017 22.7665 43.5196 26.2675 39.6634C29.5809 36.014 33.7345 33.054 37.3221 30.4974C40.0836 28.5294 42.5099 26.8004 43.9589 25.1798C51.9402 16.2555 47.0465 0 47.0465 0C47.0465 0 56.0435 7.9316 58.5552 18.1754C59.5128 22.0801 58.8967 26.5229 58.346 30.4959C57.4519 36.9456 56.7294 42.1572 63.1885 41.819C73.6264 41.2724 64.5562 25.1798 64.5562 25.1798C64.5562 25.1798 88.2334 37.6244 86.4645 59.3894C84.6955 81.1543 60.5842 86.1023 60.5842 86.1023C60.5842 86.1023 66.889 80.9257 68.1124 76.4531Z" fill="white"/>
</svg>
