<svg width="93" height="93" viewBox="0 0 93 93" fill="none" xmlns="http://www.w3.org/2000/svg">
<path fill-rule="evenodd" clip-rule="evenodd" d="M32.4614 86.7757C46.085 86.7757 57.7485 79.204 62.5636 68.4705C62.6224 68.3396 43.2317 73.5098 43.85 71.6821C44.1261 70.866 56.0127 66.5237 64.6728 61.4588C69.6503 58.5477 71.9424 52.3852 71.9424 52.3852C71.9424 52.3852 63.5566 56.4566 59.3173 57.4894C50.7744 59.571 43.2543 59.3469 43.2543 59.13C43.2543 58.661 55.7412 56.2884 73.0965 45.7124C81.26 40.7378 83.4773 32.1691 83.4773 32.1691C83.4773 32.1691 74.5023 37.5151 69.0767 39.2801C56.21 43.4657 44.4684 44.727 44.4684 44.1607C44.4684 42.948 54.8013 40.1066 65.7568 34.7982C71.4531 32.0381 76.3862 28.4322 82.103 24.4221C91.4571 17.8611 92.9998 6.17578 92.9998 6.17578C92.9998 6.17578 83.7739 12.1263 79.2716 14.1025C60.6936 22.2566 44.2893 26.5339 32.4614 27.4599C14.6068 28.8578 0 41.3153 0 57.4894C0 73.6638 14.5334 86.7757 32.4614 86.7757Z" fill="white"/>
</svg>
