<svg width="95" height="95" viewBox="0 0 95 95" fill="none" xmlns="http://www.w3.org/2000/svg">
<g clip-path="url(#clip0_23_527)">
<path fill-rule="evenodd" clip-rule="evenodd" d="M68.4579 94.671C59.8888 95.1097 50.0784 95.1097 46.7445 94.671C20.7386 91.2497 0 72.2358 0 46.5352C0 20.8345 21.2665 0 47.5 0C73.7335 0 95 20.8345 95 46.5352C95 58.4883 90.3997 69.3888 82.8393 77.6304C80.7862 79.8683 83.6032 81.438 86.4652 83.033C89.2722 84.5973 92.1225 86.1858 90.466 88.4524C88.6406 90.9501 78.7446 94.1444 68.4579 94.671ZM40.8203 40.7183C40.8203 44.7339 37.4974 47.9893 33.3984 47.9893C29.2995 47.9893 25.9766 44.7339 25.9766 40.7183C25.9766 38.025 27.4711 35.674 29.692 34.4173C29.8198 37.9187 32.6987 40.7181 36.2316 40.7181H40.8203V40.7183ZM63.8237 34.4173C63.6958 37.9187 60.8169 40.7181 57.2841 40.7181H52.6953V40.7183C52.6953 44.7339 56.0183 47.9893 60.1172 47.9893C64.2161 47.9893 67.5391 44.7339 67.5391 40.7183C67.5391 38.025 66.0445 35.674 63.8237 34.4173Z" fill="white"/>
</g>
<defs>
<clipPath id="clip0_23_527">
<rect width="95" height="95" fill="white"/>
</clipPath>
</defs>
</svg>
