<svg width="85" height="85" viewBox="0 0 85 85" fill="none" xmlns="http://www.w3.org/2000/svg">
<path fill-rule="evenodd" clip-rule="evenodd" d="M16.1724 73.1546C15.8806 72.8801 15.5921 72.6004 15.3069 72.3152C0.251861 57.2602 0.251864 32.8511 15.3069 17.7962C30.3619 2.74105 78.3331 1.73389 78.3331 1.73389C78.3331 1.73389 84.8811 57.2602 69.8261 72.3152C56.4552 85.6861 35.7063 87.1819 20.6847 76.8028L32.7885 61.9492L52.1377 57.7717L36.3431 56.1928L46.3807 45.9725L57.8066 43.4695L48.7717 40.7938L57.8066 24.4951L44.9553 38.9099L39.9926 31.9068L41.7396 43.4695L32.7885 53.5602L28.6393 40.7936V57.7717L16.1724 73.1546Z" fill="white"/>
</svg>
