<svg width="117" height="117" viewBox="0 0 117 117" fill="none" xmlns="http://www.w3.org/2000/svg">
<path fill-rule="evenodd" clip-rule="evenodd" d="M87.8197 8.92163L88.1797 40.5368L60.6047 53.774L60.2646 23.9233L87.8197 8.92163Z" fill="white"/>
<path fill-rule="evenodd" clip-rule="evenodd" d="M115.461 58.7392L88.1641 74.353L60.8506 58.7146L88.15 44.3748L115.461 58.7392Z" fill="white"/>
<path fill-rule="evenodd" clip-rule="evenodd" d="M55.9957 58.7392L28.6984 74.353L1.38477 58.7146L28.6842 44.3748L55.9957 58.7392Z" fill="white"/>
<path fill-rule="evenodd" clip-rule="evenodd" d="M28.3916 8.79224L56.7243 22.8244L55.9999 53.4034L29.2485 40.1546L28.3916 8.79224Z" fill="white"/>
<path fill-rule="evenodd" clip-rule="evenodd" d="M88.5906 108.208L60.2578 94.1756L60.9822 63.5964L87.7336 76.8455L88.5906 108.208Z" fill="white"/>
<path fill-rule="evenodd" clip-rule="evenodd" d="M29.3699 108.492L29.0098 76.8772L56.585 63.64L56.925 93.4906L29.3699 108.492Z" fill="white"/>
</svg>
