<svg width="88" height="88" viewBox="0 0 88 88" fill="none" xmlns="http://www.w3.org/2000/svg">
<g clip-path="url(#clip0_23_577)">
<path fill-rule="evenodd" clip-rule="evenodd" d="M78.3621 73.0785C78.3621 73.0785 67.2659 81.978 45.1847 78.2952C28.4321 75.5011 19.497 57.0338 19.497 47.1073C19.497 23.5725 36.9158 18.2167 48.6922 18.2167C60.4684 18.2167 68.1507 29.6979 68.1507 38.5873C68.1507 47.4767 61.8635 55.252 52.0791 55.252C42.295 55.252 39.3972 48.383 39.3972 42.0678C39.3972 35.7527 44.5065 33.5278 49.1662 33.5278C53.8259 33.5278 55.4214 37.506 55.4214 40.9252C55.4214 44.3444 52.7685 45.5689 50.5558 45.5689C48.3431 45.5689 48.1243 44.4525 47.2775 43.2793C46.4305 42.1063 48.3575 37.6657 45.1847 37.6657C42.0119 37.6657 41.4205 42.7706 41.4205 42.7706C41.4205 42.7706 42.5772 52.6247 52.0791 52.4547C61.5813 52.2845 66.089 44.9386 64.779 37.6657C63.469 30.3927 56.4106 22.6643 44.0229 24.226C31.6351 25.7876 26.5774 38.3042 28.8068 51.6802C31.0362 65.0564 47.0606 72.8066 59.6599 70.0183C72.2593 67.2299 84.8081 58.1085 84.8081 34.9822C84.8081 11.8558 64.779 -2.04534 40.8961 0.245633C17.0132 2.5366 2.18779 23.4166 3.13675 48.5043C4.08571 73.5921 27.891 87.2556 48.0208 87.9598C68.1507 88.6641 80.4911 77.0115 80.4911 77.0115C80.4911 77.0115 83.2664 74.5367 82.1782 72.6041C81.0903 70.6716 78.3621 73.0785 78.3621 73.0785Z" fill="white"/>
</g>
<defs>
<clipPath id="clip0_23_577">
<rect width="88" height="88" fill="white"/>
</clipPath>
</defs>
</svg>
