<svg width="127" height="101" viewBox="0 0 127 101" fill="none" xmlns="http://www.w3.org/2000/svg">
<path fill-rule="evenodd" clip-rule="evenodd" d="M98.0127 47.7112C98.0056 47.7013 98.0026 47.6889 98.0046 47.6767L106.107 0.432184C106.11 0.410431 106.13 0.394531 106.151 0.394531H108.716C108.736 0.394531 108.753 0.407355 108.759 0.426207L127.013 58.222C127.018 58.2398 127.012 58.2596 126.997 58.2713L113.538 68.7793C113.518 68.7949 113.489 68.791 113.474 68.7704L98.0127 47.7112ZM-0.248047 79.0308C-0.248047 79.0504 -0.235447 79.0678 -0.21682 79.074L27.527 88.1453C27.5404 88.1498 27.5553 88.1476 27.5669 88.1396L89.5809 45.3267C89.5913 45.3195 89.5982 45.3084 89.6 45.296L96.2501 0.674427C96.2543 0.647043 96.233 0.622437 96.2055 0.622437H41.2765C41.2628 0.622437 41.2502 0.62844 41.2415 0.638833L-0.237622 50.6771C-0.244361 50.6853 -0.248047 50.6955 -0.248047 50.7061V79.0308ZM39.088 90.4566L69.3976 100.385C69.4112 100.39 69.4263 100.387 69.438 100.379L105.524 74.4946C105.544 74.4804 105.549 74.4529 105.535 74.4326L92.0075 54.3023C91.9934 54.2812 91.9651 54.2758 91.9443 54.2902L39.088 90.4566Z" fill="white"/>
</svg>
