<svg width="135" height="118" viewBox="0 0 135 118" fill="none" xmlns="http://www.w3.org/2000/svg">
<path fill-rule="evenodd" clip-rule="evenodd" d="M0.0134765 59.1116C-0.00448364 59.081 -0.00449265 59.0431 0.0134524 59.0122L33.9596 1.01344C33.9773 0.983353 34.0097 0.964844 34.0445 0.964844H101.328C101.363 0.964844 101.395 0.983512 101.413 1.01386L134.987 59.0127C135.004 59.0431 135.004 59.0808 134.987 59.1111L101.413 117.045C101.395 117.075 101.363 117.094 101.328 117.094H34.0445C34.0097 117.094 33.9773 117.075 33.9596 117.045L0.0134765 59.1116ZM98.776 59.0293C98.776 76.2967 84.7779 90.2948 67.5105 90.2948C50.2432 90.2948 36.2451 76.2967 36.2451 59.0293C36.2451 41.7617 50.2432 27.7639 67.5105 27.7639C84.7779 27.7639 98.776 41.7617 98.776 59.0293Z" fill="white"/>
</svg>
