<svg width="83" height="127" viewBox="0 0 83 127" fill="none" xmlns="http://www.w3.org/2000/svg">
<path fill-rule="evenodd" clip-rule="evenodd" d="M82.7184 85.952C82.7184 108.619 64.2739 126.994 41.5213 126.994C18.7687 126.994 0.324219 108.619 0.324219 85.952C0.324219 63.9066 39.2929 3.36051 41.4301 0.0565075C41.4789 -0.0188363 41.564 -0.0188356 41.6126 0.0565083C43.7498 3.36051 82.7184 63.9066 82.7184 85.952ZM34.6539 113.836C13.7485 109.262 17.3258 86.1045 17.3258 86.1045C17.3258 86.1045 23.0344 100.084 36.8876 104.612C50.7405 109.14 67.4817 102.499 67.4817 102.499C67.4817 102.499 55.5593 118.41 34.6539 113.836Z" fill="white"/>
</svg>
